<svg xmlns="http://www.w3.org/2000/svg" width="654" height="889" viewBox="0 0 654 889">
  <g id="Group_61" data-name="Group 61" transform="translate(-9388 945)">
    <line id="Line_352" data-name="Line 352" x2="150" transform="translate(9639.5 -681.5)" fill="none" stroke="#707070" stroke-width="3"/>
    <g id="chevron-pointing-to-the-left" transform="translate(9796.096 -673.134) rotate(179)">
      <path id="Path_60" data-name="Path 60" d="M6.231,8.3l6.65-5.194a1.2,1.2,0,0,0,.512-.965,1.166,1.166,0,0,0-.493-.961L11.892.389A1.908,1.908,0,0,0,10.667,0,1.955,1.955,0,0,0,9.434.4L.512,7.355A1.2,1.2,0,0,0,0,8.32a1.167,1.167,0,0,0,.493.961l8.78,6.9a1.909,1.909,0,0,0,1.225.39,1.952,1.952,0,0,0,1.232-.4l1.026-.8a1.174,1.174,0,0,0,.02-1.926Z" transform="translate(0 0.001)" fill="#707070"/>
    </g>
    <g id="Rectangle_291" data-name="Rectangle 291" transform="translate(9470 -897)" fill="#fcfcfc" stroke="#707070" stroke-width="1">
      <rect width="485" height="127" stroke="none"/>
      <rect x="0.5" y="0.5" width="484" height="126" fill="none"/>
    </g>
    <text id="Contract_Formation:_Decision_Tree" data-name="Contract Formation: Decision Tree" transform="translate(9713 -926)" fill="#707070" font-size="18" font-family="SegoeUI-Bold, Segoe UI" font-weight="700"><tspan x="-143.811" y="0">Contract Formation: Decision Tree</tspan></text>
    <text id="DECISION" transform="translate(9677 -869)" fill="#707070" font-size="16" font-family="SegoeUI-Semibold, Segoe UI" font-weight="600"><tspan x="0" y="0">DECISION</tspan></text>
    <text id="Once_the_contract_has_been_fully_executed_will_the_contract_typically_only_used_for_reference_until_it_terminates_eg._Terms_Performance_Contracting_Parties_etc._" data-name="Once the contract has been fully executed, will the contract typically only used for reference until it terminates?(eg. Terms, Performance, Contracting Parties, etc.)" transform="translate(9485 -859)" fill="#707070" font-size="14" font-family="SegoeUI, Segoe UI"><tspan x="3.093" y="15">Once the contract has been fully executed, will the contract typically only </tspan><tspan x="111.969" y="34">used for reference until it terminates?</tspan><tspan x="75.523" y="53">(eg. Terms, Performance, Contracting Parties, etc.)</tspan></text>
    <line id="Line_353" data-name="Line 353" y2="88" transform="translate(9713.5 -769.5)" fill="none" stroke="#707070" stroke-width="3"/>
    <g id="chevron-pointing-to-the-left-2" data-name="chevron-pointing-to-the-left" transform="matrix(1, 0.017, -0.017, 1, 9633.704, -689.701)">
      <path id="Path_60-2" data-name="Path 60" d="M6.231,8.264l6.65,5.194a1.2,1.2,0,0,1,.512.965,1.166,1.166,0,0,1-.493.961l-1.01.795a1.908,1.908,0,0,1-1.224.389,1.955,1.955,0,0,1-1.233-.4L.512,9.213A1.2,1.2,0,0,1,0,8.248a1.167,1.167,0,0,1,.493-.961L9.272.39A1.909,1.909,0,0,1,10.5,0a1.952,1.952,0,0,1,1.232.4l1.026.8a1.174,1.174,0,0,1,.02,1.926Z" transform="translate(0 0)" fill="#707070"/>
    </g>
    <text id="Yes" transform="translate(9659 -706)" fill="#707070" font-size="14" font-family="SegoeUI, Segoe UI"><tspan x="0" y="15">Yes</tspan></text>
    <g id="Rectangle_292" data-name="Rectangle 292" transform="translate(9388 -743)" fill="#fcfcfc" stroke="#707070" stroke-width="1">
      <rect width="228" height="210" stroke="none"/>
      <rect x="0.5" y="0.5" width="227" height="209" fill="none"/>
    </g>
    <text id="STATIC_CONTRACT" data-name="STATIC CONTRACT" transform="translate(9434 -714)" fill="#707070" font-size="16" font-family="SegoeUI-Semibold, Segoe UI" font-weight="600"><tspan x="0" y="0">STATIC CONTRACT</tspan></text>
    <g id="Rectangle_293" data-name="Rectangle 293" transform="translate(9814 -743)" fill="#fcfcfc" stroke="#707070" stroke-width="1">
      <rect width="228" height="210" stroke="none"/>
      <rect x="0.5" y="0.5" width="227" height="209" fill="none"/>
    </g>
    <text id="DYNAMIC_CONTRACT" data-name="DYNAMIC CONTRACT" transform="translate(9848 -714)" fill="#707070" font-size="16" font-family="SegoeUI-Semibold, Segoe UI" font-weight="600"><tspan x="0" y="0">DYNAMIC CONTRACT</tspan></text>
    <text id="No" transform="translate(9749 -706)" fill="#707070" font-size="14" font-family="SegoeUI, Segoe UI"><tspan x="0" y="15">No</tspan></text>
    <text id="Non-Disclosure_Agreements_Bill_of_Sale_Terms_of_Service_Employment_Agreement_Non-Compete_Agreement_Lease_" data-name="Non-Disclosure Agreements
Bill of Sale
Terms of Service
Employment Agreement
Non-Compete Agreement
Lease
" transform="translate(9411 -678)" fill="#707070" font-size="14" font-family="SegoeUI, Segoe UI"><tspan x="0" y="15">Non-Disclosure Agreements</tspan><tspan x="0" y="34">Bill of Sale</tspan><tspan x="0" y="53">Terms of Service</tspan><tspan x="0" y="72">Employment Agreement</tspan><tspan x="0" y="91">Non-Compete Agreement</tspan><tspan x="0" y="110">Lease</tspan></text>
    <text id="Shareholder_Agreement_Trust_Deed_Unit_Trust_Membership_Agreement_Loyalty_Points_Program_Bond_Agreement_Ticketing_Agreement_" data-name="Shareholder Agreement
Trust Deed (Unit Trust)
Membership Agreement
Loyalty Points Program
Bond Agreement
Ticketing Agreement
" transform="translate(9834 -679)" fill="#707070" font-size="14" font-family="SegoeUI, Segoe UI"><tspan x="0" y="15">Shareholder Agreement</tspan><tspan x="0" y="34">Trust Deed (Unit Trust)</tspan><tspan x="0" y="53">Membership Agreement</tspan><tspan x="0" y="72">Loyalty Points Program</tspan><tspan x="0" y="91">Bond Agreement</tspan><tspan x="0" y="110">Ticketing Agreement</tspan></text>
    <text id="EXAMPLES" transform="translate(9825 -699)" fill="#707070" font-size="14" font-family="SegoeUI-Bold, Segoe UI" font-weight="700"><tspan x="0" y="15">EXAMPLES</tspan></text>
    <line id="Line_373" data-name="Line 373" y2="115" transform="translate(9827.5 -678.5)" fill="none" stroke="#707070" stroke-width="1"/>
    <text id="EXAMPLES-2" data-name="EXAMPLES" transform="translate(9401 -699)" fill="#707070" font-size="14" font-family="SegoeUI-Bold, Segoe UI" font-weight="700"><tspan x="0" y="15">EXAMPLES</tspan></text>
    <line id="Line_374" data-name="Line 374" y2="115" transform="translate(9403.5 -678.5)" fill="none" stroke="#707070" stroke-width="1"/>
    <g id="Rectangle_313" data-name="Rectangle 313" transform="translate(9460 -513)" fill="#fff" stroke="#cf730b" stroke-width="4">
      <rect width="446" height="457" stroke="none"/>
      <rect x="2" y="2" width="442" height="453" fill="none"/>
    </g>
    <text id="Note:" transform="translate(9476 -500)" fill="#707070" font-size="16" font-family="SegoeUI-Semibold, Segoe UI" font-weight="600"><tspan x="0" y="17">Note:</tspan></text>
    <text id="Dynamic_contracts_typically_undergo_regular_amendments_to_account_for_the_transfer_change_or_exercise_of_ownership_rights_duties_of_the_contracting_parties_as_well_as_other_associated_administrative_tasks._The_use_of_software_and_distributed_ledgers_prov" data-name="Dynamic contracts typically undergo regular amendments to account for the transfer, change or exercise of ownership rights/duties of the contracting parties, as well as other associated administrative tasks. The use of software and distributed ledgers prov" transform="translate(9476 -474)" fill="#707070" font-size="14" font-family="SegoeUI-Semibold, Segoe UI" font-weight="600"><tspan x="0" y="15">Dynamic contracts typically undergo regular amendments to </tspan><tspan x="0" y="34">account for the transfer, change or exercise of ownership rights/</tspan><tspan x="0" y="53">duties of the contracting parties, as well as other associated </tspan><tspan x="0" y="72">administrative tasks. The use of software and distributed ledgers </tspan><tspan x="0" y="91">provide an opportunity to improve the administration, </tspan><tspan x="0" y="110">monitoring and performance of these types of contracts. </tspan><tspan x="0" y="129"></tspan><tspan x="0" y="148">A smart contract is a dynamic contract that uses an autonomous </tspan><tspan x="0" y="167">agent to improve the utility of the contracting experience. </tspan><tspan x="0" y="186">The smart contract enforces the rules (T&amp;C’s) of the contract and </tspan><tspan x="0" y="205">allows for tools to issue, exchange, govern and enforce </tspan><tspan x="0" y="224">ownership rights and duties with respect to the T&amp;Cs and the </tspan><tspan x="0" y="243" xml:space="preserve">laws the contract is subject to.  The smart contract described in </tspan><tspan x="0" y="262">the Tokenized Protocol uses the Bitcoin ledger to store all </tspan><tspan x="0" y="281">records relevant to the contract.</tspan><tspan x="0" y="300"></tspan><tspan x="0" y="319">Tokens are used by smart contracts to manage the ownership </tspan><tspan x="0" y="338">rights (and duties) of a contract. The downside of smart </tspan><tspan x="0" y="357">contracts is the ongoing costs of operating the service, but these </tspan><tspan x="0" y="376">costs are much, much cheaper than alternative/traditional </tspan><tspan x="0" y="395">means.</tspan></text>
    <line id="Line_375" data-name="Line 375" x2="9" transform="translate(9906.5 -474.5)" fill="none" stroke="#cf730b" stroke-width="1" stroke-dasharray="3"/>
    <line id="Line_376" data-name="Line 376" y2="58" transform="translate(9915.5 -532.5)" fill="none" stroke="#cf730b" stroke-width="1" stroke-dasharray="3"/>
  </g>
</svg>
