<svg id="_028contract2" data-name="028contract2" xmlns="http://www.w3.org/2000/svg" width="87.621" height="97.356" viewBox="0 0 87.621 97.356">
  <path id="Path_175" data-name="Path 175" d="M1.623,97.356h74.64a1.623,1.623,0,0,0,1.623-1.623V53.546H74.64V94.111H3.245V3.245H58.414v14.6a1.623,1.623,0,0,0,1.623,1.623h14.6v1.623h3.245V17.849c0-.034-.018-.065-.02-.1a1.6,1.6,0,0,0-.084-.421c-.018-.052-.031-.1-.054-.151A1.612,1.612,0,0,0,77.4,16.7L61.177.475A1.641,1.641,0,0,0,60.7.151a1.637,1.637,0,0,0-.162-.056,1.671,1.671,0,0,0-.4-.082C60.108.02,60.073,0,60.036,0H1.623A1.623,1.623,0,0,0,0,1.623V95.733A1.623,1.623,0,0,0,1.623,97.356ZM61.659,5.54,72.345,16.226H61.659Zm0,0"/>
  <path id="Path_176" data-name="Path 176" d="M56,296H77.094v3.245H56Zm0,0" transform="translate(-44.642 -235.964)"/>
  <path id="Path_177" data-name="Path 177" d="M56,392H70.6v3.245H56Zm0,0" transform="translate(-44.642 -312.493)"/>
  <path id="Path_178" data-name="Path 178" d="M56,344H72.226v3.245H56Zm0,0" transform="translate(-44.642 -274.228)"/>
  <path id="Path_179" data-name="Path 179" d="M56,200H75.471v3.245H56Zm0,0" transform="translate(-44.642 -159.435)"/>
  <path id="Path_180" data-name="Path 180" d="M168,200h17.849v3.245H168Zm0,0" transform="translate(-133.925 -159.435)"/>
  <path id="Path_181" data-name="Path 181" d="M56,248H86.829v3.245H56Zm0,0" transform="translate(-44.642 -197.699)"/>
  <path id="Path_182" data-name="Path 182" d="M56,152H88.452v3.245H56Zm0,0" transform="translate(-44.642 -121.171)"/>
  <path id="Path_183" data-name="Path 183" d="M232,152h14.6v3.245H232Zm0,0" transform="translate(-184.945 -121.171)"/>
  <path id="Path_184" data-name="Path 184" d="M56,104H68.981v3.245H56Zm0,0" transform="translate(-44.642 -82.906)"/>
  <path id="Path_185" data-name="Path 185" d="M136,104h6.49v3.245H136Zm0,0" transform="translate(-108.416 -82.906)"/>
  <path id="Path_186" data-name="Path 186" d="M193.908,120a8.44,8.44,0,0,0-6.015,2.493L147.72,162.663a1.632,1.632,0,0,0-.427.753L144.048,176.4a1.623,1.623,0,0,0,1.967,1.969L159,175.12a1.623,1.623,0,0,0,.754-.427l6.015-6.015H181.32v-3.245H169.011l6.49-6.49h5.819V155.7h-2.572l21.176-21.176A8.507,8.507,0,0,0,193.908,120Zm-46.055,54.56,1.9-7.576,5.679,5.679Zm10.751-3.309-7.441-7.441,35.025-35.024,7.441,7.44Zm39.025-39.023-1.705,1.7-7.44-7.441,1.705-1.705a5.262,5.262,0,0,1,7.44,7.443Zm0,0" transform="translate(-114.793 -95.661)"/>
</svg>
