<svg id="_056bitcoin1" data-name="056bitcoin1" xmlns="http://www.w3.org/2000/svg" width="143.854" height="143.854" viewBox="0 0 143.854 143.854">
  <path id="Path_187" data-name="Path 187" d="M143.854,71.927A71.927,71.927,0,1,1,71.927,0,71.926,71.926,0,0,1,143.854,71.927Zm0,0" fill="#2668ed"/>
  <path id="Path_188" data-name="Path 188" d="M122.885,176.71A71.925,71.925,0,0,1,21.168,74.992Zm0,0" transform="translate(-0.097 -53.922)" fill="#1458e0"/>
  <path id="Path_189" data-name="Path 189" d="M211.237,140.954a17.838,17.838,0,0,0-7.273-30.829V96h-8.991v13.486h-8.991V96h-8.991v13.486H168v8.991h8.991v44.954H168v8.991h8.991v13.486h8.991V172.422h8.991v13.486h8.991V171.783a17.838,17.838,0,0,0,7.273-30.829Zm-11.769-22.477a8.991,8.991,0,0,1,0,17.982H185.982V118.477Zm0,44.954H185.982V145.45h13.486a8.991,8.991,0,0,1,0,17.982Zm0,0" transform="translate(-120.798 -69.027)" fill="#fff"/>
</svg>
