<svg id="_028contract2" data-name="028contract2" xmlns="http://www.w3.org/2000/svg" width="56.104" height="62.337" viewBox="0 0 56.104 62.337">
  <path id="Path_175" data-name="Path 175" d="M1.039,62.337H48.831A1.039,1.039,0,0,0,49.87,61.3V34.286H47.792V60.26H2.078V2.078H37.4v9.351a1.039,1.039,0,0,0,1.039,1.039h9.351v1.039H49.87V11.429c0-.022-.012-.042-.013-.063a1.024,1.024,0,0,0-.054-.27c-.012-.033-.02-.064-.035-.1a1.032,1.032,0,0,0-.207-.3L39.172.3A1.051,1.051,0,0,0,38.87.1a1.048,1.048,0,0,0-.1-.036,1.07,1.07,0,0,0-.259-.052c-.02,0-.042-.008-.065-.008H1.039A1.039,1.039,0,0,0,0,1.039V61.3A1.039,1.039,0,0,0,1.039,62.337ZM39.48,3.547l6.843,6.843H39.48Zm0,0"/>
  <path id="Path_176" data-name="Path 176" d="M56,296H69.506v2.078H56Zm0,0" transform="translate(-48.727 -257.559)"/>
  <path id="Path_177" data-name="Path 177" d="M56,392h9.351v2.078H56Zm0,0" transform="translate(-48.727 -341.091)"/>
  <path id="Path_178" data-name="Path 178" d="M56,344H66.39v2.078H56Zm0,0" transform="translate(-48.727 -299.325)"/>
  <path id="Path_179" data-name="Path 179" d="M56,200H68.467v2.078H56Zm0,0" transform="translate(-48.727 -174.026)"/>
  <path id="Path_180" data-name="Path 180" d="M168,200h11.429v2.078H168Zm0,0" transform="translate(-146.182 -174.026)"/>
  <path id="Path_181" data-name="Path 181" d="M56,248H75.74v2.078H56Zm0,0" transform="translate(-48.727 -215.792)"/>
  <path id="Path_182" data-name="Path 182" d="M56,152H76.779v2.078H56Zm0,0" transform="translate(-48.727 -132.26)"/>
  <path id="Path_183" data-name="Path 183" d="M232,152h9.351v2.078H232Zm0,0" transform="translate(-201.87 -132.26)"/>
  <path id="Path_184" data-name="Path 184" d="M56,104h8.312v2.078H56Zm0,0" transform="translate(-48.727 -90.494)"/>
  <path id="Path_185" data-name="Path 185" d="M136,104h4.156v2.078H136Zm0,0" transform="translate(-118.338 -90.494)"/>
  <path id="Path_186" data-name="Path 186" d="M175.956,120a5.4,5.4,0,0,0-3.851,1.6l-25.722,25.721a1.045,1.045,0,0,0-.273.482l-2.078,8.312a1.039,1.039,0,0,0,1.26,1.261l8.312-2.078a1.039,1.039,0,0,0,.483-.273l3.851-3.851H167.9v-2.078h-7.881l4.156-4.156H167.9v-2.078h-1.647L179.808,129.3a5.447,5.447,0,0,0-3.852-9.3Zm-29.49,34.935,1.213-4.851,3.636,3.636Zm6.884-2.118-4.765-4.765,22.427-22.426,4.765,4.764Zm24.988-24.987-1.092,1.091-4.764-4.765,1.092-1.092a3.369,3.369,0,0,1,4.764,4.766Zm0,0" transform="translate(-125.299 -104.415)"/>
</svg>
