<svg xmlns="http://www.w3.org/2000/svg" width="1186.747" height="2096" viewBox="0 0 1186.747 2096">
  <g id="atomic-swap-process-order-of-operations" transform="translate(834.247 9325)">
    <g id="Rectangle_105" data-name="Rectangle 105" transform="translate(-816 -9325)" fill="#fcfcfc" stroke="#707070" stroke-width="1">
      <rect width="536" height="149" stroke="none"/>
      <rect x="0.5" y="0.5" width="535" height="148" fill="none"/>
    </g>
    <text id="Message_Transaction_Offer_" data-name="Message Transaction (Offer)" transform="translate(-801 -9290)" fill="#707070" font-size="16" font-family="SegoeUI-Semibold, Segoe UI" font-weight="600"><tspan x="0" y="0">Message Transaction (Offer)</tspan></text>
    <line id="Line_168" data-name="Line 168" y2="70" transform="translate(-613.5 -9264.5)" fill="none" stroke="#707070" stroke-width="1"/>
    <text id="INPUTS" transform="translate(-801 -9263)" fill="#707070" font-size="14" font-family="SegoeUI-Bold, Segoe UI" font-weight="700"><tspan x="0" y="15">INPUTS</tspan></text>
    <text id="OUTPUTS_" data-name="OUTPUTS " transform="translate(-598 -9263)" fill="#707070" font-size="14" font-family="SegoeUI-Bold, Segoe UI" font-weight="700"><tspan x="0" y="15">OUTPUTS </tspan></text>
    <text id="_0:_Participant_1" data-name="0: Participant 1" transform="translate(-801 -9243)" fill="#707070" font-size="14" font-family="SegoeUI, Segoe UI"><tspan x="0" y="15">0: </tspan><tspan y="15" fill="#ef1818">Participant 1</tspan></text>
    <text id="_0:_Participant_2_N:_Message_Action" data-name="0: Participant 2
N: Message Action" transform="translate(-598 -9243)" fill="#707070" font-size="14" font-family="SegoeUI, Segoe UI"><tspan x="0" y="15">0: </tspan><tspan y="15" fill="#7b1adb">Participant 2</tspan><tspan x="0" y="34">N: Message Action</tspan></text>
    <text id="VALUE" transform="translate(-429 -9263)" fill="#707070" font-size="14" font-family="SegoeUI-Bold, Segoe UI" font-weight="700"><tspan x="0" y="15">VALUE</tspan></text>
    <text id="Dust_N_A_Not_Shown:_Change" data-name="Dust
N/A
Not Shown: Change" transform="translate(-429 -9243)" fill="#707070" font-size="14" font-family="SegoeUI, Segoe UI"><tspan x="0" y="15">Dust</tspan><tspan x="0" y="34">N/A</tspan><tspan x="0" y="53">Not Shown: Change</tspan></text>
    <g id="Rectangle_106" data-name="Rectangle 106" transform="translate(-583 -9223)" fill="none" stroke="#707070" stroke-width="1" stroke-dasharray="3">
      <rect width="103" height="18" stroke="none"/>
      <rect x="0.5" y="0.5" width="102" height="17" fill="none"/>
    </g>
    <line id="Line_169" data-name="Line 169" y2="49" transform="translate(-543.5 -9204.5)" fill="none" stroke="#707070" stroke-width="1" stroke-dasharray="3"/>
    <g id="Rectangle_107" data-name="Rectangle 107" transform="translate(-816 -9156)" fill="#fcfcfc" stroke="#707070" stroke-width="1" stroke-dasharray="3">
      <rect width="536" height="166.866" stroke="none"/>
      <rect x="0.5" y="0.5" width="535" height="165.866" fill="none"/>
    </g>
    <text id="Message_Action_Payload" data-name="Message Action Payload" transform="translate(-801 -9116)" fill="#707070" font-size="16" font-family="SegoeUI-Semibold, Segoe UI" font-weight="600"><tspan x="0" y="0">Message Action Payload</tspan></text>
    <text id="MESSAGE_TYPE:_1001_-_Offer" data-name="MESSAGE TYPE: 1001 - Offer" transform="translate(-801 -9095)" fill="#707070" font-size="12" font-family="SegoeUI-Bold, Segoe UI" font-weight="700"><tspan x="0" y="13">MESSAGE TYPE: 1001 - Offer</tspan></text>
    <text id="Message_Receivers" data-name="Message Receivers" transform="translate(-784 -9071)" fill="#707070" font-size="14" font-family="SegoeUI-Bold, Segoe UI" font-weight="700"><tspan x="0" y="15">Message Receivers</tspan></text>
    <text id="Participant_2" data-name="Participant 2" transform="translate(-784 -9036)" fill="#7b1adb" font-size="14" font-family="SegoeUI, Segoe UI"><tspan x="0" y="0">Participant 2</tspan></text>
    <line id="Line_171" data-name="Line 171" y2="37" transform="translate(-795.5 -9070.5)" fill="none" stroke="#707070" stroke-width="1"/>
    <text id="MESSAGE_PAYLOAD:_Transfer_Template" data-name="MESSAGE PAYLOAD: Transfer Template" transform="translate(-801 -9026)" fill="#707070" font-size="12" font-family="SegoeUI-Bold, Segoe UI" font-weight="700"><tspan x="0" y="13">MESSAGE PAYLOAD: Transfer Template</tspan></text>
    <g id="Rectangle_108" data-name="Rectangle 108" transform="translate(-210 -9325)" fill="#fcfcfc" stroke="#707070" stroke-width="1">
      <rect width="536" height="149" stroke="none"/>
      <rect x="0.5" y="0.5" width="535" height="148" fill="none"/>
    </g>
    <text id="Message_Transaction_Signature_Request_" data-name="Message Transaction (Signature Request)" transform="translate(-195 -9290)" fill="#707070" font-size="16" font-family="SegoeUI-Semibold, Segoe UI" font-weight="600"><tspan x="0" y="0">Message Transaction (Signature Request)</tspan></text>
    <line id="Line_172" data-name="Line 172" y2="70" transform="translate(-7.5 -9264.5)" fill="none" stroke="#707070" stroke-width="1"/>
    <text id="INPUTS-2" data-name="INPUTS" transform="translate(-195 -9263)" fill="#707070" font-size="14" font-family="SegoeUI-Bold, Segoe UI" font-weight="700"><tspan x="0" y="15">INPUTS</tspan></text>
    <text id="OUTPUTS_2" data-name="OUTPUTS " transform="translate(8 -9263)" fill="#707070" font-size="14" font-family="SegoeUI-Bold, Segoe UI" font-weight="700"><tspan x="0" y="15">OUTPUTS </tspan></text>
    <text id="_0:_Participant_2" data-name="0: Participant 2" transform="translate(-195 -9243)" fill="#707070" font-size="14" font-family="SegoeUI, Segoe UI"><tspan x="0" y="15">0: </tspan><tspan y="15" fill="#7b1adb">Participant 2</tspan></text>
    <text id="_0:_Participant_1_N:_Message_Action" data-name="0: Participant 1
N: Message Action" transform="translate(8 -9243)" fill="#707070" font-size="14" font-family="SegoeUI, Segoe UI"><tspan x="0" y="15">0: </tspan><tspan y="15" fill="#ef1818">Participant 1</tspan><tspan x="0" y="34">N: Message Action</tspan></text>
    <text id="VALUE-2" data-name="VALUE" transform="translate(177 -9263)" fill="#707070" font-size="14" font-family="SegoeUI-Bold, Segoe UI" font-weight="700"><tspan x="0" y="15">VALUE</tspan></text>
    <text id="Dust_N_A_Not_Shown:_Change-2" data-name="Dust
N/A
Not Shown: Change" transform="translate(177 -9243)" fill="#707070" font-size="14" font-family="SegoeUI, Segoe UI"><tspan x="0" y="15">Dust</tspan><tspan x="0" y="34">N/A</tspan><tspan x="0" y="53">Not Shown: Change</tspan></text>
    <g id="Rectangle_109" data-name="Rectangle 109" transform="translate(23 -9223)" fill="none" stroke="#707070" stroke-width="1" stroke-dasharray="3">
      <rect width="103" height="18" stroke="none"/>
      <rect x="0.5" y="0.5" width="102" height="17" fill="none"/>
    </g>
    <line id="Line_173" data-name="Line 173" y2="49" transform="translate(62.5 -9204.5)" fill="none" stroke="#707070" stroke-width="1" stroke-dasharray="3"/>
    <g id="Rectangle_110" data-name="Rectangle 110" transform="translate(-210 -9156)" fill="#fcfcfc" stroke="#707070" stroke-width="1" stroke-dasharray="3">
      <rect width="536" height="166.866" stroke="none"/>
      <rect x="0.5" y="0.5" width="535" height="165.866" fill="none"/>
    </g>
    <text id="Message_Action_Payload-2" data-name="Message Action Payload" transform="translate(-195 -9116)" fill="#707070" font-size="16" font-family="SegoeUI-Semibold, Segoe UI" font-weight="600"><tspan x="0" y="0">Message Action Payload</tspan></text>
    <text id="MESSAGE_TYPE:_1002_-_Signature_Request" data-name="MESSAGE TYPE: 1002 - Signature Request" transform="translate(-195 -9095)" fill="#707070" font-size="12" font-family="SegoeUI-Bold, Segoe UI" font-weight="700"><tspan x="0" y="13">MESSAGE TYPE: 1002 - Signature Request</tspan></text>
    <text id="Message_Receivers-2" data-name="Message Receivers" transform="translate(-178 -9071)" fill="#707070" font-size="14" font-family="SegoeUI-Bold, Segoe UI" font-weight="700"><tspan x="0" y="15">Message Receivers</tspan></text>
    <text id="Participant_1" data-name="Participant 1" transform="translate(-178 -9036)" fill="#ef1818" font-size="14" font-family="SegoeUI, Segoe UI"><tspan x="0" y="0">Participant 1</tspan></text>
    <line id="Line_174" data-name="Line 174" y2="37" transform="translate(-189.5 -9070.5)" fill="none" stroke="#707070" stroke-width="1"/>
    <text id="MESSAGE_PAYLOAD:_Transfer_Action" data-name="MESSAGE PAYLOAD: Transfer Action" transform="translate(-195 -9026)" fill="#707070" font-size="12" font-family="SegoeUI-Bold, Segoe UI" font-weight="700"><tspan x="0" y="13">MESSAGE PAYLOAD: Transfer Action</tspan></text>
    <line id="Line_189" data-name="Line 189" x2="38" transform="translate(-265.5 -8060.5)" fill="none" stroke="#707070" stroke-width="2"/>
    <g id="Rectangle_154" data-name="Rectangle 154" transform="translate(-590 -8848)" fill="#fcfcfc" stroke="#707070" stroke-width="1">
      <rect width="655" height="225" stroke="none"/>
      <rect x="0.5" y="0.5" width="654" height="224" fill="none"/>
    </g>
    <text id="Request_Transaction_Transfer_" data-name="Request Transaction (Transfer)" transform="translate(-578 -8815)" fill="#707070" font-size="16" font-family="SegoeUI-Semibold, Segoe UI" font-weight="600"><tspan x="0" y="0">Request Transaction (Transfer)</tspan></text>
    <line id="Line_191" data-name="Line 191" y2="144" transform="translate(-389.5 -8787.5)" fill="none" stroke="#707070" stroke-width="1"/>
    <text id="INPUTS-3" data-name="INPUTS" transform="translate(-577 -8786)" fill="#707070" font-size="14" font-family="SegoeUI-Bold, Segoe UI" font-weight="700"><tspan x="0" y="15">INPUTS</tspan></text>
    <text id="OUTPUTS_3" data-name="OUTPUTS " transform="translate(-374 -8786)" fill="#707070" font-size="14" font-family="SegoeUI-Bold, Segoe UI" font-weight="700"><tspan x="0" y="15">OUTPUTS </tspan></text>
    <text id="_0:_Participant_1_1_1:_Participant_2_1_" data-name="0: Participant 1 (1)
1: Participant 2 (1)" transform="translate(-577 -8766)" fill="#707070" font-size="14" font-family="SegoeUI, Segoe UI"><tspan x="0" y="15">0: </tspan><tspan y="15" fill="#ef1818">Participant 1 (1)</tspan><tspan x="0" y="34">1: </tspan><tspan y="34" fill="#7b1adb">Participant 2 (1)</tspan></text>
    <text id="_0:_Smart_Contract_1_1:_Smart_Contract_2_2:_Participant_1_2_3:_Participant_2_2_N:_Transfer_Action" data-name="0: Smart Contract 1
1: Smart Contract 2
2: Participant 1 (2)
3: Participant 2 (2)
N: Transfer Action" transform="translate(-374 -8766)" fill="#707070" font-size="14" font-family="SegoeUI, Segoe UI"><tspan x="0" y="15">0: Smart Contract 1</tspan><tspan x="0" y="34">1: Smart Contract 2</tspan><tspan x="0" y="53">2: </tspan><tspan y="53" fill="#ef1818">Participant 1 (2)</tspan><tspan x="0" y="72">3: </tspan><tspan y="72" fill="#7b1adb">Participant 2 (2)</tspan><tspan x="0" y="91">N: Transfer Action</tspan></text>
    <text id="VALUE-3" data-name="VALUE" transform="translate(-181 -8786)" fill="#707070" font-size="14" font-family="SegoeUI-Bold, Segoe UI" font-weight="700"><tspan x="0" y="15">VALUE</tspan></text>
    <g id="Rectangle_155" data-name="Rectangle 155" transform="translate(-446 -8603)" fill="#fcfcfc" stroke="#707070" stroke-width="1" stroke-dasharray="3">
      <rect width="339.499" height="302" stroke="none"/>
      <rect x="0.5" y="0.5" width="338.499" height="301" fill="none"/>
    </g>
    <text id="Transfer_Action_Payload" data-name="Transfer Action Payload" transform="translate(-435 -8570)" fill="#707070" font-size="16" font-family="SegoeUI-Semibold, Segoe UI" font-weight="600"><tspan x="0" y="0">Transfer Action Payload</tspan></text>
    <text id="Senders" transform="translate(-420 -8533)" fill="#707070" font-size="14" font-family="SegoeUI-Bold, Segoe UI" font-weight="700"><tspan x="0" y="15">Senders</tspan></text>
    <text id="Participant_1_1_:_300_tokens" data-name="Participant 1 (1): 300 tokens" transform="translate(-420 -8498)" fill="#ef1818" font-size="14" font-family="SegoeUI, Segoe UI"><tspan x="0" y="0">Participant 1 (1)</tspan><tspan y="0" fill="#707070">: 300 tokens</tspan></text>
    <text id="Receivers" transform="translate(-420 -8487)" fill="#707070" font-size="14" font-family="SegoeUI-Bold, Segoe UI" font-weight="700"><tspan x="0" y="15">Receivers</tspan></text>
    <text id="Participant_2_2_:_300_tokens" data-name="Participant 2 (2): 300 tokens" transform="translate(-420 -8451)" fill="#7b1adb" font-size="14" font-family="SegoeUI, Segoe UI"><tspan x="0" y="0">Participant 2 (2)</tspan><tspan y="0" fill="#707070">: 300 tokens</tspan></text>
    <text id="ASSETID_1_:_SHC1BvBMSEYstWetqTFn5Au4m4GFgJ..." data-name="ASSETID(1): SHC1BvBMSEYstWetqTFn5Au4m4GFgJ..." transform="translate(-431 -8552)" fill="#707070" font-size="12" font-family="SegoeUI-Bold, Segoe UI" font-weight="700"><tspan x="0" y="13">ASSETID(1): SHC1BvBMSEYstWetqTFn5Au4m4GFgJ...</tspan></text>
    <line id="Line_192" data-name="Line 192" y2="84" transform="translate(-429.5 -8530.5)" fill="none" stroke="#707070" stroke-width="1"/>
    <text id="Response_Costs_Contract_Fees_Dust_Dust_and_or_Change_Token_and_BSV_Dust_and_or_Change_Token_and_BSV_0" data-name="Response Costs + Contract Fees
Dust
Dust and/or Change (Token and BSV)
Dust and/or Change (Token and BSV)
0" transform="translate(-181 -8766)" fill="#707070" font-size="14" font-family="SegoeUI, Segoe UI"><tspan x="0" y="15">Response Costs + Contract Fees</tspan><tspan x="0" y="34">Dust</tspan><tspan x="0" y="53">Dust and/or Change (Token and BSV)</tspan><tspan x="0" y="72">Dust and/or Change (Token and BSV)</tspan><tspan x="0" y="91">0</tspan></text>
    <g id="Rectangle_156" data-name="Rectangle 156" transform="translate(-358 -8689)" fill="none" stroke="#707070" stroke-width="1" stroke-dasharray="3">
      <rect width="98" height="18" stroke="none"/>
      <rect x="0.5" y="0.5" width="97" height="17" fill="none"/>
    </g>
    <line id="Line_193" data-name="Line 193" y2="66" transform="translate(-311.5 -8670.5)" fill="none" stroke="#707070" stroke-width="1" stroke-dasharray="3"/>
    <text id="Senders-2" data-name="Senders" transform="translate(-420 -8413)" fill="#707070" font-size="14" font-family="SegoeUI-Bold, Segoe UI" font-weight="700"><tspan x="0" y="15">Senders</tspan></text>
    <text id="Participant_2_1_:_100_tokens" data-name="Participant 2 (1): 100 tokens" transform="translate(-420 -8378)" fill="#7b1adb" font-size="14" font-family="SegoeUI, Segoe UI"><tspan x="0" y="0">Participant 2 (1)</tspan><tspan y="0" fill="#707070">: 100 tokens</tspan></text>
    <text id="Receivers-2" data-name="Receivers" transform="translate(-420 -8367)" fill="#707070" font-size="14" font-family="SegoeUI-Bold, Segoe UI" font-weight="700"><tspan x="0" y="15">Receivers</tspan></text>
    <text id="Participant_1_2_:_100_tokens" data-name="Participant 1 (2): 100 tokens" transform="translate(-420 -8331)" fill="#ef1818" font-size="14" font-family="SegoeUI, Segoe UI"><tspan x="0" y="0">Participant 1 (2)</tspan><tspan y="0" fill="#707070">: 100 tokens</tspan></text>
    <text id="ASSETID_2_:_SHP3Bv3nmMkjknqTFn5Au4mFg7xJ..." data-name="ASSETID(2): SHP3Bv3nmMkjknqTFn5Au4mFg7xJ..." transform="translate(-431 -8432)" fill="#707070" font-size="12" font-family="SegoeUI-Bold, Segoe UI" font-weight="700"><tspan x="0" y="13">ASSETID(2): SHP3Bv3nmMkjknqTFn5Au4mFg7xJ...</tspan></text>
    <line id="Line_194" data-name="Line 194" y2="84" transform="translate(-429.5 -8410.5)" fill="none" stroke="#707070" stroke-width="1"/>
    <g id="Group_109" data-name="Group 109" transform="translate(551 -3)">
      <g id="Rectangle_160" data-name="Rectangle 160" transform="translate(-763.934 -8146)" fill="#fcfcfc" stroke="#707070" stroke-width="1">
        <rect width="449.597" height="149" stroke="none"/>
        <rect x="0.5" y="0.5" width="448.597" height="148" fill="none"/>
      </g>
      <text id="Message_Transaction_Signature_Request_2" data-name="Message Transaction (Signature Request)" transform="translate(-742 -8111)" fill="#707070" font-size="16" font-family="SegoeUI-Semibold, Segoe UI" font-weight="600"><tspan x="0" y="0">Message Transaction (Signature Request)</tspan></text>
      <line id="Line_198" data-name="Line 198" y2="70" transform="translate(-612.5 -8085.5)" fill="none" stroke="#707070" stroke-width="1"/>
      <text id="INPUTS-4" data-name="INPUTS" transform="translate(-742 -8084)" fill="#707070" font-size="14" font-family="SegoeUI-Bold, Segoe UI" font-weight="700"><tspan x="0" y="15">INPUTS</tspan></text>
      <text id="OUTPUTS_4" data-name="OUTPUTS " transform="translate(-597 -8084)" fill="#707070" font-size="14" font-family="SegoeUI-Bold, Segoe UI" font-weight="700"><tspan x="0" y="15">OUTPUTS </tspan></text>
      <text id="_0:_Smart_Contract_2" data-name="0: Smart Contract 2" transform="translate(-742 -8064)" fill="#707070" font-size="14" font-family="SegoeUI, Segoe UI"><tspan x="0" y="15">0: Smart Contract 2</tspan></text>
      <text id="_0:_Smart_Contract_1_N:_Message_Action" data-name="0: Smart Contract 1
N: Message Action" transform="translate(-597 -8064)" fill="#707070" font-size="14" font-family="SegoeUI, Segoe UI"><tspan x="0" y="15">0: Smart Contract 1</tspan><tspan y="15" fill="#7b1adb"></tspan><tspan x="0" y="34">N: Message Action</tspan></text>
      <text id="VALUE-4" data-name="VALUE" transform="translate(-452 -8084)" fill="#707070" font-size="14" font-family="SegoeUI-Bold, Segoe UI" font-weight="700"><tspan x="0" y="15">VALUE</tspan></text>
      <text id="Dust_N_A_Not_Shown:_Change-3" data-name="Dust
N/A
Not Shown: Change" transform="translate(-452 -8064)" fill="#707070" font-size="14" font-family="SegoeUI, Segoe UI"><tspan x="0" y="15">Dust</tspan><tspan x="0" y="34">N/A</tspan><tspan x="0" y="53">Not Shown: Change</tspan></text>
      <g id="Rectangle_161" data-name="Rectangle 161" transform="translate(-582 -8044)" fill="none" stroke="#707070" stroke-width="1" stroke-dasharray="3">
        <rect width="103" height="18" stroke="none"/>
        <rect x="0.5" y="0.5" width="102" height="17" fill="none"/>
      </g>
      <line id="Line_199" data-name="Line 199" y2="49" transform="translate(-542.5 -8025.5)" fill="none" stroke="#707070" stroke-width="1" stroke-dasharray="3"/>
      <g id="Rectangle_162" data-name="Rectangle 162" transform="translate(-763.934 -7977)" fill="#fcfcfc" stroke="#707070" stroke-width="1" stroke-dasharray="3">
        <rect width="449.597" height="166.866" stroke="none"/>
        <rect x="0.5" y="0.5" width="448.597" height="165.866" fill="none"/>
      </g>
      <text id="Message_Action_Payload-3" data-name="Message Action Payload" transform="translate(-742 -7937)" fill="#707070" font-size="16" font-family="SegoeUI-Semibold, Segoe UI" font-weight="600"><tspan x="0" y="0">Message Action Payload</tspan></text>
      <text id="MESSAGE_TYPE:_1002_-_Signature_Request-2" data-name="MESSAGE TYPE: 1002 - Signature Request" transform="translate(-742 -7916)" fill="#707070" font-size="12" font-family="SegoeUI-Bold, Segoe UI" font-weight="700"><tspan x="0" y="13">MESSAGE TYPE: 1002 - Signature Request</tspan></text>
      <text id="Message_Receivers-3" data-name="Message Receivers" transform="translate(-725 -7892)" fill="#707070" font-size="14" font-family="SegoeUI-Bold, Segoe UI" font-weight="700"><tspan x="0" y="15">Message Receivers</tspan></text>
      <text id="Smart_Contract_1" data-name="Smart Contract 1" transform="translate(-725 -7857)" fill="#707070" font-size="14" font-family="SegoeUI, Segoe UI"><tspan x="0" y="0">Smart Contract 1</tspan></text>
      <line id="Line_200" data-name="Line 200" y2="37" transform="translate(-736.5 -7891.5)" fill="none" stroke="#707070" stroke-width="1"/>
      <text id="MESSAGE_PAYLOAD:_Settlement_Action" data-name="MESSAGE PAYLOAD: Settlement Action" transform="translate(-742 -7847)" fill="#707070" font-size="12" font-family="SegoeUI-Bold, Segoe UI" font-weight="700"><tspan x="0" y="13">MESSAGE PAYLOAD: Settlement Action</tspan></text>
    </g>
    <g id="Rectangle_163" data-name="Rectangle 163" transform="translate(-97 -8507)" fill="#fff" stroke="#cf730b" stroke-width="4">
      <rect width="199" height="111" stroke="none"/>
      <rect x="2" y="2" width="195" height="107" fill="none"/>
    </g>
    <text id="Note:" transform="translate(-81 -8501)" fill="#707070" font-size="16" font-family="SegoeUI-Semibold, Segoe UI" font-weight="600"><tspan x="0" y="17">Note:</tspan></text>
    <text id="Exchange:_100_tokens_for_300_tokens" data-name="Exchange: 100 tokens for 300 tokens" transform="translate(-81 -8470)" fill="#707070" font-size="14" font-family="SegoeUI-Semibold, Segoe UI" font-weight="600"><tspan x="0" y="15">Exchange: </tspan><tspan x="0" y="34">100 tokens for 300 tokens</tspan></text>
    <line id="Line_201" data-name="Line 201" x2="128" transform="translate(-237 -8456.5)" fill="none" stroke="#cf730b" stroke-width="1" stroke-dasharray="3"/>
    <line id="Line_202" data-name="Line 202" x2="164.5" transform="translate(-237 -8331.5)" fill="none" stroke="#cf730b" stroke-width="1" stroke-dasharray="3"/>
    <line id="Line_203" data-name="Line 203" y2="68" transform="translate(-72.5 -8399.5)" fill="none" stroke="#cf730b" stroke-width="1" stroke-dasharray="3"/>
    <g id="Rectangle_164" data-name="Rectangle 164" transform="translate(-319 -8344)" fill="none" stroke="#cf730b" stroke-width="1" stroke-dasharray="3">
      <rect width="83" height="18" stroke="none"/>
      <rect x="0.5" y="0.5" width="82" height="17" fill="none"/>
    </g>
    <g id="Rectangle_165" data-name="Rectangle 165" transform="translate(-320 -8465)" fill="none" stroke="#cf730b" stroke-width="1" stroke-dasharray="3">
      <rect width="83" height="18" stroke="none"/>
      <rect x="0.5" y="0.5" width="82" height="17" fill="none"/>
    </g>
    <g id="Group_108" data-name="Group 108" transform="translate(-345 431)">
      <g id="Rectangle_166" data-name="Rectangle 166" transform="translate(-208 -8148)" fill="#fcfcfc" stroke="#707070" stroke-width="1">
        <rect width="587" height="205" stroke="none"/>
        <rect x="0.5" y="0.5" width="586" height="204" fill="none"/>
      </g>
      <line id="Line_205" data-name="Line 205" y2="124" transform="translate(-7.5 -8092.5)" fill="none" stroke="#707070" stroke-width="1"/>
      <text id="INPUTS-5" data-name="INPUTS" transform="translate(-195 -8091)" fill="#707070" font-size="14" font-family="SegoeUI-Bold, Segoe UI" font-weight="700"><tspan x="0" y="15">INPUTS</tspan></text>
      <text id="OUTPUTS_5" data-name="OUTPUTS " transform="translate(8 -8091)" fill="#707070" font-size="14" font-family="SegoeUI-Bold, Segoe UI" font-weight="700"><tspan x="0" y="15">OUTPUTS </tspan></text>
      <text id="_0:_Smart_Contract_1_1:_Smart_Contract_2_" data-name="0: Smart Contract 1
1: Smart Contract 2
" transform="translate(-195 -8071)" fill="#707070" font-size="14" font-family="SegoeUI, Segoe UI"><tspan x="0" y="15">0: Smart Contract 1</tspan><tspan x="0" y="34">1: Smart Contract 2</tspan><tspan x="0" y="53"></tspan></text>
      <text id="_0:_Participant_1_1_1:_Participant_2_3_2:_Participant_2_1_3:_Participant_1_3_3:_Contract_Operator_4:_Settlement_Action" data-name="0: Participant 1 (1)
1: Participant 2 (3)
2: Participant 2 (1)
3: Participant 1 (3)
3: Contract Operator
4: Settlement Action" transform="translate(8 -8071)" fill="#707070" font-size="14" font-family="SegoeUI, Segoe UI"><tspan x="0" y="15">0: </tspan><tspan y="15" fill="#ef1818">Participant 1 (1)</tspan><tspan x="0" y="34">1: </tspan><tspan y="34" fill="#7b1adb">Participant 2 (3)</tspan><tspan x="0" y="53">2: </tspan><tspan y="53" fill="#7b1adb">Participant 2 (1)</tspan><tspan x="0" y="72">3: </tspan><tspan y="72" fill="#ef1818">Participant 1 (3)</tspan><tspan x="0" y="91">3: Contract Operator</tspan><tspan x="0" y="110">4: Settlement Action</tspan></text>
      <text id="VALUE-5" data-name="VALUE" transform="translate(181 -8091)" fill="#707070" font-size="14" font-family="SegoeUI-Bold, Segoe UI" font-weight="700"><tspan x="0" y="15">VALUE</tspan></text>
      <text id="Dust_Dust_Dust_Dust_Contract_Fees_Optional_N_A" data-name="Dust
Dust
Dust
Dust
Contract Fees (Optional)
N/A" transform="translate(181 -8071)" fill="#707070" font-size="14" font-family="SegoeUI, Segoe UI"><tspan x="0" y="15">Dust</tspan><tspan x="0" y="34">Dust</tspan><tspan x="0" y="53">Dust</tspan><tspan x="0" y="72">Dust</tspan><tspan x="0" y="91">Contract Fees (Optional)</tspan><tspan x="0" y="110">N/A</tspan></text>
      <g id="Rectangle_167" data-name="Rectangle 167" transform="translate(-85 -7921)" fill="#fcfcfc" stroke="#707070" stroke-width="1" stroke-dasharray="3">
        <rect width="331.499" height="261" stroke="none"/>
        <rect x="0.5" y="0.5" width="330.499" height="260" fill="none"/>
      </g>
      <text id="Settlement_Action_Payload" data-name="Settlement Action Payload" transform="translate(-73 -7886)" fill="#707070" font-size="16" font-family="SegoeUI-Semibold, Segoe UI" font-weight="600"><tspan x="0" y="0">Settlement Action Payload</tspan></text>
      <text id="Response_Transaction_Settlement_" data-name="Response Transaction (Settlement)" transform="translate(-196 -8115)" fill="#707070" font-size="16" font-family="SegoeUI-Semibold, Segoe UI" font-weight="600"><tspan x="0" y="0">Response Transaction (Settlement)</tspan></text>
      <text id="Settlements" transform="translate(-60 -7848)" fill="#707070" font-size="14" font-family="SegoeUI-Bold, Segoe UI" font-weight="700"><tspan x="0" y="15">Settlements</tspan></text>
      <text id="Participant_1_1_:_0_shares" data-name="Participant 1 (1): 0 shares" transform="translate(-60 -7813)" fill="#ef1818" font-size="14" font-family="SegoeUI, Segoe UI"><tspan x="0" y="0">Participant 1 (1)</tspan><tspan y="0" fill="#707070">: 0 shares</tspan></text>
      <text id="Participant_2_3_:_300_shares" data-name="Participant 2 (3): 300 shares" transform="translate(-60 -7792)" fill="#7b1adb" font-size="14" font-family="SegoeUI, Segoe UI"><tspan x="0" y="0">Participant 2 (3)</tspan><tspan y="0" fill="#707070">: 300 shares</tspan></text>
      <line id="Line_206" data-name="Line 206" y2="58" transform="translate(-69.5 -7845.5)" fill="none" stroke="#707070" stroke-width="1"/>
      <g id="Rectangle_168" data-name="Rectangle 168" transform="translate(20 -7975)" fill="none" stroke="#707070" stroke-width="1" stroke-dasharray="3">
        <rect width="117" height="18" stroke="none"/>
        <rect x="0.5" y="0.5" width="116" height="17" fill="none"/>
      </g>
      <line id="Line_207" data-name="Line 207" y2="36" transform="translate(81.5 -7956.5)" fill="none" stroke="#707070" stroke-width="1" stroke-dasharray="3"/>
      <text id="ASSETID:_SHC1BvBMSJ..._Common_Shares" data-name="ASSETID: SHC1BvBMSJ... Common Shares" transform="translate(-73 -7869)" fill="#707070" font-size="12" font-family="SegoeUI-Bold, Segoe UI" font-weight="700"><tspan x="0" y="13">ASSETID: SHC1BvBMSJ... Common Shares</tspan></text>
      <text id="ASSETID_2_:_SHP3Bv3m..._Preferred_Shares" data-name="ASSETID(2): SHP3Bv3m... Preferred Shares" transform="translate(-73 -7764)" fill="#707070" font-size="12" font-family="SegoeUI-Bold, Segoe UI" font-weight="700"><tspan x="0" y="13">ASSETID(2): SHP3Bv3m... Preferred Shares</tspan></text>
      <text id="Settlements-2" data-name="Settlements" transform="translate(-60 -7744)" fill="#707070" font-size="14" font-family="SegoeUI-Bold, Segoe UI" font-weight="700"><tspan x="0" y="15">Settlements</tspan></text>
      <line id="Line_208" data-name="Line 208" y2="57" transform="translate(-69.5 -7741.5)" fill="none" stroke="#707070" stroke-width="1"/>
      <text id="Participant_2_1_:_0_shares" data-name="Participant 2 (1): 0 shares" transform="translate(-60 -7710)" fill="#7b1adb" font-size="14" font-family="SegoeUI, Segoe UI"><tspan x="0" y="0">Participant 2 (1)</tspan><tspan y="0" fill="#707070">: 0 shares</tspan></text>
      <text id="Participant_1_3_:_100_shares" data-name="Participant 1 (3): 100 shares" transform="translate(-60 -7689)" fill="#ef1818" font-size="14" font-family="SegoeUI, Segoe UI"><tspan x="0" y="0">Participant 1 (3)</tspan><tspan y="0" fill="#707070">: 100 shares</tspan></text>
    </g>
    <g id="Rectangle_169" data-name="Rectangle 169" transform="translate(-590 -8848)" fill="#fcfcfc" stroke="#707070" stroke-width="1">
      <rect width="655" height="225" stroke="none"/>
      <rect x="0.5" y="0.5" width="654" height="224" fill="none"/>
    </g>
    <text id="Request_Transaction_Transfer_2" data-name="Request Transaction (Transfer)" transform="translate(-578 -8815)" fill="#707070" font-size="16" font-family="SegoeUI-Semibold, Segoe UI" font-weight="600"><tspan x="0" y="0">Request Transaction (Transfer)</tspan></text>
    <line id="Line_209" data-name="Line 209" y2="144" transform="translate(-389.5 -8787.5)" fill="none" stroke="#707070" stroke-width="1"/>
    <text id="INPUTS-6" data-name="INPUTS" transform="translate(-577 -8786)" fill="#707070" font-size="14" font-family="SegoeUI-Bold, Segoe UI" font-weight="700"><tspan x="0" y="15">INPUTS</tspan></text>
    <text id="OUTPUTS_6" data-name="OUTPUTS " transform="translate(-374 -8786)" fill="#707070" font-size="14" font-family="SegoeUI-Bold, Segoe UI" font-weight="700"><tspan x="0" y="15">OUTPUTS </tspan></text>
    <text id="_0:_Participant_1_1_1:_Participant_2_1_2" data-name="0: Participant 1 (1)
1: Participant 2 (1)" transform="translate(-577 -8766)" fill="#707070" font-size="14" font-family="SegoeUI, Segoe UI"><tspan x="0" y="15">0: </tspan><tspan y="15" fill="#ef1818">Participant 1 (1)</tspan><tspan x="0" y="34">1: </tspan><tspan y="34" fill="#7b1adb">Participant 2 (1)</tspan></text>
    <text id="_0:_Smart_Contract_1_1:_Smart_Contract_2_2:_Participant_1_2_3:_Participant_2_2_4:_Transfer_Action" data-name="0: Smart Contract 1
1: Smart Contract 2
2: Participant 1 (2)
3: Participant 2 (2)
4: Transfer Action" transform="translate(-374 -8766)" fill="#707070" font-size="14" font-family="SegoeUI, Segoe UI"><tspan x="0" y="15">0: Smart Contract 1</tspan><tspan x="0" y="34">1: Smart Contract 2</tspan><tspan x="0" y="53">2: </tspan><tspan y="53" fill="#ef1818">Participant 1 (2)</tspan><tspan x="0" y="72">3: </tspan><tspan y="72" fill="#7b1adb">Participant 2 (2)</tspan><tspan x="0" y="91">4: Transfer Action</tspan></text>
    <text id="VALUE-6" data-name="VALUE" transform="translate(-181 -8786)" fill="#707070" font-size="14" font-family="SegoeUI-Bold, Segoe UI" font-weight="700"><tspan x="0" y="15">VALUE</tspan></text>
    <g id="Rectangle_170" data-name="Rectangle 170" transform="translate(-446 -8603)" fill="#fcfcfc" stroke="#707070" stroke-width="1" stroke-dasharray="3">
      <rect width="339.499" height="302" stroke="none"/>
      <rect x="0.5" y="0.5" width="338.499" height="301" fill="none"/>
    </g>
    <text id="Transfer_Action_Payload-2" data-name="Transfer Action Payload" transform="translate(-435 -8570)" fill="#707070" font-size="16" font-family="SegoeUI-Semibold, Segoe UI" font-weight="600"><tspan x="0" y="0">Transfer Action Payload</tspan></text>
    <text id="Senders-3" data-name="Senders" transform="translate(-420 -8533)" fill="#707070" font-size="14" font-family="SegoeUI-Bold, Segoe UI" font-weight="700"><tspan x="0" y="15">Senders</tspan></text>
    <text id="Participant_1_1_:_300_shares" data-name="Participant 1 (1): 300 shares" transform="translate(-420 -8498)" fill="#ef1818" font-size="14" font-family="SegoeUI, Segoe UI"><tspan x="0" y="0">Participant 1 (1)</tspan><tspan y="0" fill="#707070">: 300 shares</tspan></text>
    <text id="Receivers-3" data-name="Receivers" transform="translate(-420 -8487)" fill="#707070" font-size="14" font-family="SegoeUI-Bold, Segoe UI" font-weight="700"><tspan x="0" y="15">Receivers</tspan></text>
    <text id="Participant_2_3_:_300_shares-2" data-name="Participant 2 (3): 300 shares" transform="translate(-420 -8451)" fill="#7b1adb" font-size="14" font-family="SegoeUI, Segoe UI"><tspan x="0" y="0">Participant 2 (3)</tspan><tspan y="0" fill="#707070">: 300 shares</tspan></text>
    <text id="ASSETID:_SHC1BvBMSJ..._Common_Shares-2" data-name="ASSETID: SHC1BvBMSJ... Common Shares" transform="translate(-431 -8552)" fill="#707070" font-size="12" font-family="SegoeUI-Bold, Segoe UI" font-weight="700"><tspan x="0" y="13">ASSETID: SHC1BvBMSJ... Common Shares</tspan></text>
    <line id="Line_210" data-name="Line 210" y2="84" transform="translate(-429.5 -8530.5)" fill="none" stroke="#707070" stroke-width="1"/>
    <text id="Response_Costs_Contract_Fees_Response_Costs_Contract_Fees_Bitcoin_Change_Bitcoin_Change_N_A" data-name="Response Costs + Contract Fees
Response Costs + Contract Fees
Bitcoin Change
Bitcoin Change
N/A" transform="translate(-181 -8766)" fill="#707070" font-size="14" font-family="SegoeUI, Segoe UI"><tspan x="0" y="15">Response Costs + Contract Fees</tspan><tspan x="0" y="34">Response Costs + Contract Fees</tspan><tspan x="0" y="53">Bitcoin Change</tspan><tspan x="0" y="72">Bitcoin Change</tspan><tspan x="0" y="91">N/A</tspan></text>
    <g id="Rectangle_171" data-name="Rectangle 171" transform="translate(-362 -8689)" fill="none" stroke="#707070" stroke-width="1" stroke-dasharray="3">
      <rect width="98" height="18" stroke="none"/>
      <rect x="0.5" y="0.5" width="97" height="17" fill="none"/>
    </g>
    <line id="Line_211" data-name="Line 211" y2="66" transform="translate(-311.5 -8670.5)" fill="none" stroke="#707070" stroke-width="1" stroke-dasharray="3"/>
    <text id="Senders-4" data-name="Senders" transform="translate(-420 -8413)" fill="#707070" font-size="14" font-family="SegoeUI-Bold, Segoe UI" font-weight="700"><tspan x="0" y="15">Senders</tspan></text>
    <text id="Participant_2_1_:_100_tokens-2" data-name="Participant 2 (1): 100 tokens" transform="translate(-420 -8378)" fill="#7b1adb" font-size="14" font-family="SegoeUI, Segoe UI"><tspan x="0" y="0">Participant 2 (1)</tspan><tspan y="0" fill="#707070">: 100 tokens</tspan></text>
    <text id="Receivers-4" data-name="Receivers" transform="translate(-420 -8367)" fill="#707070" font-size="14" font-family="SegoeUI-Bold, Segoe UI" font-weight="700"><tspan x="0" y="15">Receivers</tspan></text>
    <text id="Participant_1_3_:_100_shares-2" data-name="Participant 1 (3): 100 shares" transform="translate(-420 -8331)" fill="#ef1818" font-size="14" font-family="SegoeUI, Segoe UI"><tspan x="0" y="0">Participant 1 (3)</tspan><tspan y="0" fill="#707070">: 100 shares</tspan></text>
    <text id="ASSETID_2_:_SHP3Bv3m..._Preferred_Shares-2" data-name="ASSETID(2): SHP3Bv3m... Preferred Shares" transform="translate(-431 -8432)" fill="#707070" font-size="12" font-family="SegoeUI-Bold, Segoe UI" font-weight="700"><tspan x="0" y="13">ASSETID(2): SHP3Bv3m... Preferred Shares</tspan></text>
    <line id="Line_212" data-name="Line 212" y2="84" transform="translate(-429.5 -8410.5)" fill="none" stroke="#707070" stroke-width="1"/>
    <g id="Rectangle_172" data-name="Rectangle 172" transform="translate(-97 -8507)" fill="#fff" stroke="#cf730b" stroke-width="4">
      <rect width="199" height="111" stroke="none"/>
      <rect x="2" y="2" width="195" height="107" fill="none"/>
    </g>
    <text id="Note:-2" data-name="Note:" transform="translate(-81 -8501)" fill="#707070" font-size="16" font-family="SegoeUI-Semibold, Segoe UI" font-weight="600"><tspan x="0" y="17">Note:</tspan></text>
    <text id="Exchange:_100_tokens_for_300_tokens-2" data-name="Exchange: 100 tokens for 300 tokens" transform="translate(-81 -8470)" fill="#707070" font-size="14" font-family="SegoeUI-Semibold, Segoe UI" font-weight="600"><tspan x="0" y="15">Exchange: </tspan><tspan x="0" y="34">100 tokens for 300 tokens</tspan></text>
    <line id="Line_213" data-name="Line 213" x2="141.5" transform="translate(-237 -8456.5)" fill="none" stroke="#cf730b" stroke-width="1" stroke-dasharray="3"/>
    <line id="Line_214" data-name="Line 214" x2="164.5" transform="translate(-237 -8331.5)" fill="none" stroke="#cf730b" stroke-width="1" stroke-dasharray="3"/>
    <line id="Line_215" data-name="Line 215" y2="68" transform="translate(-72.5 -8399.5)" fill="none" stroke="#cf730b" stroke-width="1" stroke-dasharray="3"/>
    <g id="Rectangle_173" data-name="Rectangle 173" transform="translate(-319 -8344)" fill="none" stroke="#cf730b" stroke-width="1" stroke-dasharray="3">
      <rect width="83" height="18" stroke="none"/>
      <rect x="0.5" y="0.5" width="82" height="17" fill="none"/>
    </g>
    <g id="Rectangle_174" data-name="Rectangle 174" transform="translate(-320 -8465)" fill="none" stroke="#cf730b" stroke-width="1" stroke-dasharray="3">
      <rect width="83" height="18" stroke="none"/>
      <rect x="0.5" y="0.5" width="82" height="17" fill="none"/>
    </g>
    <line id="Line_218" data-name="Line 218" x2="39" transform="translate(-268.5 -9246.5)" fill="none" stroke="#707070" stroke-width="2"/>
    <line id="Line_220" data-name="Line 220" x2="21" transform="translate(330.5 -9246.5)" fill="none" stroke="#707070" stroke-width="2"/>
    <line id="Line_221" data-name="Line 221" y1="363" transform="translate(351.5 -9246.5)" fill="none" stroke="#707070" stroke-width="2"/>
    <line id="Line_222" data-name="Line 222" x2="1041" transform="translate(-688.5 -8884.187)" fill="none" stroke="#707070" stroke-width="2"/>
    <line id="Line_223" data-name="Line 223" y2="139" transform="translate(-687.5 -8884.5)" fill="none" stroke="#707070" stroke-width="2"/>
    <line id="Line_224" data-name="Line 224" x2="91" transform="translate(-688.5 -8746.5)" fill="none" stroke="#707070" stroke-width="2"/>
    <line id="Line_225" data-name="Line 225" x2="95" transform="translate(72.5 -8740.5)" fill="none" stroke="#707070" stroke-width="2"/>
    <line id="Line_226" data-name="Line 226" y1="502" transform="translate(166.5 -8741.5)" fill="none" stroke="#707070" stroke-width="2"/>
    <line id="Line_227" data-name="Line 227" x2="949" transform="translate(-781.5 -8240.5)" fill="none" stroke="#707070" stroke-width="2"/>
    <line id="Line_228" data-name="Line 228" y2="170" transform="translate(-781.5 -8241.5)" fill="none" stroke="#707070" stroke-width="2"/>
    <path id="Path_196" data-name="Path 196" d="M36.253,0" transform="translate(-870.5 -8075.187)" fill="none" stroke="#707070" stroke-width="7"/>
    <path id="Path_197" data-name="Path 197" d="M0,0H39" transform="translate(-781.5 -8071.5)" fill="none" stroke="#707070" stroke-width="2"/>
    <g id="chevron-pointing-to-the-left" transform="translate(-141.496 -8050.261) rotate(-179)">
      <path id="Path_60" data-name="Path 60" d="M86.993,8.333l5.2-5.2a1.316,1.316,0,0,0,.4-.968,1.316,1.316,0,0,0-.4-.968l-.8-.8a1.382,1.382,0,0,0-1.936,0L82.479,7.359a1.382,1.382,0,0,0,0,1.936l6.974,6.963a1.382,1.382,0,0,0,1.936,0l.8-.8a1.309,1.309,0,0,0,.4-.963,1.345,1.345,0,0,0-.4-.973Z" fill="#707070"/>
    </g>
    <g id="chevron-pointing-to-the-left-2" data-name="chevron-pointing-to-the-left" transform="translate(-656.338 -8062.784) rotate(180)">
      <path id="Path_60-2" data-name="Path 60" d="M86.993,8.333l5.2-5.2a1.316,1.316,0,0,0,.4-.968,1.316,1.316,0,0,0-.4-.968l-.8-.8a1.382,1.382,0,0,0-1.936,0L82.479,7.359a1.382,1.382,0,0,0,0,1.936l6.974,6.963a1.382,1.382,0,0,0,1.936,0l.8-.8a1.309,1.309,0,0,0,.4-.963,1.345,1.345,0,0,0-.4-.973Z" fill="#707070"/>
    </g>
    <g id="chevron-pointing-to-the-left-3" data-name="chevron-pointing-to-the-left" transform="translate(-511.338 -8737.784) rotate(180)">
      <path id="Path_60-3" data-name="Path 60" d="M86.993,8.333l5.2-5.2a1.316,1.316,0,0,0,.4-.968,1.316,1.316,0,0,0-.4-.968l-.8-.8a1.382,1.382,0,0,0-1.936,0L82.479,7.359a1.382,1.382,0,0,0,0,1.936l6.974,6.963a1.382,1.382,0,0,0,1.936,0l.8-.8a1.309,1.309,0,0,0,.4-.963,1.345,1.345,0,0,0-.4-.973Z" fill="#707070"/>
    </g>
    <g id="chevron-pointing-to-the-left-4" data-name="chevron-pointing-to-the-left" transform="translate(-143.338 -9237.784) rotate(180)">
      <path id="Path_60-4" data-name="Path 60" d="M86.993,8.333l5.2-5.2a1.316,1.316,0,0,0,.4-.968,1.316,1.316,0,0,0-.4-.968l-.8-.8a1.382,1.382,0,0,0-1.936,0L82.479,7.359a1.382,1.382,0,0,0,0,1.936l6.974,6.963a1.382,1.382,0,0,0,1.936,0l.8-.8a1.309,1.309,0,0,0,.4-.963,1.345,1.345,0,0,0-.4-.973Z" fill="#707070"/>
    </g>
    <g id="atomic-swap-settlement-request-message" transform="translate(-3416 1182)">
      <g id="Rectangle_177" data-name="Rectangle 177" transform="translate(2688 -9161)" fill="#fcfcfc" stroke="#707070" stroke-width="1" stroke-dasharray="3">
        <rect width="452" height="165.866" stroke="none"/>
        <rect x="0.5" y="0.5" width="451" height="164.866" fill="none"/>
      </g>
      <g id="Rectangle_175" data-name="Rectangle 175" transform="translate(2688 -9331)" fill="#fcfcfc" stroke="#707070" stroke-width="1">
        <rect width="452" height="149" stroke="none"/>
        <rect x="0.5" y="0.5" width="451" height="148" fill="none"/>
      </g>
      <text id="Message_Transaction_Settlement_Request_" data-name="Message Transaction (Settlement Request)" transform="translate(2709 -9296)" fill="#707070" font-size="16" font-family="SegoeUI-Semibold, Segoe UI" font-weight="600"><tspan x="0" y="0">Message Transaction (Settlement Request)</tspan></text>
      <line id="Line_231" data-name="Line 231" y2="70" transform="translate(2839.5 -9270.5)" fill="none" stroke="#707070" stroke-width="1"/>
      <text id="INPUTS-7" data-name="INPUTS" transform="translate(2709 -9269)" fill="#707070" font-size="14" font-family="SegoeUI-Bold, Segoe UI" font-weight="700"><tspan x="0" y="15">INPUTS</tspan></text>
      <text id="OUTPUTS_7" data-name="OUTPUTS " transform="translate(2855 -9269)" fill="#707070" font-size="14" font-family="SegoeUI-Bold, Segoe UI" font-weight="700"><tspan x="0" y="15">OUTPUTS </tspan></text>
      <text id="_0:_Smart_Contract_1" data-name="0: Smart Contract 1" transform="translate(2709 -9249)" fill="#707070" font-size="14" font-family="SegoeUI, Segoe UI"><tspan x="0" y="15">0: Smart Contract 1</tspan></text>
      <text id="_0:_Smart_Contract_2_N:_Message_Action" data-name="0: Smart Contract 2
N: Message Action" transform="translate(2855 -9249)" fill="#707070" font-size="14" font-family="SegoeUI, Segoe UI"><tspan x="0" y="15">0: Smart Contract 2</tspan><tspan x="0" y="34">N: Message Action</tspan></text>
      <text id="VALUE-7" data-name="VALUE" transform="translate(3006 -9269)" fill="#707070" font-size="14" font-family="SegoeUI-Bold, Segoe UI" font-weight="700"><tspan x="0" y="15">VALUE</tspan></text>
      <text id="Dust_0_Not_shown:_Change" data-name="Dust
0
Not shown: Change" transform="translate(3006 -9249)" fill="#707070" font-size="14" font-family="SegoeUI, Segoe UI"><tspan x="0" y="15">Dust</tspan><tspan x="0" y="34">0</tspan><tspan x="0" y="53">Not shown: Change</tspan></text>
      <g id="Rectangle_176" data-name="Rectangle 176" transform="translate(2870 -9229)" fill="none" stroke="#707070" stroke-width="1" stroke-dasharray="3">
        <rect width="103" height="18" stroke="none"/>
        <rect x="0.5" y="0.5" width="102" height="17" fill="none"/>
      </g>
      <text id="Message_Action_Payload-4" data-name="Message Action Payload" transform="translate(2709 -9120)" fill="#707070" font-size="16" font-family="SegoeUI-Semibold, Segoe UI" font-weight="600"><tspan x="0" y="0">Message Action Payload</tspan></text>
      <line id="Line_232" data-name="Line 232" y2="49" transform="translate(2909.5 -9207.5)" fill="none" stroke="#707070" stroke-width="1" stroke-dasharray="3"/>
      <text id="MESSAGE_TYPE:_1003_-_Settlement_Request" data-name="MESSAGE TYPE: 1003 - Settlement Request" transform="translate(2709 -9099)" fill="#707070" font-size="12" font-family="SegoeUI-Bold, Segoe UI" font-weight="700"><tspan x="0" y="13">MESSAGE TYPE: 1003 - Settlement Request</tspan></text>
      <text id="Message_Receivers-4" data-name="Message Receivers" transform="translate(2726 -9075)" fill="#707070" font-size="14" font-family="SegoeUI-Bold, Segoe UI" font-weight="700"><tspan x="0" y="15">Message Receivers</tspan></text>
      <text id="Smart_Contract_2" data-name="Smart Contract 2" transform="translate(2726 -9040)" fill="#707070" font-size="14" font-family="SegoeUI, Segoe UI"><tspan x="0" y="0">Smart Contract 2</tspan></text>
      <line id="Line_236" data-name="Line 236" y2="37" transform="translate(2714.5 -9074.5)" fill="none" stroke="#707070" stroke-width="1"/>
      <text id="MESSAGE_PAYLOAD:_Settlement_Request" data-name="MESSAGE PAYLOAD: Settlement Request" transform="translate(2709 -9029)" fill="#707070" font-size="12" font-family="SegoeUI-Bold, Segoe UI" font-weight="700"><tspan x="0" y="13">MESSAGE PAYLOAD: Settlement Request</tspan></text>
    </g>
    <line id="Line_506" data-name="Line 506" x2="56" transform="translate(236.5 -8074.5)" fill="none" stroke="#707070" stroke-width="2"/>
    <line id="Line_507" data-name="Line 507" y1="312" transform="translate(291.5 -8074.5)" fill="none" stroke="#707070" stroke-width="2"/>
    <line id="Line_508" data-name="Line 508" x2="967" transform="translate(-674.5 -7762.033)" fill="none" stroke="#707070" stroke-width="2"/>
    <line id="Line_509" data-name="Line 509" y2="131.394" transform="translate(-673.5 -7762.5)" fill="none" stroke="#707070" stroke-width="2"/>
    <path id="Path_199" data-name="Path 199" d="M0,0H121.5" transform="translate(-674.5 -7631.106)" fill="none" stroke="#707070" stroke-width="2"/>
    <g id="chevron-pointing-to-the-left-5" data-name="chevron-pointing-to-the-left" transform="translate(-552.421 -7622.39) rotate(180)">
      <path id="Path_60-5" data-name="Path 60" d="M4.91,8.333l5.2-5.2a1.316,1.316,0,0,0,.4-.968,1.316,1.316,0,0,0-.4-.968l-.8-.8A1.382,1.382,0,0,0,7.37.4L.4,7.359A1.382,1.382,0,0,0,.4,9.3L7.37,16.259a1.382,1.382,0,0,0,1.936,0l.8-.8a1.309,1.309,0,0,0,.4-.963,1.345,1.345,0,0,0-.4-.973Z" fill="#707070"/>
    </g>
  </g>
</svg>
