<svg xmlns="http://www.w3.org/2000/svg" width="721" height="907.866" viewBox="0 0 721 907.866">
  <g id="atomic-swap-transfer-offer-message" transform="translate(-499 9328)">
    <g id="Rectangle_82" data-name="Rectangle 82" transform="translate(499 -9328)" fill="#fcfcfc" stroke="#707070" stroke-width="1">
      <rect width="721" height="153" stroke="none"/>
      <rect x="0.5" y="0.5" width="720" height="152" fill="none"/>
    </g>
    <text id="Message_Transaction_Offer_" data-name="Message Transaction (Offer)" transform="translate(514 -9293)" fill="#707070" font-size="16" font-family="SegoeUI-Semibold, Segoe UI" font-weight="600"><tspan x="0" y="0">Message Transaction (Offer)</tspan></text>
    <line id="Line_141" data-name="Line 141" y2="70" transform="translate(701.5 -9267.5)" fill="none" stroke="#707070" stroke-width="1"/>
    <text id="INPUTS" transform="translate(514 -9266)" fill="#707070" font-size="14" font-family="SegoeUI-Bold, Segoe UI" font-weight="700"><tspan x="0" y="15">INPUTS</tspan></text>
    <text id="OUTPUTS_" data-name="OUTPUTS " transform="translate(717 -9266)" fill="#707070" font-size="14" font-family="SegoeUI-Bold, Segoe UI" font-weight="700"><tspan x="0" y="15">OUTPUTS </tspan></text>
    <text id="_0:_Participant_1_1_" data-name="0: Participant 1 (1)" transform="translate(514 -9246)" fill="#707070" font-size="14" font-family="SegoeUI, Segoe UI"><tspan x="0" y="15">0: </tspan><tspan y="15" fill="#ef1818">Participant 1 (1)</tspan></text>
    <text id="_0:_Participant_2_1_1:_Participant_1_2_2:_Message_Action" data-name="0: Participant 2 (1)
1: Participant 1 (2)
2: Message Action" transform="translate(717 -9246)" fill="#707070" font-size="14" font-family="SegoeUI, Segoe UI"><tspan x="0" y="15">0: </tspan><tspan y="15" fill="#7b1adb">Participant 2 (1)</tspan><tspan x="0" y="34">1: </tspan><tspan y="34" fill="#ef1818">Participant 1 (2)</tspan><tspan x="0" y="53">2: Message Action</tspan></text>
    <text id="VALUE" transform="translate(910 -9266)" fill="#707070" font-size="14" font-family="SegoeUI-Bold, Segoe UI" font-weight="700"><tspan x="0" y="15">VALUE</tspan></text>
    <text id="Dust_Bitcoin_Change_N_A" data-name="Dust
Bitcoin Change
N/A" transform="translate(910 -9246)" fill="#707070" font-size="14" font-family="SegoeUI, Segoe UI"><tspan x="0" y="15">Dust</tspan><tspan x="0" y="34">Bitcoin Change</tspan><tspan x="0" y="53">N/A</tspan></text>
    <g id="Rectangle_83" data-name="Rectangle 83" transform="translate(729 -9206)" fill="none" stroke="#707070" stroke-width="1" stroke-dasharray="3">
      <rect width="103" height="18" stroke="none"/>
      <rect x="0.5" y="0.5" width="102" height="17" fill="none"/>
    </g>
    <g id="Path_202" data-name="Path 202" transform="translate(499 -9158.5)" fill="#fcfcfc" stroke-dasharray="3">
      <path d="M0,0H721V738.366H0Z" stroke="none"/>
      <path d="M 6 0 L 9 0 L 9 1 L 6 1 L 6 0 Z M 12 0 L 15 0 L 15 1 L 12 1 L 12 0 Z M 18 0 L 21 0 L 21 1 L 18 1 L 18 0 Z M 24 0 L 27 0 L 27 1 L 24 1 L 24 0 Z M 30 0 L 33 0 L 33 1 L 30 1 L 30 0 Z M 36 0 L 39 0 L 39 1 L 36 1 L 36 0 Z M 42 0 L 45 0 L 45 1 L 42 1 L 42 0 Z M 48 0 L 51 0 L 51 1 L 48 1 L 48 0 Z M 54 0 L 57 0 L 57 1 L 54 1 L 54 0 Z M 60 0 L 63 0 L 63 1 L 60 1 L 60 0 Z M 66 0 L 69 0 L 69 1 L 66 1 L 66 0 Z M 72 0 L 75 0 L 75 1 L 72 1 L 72 0 Z M 78 0 L 81 0 L 81 1 L 78 1 L 78 0 Z M 84 0 L 87 0 L 87 1 L 84 1 L 84 0 Z M 90 0 L 93 0 L 93 1 L 90 1 L 90 0 Z M 96 0 L 99 0 L 99 1 L 96 1 L 96 0 Z M 102 0 L 105 0 L 105 1 L 102 1 L 102 0 Z M 108 0 L 111 0 L 111 1 L 108 1 L 108 0 Z M 114 0 L 117 0 L 117 1 L 114 1 L 114 0 Z M 120 0 L 123 0 L 123 1 L 120 1 L 120 0 Z M 126 0 L 129 0 L 129 1 L 126 1 L 126 0 Z M 132 0 L 135 0 L 135 1 L 132 1 L 132 0 Z M 138 0 L 141 0 L 141 1 L 138 1 L 138 0 Z M 144 0 L 147 0 L 147 1 L 144 1 L 144 0 Z M 150 0 L 153 0 L 153 1 L 150 1 L 150 0 Z M 156 0 L 159 0 L 159 1 L 156 1 L 156 0 Z M 162 0 L 165 0 L 165 1 L 162 1 L 162 0 Z M 168 0 L 171 0 L 171 1 L 168 1 L 168 0 Z M 174 0 L 177 0 L 177 1 L 174 1 L 174 0 Z M 180 0 L 183 0 L 183 1 L 180 1 L 180 0 Z M 186 0 L 189 0 L 189 1 L 186 1 L 186 0 Z M 192 0 L 195 0 L 195 1 L 192 1 L 192 0 Z M 198 0 L 201 0 L 201 1 L 198 1 L 198 0 Z M 204 0 L 207 0 L 207 1 L 204 1 L 204 0 Z M 210 0 L 213 0 L 213 1 L 210 1 L 210 0 Z M 216 0 L 219 0 L 219 1 L 216 1 L 216 0 Z M 222 0 L 225 0 L 225 1 L 222 1 L 222 0 Z M 228 0 L 231 0 L 231 1 L 228 1 L 228 0 Z M 234 0 L 237 0 L 237 1 L 234 1 L 234 0 Z M 240 0 L 243 0 L 243 1 L 240 1 L 240 0 Z M 246 0 L 249 0 L 249 1 L 246 1 L 246 0 Z M 252 0 L 255 0 L 255 1 L 252 1 L 252 0 Z M 258 0 L 261 0 L 261 1 L 258 1 L 258 0 Z M 264 0 L 267 0 L 267 1 L 264 1 L 264 0 Z M 270 0 L 273 0 L 273 1 L 270 1 L 270 0 Z M 276 0 L 279 0 L 279 1 L 276 1 L 276 0 Z M 282 0 L 285 0 L 285 1 L 282 1 L 282 0 Z M 288 0 L 291 0 L 291 1 L 288 1 L 288 0 Z M 294 0 L 297 0 L 297 1 L 294 1 L 294 0 Z M 300 0 L 303 0 L 303 1 L 300 1 L 300 0 Z M 306 0 L 309 0 L 309 1 L 306 1 L 306 0 Z M 312 0 L 315 0 L 315 1 L 312 1 L 312 0 Z M 318 0 L 321 0 L 321 1 L 318 1 L 318 0 Z M 324 0 L 327 0 L 327 1 L 324 1 L 324 0 Z M 330 0 L 333 0 L 333 1 L 330 1 L 330 0 Z M 336 0 L 339 0 L 339 1 L 336 1 L 336 0 Z M 342 0 L 345 0 L 345 1 L 342 1 L 342 0 Z M 348 0 L 351 0 L 351 1 L 348 1 L 348 0 Z M 354 0 L 357 0 L 357 1 L 354 1 L 354 0 Z M 360 0 L 363 0 L 363 1 L 360 1 L 360 0 Z M 366 0 L 369 0 L 369 1 L 366 1 L 366 0 Z M 372 0 L 375 0 L 375 1 L 372 1 L 372 0 Z M 378 0 L 381 0 L 381 1 L 378 1 L 378 0 Z M 384 0 L 387 0 L 387 1 L 384 1 L 384 0 Z M 390 0 L 393 0 L 393 1 L 390 1 L 390 0 Z M 396 0 L 399 0 L 399 1 L 396 1 L 396 0 Z M 402 0 L 405 0 L 405 1 L 402 1 L 402 0 Z M 408 0 L 411 0 L 411 1 L 408 1 L 408 0 Z M 414 0 L 417 0 L 417 1 L 414 1 L 414 0 Z M 420 0 L 423 0 L 423 1 L 420 1 L 420 0 Z M 426 0 L 429 0 L 429 1 L 426 1 L 426 0 Z M 432 0 L 435 0 L 435 1 L 432 1 L 432 0 Z M 438 0 L 441 0 L 441 1 L 438 1 L 438 0 Z M 444 0 L 447 0 L 447 1 L 444 1 L 444 0 Z M 450 0 L 453 0 L 453 1 L 450 1 L 450 0 Z M 456 0 L 459 0 L 459 1 L 456 1 L 456 0 Z M 462 0 L 465 0 L 465 1 L 462 1 L 462 0 Z M 468 0 L 471 0 L 471 1 L 468 1 L 468 0 Z M 474 0 L 477 0 L 477 1 L 474 1 L 474 0 Z M 480 0 L 483 0 L 483 1 L 480 1 L 480 0 Z M 486 0 L 489 0 L 489 1 L 486 1 L 486 0 Z M 492 0 L 495 0 L 495 1 L 492 1 L 492 0 Z M 498 0 L 501 0 L 501 1 L 498 1 L 498 0 Z M 504 0 L 507 0 L 507 1 L 504 1 L 504 0 Z M 510 0 L 513 0 L 513 1 L 510 1 L 510 0 Z M 516 0 L 519 0 L 519 1 L 516 1 L 516 0 Z M 522 0 L 525 0 L 525 1 L 522 1 L 522 0 Z M 528 0 L 531 0 L 531 1 L 528 1 L 528 0 Z M 534 0 L 537 0 L 537 1 L 534 1 L 534 0 Z M 540 0 L 543 0 L 543 1 L 540 1 L 540 0 Z M 546 0 L 549 0 L 549 1 L 546 1 L 546 0 Z M 552 0 L 555 0 L 555 1 L 552 1 L 552 0 Z M 558 0 L 561 0 L 561 1 L 558 1 L 558 0 Z M 564 0 L 567 0 L 567 1 L 564 1 L 564 0 Z M 570 0 L 573 0 L 573 1 L 570 1 L 570 0 Z M 576 0 L 579 0 L 579 1 L 576 1 L 576 0 Z M 582 0 L 585 0 L 585 1 L 582 1 L 582 0 Z M 588 0 L 591 0 L 591 1 L 588 1 L 588 0 Z M 594 0 L 597 0 L 597 1 L 594 1 L 594 0 Z M 600 0 L 603 0 L 603 1 L 600 1 L 600 0 Z M 606 0 L 609 0 L 609 1 L 606 1 L 606 0 Z M 612 0 L 615 0 L 615 1 L 612 1 L 612 0 Z M 618 0 L 621 0 L 621 1 L 618 1 L 618 0 Z M 624 0 L 627 0 L 627 1 L 624 1 L 624 0 Z M 630 0 L 633 0 L 633 1 L 630 1 L 630 0 Z M 636 0 L 639 0 L 639 1 L 636 1 L 636 0 Z M 642 0 L 645 0 L 645 1 L 642 1 L 642 0 Z M 648 0 L 651 0 L 651 1 L 648 1 L 648 0 Z M 654 0 L 657 0 L 657 1 L 654 1 L 654 0 Z M 660 0 L 663 0 L 663 1 L 660 1 L 660 0 Z M 666 0 L 669 0 L 669 1 L 666 1 L 666 0 Z M 672 0 L 675 0 L 675 1 L 672 1 L 672 0 Z M 678 0 L 681 0 L 681 1 L 678 1 L 678 0 Z M 684 0 L 687 0 L 687 1 L 684 1 L 684 0 Z M 690 0 L 693 0 L 693 1 L 690 1 L 690 0 Z M 696 0 L 699 0 L 699 1 L 696 1 L 696 0 Z M 702 0 L 705 0 L 705 1 L 702 1 L 702 0 Z M 708 0 L 711 0 L 711 1 L 708 1 L 708 0 Z M 714 0 L 717 0 L 717 1 L 714 1 L 714 0 Z M 720 0 L 721 0 L 721 1 L 721 1 C 721 1.5 721 2 721 2 L 720 2 L 720 0 Z M 720 5 L 721 5 C 721 5 721 8 721 8 L 720 8 L 720 5 Z M 720 11 L 721 11 C 721 11 721 14 721 14 L 720 14 L 720 11 Z M 720 17 L 721 17 C 721 17 721 20 721 20 L 720 20 L 720 17 Z M 720 23 L 721 23 C 721 23 721 26 721 26 L 720 26 L 720 23 Z M 720 29 L 721 29 C 721 29 721 32 721 32 L 720 32 L 720 29 Z M 720 35 L 721 35 C 721 35 721 38 721 38 L 720 38 L 720 35 Z M 720 41 L 721 41 C 721 41 721 44 721 44 L 720 44 L 720 41 Z M 720 47 L 721 47 C 721 47 721 50 721 50 L 720 50 L 720 47 Z M 720 53 L 721 53 C 721 53 721 56 721 56 L 720 56 L 720 53 Z M 720 59 L 721 59 C 721 59 721 62 721 62 L 720 62 L 720 59 Z M 720 65 L 721 65 C 721 65 721 68 721 68 L 720 68 L 720 65 Z M 720 71 L 721 71 C 721 71 721 74 721 74 L 720 74 L 720 71 Z M 720 77 L 721 77 C 721 77 721 80 721 80 L 720 80 L 720 77 Z M 720 83 L 721 83 C 721 83 721 86 721 86 L 720 86 L 720 83 Z M 720 89 L 721 89 C 721 89 721 92 721 92 L 720 92 L 720 89 Z M 720 95 L 721 95 C 721 95 721 98 721 98 L 720 98 L 720 95 Z M 720 101 L 721 101 C 721 101 721 104 721 104 L 720 104 L 720 101 Z M 720 107 L 721 107 C 721 107 721 110 721 110 L 720 110 L 720 107 Z M 720 113 L 721 113 C 721 113 721 116 721 116 L 720 116 L 720 113 Z M 720 119 L 721 119 C 721 119 721 122 721 122 L 720 122 L 720 119 Z M 720 125 L 721 125 C 721 125 721 128 721 128 L 720 128 L 720 125 Z M 720 131 L 721 131 C 721 131 721 134 721 134 L 720 134 L 720 131 Z M 720 137 L 721 137 C 721 137 721 140 721 140 L 720 140 L 720 137 Z M 720 143 L 721 143 C 721 143 721 146 721 146 L 720 146 L 720 143 Z M 720 149 L 721 149 C 721 149 721 152 721 152 L 720 152 L 720 149 Z M 720 155 L 721 155 C 721 155 721 158 721 158 L 720 158 L 720 155 Z M 720 161 L 721 161 C 721 161 721 164 721 164 L 720 164 L 720 161 Z M 720 167 L 721 167 C 721 167 721 170 721 170 L 720 170 L 720 167 Z M 720 173 L 721 173 C 721 173 721 176 721 176 L 720 176 L 720 173 Z M 720 179 L 721 179 C 721 179 721 182 721 182 L 720 182 L 720 179 Z M 720 185 L 721 185 C 721 185 721 188 721 188 L 720 188 L 720 185 Z M 720 191 L 721 191 C 721 191 721 194 721 194 L 720 194 L 720 191 Z M 720 197 L 721 197 C 721 197 721 200 721 200 L 720 200 L 720 197 Z M 720 203 L 721 203 C 721 203 721 206 721 206 L 720 206 L 720 203 Z M 720 209 L 721 209 C 721 209 721 212 721 212 L 720 212 L 720 209 Z M 720 215 L 721 215 C 721 215 721 218 721 218 L 720 218 L 720 215 Z M 720 221 L 721 221 C 721 221 721 224 721 224 L 720 224 L 720 221 Z M 720 227 L 721 227 C 721 227 721 230 721 230 L 720 230 L 720 227 Z M 720 233 L 721 233 C 721 233 721 236 721 236 L 720 236 L 720 233 Z M 720 239 L 721 239 C 721 239 721 242 721 242 L 720 242 L 720 239 Z M 720 245 L 721 245 C 721 245 721 248 721 248 L 720 248 L 720 245 Z M 720 251 L 721 251 C 721 251 721 254 721 254 L 720 254 L 720 251 Z M 720 257 L 721 257 C 721 257 721 260 721 260 L 720 260 L 720 257 Z M 720 263 L 721 263 C 721 263 721 266 721 266 L 720 266 L 720 263 Z M 720 269 L 721 269 C 721 269 721 272 721 272 L 720 272 L 720 269 Z M 720 275 L 721 275 C 721 275 721 278 721 278 L 720 278 L 720 275 Z M 720 281 L 721 281 C 721 281 721 284 721 284 L 720 284 L 720 281 Z M 720 287 L 721 287 C 721 287 721 290 721 290 L 720 290 L 720 287 Z M 720 293 L 721 293 C 721 293 721 296 721 296 L 720 296 L 720 293 Z M 720 299 L 721 299 C 721 299 721 302 721 302 L 720 302 L 720 299 Z M 720 305 L 721 305 C 721 305 721 308 721 308 L 720 308 L 720 305 Z M 720 311 L 721 311 C 721 311 721 314 721 314 L 720 314 L 720 311 Z M 720 317 L 721 317 C 721 317 721 320 721 320 L 720 320 L 720 317 Z M 720 323 L 721 323 C 721 323 721 326 721 326 L 720 326 L 720 323 Z M 720 329 L 721 329 C 721 329 721 332 721 332 L 720 332 L 720 329 Z M 720 335 L 721 335 C 721 335 721 338 721 338 L 720 338 L 720 335 Z M 720 341 L 721 341 C 721 341 721 344 721 344 L 720 344 L 720 341 Z M 720 347 L 721 347 C 721 347 721 350 721 350 L 720 350 L 720 347 Z M 720 353 L 721 353 C 721 353 721 356 721 356 L 720 356 L 720 353 Z M 720 359 L 721 359 C 721 359 721 362 721 362 L 720 362 L 720 359 Z M 720 365 L 721 365 C 721 365 721 368 721 368 L 720 368 L 720 365 Z M 720 371 L 721 371 C 721 371 721 374 721 374 L 720 374 L 720 371 Z M 720 377 L 721 377 C 721 377 721 380 721 380 L 720 380 L 720 377 Z M 720 383 L 721 383 C 721 383 721 386 721 386 L 720 386 L 720 383 Z M 720 389 L 721 389 C 721 389 721 392 721 392 L 720 392 L 720 389 Z M 720 395 L 721 395 C 721 395 721 398 721 398 L 720 398 L 720 395 Z M 720 401 L 721 401 C 721 401 721 404 721 404 L 720 404 L 720 401 Z M 720 407 L 721 407 C 721 407 721 410 721 410 L 720 410 L 720 407 Z M 720 413 L 721 413 C 721 413 721 416 721 416 L 720 416 L 720 413 Z M 720 419 L 721 419 C 721 419 721 422 721 422 L 720 422 L 720 419 Z M 720 425 L 721 425 C 721 425 721 428 721 428 L 720 428 L 720 425 Z M 720 431 L 721 431 C 721 431 721 434 721 434 L 720 434 L 720 431 Z M 720 437 L 721 437 C 721 437 721 440 721 440 L 720 440 L 720 437 Z M 720 443 L 721 443 C 721 443 721 446 721 446 L 720 446 L 720 443 Z M 720 449 L 721 449 C 721 449 721 452 721 452 L 720 452 L 720 449 Z M 720 455 L 721 455 C 721 455 721 458 721 458 L 720 458 L 720 455 Z M 720 461 L 721 461 C 721 461 721 464 721 464 L 720 464 L 720 461 Z M 720 467 L 721 467 C 721 467 721 470 721 470 L 720 470 L 720 467 Z M 720 473 L 721 473 C 721 473 721 476 721 476 L 720 476 L 720 473 Z M 720 479 L 721 479 C 721 479 721 482 721 482 L 720 482 L 720 479 Z M 720 485 L 721 485 C 721 485 721 488 721 488 L 720 488 L 720 485 Z M 720 491 L 721 491 C 721 491 721 494 721 494 L 720 494 L 720 491 Z M 720 497 L 721 497 C 721 497 721 500 721 500 L 720 500 L 720 497 Z M 720 503 L 721 503 C 721 503 721 506 721 506 L 720 506 L 720 503 Z M 720 509 L 721 509 C 721 509 721 512 721 512 L 720 512 L 720 509 Z M 720 515 L 721 515 C 721 515 721 518 721 518 L 720 518 L 720 515 Z M 720 521 L 721 521 C 721 521 721 524 721 524 L 720 524 L 720 521 Z M 720 527 L 721 527 C 721 527 721 530 721 530 L 720 530 L 720 527 Z M 720 533 L 721 533 C 721 533 721 536 721 536 L 720 536 L 720 533 Z M 720 539 L 721 539 C 721 539 721 542 721 542 L 720 542 L 720 539 Z M 720 545 L 721 545 C 721 545 721 548 721 548 L 720 548 L 720 545 Z M 720 551 L 721 551 C 721 551 721 554 721 554 L 720 554 L 720 551 Z M 720 557 L 721 557 C 721 557 721 560 721 560 L 720 560 L 720 557 Z M 720 563 L 721 563 C 721 563 721 566 721 566 L 720 566 L 720 563 Z M 720 569 L 721 569 C 721 569 721 572 721 572 L 720 572 L 720 569 Z M 720 575 L 721 575 C 721 575 721 578 721 578 L 720 578 L 720 575 Z M 720 581 L 721 581 C 721 581 721 584 721 584 L 720 584 L 720 581 Z M 720 587 L 721 587 C 721 587 721 590 721 590 L 720 590 L 720 587 Z M 720 593 L 721 593 C 721 593 721 596 721 596 L 720 596 L 720 593 Z M 720 599 L 721 599 C 721 599 721 602 721 602 L 720 602 L 720 599 Z M 720 605 L 721 605 C 721 605 721 608 721 608 L 720 608 L 720 605 Z M 720 611 L 721 611 C 721 611 721 614 721 614 L 720 614 L 720 611 Z M 720 617 L 721 617 C 721 617 721 620 721 620 L 720 620 L 720 617 Z M 720 623 L 721 623 C 721 623 721 626 721 626 L 720 626 L 720 623 Z M 720 629 L 721 629 C 721 629 721 632 721 632 L 720 632 L 720 629 Z M 720 635 L 721 635 C 721 635 721 638 721 638 L 720 638 L 720 635 Z M 720 641 L 721 641 C 721 641 721 644 721 644 L 720 644 L 720 641 Z M 720 647 L 721 647 C 721 647 721 650 721 650 L 720 650 L 720 647 Z M 720 653 L 721 653 C 721 653 721 656 721 656 L 720 656 L 720 653 Z M 720 659 L 721 659 C 721 659 721 662 721 662 L 720 662 L 720 659 Z M 720 665 L 721 665 C 721 665 721 668 721 668 L 720 668 L 720 665 Z M 720 671 L 721 671 C 721 671 721 674 721 674 L 720 674 L 720 671 Z M 720 677 L 721 677 C 721 677 721 680 721 680 L 720 680 L 720 677 Z M 720 683 L 721 683 C 721 683 721 686 721 686 L 720 686 L 720 683 Z M 720 689 L 721 689 C 721 689 721 692 721 692 L 720 692 L 720 689 Z M 720 695 L 721 695 C 721 695 721 698 721 698 L 720 698 L 720 695 Z M 720 701 L 721 701 C 721 701 721 704 721 704 L 720 704 L 720 701 Z M 720 707 L 721 707 C 721 707 721 710 721 710 L 720 710 L 720 707 Z M 720 713 L 721 713 C 721 713 721 716 721 716 L 720 716 L 720 713 Z M 720 719 L 721 719 C 721 719 721 722 721 722 L 720 722 L 720 719 Z M 720 725 L 721 725 C 721 725 721 728 721 728 L 720 728 L 720 725 Z M 720 731 L 721 731 C 721 731 721 734 721 734 L 720 734 L 720 731 Z M 720 737 L 721 737 C 721 737 721 738.3662109375 721 738.3662109375 L 720 738.3662109375 L 720 738.3662109375 L 720 738.3662109375 L 720 738.3662109375 L 720 738.3662109375 C 719.660888671875 738.3662109375 719.3662109375 738.3662109375 719.3662109375 738.3662109375 L 719.3662109375 737.3662109375 L 720 737.3662109375 L 720 737 Z M 713.3662109375 737.3662109375 L 716.3662109375 737.3662109375 L 716.3662109375 738.3662109375 C 716.3662109375 738.3662109375 713.3662109375 738.3662109375 713.3662109375 738.3662109375 L 713.3662109375 737.3662109375 Z M 707.3662109375 737.3662109375 L 710.3662109375 737.3662109375 L 710.3662109375 738.3662109375 C 710.3662109375 738.3662109375 707.3662109375 738.3662109375 707.3662109375 738.3662109375 L 707.3662109375 737.3662109375 Z M 701.3662109375 737.3662109375 L 704.3662109375 737.3662109375 L 704.3662109375 738.3662109375 C 704.3662109375 738.3662109375 701.3662109375 738.3662109375 701.3662109375 738.3662109375 L 701.3662109375 737.3662109375 Z M 695.3662109375 737.3662109375 L 698.3662109375 737.3662109375 L 698.3662109375 738.3662109375 C 698.3662109375 738.3662109375 695.3662109375 738.3662109375 695.3662109375 738.3662109375 L 695.3662109375 737.3662109375 Z M 689.3662109375 737.3662109375 L 692.3662109375 737.3662109375 L 692.3662109375 738.3662109375 C 692.3662109375 738.3662109375 689.3662109375 738.3662109375 689.3662109375 738.3662109375 L 689.3662109375 737.3662109375 Z M 683.3662109375 737.3662109375 L 686.3662109375 737.3662109375 L 686.3662109375 738.3662109375 C 686.3662109375 738.3662109375 683.3662109375 738.3662109375 683.3662109375 738.3662109375 L 683.3662109375 737.3662109375 Z M 677.3662109375 737.3662109375 L 680.3662109375 737.3662109375 L 680.3662109375 738.3662109375 C 680.3662109375 738.3662109375 677.3662109375 738.3662109375 677.3662109375 738.3662109375 L 677.3662109375 737.3662109375 Z M 671.3662109375 737.3662109375 L 674.3662109375 737.3662109375 L 674.3662109375 738.3662109375 C 674.3662109375 738.3662109375 671.3662109375 738.3662109375 671.3662109375 738.3662109375 L 671.3662109375 737.3662109375 Z M 665.3662109375 737.3662109375 L 668.3662109375 737.3662109375 L 668.3662109375 738.3662109375 C 668.3662109375 738.3662109375 665.3662109375 738.3662109375 665.3662109375 738.3662109375 L 665.3662109375 737.3662109375 Z M 659.3662109375 737.3662109375 L 662.3662109375 737.3662109375 L 662.3662109375 738.3662109375 C 662.3662109375 738.3662109375 659.3662109375 738.3662109375 659.3662109375 738.3662109375 L 659.3662109375 737.3662109375 Z M 653.3662109375 737.3662109375 L 656.3662109375 737.3662109375 L 656.3662109375 738.3662109375 C 656.3662109375 738.3662109375 653.3662109375 738.3662109375 653.3662109375 738.3662109375 L 653.3662109375 737.3662109375 Z M 647.3662109375 737.3662109375 L 650.3662109375 737.3662109375 L 650.3662109375 738.3662109375 C 650.3662109375 738.3662109375 647.3662109375 738.3662109375 647.3662109375 738.3662109375 L 647.3662109375 737.3662109375 Z M 641.3662109375 737.3662109375 L 644.3662109375 737.3662109375 L 644.3662109375 738.3662109375 C 644.3662109375 738.3662109375 641.3662109375 738.3662109375 641.3662109375 738.3662109375 L 641.3662109375 737.3662109375 Z M 635.3662109375 737.3662109375 L 638.3662109375 737.3662109375 L 638.3662109375 738.3662109375 C 638.3662109375 738.3662109375 635.3662109375 738.3662109375 635.3662109375 738.3662109375 L 635.3662109375 737.3662109375 Z M 629.3662109375 737.3662109375 L 632.3662109375 737.3662109375 L 632.3662109375 738.3662109375 C 632.3662109375 738.3662109375 629.3662109375 738.3662109375 629.3662109375 738.3662109375 L 629.3662109375 737.3662109375 Z M 623.3662109375 737.3662109375 L 626.3662109375 737.3662109375 L 626.3662109375 738.3662109375 C 626.3662109375 738.3662109375 623.3662109375 738.3662109375 623.3662109375 738.3662109375 L 623.3662109375 737.3662109375 Z M 617.3662109375 737.3662109375 L 620.3662109375 737.3662109375 L 620.3662109375 738.3662109375 C 620.3662109375 738.3662109375 617.3662109375 738.3662109375 617.3662109375 738.3662109375 L 617.3662109375 737.3662109375 Z M 611.3662109375 737.3662109375 L 614.3662109375 737.3662109375 L 614.3662109375 738.3662109375 C 614.3662109375 738.3662109375 611.3662109375 738.3662109375 611.3662109375 738.3662109375 L 611.3662109375 737.3662109375 Z M 605.3662109375 737.3662109375 L 608.3662109375 737.3662109375 L 608.3662109375 738.3662109375 C 608.3662109375 738.3662109375 605.3662109375 738.3662109375 605.3662109375 738.3662109375 L 605.3662109375 737.3662109375 Z M 599.3662109375 737.3662109375 L 602.3662109375 737.3662109375 L 602.3662109375 738.3662109375 C 602.3662109375 738.3662109375 599.3662109375 738.3662109375 599.3662109375 738.3662109375 L 599.3662109375 737.3662109375 Z M 593.3662109375 737.3662109375 L 596.3662109375 737.3662109375 L 596.3662109375 738.3662109375 C 596.3662109375 738.3662109375 593.3662109375 738.3662109375 593.3662109375 738.3662109375 L 593.3662109375 737.3662109375 Z M 587.3662109375 737.3662109375 L 590.3662109375 737.3662109375 L 590.3662109375 738.3662109375 C 590.3662109375 738.3662109375 587.3662109375 738.3662109375 587.3662109375 738.3662109375 L 587.3662109375 737.3662109375 Z M 581.3662109375 737.3662109375 L 584.3662109375 737.3662109375 L 584.3662109375 738.3662109375 C 584.3662109375 738.3662109375 581.3662109375 738.3662109375 581.3662109375 738.3662109375 L 581.3662109375 737.3662109375 Z M 575.3662109375 737.3662109375 L 578.3662109375 737.3662109375 L 578.3662109375 738.3662109375 C 578.3662109375 738.3662109375 575.3662109375 738.3662109375 575.3662109375 738.3662109375 L 575.3662109375 737.3662109375 Z M 569.3662109375 737.3662109375 L 572.3662109375 737.3662109375 L 572.3662109375 738.3662109375 C 572.3662109375 738.3662109375 569.3662109375 738.3662109375 569.3662109375 738.3662109375 L 569.3662109375 737.3662109375 Z M 563.3662109375 737.3662109375 L 566.3662109375 737.3662109375 L 566.3662109375 738.3662109375 C 566.3662109375 738.3662109375 563.3662109375 738.3662109375 563.3662109375 738.3662109375 L 563.3662109375 737.3662109375 Z M 557.3662109375 737.3662109375 L 560.3662109375 737.3662109375 L 560.3662109375 738.3662109375 C 560.3662109375 738.3662109375 557.3662109375 738.3662109375 557.3662109375 738.3662109375 L 557.3662109375 737.3662109375 Z M 551.3662109375 737.3662109375 L 554.3662109375 737.3662109375 L 554.3662109375 738.3662109375 C 554.3662109375 738.3662109375 551.3662109375 738.3662109375 551.3662109375 738.3662109375 L 551.3662109375 737.3662109375 Z M 545.3662109375 737.3662109375 L 548.3662109375 737.3662109375 L 548.3662109375 738.3662109375 C 548.3662109375 738.3662109375 545.3662109375 738.3662109375 545.3662109375 738.3662109375 L 545.3662109375 737.3662109375 Z M 539.3662109375 737.3662109375 L 542.3662109375 737.3662109375 L 542.3662109375 738.3662109375 C 542.3662109375 738.3662109375 539.3662109375 738.3662109375 539.3662109375 738.3662109375 L 539.3662109375 737.3662109375 Z M 533.3662109375 737.3662109375 L 536.3662109375 737.3662109375 L 536.3662109375 738.3662109375 C 536.3662109375 738.3662109375 533.3662109375 738.3662109375 533.3662109375 738.3662109375 L 533.3662109375 737.3662109375 Z M 527.3662109375 737.3662109375 L 530.3662109375 737.3662109375 L 530.3662109375 738.3662109375 C 530.3662109375 738.3662109375 527.3662109375 738.3662109375 527.3662109375 738.3662109375 L 527.3662109375 737.3662109375 Z M 521.3662109375 737.3662109375 L 524.3662109375 737.3662109375 L 524.3662109375 738.3662109375 C 524.3662109375 738.3662109375 521.3662109375 738.3662109375 521.3662109375 738.3662109375 L 521.3662109375 737.3662109375 Z M 515.3662109375 737.3662109375 L 518.3662109375 737.3662109375 L 518.3662109375 738.3662109375 C 518.3662109375 738.3662109375 515.3662109375 738.3662109375 515.3662109375 738.3662109375 L 515.3662109375 737.3662109375 Z M 509.3661804199219 737.3662109375 L 512.3662109375 737.3662109375 L 512.3662109375 738.3662109375 C 512.3662109375 738.3662109375 509.3661804199219 738.3662109375 509.3661804199219 738.3662109375 L 509.3661804199219 737.3662109375 Z M 503.3661804199219 737.3662109375 L 506.3661804199219 737.3662109375 L 506.3661804199219 738.3662109375 C 506.3661804199219 738.3662109375 503.3661804199219 738.3662109375 503.3661804199219 738.3662109375 L 503.3661804199219 737.3662109375 Z M 497.3661804199219 737.3662109375 L 500.3661804199219 737.3662109375 L 500.3661804199219 738.3662109375 C 500.3661804199219 738.3662109375 497.3661804199219 738.3662109375 497.3661804199219 738.3662109375 L 497.3661804199219 737.3662109375 Z M 491.3661804199219 737.3662109375 L 494.3661804199219 737.3662109375 L 494.3661804199219 738.3662109375 C 494.3661804199219 738.3662109375 491.3661804199219 738.3662109375 491.3661804199219 738.3662109375 L 491.3661804199219 737.3662109375 Z M 485.3661804199219 737.3662109375 L 488.3661804199219 737.3662109375 L 488.3661804199219 738.3662109375 C 488.3661804199219 738.3662109375 485.3661804199219 738.3662109375 485.3661804199219 738.3662109375 L 485.3661804199219 737.3662109375 Z M 479.3661804199219 737.3662109375 L 482.3661804199219 737.3662109375 L 482.3661804199219 738.3662109375 C 482.3661804199219 738.3662109375 479.3661804199219 738.3662109375 479.3661804199219 738.3662109375 L 479.3661804199219 737.3662109375 Z M 473.3661804199219 737.3662109375 L 476.3661804199219 737.3662109375 L 476.3661804199219 738.3662109375 C 476.3661804199219 738.3662109375 473.3661804199219 738.3662109375 473.3661804199219 738.3662109375 L 473.3661804199219 737.3662109375 Z M 467.3661804199219 737.3662109375 L 470.3661804199219 737.3662109375 L 470.3661804199219 738.3662109375 C 470.3661804199219 738.3662109375 467.3661804199219 738.3662109375 467.3661804199219 738.3662109375 L 467.3661804199219 737.3662109375 Z M 461.3661804199219 737.3662109375 L 464.3661804199219 737.3662109375 L 464.3661804199219 738.3662109375 C 464.3661804199219 738.3662109375 461.3661804199219 738.3662109375 461.3661804199219 738.3662109375 L 461.3661804199219 737.3662109375 Z M 455.3661804199219 737.3662109375 L 458.3661804199219 737.3662109375 L 458.3661804199219 738.3662109375 C 458.3661804199219 738.3662109375 455.3661804199219 738.3662109375 455.3661804199219 738.3662109375 L 455.3661804199219 737.3662109375 Z M 449.3661804199219 737.3662109375 L 452.3661804199219 737.3662109375 L 452.3661804199219 738.3662109375 C 452.3661804199219 738.3662109375 449.3661804199219 738.3662109375 449.3661804199219 738.3662109375 L 449.3661804199219 737.3662109375 Z M 443.3661804199219 737.3662109375 L 446.3661804199219 737.3662109375 L 446.3661804199219 738.3662109375 C 446.3661804199219 738.3662109375 443.3661804199219 738.3662109375 443.3661804199219 738.3662109375 L 443.3661804199219 737.3662109375 Z M 437.3661804199219 737.3662109375 L 440.3661804199219 737.3662109375 L 440.3661804199219 738.3662109375 C 440.3661804199219 738.3662109375 437.3661804199219 738.3662109375 437.3661804199219 738.3662109375 L 437.3661804199219 737.3662109375 Z M 431.3661804199219 737.3662109375 L 434.3661804199219 737.3662109375 L 434.3661804199219 738.3662109375 C 434.3661804199219 738.3662109375 431.3661804199219 738.3662109375 431.3661804199219 738.3662109375 L 431.3661804199219 737.3662109375 Z M 425.3661804199219 737.3662109375 L 428.3661804199219 737.3662109375 L 428.3661804199219 738.3662109375 C 428.3661804199219 738.3662109375 425.3661804199219 738.3662109375 425.3661804199219 738.3662109375 L 425.3661804199219 737.3662109375 Z M 419.3661804199219 737.3662109375 L 422.3661804199219 737.3662109375 L 422.3661804199219 738.3662109375 C 422.3661804199219 738.3662109375 419.3661804199219 738.3662109375 419.3661804199219 738.3662109375 L 419.3661804199219 737.3662109375 Z M 413.3661804199219 737.3662109375 L 416.3661804199219 737.3662109375 L 416.3661804199219 738.3662109375 C 416.3661804199219 738.3662109375 413.3661804199219 738.3662109375 413.3661804199219 738.3662109375 L 413.3661804199219 737.3662109375 Z M 407.3661804199219 737.3662109375 L 410.3661804199219 737.3662109375 L 410.3661804199219 738.3662109375 C 410.3661804199219 738.3662109375 407.3661804199219 738.3662109375 407.3661804199219 738.3662109375 L 407.3661804199219 737.3662109375 Z M 401.3661804199219 737.3662109375 L 404.3661804199219 737.3662109375 L 404.3661804199219 738.3662109375 C 404.3661804199219 738.3662109375 401.3661804199219 738.3662109375 401.3661804199219 738.3662109375 L 401.3661804199219 737.3662109375 Z M 395.3661804199219 737.3662109375 L 398.3661804199219 737.3662109375 L 398.3661804199219 738.3662109375 C 398.3661804199219 738.3662109375 395.3661804199219 738.3662109375 395.3661804199219 738.3662109375 L 395.3661804199219 737.3662109375 Z M 389.3661804199219 737.3662109375 L 392.3661804199219 737.3662109375 L 392.3661804199219 738.3662109375 C 392.3661804199219 738.3662109375 389.3661804199219 738.3662109375 389.3661804199219 738.3662109375 L 389.3661804199219 737.3662109375 Z M 383.3661804199219 737.3662109375 L 386.3661804199219 737.3662109375 L 386.3661804199219 738.3662109375 C 386.3661804199219 738.3662109375 383.3661804199219 738.3662109375 383.3661804199219 738.3662109375 L 383.3661804199219 737.3662109375 Z M 377.3661804199219 737.3662109375 L 380.3661804199219 737.3662109375 L 380.3661804199219 738.3662109375 C 380.3661804199219 738.3662109375 377.3661804199219 738.3662109375 377.3661804199219 738.3662109375 L 377.3661804199219 737.3662109375 Z M 371.3661804199219 737.3662109375 L 374.3661804199219 737.3662109375 L 374.3661804199219 738.3662109375 C 374.3661804199219 738.3662109375 371.3661804199219 738.3662109375 371.3661804199219 738.3662109375 L 371.3661804199219 737.3662109375 Z M 365.3661804199219 737.3662109375 L 368.3661804199219 737.3662109375 L 368.3661804199219 738.3662109375 C 368.3661804199219 738.3662109375 365.3661804199219 738.3662109375 365.3661804199219 738.3662109375 L 365.3661804199219 737.3662109375 Z M 359.3661804199219 737.3662109375 L 362.3661804199219 737.3662109375 L 362.3661804199219 738.3662109375 C 362.3661804199219 738.3662109375 359.3661804199219 738.3662109375 359.3661804199219 738.3662109375 L 359.3661804199219 737.3662109375 Z M 353.3661804199219 737.3662109375 L 356.3661804199219 737.3662109375 L 356.3661804199219 738.3662109375 C 356.3661804199219 738.3662109375 353.3661804199219 738.3662109375 353.3661804199219 738.3662109375 L 353.3661804199219 737.3662109375 Z M 347.3661804199219 737.3662109375 L 350.3661804199219 737.3662109375 L 350.3661804199219 738.3662109375 C 350.3661804199219 738.3662109375 347.3661804199219 738.3662109375 347.3661804199219 738.3662109375 L 347.3661804199219 737.3662109375 Z M 341.3661804199219 737.3662109375 L 344.3661804199219 737.3662109375 L 344.3661804199219 738.3662109375 C 344.3661804199219 738.3662109375 341.3661804199219 738.3662109375 341.3661804199219 738.3662109375 L 341.3661804199219 737.3662109375 Z M 335.3661804199219 737.3662109375 L 338.3661804199219 737.3662109375 L 338.3661804199219 738.3662109375 C 338.3661804199219 738.3662109375 335.3661804199219 738.3662109375 335.3661804199219 738.3662109375 L 335.3661804199219 737.3662109375 Z M 329.3661804199219 737.3662109375 L 332.3661804199219 737.3662109375 L 332.3661804199219 738.3662109375 C 332.3661804199219 738.3662109375 329.3661804199219 738.3662109375 329.3661804199219 738.3662109375 L 329.3661804199219 737.3662109375 Z M 323.3661804199219 737.3662109375 L 326.3661804199219 737.3662109375 L 326.3661804199219 738.3662109375 C 326.3661804199219 738.3662109375 323.3661804199219 738.3662109375 323.3661804199219 738.3662109375 L 323.3661804199219 737.3662109375 Z M 317.3661804199219 737.3662109375 L 320.3661804199219 737.3662109375 L 320.3661804199219 738.3662109375 C 320.3661804199219 738.3662109375 317.3661804199219 738.3662109375 317.3661804199219 738.3662109375 L 317.3661804199219 737.3662109375 Z M 311.3661804199219 737.3662109375 L 314.3661804199219 737.3662109375 L 314.3661804199219 738.3662109375 C 314.3661804199219 738.3662109375 311.3661804199219 738.3662109375 311.3661804199219 738.3662109375 L 311.3661804199219 737.3662109375 Z M 305.3661804199219 737.3662109375 L 308.3661804199219 737.3662109375 L 308.3661804199219 738.3662109375 C 308.3661804199219 738.3662109375 305.3661804199219 738.3662109375 305.3661804199219 738.3662109375 L 305.3661804199219 737.3662109375 Z M 299.3661804199219 737.3662109375 L 302.3661804199219 737.3662109375 L 302.3661804199219 738.3662109375 C 302.3661804199219 738.3662109375 299.3661804199219 738.3662109375 299.3661804199219 738.3662109375 L 299.3661804199219 737.3662109375 Z M 293.3661804199219 737.3662109375 L 296.3661804199219 737.3662109375 L 296.3661804199219 738.3662109375 C 296.3661804199219 738.3662109375 293.3661804199219 738.3662109375 293.3661804199219 738.3662109375 L 293.3661804199219 737.3662109375 Z M 287.3661804199219 737.3662109375 L 290.3661804199219 737.3662109375 L 290.3661804199219 738.3662109375 C 290.3661804199219 738.3662109375 287.3661804199219 738.3662109375 287.3661804199219 738.3662109375 L 287.3661804199219 737.3662109375 Z M 281.3661804199219 737.3662109375 L 284.3661804199219 737.3662109375 L 284.3661804199219 738.3662109375 C 284.3661804199219 738.3662109375 281.3661804199219 738.3662109375 281.3661804199219 738.3662109375 L 281.3661804199219 737.3662109375 Z M 275.3661804199219 737.3662109375 L 278.3661804199219 737.3662109375 L 278.3661804199219 738.3662109375 C 278.3661804199219 738.3662109375 275.3661804199219 738.3662109375 275.3661804199219 738.3662109375 L 275.3661804199219 737.3662109375 Z M 269.3661804199219 737.3662109375 L 272.3661804199219 737.3662109375 L 272.3661804199219 738.3662109375 C 272.3661804199219 738.3662109375 269.3661804199219 738.3662109375 269.3661804199219 738.3662109375 L 269.3661804199219 737.3662109375 Z M 263.3661804199219 737.3662109375 L 266.3661804199219 737.3662109375 L 266.3661804199219 738.3662109375 C 266.3661804199219 738.3662109375 263.3661804199219 738.3662109375 263.3661804199219 738.3662109375 L 263.3661804199219 737.3662109375 Z M 257.3661804199219 737.3662109375 L 260.3661804199219 737.3662109375 L 260.3661804199219 738.3662109375 C 260.3661804199219 738.3662109375 257.3661804199219 738.3662109375 257.3661804199219 738.3662109375 L 257.3661804199219 737.3662109375 Z M 251.3661804199219 737.3662109375 L 254.3661804199219 737.3662109375 L 254.3661804199219 738.3662109375 C 254.3661804199219 738.3662109375 251.3661804199219 738.3662109375 251.3661804199219 738.3662109375 L 251.3661804199219 737.3662109375 Z M 245.3661804199219 737.3662109375 L 248.3661804199219 737.3662109375 L 248.3661804199219 738.3662109375 C 248.3661804199219 738.3662109375 245.3661804199219 738.3662109375 245.3661804199219 738.3662109375 L 245.3661804199219 737.3662109375 Z M 239.3661804199219 737.3662109375 L 242.3661804199219 737.3662109375 L 242.3661804199219 738.3662109375 C 242.3661804199219 738.3662109375 239.3661804199219 738.3662109375 239.3661804199219 738.3662109375 L 239.3661804199219 737.3662109375 Z M 233.3661804199219 737.3662109375 L 236.3661804199219 737.3662109375 L 236.3661804199219 738.3662109375 C 236.3661804199219 738.3662109375 233.3661804199219 738.3662109375 233.3661804199219 738.3662109375 L 233.3661804199219 737.3662109375 Z M 227.3661804199219 737.3662109375 L 230.3661804199219 737.3662109375 L 230.3661804199219 738.3662109375 C 230.3661804199219 738.3662109375 227.3661804199219 738.3662109375 227.3661804199219 738.3662109375 L 227.3661804199219 737.3662109375 Z M 221.3661804199219 737.3662109375 L 224.3661804199219 737.3662109375 L 224.3661804199219 738.3662109375 C 224.3661804199219 738.3662109375 221.3661804199219 738.3662109375 221.3661804199219 738.3662109375 L 221.3661804199219 737.3662109375 Z M 215.3661804199219 737.3662109375 L 218.3661804199219 737.3662109375 L 218.3661804199219 738.3662109375 C 218.3661804199219 738.3662109375 215.3661804199219 738.3662109375 215.3661804199219 738.3662109375 L 215.3661804199219 737.3662109375 Z M 209.3661804199219 737.3662109375 L 212.3661804199219 737.3662109375 L 212.3661804199219 738.3662109375 C 212.3661804199219 738.3662109375 209.3661804199219 738.3662109375 209.3661804199219 738.3662109375 L 209.3661804199219 737.3662109375 Z M 203.3662109375 737.3662109375 L 206.3662109375 737.3662109375 L 206.3662109375 738.3662109375 C 206.3662109375 738.3662109375 203.3662109375 738.3662109375 203.3662109375 738.3662109375 L 203.3662109375 737.3662109375 Z M 197.3662109375 737.3662109375 L 200.3662109375 737.3662109375 L 200.3662109375 738.3662109375 C 200.3662109375 738.3662109375 197.3662109375 738.3662109375 197.3662109375 738.3662109375 L 197.3662109375 737.3662109375 Z M 191.3662109375 737.3662109375 L 194.3662109375 737.3662109375 L 194.3662109375 738.3662109375 C 194.3662109375 738.3662109375 191.3662109375 738.3662109375 191.3662109375 738.3662109375 L 191.3662109375 737.3662109375 Z M 185.3662109375 737.3662109375 L 188.3662109375 737.3662109375 L 188.3662109375 738.3662109375 C 188.3662109375 738.3662109375 185.3662109375 738.3662109375 185.3662109375 738.3662109375 L 185.3662109375 737.3662109375 Z M 179.3662109375 737.3662109375 L 182.3662109375 737.3662109375 L 182.3662109375 738.3662109375 C 182.3662109375 738.3662109375 179.3662109375 738.3662109375 179.3662109375 738.3662109375 L 179.3662109375 737.3662109375 Z M 173.3662109375 737.3662109375 L 176.3662109375 737.3662109375 L 176.3662109375 738.3662109375 C 176.3662109375 738.3662109375 173.3662109375 738.3662109375 173.3662109375 738.3662109375 L 173.3662109375 737.3662109375 Z M 167.3662109375 737.3662109375 L 170.3662109375 737.3662109375 L 170.3662109375 738.3662109375 C 170.3662109375 738.3662109375 167.3662109375 738.3662109375 167.3662109375 738.3662109375 L 167.3662109375 737.3662109375 Z M 161.3662109375 737.3662109375 L 164.3662109375 737.3662109375 L 164.3662109375 738.3662109375 C 164.3662109375 738.3662109375 161.3662109375 738.3662109375 161.3662109375 738.3662109375 L 161.3662109375 737.3662109375 Z M 155.3662109375 737.3662109375 L 158.3662109375 737.3662109375 L 158.3662109375 738.3662109375 C 158.3662109375 738.3662109375 155.3662109375 738.3662109375 155.3662109375 738.3662109375 L 155.3662109375 737.3662109375 Z M 149.3662109375 737.3662109375 L 152.3662109375 737.3662109375 L 152.3662109375 738.3662109375 C 152.3662109375 738.3662109375 149.3662109375 738.3662109375 149.3662109375 738.3662109375 L 149.3662109375 737.3662109375 Z M 143.3662109375 737.3662109375 L 146.3662109375 737.3662109375 L 146.3662109375 738.3662109375 C 146.3662109375 738.3662109375 143.3662109375 738.3662109375 143.3662109375 738.3662109375 L 143.3662109375 737.3662109375 Z M 137.3662109375 737.3662109375 L 140.3662109375 737.3662109375 L 140.3662109375 738.3662109375 C 140.3662109375 738.3662109375 137.3662109375 738.3662109375 137.3662109375 738.3662109375 L 137.3662109375 737.3662109375 Z M 131.3662109375 737.3662109375 L 134.3662109375 737.3662109375 L 134.3662109375 738.3662109375 C 134.3662109375 738.3662109375 131.3662109375 738.3662109375 131.3662109375 738.3662109375 L 131.3662109375 737.3662109375 Z M 125.3662109375 737.3662109375 L 128.3662109375 737.3662109375 L 128.3662109375 738.3662109375 C 128.3662109375 738.3662109375 125.3662109375 738.3662109375 125.3662109375 738.3662109375 L 125.3662109375 737.3662109375 Z M 119.3662109375 737.3662109375 L 122.3662109375 737.3662109375 L 122.3662109375 738.3662109375 C 122.3662109375 738.3662109375 119.3662109375 738.3662109375 119.3662109375 738.3662109375 L 119.3662109375 737.3662109375 Z M 113.3662109375 737.3662109375 L 116.3662109375 737.3662109375 L 116.3662109375 738.3662109375 C 116.3662109375 738.3662109375 113.3662109375 738.3662109375 113.3662109375 738.3662109375 L 113.3662109375 737.3662109375 Z M 107.3662109375 737.3662109375 L 110.3662109375 737.3662109375 L 110.3662109375 738.3662109375 C 110.3662109375 738.3662109375 107.3662109375 738.3662109375 107.3662109375 738.3662109375 L 107.3662109375 737.3662109375 Z M 101.3662109375 737.3662109375 L 104.3662109375 737.3662109375 L 104.3662109375 738.3662109375 C 104.3662109375 738.3662109375 101.3662109375 738.3662109375 101.3662109375 738.3662109375 L 101.3662109375 737.3662109375 Z M 95.3662109375 737.3662109375 L 98.3662109375 737.3662109375 L 98.3662109375 738.3662109375 C 98.3662109375 738.3662109375 95.3662109375 738.3662109375 95.3662109375 738.3662109375 L 95.3662109375 737.3662109375 Z M 89.3662109375 737.3662109375 L 92.3662109375 737.3662109375 L 92.3662109375 738.3662109375 C 92.3662109375 738.3662109375 89.3662109375 738.3662109375 89.3662109375 738.3662109375 L 89.3662109375 737.3662109375 Z M 83.3662109375 737.3662109375 L 86.3662109375 737.3662109375 L 86.3662109375 738.3662109375 C 86.3662109375 738.3662109375 83.3662109375 738.3662109375 83.3662109375 738.3662109375 L 83.3662109375 737.3662109375 Z M 77.3662109375 737.3662109375 L 80.3662109375 737.3662109375 L 80.3662109375 738.3662109375 C 80.3662109375 738.3662109375 77.3662109375 738.3662109375 77.3662109375 738.3662109375 L 77.3662109375 737.3662109375 Z M 71.3662109375 737.3662109375 L 74.3662109375 737.3662109375 L 74.3662109375 738.3662109375 C 74.3662109375 738.3662109375 71.3662109375 738.3662109375 71.3662109375 738.3662109375 L 71.3662109375 737.3662109375 Z M 65.3662109375 737.3662109375 L 68.3662109375 737.3662109375 L 68.3662109375 738.3662109375 C 68.3662109375 738.3662109375 65.3662109375 738.3662109375 65.3662109375 738.3662109375 L 65.3662109375 737.3662109375 Z M 59.3662109375 737.3662109375 L 62.3662109375 737.3662109375 L 62.3662109375 738.3662109375 C 62.3662109375 738.3662109375 59.3662109375 738.3662109375 59.3662109375 738.3662109375 L 59.3662109375 737.3662109375 Z M 53.3662109375 737.3662109375 L 56.3662109375 737.3662109375 L 56.3662109375 738.3662109375 C 56.3662109375 738.3662109375 53.3662109375 738.3662109375 53.3662109375 738.3662109375 L 53.3662109375 737.3662109375 Z M 47.3662109375 737.3662109375 L 50.3662109375 737.3662109375 L 50.3662109375 738.3662109375 C 50.3662109375 738.3662109375 47.3662109375 738.3662109375 47.3662109375 738.3662109375 L 47.3662109375 737.3662109375 Z M 41.3662109375 737.3662109375 L 44.3662109375 737.3662109375 L 44.3662109375 738.3662109375 C 44.3662109375 738.3662109375 41.3662109375 738.3662109375 41.3662109375 738.3662109375 L 41.3662109375 737.3662109375 Z M 35.3662109375 737.3662109375 L 38.3662109375 737.3662109375 L 38.3662109375 738.3662109375 C 38.3662109375 738.3662109375 35.3662109375 738.3662109375 35.3662109375 738.3662109375 L 35.3662109375 737.3662109375 Z M 29.3662109375 737.3662109375 L 32.3662109375 737.3662109375 L 32.3662109375 738.3662109375 C 32.3662109375 738.3662109375 29.3662109375 738.3662109375 29.3662109375 738.3662109375 L 29.3662109375 737.3662109375 Z M 23.3662109375 737.3662109375 L 26.3662109375 737.3662109375 L 26.3662109375 738.3662109375 C 26.3662109375 738.3662109375 23.3662109375 738.3662109375 23.3662109375 738.3662109375 L 23.3662109375 737.3662109375 Z M 17.3662109375 737.3662109375 L 20.3662109375 737.3662109375 L 20.3662109375 738.3662109375 C 20.3662109375 738.3662109375 17.3662109375 738.3662109375 17.3662109375 738.3662109375 L 17.3662109375 737.3662109375 Z M 11.3662109375 737.3662109375 L 14.3662109375 737.3662109375 L 14.3662109375 738.3662109375 C 14.3662109375 738.3662109375 11.3662109375 738.3662109375 11.3662109375 738.3662109375 L 11.3662109375 737.3662109375 Z M 5.3662109375 737.3662109375 L 8.3662109375 737.3662109375 L 8.3662109375 738.3662109375 C 8.3662109375 738.3662109375 5.3662109375 738.3662109375 5.3662109375 738.3662109375 L 5.3662109375 737.3662109375 Z M 0 737.3662109375 L 2.3662109375 737.3662109375 L 2.3662109375 738.3662109375 C 2.3662109375 738.3662109375 0 738.3662109375 0 738.3662109375 L 0 737.3662109375 Z M 0 731.7323608398438 L 1 731.7323608398438 L 1 734.7323608398438 L 0 734.7323608398438 L 0 731.7323608398438 Z M 0 725.7323608398438 L 1 725.7323608398438 L 1 728.7323608398438 L 0 728.7323608398438 L 0 725.7323608398438 Z M 0 719.7323608398438 L 1 719.7323608398438 L 1 722.7323608398438 L 0 722.7323608398438 L 0 719.7323608398438 Z M 0 713.7323608398438 L 1 713.7323608398438 L 1 716.7323608398438 L 0 716.7323608398438 L 0 713.7323608398438 Z M 0 707.7323608398438 L 1 707.7323608398438 L 1 710.7323608398438 L 0 710.7323608398438 L 0 707.7323608398438 Z M 0 701.7323608398438 L 1 701.7323608398438 L 1 704.7323608398438 L 0 704.7323608398438 L 0 701.7323608398438 Z M 0 695.7323608398438 L 1 695.7323608398438 L 1 698.7323608398438 L 0 698.7323608398438 L 0 695.7323608398438 Z M 0 689.7323608398438 L 1 689.7323608398438 L 1 692.7323608398438 L 0 692.7323608398438 L 0 689.7323608398438 Z M 0 683.7323608398438 L 1 683.7323608398438 L 1 686.7323608398438 L 0 686.7323608398438 L 0 683.7323608398438 Z M 0 677.7323608398438 L 1 677.7323608398438 L 1 680.7323608398438 L 0 680.7323608398438 L 0 677.7323608398438 Z M 0 671.7323608398438 L 1 671.7323608398438 L 1 674.7323608398438 L 0 674.7323608398438 L 0 671.7323608398438 Z M 0 665.7323608398438 L 1 665.7323608398438 L 1 668.7323608398438 L 0 668.7323608398438 L 0 665.7323608398438 Z M 0 659.7323608398438 L 1 659.7323608398438 L 1 662.7323608398438 L 0 662.7323608398438 L 0 659.7323608398438 Z M 0 653.7323608398438 L 1 653.7323608398438 L 1 656.7323608398438 L 0 656.7323608398438 L 0 653.7323608398438 Z M 0 647.7323608398438 L 1 647.7323608398438 L 1 650.7323608398438 L 0 650.7323608398438 L 0 647.7323608398438 Z M 0 641.7323608398438 L 1 641.7323608398438 L 1 644.7323608398438 L 0 644.7323608398438 L 0 641.7323608398438 Z M 0 635.7323608398438 L 1 635.7323608398438 L 1 638.7323608398438 L 0 638.7323608398438 L 0 635.7323608398438 Z M 0 629.7323608398438 L 1 629.7323608398438 L 1 632.7323608398438 L 0 632.7323608398438 L 0 629.7323608398438 Z M 0 623.7323608398438 L 1 623.7323608398438 L 1 626.7323608398438 L 0 626.7323608398438 L 0 623.7323608398438 Z M 0 617.7323608398438 L 1 617.7323608398438 L 1 620.7323608398438 L 0 620.7323608398438 L 0 617.7323608398438 Z M 0 611.7323608398438 L 1 611.7323608398438 L 1 614.7323608398438 L 0 614.7323608398438 L 0 611.7323608398438 Z M 0 605.7323608398438 L 1 605.7323608398438 L 1 608.7323608398438 L 0 608.7323608398438 L 0 605.7323608398438 Z M 0 599.7323608398438 L 1 599.7323608398438 L 1 602.7323608398438 L 0 602.7323608398438 L 0 599.7323608398438 Z M 0 593.7323608398438 L 1 593.7323608398438 L 1 596.7323608398438 L 0 596.7323608398438 L 0 593.7323608398438 Z M 0 587.7323608398438 L 1 587.7323608398438 L 1 590.7323608398438 L 0 590.7323608398438 L 0 587.7323608398438 Z M 0 581.7323608398438 L 1 581.7323608398438 L 1 584.7323608398438 L 0 584.7323608398438 L 0 581.7323608398438 Z M 0 575.7323608398438 L 1 575.7323608398438 L 1 578.7323608398438 L 0 578.7323608398438 L 0 575.7323608398438 Z M 0 569.7323608398438 L 1 569.7323608398438 L 1 572.7323608398438 L 0 572.7323608398438 L 0 569.7323608398438 Z M 0 563.7323608398438 L 1 563.7323608398438 L 1 566.7323608398438 L 0 566.7323608398438 L 0 563.7323608398438 Z M 0 557.7323608398438 L 1 557.7323608398438 L 1 560.7323608398438 L 0 560.7323608398438 L 0 557.7323608398438 Z M 0 551.7323608398438 L 1 551.7323608398438 L 1 554.7323608398438 L 0 554.7323608398438 L 0 551.7323608398438 Z M 0 545.7323608398438 L 1 545.7323608398438 L 1 548.7323608398438 L 0 548.7323608398438 L 0 545.7323608398438 Z M 0 539.7323608398438 L 1 539.7323608398438 L 1 542.7323608398438 L 0 542.7323608398438 L 0 539.7323608398438 Z M 0 533.7323608398438 L 1 533.7323608398438 L 1 536.7323608398438 L 0 536.7323608398438 L 0 533.7323608398438 Z M 0 527.7323608398438 L 1 527.7323608398438 L 1 530.7323608398438 L 0 530.7323608398438 L 0 527.7323608398438 Z M 0 521.7323608398438 L 1 521.7323608398438 L 1 524.7323608398438 L 0 524.7323608398438 L 0 521.7323608398438 Z M 0 515.7323608398438 L 1 515.7323608398438 L 1 518.7323608398438 L 0 518.7323608398438 L 0 515.7323608398438 Z M 0 509.7323608398438 L 1 509.7323608398438 L 1 512.7323608398438 L 0 512.7323608398438 L 0 509.7323608398438 Z M 0 503.7323608398438 L 1 503.7323608398438 L 1 506.7323608398438 L 0 506.7323608398438 L 0 503.7323608398438 Z M 0 497.7323608398438 L 1 497.7323608398438 L 1 500.7323608398438 L 0 500.7323608398438 L 0 497.7323608398438 Z M 0 491.7323608398438 L 1 491.7323608398438 L 1 494.7323608398438 L 0 494.7323608398438 L 0 491.7323608398438 Z M 0 485.7323608398438 L 1 485.7323608398438 L 1 488.7323608398438 L 0 488.7323608398438 L 0 485.7323608398438 Z M 0 479.7323913574219 L 1 479.7323913574219 L 1 482.7323608398438 L 0 482.7323608398438 L 0 479.7323913574219 Z M 0 473.7323913574219 L 1 473.7323913574219 L 1 476.7323913574219 L 0 476.7323913574219 L 0 473.7323913574219 Z M 0 467.7323913574219 L 1 467.7323913574219 L 1 470.7323913574219 L 0 470.7323913574219 L 0 467.7323913574219 Z M 0 461.7323913574219 L 1 461.7323913574219 L 1 464.7323913574219 L 0 464.7323913574219 L 0 461.7323913574219 Z M 0 455.7323913574219 L 1 455.7323913574219 L 1 458.7323913574219 L 0 458.7323913574219 L 0 455.7323913574219 Z M 0 449.7323913574219 L 1 449.7323913574219 L 1 452.7323913574219 L 0 452.7323913574219 L 0 449.7323913574219 Z M 0 443.7323913574219 L 1 443.7323913574219 L 1 446.7323913574219 L 0 446.7323913574219 L 0 443.7323913574219 Z M 0 437.7323913574219 L 1 437.7323913574219 L 1 440.7323913574219 L 0 440.7323913574219 L 0 437.7323913574219 Z M 0 431.7323913574219 L 1 431.7323913574219 L 1 434.7323913574219 L 0 434.7323913574219 L 0 431.7323913574219 Z M 0 425.7323913574219 L 1 425.7323913574219 L 1 428.7323913574219 L 0 428.7323913574219 L 0 425.7323913574219 Z M 0 419.7323913574219 L 1 419.7323913574219 L 1 422.7323913574219 L 0 422.7323913574219 L 0 419.7323913574219 Z M 0 413.7323913574219 L 1 413.7323913574219 L 1 416.7323913574219 L 0 416.7323913574219 L 0 413.7323913574219 Z M 0 407.7323913574219 L 1 407.7323913574219 L 1 410.7323913574219 L 0 410.7323913574219 L 0 407.7323913574219 Z M 0 401.7323913574219 L 1 401.7323913574219 L 1 404.7323913574219 L 0 404.7323913574219 L 0 401.7323913574219 Z M 0 395.7323913574219 L 1 395.7323913574219 L 1 398.7323913574219 L 0 398.7323913574219 L 0 395.7323913574219 Z M 0 389.7323913574219 L 1 389.7323913574219 L 1 392.7323913574219 L 0 392.7323913574219 L 0 389.7323913574219 Z M 0 383.7323913574219 L 1 383.7323913574219 L 1 386.7323913574219 L 0 386.7323913574219 L 0 383.7323913574219 Z M 0 377.7323913574219 L 1 377.7323913574219 L 1 380.7323913574219 L 0 380.7323913574219 L 0 377.7323913574219 Z M 0 371.7323913574219 L 1 371.7323913574219 L 1 374.7323913574219 L 0 374.7323913574219 L 0 371.7323913574219 Z M 0 365.7323913574219 L 1 365.7323913574219 L 1 368.7323913574219 L 0 368.7323913574219 L 0 365.7323913574219 Z M 0 359.7323913574219 L 1 359.7323913574219 L 1 362.7323913574219 L 0 362.7323913574219 L 0 359.7323913574219 Z M 0 353.7323913574219 L 1 353.7323913574219 L 1 356.7323913574219 L 0 356.7323913574219 L 0 353.7323913574219 Z M 0 347.7323913574219 L 1 347.7323913574219 L 1 350.7323913574219 L 0 350.7323913574219 L 0 347.7323913574219 Z M 0 341.7323913574219 L 1 341.7323913574219 L 1 344.7323913574219 L 0 344.7323913574219 L 0 341.7323913574219 Z M 0 335.7323913574219 L 1 335.7323913574219 L 1 338.7323913574219 L 0 338.7323913574219 L 0 335.7323913574219 Z M 0 329.7323913574219 L 1 329.7323913574219 L 1 332.7323913574219 L 0 332.7323913574219 L 0 329.7323913574219 Z M 0 323.7323913574219 L 1 323.7323913574219 L 1 326.7323913574219 L 0 326.7323913574219 L 0 323.7323913574219 Z M 0 317.7323913574219 L 1 317.7323913574219 L 1 320.7323913574219 L 0 320.7323913574219 L 0 317.7323913574219 Z M 0 311.7323913574219 L 1 311.7323913574219 L 1 314.7323913574219 L 0 314.7323913574219 L 0 311.7323913574219 Z M 0 305.7323913574219 L 1 305.7323913574219 L 1 308.7323913574219 L 0 308.7323913574219 L 0 305.7323913574219 Z M 0 299.7323913574219 L 1 299.7323913574219 L 1 302.7323913574219 L 0 302.7323913574219 L 0 299.7323913574219 Z M 0 293.7323913574219 L 1 293.7323913574219 L 1 296.7323913574219 L 0 296.7323913574219 L 0 293.7323913574219 Z M 0 287.7323913574219 L 1 287.7323913574219 L 1 290.7323913574219 L 0 290.7323913574219 L 0 287.7323913574219 Z M 0 281.7323913574219 L 1 281.7323913574219 L 1 284.7323913574219 L 0 284.7323913574219 L 0 281.7323913574219 Z M 0 275.7323913574219 L 1 275.7323913574219 L 1 278.7323913574219 L 0 278.7323913574219 L 0 275.7323913574219 Z M 0 269.7323913574219 L 1 269.7323913574219 L 1 272.7323913574219 L 0 272.7323913574219 L 0 269.7323913574219 Z M 0 263.7323913574219 L 1 263.7323913574219 L 1 266.7323913574219 L 0 266.7323913574219 L 0 263.7323913574219 Z M 0 257.7323913574219 L 1 257.7323913574219 L 1 260.7323913574219 L 0 260.7323913574219 L 0 257.7323913574219 Z M 0 251.7323913574219 L 1 251.7323913574219 L 1 254.7323913574219 L 0 254.7323913574219 L 0 251.7323913574219 Z M 0 245.7323913574219 L 1 245.7323913574219 L 1 248.7323913574219 L 0 248.7323913574219 L 0 245.7323913574219 Z M 0 239.7323913574219 L 1 239.7323913574219 L 1 242.7323913574219 L 0 242.7323913574219 L 0 239.7323913574219 Z M 0 233.7323913574219 L 1 233.7323913574219 L 1 236.7323913574219 L 0 236.7323913574219 L 0 233.7323913574219 Z M 0 227.7323913574219 L 1 227.7323913574219 L 1 230.7323913574219 L 0 230.7323913574219 L 0 227.7323913574219 Z M 0 221.7323608398438 L 1 221.7323608398438 L 1 224.7323608398438 L 0 224.7323608398438 L 0 221.7323608398438 Z M 0 215.7323608398438 L 1 215.7323608398438 L 1 218.7323608398438 L 0 218.7323608398438 L 0 215.7323608398438 Z M 0 209.7323608398438 L 1 209.7323608398438 L 1 212.7323608398438 L 0 212.7323608398438 L 0 209.7323608398438 Z M 0 203.7323608398438 L 1 203.7323608398438 L 1 206.7323608398438 L 0 206.7323608398438 L 0 203.7323608398438 Z M 0 197.7323608398438 L 1 197.7323608398438 L 1 200.7323608398438 L 0 200.7323608398438 L 0 197.7323608398438 Z M 0 191.7323608398438 L 1 191.7323608398438 L 1 194.7323608398438 L 0 194.7323608398438 L 0 191.7323608398438 Z M 0 185.7323608398438 L 1 185.7323608398438 L 1 188.7323608398438 L 0 188.7323608398438 L 0 185.7323608398438 Z M 0 179.7323608398438 L 1 179.7323608398438 L 1 182.7323608398438 L 0 182.7323608398438 L 0 179.7323608398438 Z M 0 173.7323608398438 L 1 173.7323608398438 L 1 176.7323608398438 L 0 176.7323608398438 L 0 173.7323608398438 Z M 0 167.7323608398438 L 1 167.7323608398438 L 1 170.7323608398438 L 0 170.7323608398438 L 0 167.7323608398438 Z M 0 161.7323608398438 L 1 161.7323608398438 L 1 164.7323608398438 L 0 164.7323608398438 L 0 161.7323608398438 Z M 0 155.7323608398438 L 1 155.7323608398438 L 1 158.7323608398438 L 0 158.7323608398438 L 0 155.7323608398438 Z M 0 149.7323608398438 L 1 149.7323608398438 L 1 152.7323608398438 L 0 152.7323608398438 L 0 149.7323608398438 Z M 0 143.7323608398438 L 1 143.7323608398438 L 1 146.7323608398438 L 0 146.7323608398438 L 0 143.7323608398438 Z M 0 137.7323608398438 L 1 137.7323608398438 L 1 140.7323608398438 L 0 140.7323608398438 L 0 137.7323608398438 Z M 0 131.7323608398438 L 1 131.7323608398438 L 1 134.7323608398438 L 0 134.7323608398438 L 0 131.7323608398438 Z M 0 125.7323608398438 L 1 125.7323608398438 L 1 128.7323608398438 L 0 128.7323608398438 L 0 125.7323608398438 Z M 0 119.7323608398438 L 1 119.7323608398438 L 1 122.7323608398438 L 0 122.7323608398438 L 0 119.7323608398438 Z M 0 113.7323608398438 L 1 113.7323608398438 L 1 116.7323608398438 L 0 116.7323608398438 L 0 113.7323608398438 Z M 0 107.7323608398438 L 1 107.7323608398438 L 1 110.7323608398438 L 0 110.7323608398438 L 0 107.7323608398438 Z M 0 101.7323608398438 L 1 101.7323608398438 L 1 104.7323608398438 L 0 104.7323608398438 L 0 101.7323608398438 Z M 0 95.73236083984375 L 1 95.73236083984375 L 1 98.73236083984375 L 0 98.73236083984375 L 0 95.73236083984375 Z M 0 89.73236083984375 L 1 89.73236083984375 L 1 92.73236083984375 L 0 92.73236083984375 L 0 89.73236083984375 Z M 0 83.73236083984375 L 1 83.73236083984375 L 1 86.73236083984375 L 0 86.73236083984375 L 0 83.73236083984375 Z M 0 77.73236083984375 L 1 77.73236083984375 L 1 80.73236083984375 L 0 80.73236083984375 L 0 77.73236083984375 Z M 0 71.73236083984375 L 1 71.73236083984375 L 1 74.73236083984375 L 0 74.73236083984375 L 0 71.73236083984375 Z M 0 65.73236083984375 L 1 65.73236083984375 L 1 68.73236083984375 L 0 68.73236083984375 L 0 65.73236083984375 Z M 0 59.73236083984375 L 1 59.73236083984375 L 1 62.73236083984375 L 0 62.73236083984375 L 0 59.73236083984375 Z M 0 53.73236083984375 L 1 53.73236083984375 L 1 56.73236083984375 L 0 56.73236083984375 L 0 53.73236083984375 Z M 0 47.73236083984375 L 1 47.73236083984375 L 1 50.73236083984375 L 0 50.73236083984375 L 0 47.73236083984375 Z M 0 41.73236083984375 L 1 41.73236083984375 L 1 44.73236083984375 L 0 44.73236083984375 L 0 41.73236083984375 Z M 0 35.73236083984375 L 1 35.73236083984375 L 1 38.73236083984375 L 0 38.73236083984375 L 0 35.73236083984375 Z M 0 29.73236083984375 L 1 29.73236083984375 L 1 32.73236083984375 L 0 32.73236083984375 L 0 29.73236083984375 Z M 0 23.73236083984375 L 1 23.73236083984375 L 1 26.73236083984375 L 0 26.73236083984375 L 0 23.73236083984375 Z M 0 17.73236083984375 L 1 17.73236083984375 L 1 20.73236083984375 L 0 20.73236083984375 L 0 17.73236083984375 Z M 0 11.73236083984375 L 1 11.73236083984375 L 1 14.73236083984375 L 0 14.73236083984375 L 0 11.73236083984375 Z M 0 5.73236083984375 L 1 5.73236083984375 L 1 8.73236083984375 L 0 8.73236083984375 L 0 5.73236083984375 Z M 0 0 L 3 0 L 3 1 L 1 1 L 1 2.73236083984375 L 0 2.73236083984375 L 0 0 Z" stroke="none" fill="#707070"/>
    </g>
    <text id="Message_Action_Payload" data-name="Message Action Payload" transform="translate(514 -9119)" fill="#707070" font-size="16" font-family="SegoeUI-Semibold, Segoe UI" font-weight="600"><tspan x="0" y="0">Message Action Payload</tspan></text>
    <line id="Line_142" data-name="Line 142" y2="29" transform="translate(771.5 -9187.5)" fill="none" stroke="#707070" stroke-width="1" stroke-dasharray="3"/>
    <g id="Rectangle_85" data-name="Rectangle 85" transform="translate(528 -8969)" fill="#fcfcfc" stroke="#707070" stroke-width="1" stroke-dasharray="3">
      <rect width="660" height="177" stroke="none"/>
      <rect x="0.5" y="0.5" width="659" height="176" fill="none"/>
    </g>
    <text id="Request_Transaction_Transfer_Template_-_Partially_Filled_Out_" data-name="Request Transaction (Transfer Template - Partially Filled Out)" transform="translate(540 -8936)" fill="#707070" font-size="16" font-family="SegoeUI-Semibold, Segoe UI" font-weight="600"><tspan x="0" y="0">Request Transaction (Transfer Template - Partially Filled Out)</tspan></text>
    <line id="Line_143" data-name="Line 143" y2="96" transform="translate(728.5 -8908.5)" fill="none" stroke="#707070" stroke-width="1"/>
    <text id="INPUTS-2" data-name="INPUTS" transform="translate(541 -8907)" fill="#707070" font-size="14" font-family="SegoeUI-Bold, Segoe UI" font-weight="700"><tspan x="0" y="15">INPUTS</tspan></text>
    <text id="OUTPUTS_2" data-name="OUTPUTS " transform="translate(744 -8907)" fill="#707070" font-size="14" font-family="SegoeUI-Bold, Segoe UI" font-weight="700"><tspan x="0" y="15">OUTPUTS </tspan></text>
    <text id="_0:_Participant_1_1_1:____________________________" data-name="0: Participant 1 (1)
1: __________________________" transform="translate(541 -8887)" fill="#707070" font-size="14" font-family="SegoeUI, Segoe UI"><tspan x="0" y="15">0: </tspan><tspan y="15" fill="#ef1818">Participant 1 (1)</tspan><tspan fill="#7b1adb"><tspan x="0" y="34">1: __________________________</tspan><tspan y="34" fill="#ef1818"></tspan></tspan><tspan fill="#ef1818"><tspan x="0" y="53"></tspan></tspan></text>
    <text id="_0:_Smart_Contract_1_1:_Smart_Contract_2_1:_Participant_1_2_2:_Transfer_Action" data-name="0: Smart Contract 1
1: Smart Contract 2
1: Participant 1 (2)
2: Transfer Action" transform="translate(744 -8887)" fill="#707070" font-size="14" font-family="SegoeUI, Segoe UI"><tspan x="0" y="15">0: Smart Contract 1</tspan><tspan x="0" y="34">1: Smart Contract 2</tspan><tspan x="0" y="53">1:</tspan><tspan y="53" xml:space="preserve" fill="#ef1818"> Participant 1 (2)</tspan><tspan y="53"></tspan><tspan x="0" y="72">2:</tspan><tspan y="72" fill="#7b1adb"> </tspan><tspan y="72">Transfer Action</tspan></text>
    <text id="VALUE-2" data-name="VALUE" transform="translate(937 -8907)" fill="#707070" font-size="14" font-family="SegoeUI-Bold, Segoe UI" font-weight="700"><tspan x="0" y="15">VALUE</tspan></text>
    <text id="Response_Costs_Contract_Fee_Contract_Fee_Bitcoin_Change_N_A" data-name="Response Costs + Contract Fee
Contract Fee
Bitcoin Change
N/A" transform="translate(937 -8887)" fill="#707070" font-size="14" font-family="SegoeUI, Segoe UI"><tspan x="0" y="15">Response Costs + Contract Fee</tspan><tspan x="0" y="34">Contract Fee</tspan><tspan x="0" y="53">Bitcoin Change</tspan><tspan x="0" y="72">N/A</tspan></text>
    <g id="Rectangle_87" data-name="Rectangle 87" transform="translate(756 -8828)" fill="none" stroke="#707070" stroke-width="1" stroke-dasharray="3">
      <rect width="98" height="17" stroke="none"/>
      <rect x="0.5" y="0.5" width="97" height="16" fill="none"/>
    </g>
    <line id="Line_145" data-name="Line 145" y2="58" transform="translate(806.5 -8809.5)" fill="none" stroke="#707070" stroke-width="1" stroke-dasharray="3"/>
    <text id="MESSAGE_TYPE:_1001_-_Offer" data-name="MESSAGE TYPE: 1001 - Offer" transform="translate(514 -9098)" fill="#707070" font-size="12" font-family="SegoeUI-Bold, Segoe UI" font-weight="700"><tspan x="0" y="13">MESSAGE TYPE: 1001 - Offer</tspan></text>
    <text id="Message_Receivers" data-name="Message Receivers" transform="translate(531 -9074)" fill="#707070" font-size="14" font-family="SegoeUI-Bold, Segoe UI" font-weight="700"><tspan x="0" y="15">Message Receivers</tspan></text>
    <text id="Participant_2_1_" data-name="Participant 2 (1)" transform="translate(531 -9039)" fill="#7b1adb" font-size="14" font-family="SegoeUI, Segoe UI"><tspan x="0" y="0">Participant 2 (1)</tspan></text>
    <line id="Line_146" data-name="Line 146" y2="37" transform="translate(519.5 -9073.5)" fill="none" stroke="#707070" stroke-width="1"/>
    <g id="Rectangle_88" data-name="Rectangle 88" transform="translate(510 -9029)" fill="none" stroke="#707070" stroke-width="1" stroke-dasharray="3">
      <rect width="127" height="21" stroke="none"/>
      <rect x="0.5" y="0.5" width="126" height="20" fill="none"/>
    </g>
    <text id="MESSAGE_PAYLOAD" data-name="MESSAGE PAYLOAD" transform="translate(514 -9028)" fill="#707070" font-size="12" font-family="SegoeUI-Bold, Segoe UI" font-weight="700"><tspan x="0" y="13">MESSAGE PAYLOAD</tspan></text>
    <line id="Line_147" data-name="Line 147" y2="40" transform="translate(624.5 -9008.5)" fill="none" stroke="#707070" stroke-width="1" stroke-dasharray="3"/>
    <g id="Rectangle_182" data-name="Rectangle 182" transform="translate(689 -8750)" fill="#fcfcfc" stroke="#707070" stroke-width="1" stroke-dasharray="3">
      <rect width="339.499" height="302" stroke="none"/>
      <rect x="0.5" y="0.5" width="338.499" height="301" fill="none"/>
    </g>
    <text id="Transfer_Action_Payload" data-name="Transfer Action Payload" transform="translate(700 -8717)" fill="#707070" font-size="16" font-family="SegoeUI-Semibold, Segoe UI" font-weight="600"><tspan x="0" y="0">Transfer Action Payload</tspan></text>
    <text id="Senders" transform="translate(715 -8680)" fill="#707070" font-size="14" font-family="SegoeUI-Bold, Segoe UI" font-weight="700"><tspan x="0" y="15">Senders</tspan></text>
    <text id="Participant_1_1_:_300_tokens" data-name="Participant 1 (1): 300 tokens" transform="translate(715 -8645)" fill="#ef1818" font-size="14" font-family="SegoeUI, Segoe UI"><tspan x="0" y="0">Participant 1 (1)</tspan><tspan y="0" fill="#707070">: 300 tokens</tspan></text>
    <text id="Receivers" transform="translate(715 -8634)" fill="#707070" font-size="14" font-family="SegoeUI-Bold, Segoe UI" font-weight="700"><tspan x="0" y="15">Receivers</tspan></text>
    <text id="Participant_2_2_:_300_tokens" data-name="Participant 2 (2): 300 tokens" transform="translate(715 -8598)" fill="#7b1adb" font-size="14" font-family="SegoeUI, Segoe UI"><tspan x="0" y="0">Participant 2 (2)</tspan><tspan y="0" fill="#707070">: 300 tokens</tspan></text>
    <text id="ASSETID_1_:_SHC1BvBMSEYstWetqTFn5Au4m4GFgJ..." data-name="ASSETID(1): SHC1BvBMSEYstWetqTFn5Au4m4GFgJ..." transform="translate(704 -8699)" fill="#707070" font-size="12" font-family="SegoeUI-Bold, Segoe UI" font-weight="700"><tspan x="0" y="13">ASSETID(1): SHC1BvBMSEYstWetqTFn5Au4m4GFgJ...</tspan></text>
    <line id="Line_239" data-name="Line 239" y2="84" transform="translate(705.5 -8677.5)" fill="none" stroke="#707070" stroke-width="1"/>
    <text id="Senders-2" data-name="Senders" transform="translate(715 -8560)" fill="#707070" font-size="14" font-family="SegoeUI-Bold, Segoe UI" font-weight="700"><tspan x="0" y="15">Senders</tspan></text>
    <text id="Participant_2_1_:_100_tokens" data-name="Participant 2 (1): 100 tokens" transform="translate(715 -8525)" fill="#7b1adb" font-size="14" font-family="SegoeUI, Segoe UI"><tspan x="0" y="0">Participant 2 (1)</tspan><tspan y="0" fill="#707070">: 100 tokens</tspan></text>
    <text id="Receivers-2" data-name="Receivers" transform="translate(715 -8514)" fill="#707070" font-size="14" font-family="SegoeUI-Bold, Segoe UI" font-weight="700"><tspan x="0" y="15">Receivers</tspan></text>
    <text id="Participant_1_2_:_100_tokens" data-name="Participant 1 (2): 100 tokens" transform="translate(715 -8478)" fill="#ef1818" font-size="14" font-family="SegoeUI, Segoe UI"><tspan x="0" y="0">Participant 1 (2)</tspan><tspan y="0" fill="#707070">: 100 tokens</tspan></text>
    <text id="ASSETID_2_:_SHP3Bv3nmMkjknqTFn5Au4mFg7xJ..." data-name="ASSETID(2): SHP3Bv3nmMkjknqTFn5Au4mFg7xJ..." transform="translate(704 -8579)" fill="#707070" font-size="12" font-family="SegoeUI-Bold, Segoe UI" font-weight="700"><tspan x="0" y="13">ASSETID(2): SHP3Bv3nmMkjknqTFn5Au4mFg7xJ...</tspan></text>
    <line id="Line_240" data-name="Line 240" y2="84" transform="translate(705.5 -8557.5)" fill="none" stroke="#707070" stroke-width="1"/>
    <line id="Line_241" data-name="Line 241" x2="128" transform="translate(898 -8603.5)" fill="none" stroke="#cf730b" stroke-width="1" stroke-dasharray="3"/>
    <g id="Rectangle_183" data-name="Rectangle 183" transform="translate(816 -8491)" fill="none" stroke="#cf730b" stroke-width="1" stroke-dasharray="3">
      <rect width="83" height="18" stroke="none"/>
      <rect x="0.5" y="0.5" width="82" height="17" fill="none"/>
    </g>
    <g id="Rectangle_184" data-name="Rectangle 184" transform="translate(815 -8612)" fill="none" stroke="#cf730b" stroke-width="1" stroke-dasharray="3">
      <rect width="83" height="18" stroke="none"/>
      <rect x="0.5" y="0.5" width="82" height="17" fill="none"/>
    </g>
    <g id="Rectangle_185" data-name="Rectangle 185" transform="translate(689 -8750)" fill="#fcfcfc" stroke="#707070" stroke-width="1" stroke-dasharray="3">
      <rect width="339.499" height="302" stroke="none"/>
      <rect x="0.5" y="0.5" width="338.499" height="301" fill="none"/>
    </g>
    <text id="Transfer_Action_Payload-2" data-name="Transfer Action Payload" transform="translate(700 -8717)" fill="#707070" font-size="16" font-family="SegoeUI-Semibold, Segoe UI" font-weight="600"><tspan x="0" y="0">Transfer Action Payload</tspan></text>
    <text id="Senders-3" data-name="Senders" transform="translate(715 -8680)" fill="#707070" font-size="14" font-family="SegoeUI-Bold, Segoe UI" font-weight="700"><tspan x="0" y="15">Senders</tspan></text>
    <text id="Participant_1_1_:_300_shares" data-name="Participant 1 (1): 300 shares" transform="translate(715 -8645)" fill="#ef1818" font-size="14" font-family="SegoeUI, Segoe UI"><tspan x="0" y="0">Participant 1 (1)</tspan><tspan y="0" fill="#707070">: 300 shares</tspan></text>
    <text id="Receivers-3" data-name="Receivers" transform="translate(715 -8634)" fill="#707070" font-size="14" font-family="SegoeUI-Bold, Segoe UI" font-weight="700"><tspan x="0" y="15">Receivers</tspan></text>
    <text id="_________________:_300_shares" data-name="_________________: 300 shares" transform="translate(715 -8598)" fill="#7b1adb" font-size="14" font-family="SegoeUI, Segoe UI"><tspan x="0" y="0">_________________</tspan><tspan y="0" fill="#707070">: 300 shares</tspan></text>
    <text id="ASSETID:_SHC1BvBMSJ..._Common_Shares" data-name="ASSETID: SHC1BvBMSJ... Common Shares" transform="translate(704 -8699)" fill="#707070" font-size="12" font-family="SegoeUI-Bold, Segoe UI" font-weight="700"><tspan x="0" y="13">ASSETID: SHC1BvBMSJ... Common Shares</tspan></text>
    <line id="Line_243" data-name="Line 243" y2="84" transform="translate(705.5 -8677.5)" fill="none" stroke="#707070" stroke-width="1"/>
    <text id="Senders-4" data-name="Senders" transform="translate(715 -8560)" fill="#707070" font-size="14" font-family="SegoeUI-Bold, Segoe UI" font-weight="700"><tspan x="0" y="15">Senders</tspan></text>
    <text id="_________________:_100_shares" data-name="_________________: 100 shares" transform="translate(715 -8525)" fill="#7b1adb" font-size="14" font-family="SegoeUI, Segoe UI"><tspan x="0" y="0">_________________: </tspan><tspan y="0" fill="#707070">100 shares</tspan></text>
    <text id="Receivers-4" data-name="Receivers" transform="translate(715 -8514)" fill="#707070" font-size="14" font-family="SegoeUI-Bold, Segoe UI" font-weight="700"><tspan x="0" y="15">Receivers</tspan></text>
    <text id="Participant_1_3_:_100_shares" data-name="Participant 1 (3): 100 shares" transform="translate(715 -8478)" fill="#ef1818" font-size="14" font-family="SegoeUI, Segoe UI"><tspan x="0" y="0">Participant 1 (3)</tspan><tspan y="0" fill="#707070">: 100 shares</tspan></text>
    <text id="ASSETID_2_:_SHP3Bv3m..._Preferred_Shares" data-name="ASSETID(2): SHP3Bv3m... Preferred Shares" transform="translate(704 -8579)" fill="#707070" font-size="12" font-family="SegoeUI-Bold, Segoe UI" font-weight="700"><tspan x="0" y="13">ASSETID(2): SHP3Bv3m... Preferred Shares</tspan></text>
    <line id="Line_244" data-name="Line 244" y2="84" transform="translate(705.5 -8557.5)" fill="none" stroke="#707070" stroke-width="1"/>
  </g>
</svg>
