<svg xmlns="http://www.w3.org/2000/svg" xmlns:xlink="http://www.w3.org/1999/xlink" width="721" height="859" viewBox="0 0 721 859">
  <defs>
    <clipPath id="clip-atomic-swap-settlement-signature-request-message">
      <rect width="721" height="859"/>
    </clipPath>
  </defs>
  <g id="atomic-swap-settlement-signature-request-message" clip-path="url(#clip-atomic-swap-settlement-signature-request-message)">
    <g id="atomic-swap-settlement-signature-request-message-2" data-name="atomic-swap-settlement-signature-request-message" transform="translate(-2637 9329)">
      <g id="Rectangle_175" data-name="Rectangle 175" transform="translate(2637 -9328)" fill="#fcfcfc" stroke="#707070" stroke-width="1">
        <rect width="721" height="136" stroke="none"/>
        <rect x="0.5" y="0.5" width="720" height="135" fill="none"/>
      </g>
      <text id="Message_Transaction_Signature_Request_" data-name="Message Transaction (Signature Request)" transform="translate(2652 -9293)" fill="#707070" font-size="16" font-family="SegoeUI-Semibold, Segoe UI" font-weight="600"><tspan x="0" y="0">Message Transaction (Signature Request)</tspan></text>
      <line id="Line_231" data-name="Line 231" y2="60" transform="translate(2839.5 -9267.5)" fill="none" stroke="#707070" stroke-width="1"/>
      <text id="INPUTS" transform="translate(2652 -9266)" fill="#707070" font-size="14" font-family="SegoeUI-Bold, Segoe UI" font-weight="700"><tspan x="0" y="15">INPUTS</tspan></text>
      <text id="OUTPUTS_" data-name="OUTPUTS " transform="translate(2855 -9266)" fill="#707070" font-size="14" font-family="SegoeUI-Bold, Segoe UI" font-weight="700"><tspan x="0" y="15">OUTPUTS </tspan></text>
      <text id="_0:_Smart_Contract_2" data-name="0: Smart Contract 2" transform="translate(2652 -9246)" fill="#707070" font-size="14" font-family="SegoeUI, Segoe UI"><tspan x="0" y="15">0: Smart Contract 2</tspan></text>
      <text id="_0:_Smart_Contract_1_1:_Message_Action" data-name="0: Smart Contract 1
1: Message Action" transform="translate(2855 -9246)" fill="#707070" font-size="14" font-family="SegoeUI, Segoe UI"><tspan x="0" y="15">0: Smart Contract 1</tspan><tspan x="0" y="34">1: Message Action</tspan></text>
      <text id="VALUE" transform="translate(3048 -9266)" fill="#707070" font-size="14" font-family="SegoeUI-Bold, Segoe UI" font-weight="700"><tspan x="0" y="15">VALUE</tspan></text>
      <text id="Intercontract_Messaging_Coin_Remainder_N_A" data-name="Intercontract Messaging Coin Remainder
N/A" transform="translate(3048 -9246)" fill="#707070" font-size="14" font-family="SegoeUI, Segoe UI"><tspan x="0" y="15">Intercontract Messaging Coin Remainder</tspan><tspan x="0" y="34">N/A</tspan></text>
      <g id="Rectangle_176" data-name="Rectangle 176" transform="translate(2867 -9226)" fill="none" stroke="#707070" stroke-width="1" stroke-dasharray="3">
        <rect width="103" height="18" stroke="none"/>
        <rect x="0.5" y="0.5" width="102" height="17" fill="none"/>
      </g>
      <g id="Rectangle_177" data-name="Rectangle 177" transform="translate(2637 -9166)" fill="#fcfcfc" stroke="#707070" stroke-width="1" stroke-dasharray="3">
        <rect width="721" height="698.866" stroke="none"/>
        <rect x="0.5" y="0.5" width="720" height="697.866" fill="none"/>
      </g>
      <text id="Message_Action_Payload" data-name="Message Action Payload" transform="translate(2652 -9143)" fill="#707070" font-size="16" font-family="SegoeUI-Semibold, Segoe UI" font-weight="600"><tspan x="0" y="0">Message Action Payload</tspan></text>
      <line id="Line_232" data-name="Line 232" y2="41" transform="translate(2910.5 -9207.5)" fill="none" stroke="#707070" stroke-width="1" stroke-dasharray="3"/>
      <g id="Path_203" data-name="Path 203" transform="translate(2666 -8993)" fill="#fcfcfc" stroke-dasharray="3">
        <path d="M0,0H660V226.444H0Z" stroke="none"/>
        <path d="M 6 0 L 9 0 L 9 1 L 6 1 L 6 0 Z M 12 0 L 15 0 L 15 1 L 12 1 L 12 0 Z M 18 0 L 21 0 L 21 1 L 18 1 L 18 0 Z M 24 0 L 27 0 L 27 1 L 24 1 L 24 0 Z M 30 0 L 33 0 L 33 1 L 30 1 L 30 0 Z M 36 0 L 39 0 L 39 1 L 36 1 L 36 0 Z M 42 0 L 45 0 L 45 1 L 42 1 L 42 0 Z M 48 0 L 51 0 L 51 1 L 48 1 L 48 0 Z M 54 0 L 57 0 L 57 1 L 54 1 L 54 0 Z M 60 0 L 63 0 L 63 1 L 60 1 L 60 0 Z M 66 0 L 69 0 L 69 1 L 66 1 L 66 0 Z M 72 0 L 75 0 L 75 1 L 72 1 L 72 0 Z M 78 0 L 81 0 L 81 1 L 78 1 L 78 0 Z M 84 0 L 87 0 L 87 1 L 84 1 L 84 0 Z M 90 0 L 93 0 L 93 1 L 90 1 L 90 0 Z M 96 0 L 99 0 L 99 1 L 96 1 L 96 0 Z M 102 0 L 105 0 L 105 1 L 102 1 L 102 0 Z M 108 0 L 111 0 L 111 1 L 108 1 L 108 0 Z M 114 0 L 117 0 L 117 1 L 114 1 L 114 0 Z M 120 0 L 123 0 L 123 1 L 120 1 L 120 0 Z M 126 0 L 129 0 L 129 1 L 126 1 L 126 0 Z M 132 0 L 135 0 L 135 1 L 132 1 L 132 0 Z M 138 0 L 141 0 L 141 1 L 138 1 L 138 0 Z M 144 0 L 147 0 L 147 1 L 144 1 L 144 0 Z M 150 0 L 153 0 L 153 1 L 150 1 L 150 0 Z M 156 0 L 159 0 L 159 1 L 156 1 L 156 0 Z M 162 0 L 165 0 L 165 1 L 162 1 L 162 0 Z M 168 0 L 171 0 L 171 1 L 168 1 L 168 0 Z M 174 0 L 177 0 L 177 1 L 174 1 L 174 0 Z M 180 0 L 183 0 L 183 1 L 180 1 L 180 0 Z M 186 0 L 189 0 L 189 1 L 186 1 L 186 0 Z M 192 0 L 195 0 L 195 1 L 192 1 L 192 0 Z M 198 0 L 201 0 L 201 1 L 198 1 L 198 0 Z M 204 0 L 207 0 L 207 1 L 204 1 L 204 0 Z M 210 0 L 213 0 L 213 1 L 210 1 L 210 0 Z M 216 0 L 219 0 L 219 1 L 216 1 L 216 0 Z M 222 0 L 225 0 L 225 1 L 222 1 L 222 0 Z M 228 0 L 231 0 L 231 1 L 228 1 L 228 0 Z M 234 0 L 237 0 L 237 1 L 234 1 L 234 0 Z M 240 0 L 243 0 L 243 1 L 240 1 L 240 0 Z M 246 0 L 249 0 L 249 1 L 246 1 L 246 0 Z M 252 0 L 255 0 L 255 1 L 252 1 L 252 0 Z M 258 0 L 261 0 L 261 1 L 258 1 L 258 0 Z M 264 0 L 267 0 L 267 1 L 264 1 L 264 0 Z M 270 0 L 273 0 L 273 1 L 270 1 L 270 0 Z M 276 0 L 279 0 L 279 1 L 276 1 L 276 0 Z M 282 0 L 285 0 L 285 1 L 282 1 L 282 0 Z M 288 0 L 291 0 L 291 1 L 288 1 L 288 0 Z M 294 0 L 297 0 L 297 1 L 294 1 L 294 0 Z M 300 0 L 303 0 L 303 1 L 300 1 L 300 0 Z M 306 0 L 309 0 L 309 1 L 306 1 L 306 0 Z M 312 0 L 315 0 L 315 1 L 312 1 L 312 0 Z M 318 0 L 321 0 L 321 1 L 318 1 L 318 0 Z M 324 0 L 327 0 L 327 1 L 324 1 L 324 0 Z M 330 0 L 333 0 L 333 1 L 330 1 L 330 0 Z M 336 0 L 339 0 L 339 1 L 336 1 L 336 0 Z M 342 0 L 345 0 L 345 1 L 342 1 L 342 0 Z M 348 0 L 351 0 L 351 1 L 348 1 L 348 0 Z M 354 0 L 357 0 L 357 1 L 354 1 L 354 0 Z M 360 0 L 363 0 L 363 1 L 360 1 L 360 0 Z M 366 0 L 369 0 L 369 1 L 366 1 L 366 0 Z M 372 0 L 375 0 L 375 1 L 372 1 L 372 0 Z M 378 0 L 381 0 L 381 1 L 378 1 L 378 0 Z M 384 0 L 387 0 L 387 1 L 384 1 L 384 0 Z M 390 0 L 393 0 L 393 1 L 390 1 L 390 0 Z M 396 0 L 399 0 L 399 1 L 396 1 L 396 0 Z M 402 0 L 405 0 L 405 1 L 402 1 L 402 0 Z M 408 0 L 411 0 L 411 1 L 408 1 L 408 0 Z M 414 0 L 417 0 L 417 1 L 414 1 L 414 0 Z M 420 0 L 423 0 L 423 1 L 420 1 L 420 0 Z M 426 0 L 429 0 L 429 1 L 426 1 L 426 0 Z M 432 0 L 435 0 L 435 1 L 432 1 L 432 0 Z M 438 0 L 441 0 L 441 1 L 438 1 L 438 0 Z M 444 0 L 447 0 L 447 1 L 444 1 L 444 0 Z M 450 0 L 453 0 L 453 1 L 450 1 L 450 0 Z M 456 0 L 459 0 L 459 1 L 456 1 L 456 0 Z M 462 0 L 465 0 L 465 1 L 462 1 L 462 0 Z M 468 0 L 471 0 L 471 1 L 468 1 L 468 0 Z M 474 0 L 477 0 L 477 1 L 474 1 L 474 0 Z M 480 0 L 483 0 L 483 1 L 480 1 L 480 0 Z M 486 0 L 489 0 L 489 1 L 486 1 L 486 0 Z M 492 0 L 495 0 L 495 1 L 492 1 L 492 0 Z M 498 0 L 501 0 L 501 1 L 498 1 L 498 0 Z M 504 0 L 507 0 L 507 1 L 504 1 L 504 0 Z M 510 0 L 513 0 L 513 1 L 510 1 L 510 0 Z M 516 0 L 519 0 L 519 1 L 516 1 L 516 0 Z M 522 0 L 525 0 L 525 1 L 522 1 L 522 0 Z M 528 0 L 531 0 L 531 1 L 528 1 L 528 0 Z M 534 0 L 537 0 L 537 1 L 534 1 L 534 0 Z M 540 0 L 543 0 L 543 1 L 540 1 L 540 0 Z M 546 0 L 549 0 L 549 1 L 546 1 L 546 0 Z M 552 0 L 555 0 L 555 1 L 552 1 L 552 0 Z M 558 0 L 561 0 L 561 1 L 558 1 L 558 0 Z M 564 0 L 567 0 L 567 1 L 564 1 L 564 0 Z M 570 0 L 573 0 L 573 1 L 570 1 L 570 0 Z M 576 0 L 579 0 L 579 1 L 576 1 L 576 0 Z M 582 0 L 585 0 L 585 1 L 582 1 L 582 0 Z M 588 0 L 591 0 L 591 1 L 588 1 L 588 0 Z M 594 0 L 597 0 L 597 1 L 594 1 L 594 0 Z M 600 0 L 603 0 L 603 1 L 600 1 L 600 0 Z M 606 0 L 609 0 L 609 1 L 606 1 L 606 0 Z M 612 0 L 615 0 L 615 1 L 612 1 L 612 0 Z M 618 0 L 621 0 L 621 1 L 618 1 L 618 0 Z M 624 0 L 627 0 L 627 1 L 624 1 L 624 0 Z M 630 0 L 633 0 L 633 1 L 630 1 L 630 0 Z M 636 0 L 639 0 L 639 1 L 636 1 L 636 0 Z M 642 0 L 645 0 L 645 1 L 642 1 L 642 0 Z M 648 0 L 651 0 L 651 1 L 648 1 L 648 0 Z M 654 0 L 657 0 L 657 1 L 654 1 L 654 0 Z M 659 0 L 660 0 C 660 0 660 3 660 3 L 659 3 L 659 0 Z M 659 6 L 660 6 C 660 6 660 9 660 9 L 659 9 L 659 6 Z M 659 12 L 660 12 C 660 12 660 15 660 15 L 659 15 L 659 12 Z M 659 18 L 660 18 C 660 18 660 21 660 21 L 659 21 L 659 18 Z M 659 24 L 660 24 C 660 24 660 27 660 27 L 659 27 L 659 24 Z M 659 30 L 660 30 C 660 30 660 33 660 33 L 659 33 L 659 30 Z M 659 36 L 660 36 C 660 36 660 39 660 39 L 659 39 L 659 36 Z M 659 42 L 660 42 C 660 42 660 45 660 45 L 659 45 L 659 42 Z M 659 48 L 660 48 C 660 48 660 51 660 51 L 659 51 L 659 48 Z M 659 54 L 660 54 C 660 54 660 57 660 57 L 659 57 L 659 54 Z M 659 60 L 660 60 C 660 60 660 63 660 63 L 659 63 L 659 60 Z M 659 66 L 660 66 C 660 66 660 69 660 69 L 659 69 L 659 66 Z M 659 72 L 660 72 C 660 72 660 75 660 75 L 659 75 L 659 72 Z M 659 78 L 660 78 C 660 78 660 81 660 81 L 659 81 L 659 78 Z M 659 84 L 660 84 C 660 84 660 87 660 87 L 659 87 L 659 84 Z M 659 90 L 660 90 C 660 90 660 93 660 93 L 659 93 L 659 90 Z M 659 96 L 660 96 C 660 96 660 98.99999237060547 660 98.99999237060547 L 659 98.99999237060547 L 659 96 Z M 659 101.9999923706055 L 660 101.9999923706055 C 660 101.9999923706055 660 104.9999923706055 660 104.9999923706055 L 659 104.9999923706055 L 659 101.9999923706055 Z M 659 107.9999923706055 L 660 107.9999923706055 C 660 107.9999923706055 660 110.9999923706055 660 110.9999923706055 L 659 110.9999923706055 L 659 107.9999923706055 Z M 659 113.9999923706055 L 660 113.9999923706055 C 660 113.9999923706055 660 116.9999923706055 660 116.9999923706055 L 659 116.9999923706055 L 659 113.9999923706055 Z M 659 119.9999923706055 L 660 119.9999923706055 C 660 119.9999923706055 660 122.9999923706055 660 122.9999923706055 L 659 122.9999923706055 L 659 119.9999923706055 Z M 659 125.9999923706055 L 660 125.9999923706055 C 660 125.9999923706055 660 129 660 129 L 659 129 L 659 125.9999923706055 Z M 659 132 L 660 132 C 660 132 660 135 660 135 L 659 135 L 659 132 Z M 659 138 L 660 138 C 660 138 660 141 660 141 L 659 141 L 659 138 Z M 659 144 L 660 144 C 660 144 660 147 660 147 L 659 147 L 659 144 Z M 659 150 L 660 150 C 660 150 660 153 660 153 L 659 153 L 659 150 Z M 659 156 L 660 156 C 660 156 660 159 660 159 L 659 159 L 659 156 Z M 659 162 L 660 162 C 660 162 660 165 660 165 L 659 165 L 659 162 Z M 659 168 L 660 168 C 660 168 660 171 660 171 L 659 171 L 659 168 Z M 659 174 L 660 174 C 660 174 660 177 660 177 L 659 177 L 659 174 Z M 659 180 L 660 180 C 660 180 660 183 660 183 L 659 183 L 659 180 Z M 659 186 L 660 186 C 660 186 660 189 660 189 L 659 189 L 659 186 Z M 659 192 L 660 192 C 660 192 660 195 660 195 L 659 195 L 659 192 Z M 659 198 L 660 198 C 660 198 660 201 660 201 L 659 201 L 659 198 Z M 659 204 L 660 204 C 660 204 660 207 660 207 L 659 207 L 659 204 Z M 659 210 L 660 210 C 660 210 660 213 660 213 L 659 213 L 659 210 Z M 659 216 L 660 216 C 660 216 660 219 660 219 L 659 219 L 659 216 Z M 659 222 L 660 222 C 660 222 660 225 660 225 L 659 225 L 659 222 Z M 655.4443359375 225.4443206787109 L 658.4443359375 225.4443206787109 L 658.4443359375 226.4443206787109 C 658.4443359375 226.4443206787109 655.4443359375 226.4443206787109 655.4443359375 226.4443206787109 L 655.4443359375 225.4443206787109 Z M 649.4443359375 225.4443206787109 L 652.4443359375 225.4443206787109 L 652.4443359375 226.4443206787109 C 652.4443359375 226.4443206787109 649.4443359375 226.4443206787109 649.4443359375 226.4443206787109 L 649.4443359375 225.4443206787109 Z M 643.4443359375 225.4443206787109 L 646.4443359375 225.4443206787109 L 646.4443359375 226.4443206787109 C 646.4443359375 226.4443206787109 643.4443359375 226.4443206787109 643.4443359375 226.4443206787109 L 643.4443359375 225.4443206787109 Z M 637.4443359375 225.4443206787109 L 640.4443359375 225.4443206787109 L 640.4443359375 226.4443206787109 C 640.4443359375 226.4443206787109 637.4443359375 226.4443206787109 637.4443359375 226.4443206787109 L 637.4443359375 225.4443206787109 Z M 631.4443359375 225.4443206787109 L 634.4443359375 225.4443206787109 L 634.4443359375 226.4443206787109 C 634.4443359375 226.4443206787109 631.4443359375 226.4443206787109 631.4443359375 226.4443206787109 L 631.4443359375 225.4443206787109 Z M 625.4443359375 225.4443206787109 L 628.4443359375 225.4443206787109 L 628.4443359375 226.4443206787109 C 628.4443359375 226.4443206787109 625.4443359375 226.4443206787109 625.4443359375 226.4443206787109 L 625.4443359375 225.4443206787109 Z M 619.4443359375 225.4443206787109 L 622.4443359375 225.4443206787109 L 622.4443359375 226.4443206787109 C 622.4443359375 226.4443206787109 619.4443359375 226.4443206787109 619.4443359375 226.4443206787109 L 619.4443359375 225.4443206787109 Z M 613.4443359375 225.4443206787109 L 616.4443359375 225.4443206787109 L 616.4443359375 226.4443206787109 C 616.4443359375 226.4443206787109 613.4443359375 226.4443206787109 613.4443359375 226.4443206787109 L 613.4443359375 225.4443206787109 Z M 607.4443359375 225.4443206787109 L 610.4443359375 225.4443206787109 L 610.4443359375 226.4443206787109 C 610.4443359375 226.4443206787109 607.4443359375 226.4443206787109 607.4443359375 226.4443206787109 L 607.4443359375 225.4443206787109 Z M 601.4443359375 225.4443206787109 L 604.4443359375 225.4443206787109 L 604.4443359375 226.4443206787109 C 604.4443359375 226.4443206787109 601.4443359375 226.4443206787109 601.4443359375 226.4443206787109 L 601.4443359375 225.4443206787109 Z M 595.4443359375 225.4443206787109 L 598.4443359375 225.4443206787109 L 598.4443359375 226.4443206787109 C 598.4443359375 226.4443206787109 595.4443359375 226.4443206787109 595.4443359375 226.4443206787109 L 595.4443359375 225.4443206787109 Z M 589.4443359375 225.4443206787109 L 592.4443359375 225.4443206787109 L 592.4443359375 226.4443206787109 C 592.4443359375 226.4443206787109 589.4443359375 226.4443206787109 589.4443359375 226.4443206787109 L 589.4443359375 225.4443206787109 Z M 583.4443359375 225.4443206787109 L 586.4443359375 225.4443206787109 L 586.4443359375 226.4443206787109 C 586.4443359375 226.4443206787109 583.4443359375 226.4443206787109 583.4443359375 226.4443206787109 L 583.4443359375 225.4443206787109 Z M 577.4443359375 225.4443206787109 L 580.4443359375 225.4443206787109 L 580.4443359375 226.4443206787109 C 580.4443359375 226.4443206787109 577.4443359375 226.4443206787109 577.4443359375 226.4443206787109 L 577.4443359375 225.4443206787109 Z M 571.4443359375 225.4443206787109 L 574.4443359375 225.4443206787109 L 574.4443359375 226.4443206787109 C 574.4443359375 226.4443206787109 571.4443359375 226.4443206787109 571.4443359375 226.4443206787109 L 571.4443359375 225.4443206787109 Z M 565.4443359375 225.4443206787109 L 568.4443359375 225.4443206787109 L 568.4443359375 226.4443206787109 C 568.4443359375 226.4443206787109 565.4443359375 226.4443206787109 565.4443359375 226.4443206787109 L 565.4443359375 225.4443206787109 Z M 559.4443359375 225.4443206787109 L 562.4443359375 225.4443206787109 L 562.4443359375 226.4443206787109 C 562.4443359375 226.4443206787109 559.4443359375 226.4443206787109 559.4443359375 226.4443206787109 L 559.4443359375 225.4443206787109 Z M 553.4443359375 225.4443206787109 L 556.4443359375 225.4443206787109 L 556.4443359375 226.4443206787109 C 556.4443359375 226.4443206787109 553.4443359375 226.4443206787109 553.4443359375 226.4443206787109 L 553.4443359375 225.4443206787109 Z M 547.4443359375 225.4443206787109 L 550.4443359375 225.4443206787109 L 550.4443359375 226.4443206787109 C 550.4443359375 226.4443206787109 547.4443359375 226.4443206787109 547.4443359375 226.4443206787109 L 547.4443359375 225.4443206787109 Z M 541.4443359375 225.4443206787109 L 544.4443359375 225.4443206787109 L 544.4443359375 226.4443206787109 C 544.4443359375 226.4443206787109 541.4443359375 226.4443206787109 541.4443359375 226.4443206787109 L 541.4443359375 225.4443206787109 Z M 535.4443359375 225.4443206787109 L 538.4443359375 225.4443206787109 L 538.4443359375 226.4443206787109 C 538.4443359375 226.4443206787109 535.4443359375 226.4443206787109 535.4443359375 226.4443206787109 L 535.4443359375 225.4443206787109 Z M 529.4443359375 225.4443206787109 L 532.4443359375 225.4443206787109 L 532.4443359375 226.4443206787109 C 532.4443359375 226.4443206787109 529.4443359375 226.4443206787109 529.4443359375 226.4443206787109 L 529.4443359375 225.4443206787109 Z M 523.4443359375 225.4443206787109 L 526.4443359375 225.4443206787109 L 526.4443359375 226.4443206787109 C 526.4443359375 226.4443206787109 523.4443359375 226.4443206787109 523.4443359375 226.4443206787109 L 523.4443359375 225.4443206787109 Z M 517.4443359375 225.4443206787109 L 520.4443359375 225.4443206787109 L 520.4443359375 226.4443206787109 C 520.4443359375 226.4443206787109 517.4443359375 226.4443206787109 517.4443359375 226.4443206787109 L 517.4443359375 225.4443206787109 Z M 511.4443359375 225.4443206787109 L 514.4443359375 225.4443206787109 L 514.4443359375 226.4443206787109 C 514.4443359375 226.4443206787109 511.4443359375 226.4443206787109 511.4443359375 226.4443206787109 L 511.4443359375 225.4443206787109 Z M 505.4443359375 225.4443206787109 L 508.4443359375 225.4443206787109 L 508.4443359375 226.4443206787109 C 508.4443359375 226.4443206787109 505.4443359375 226.4443206787109 505.4443359375 226.4443206787109 L 505.4443359375 225.4443206787109 Z M 499.4443359375 225.4443206787109 L 502.4443359375 225.4443206787109 L 502.4443359375 226.4443206787109 C 502.4443359375 226.4443206787109 499.4443359375 226.4443206787109 499.4443359375 226.4443206787109 L 499.4443359375 225.4443206787109 Z M 493.4443359375 225.4443206787109 L 496.4443359375 225.4443206787109 L 496.4443359375 226.4443206787109 C 496.4443359375 226.4443206787109 493.4443359375 226.4443206787109 493.4443359375 226.4443206787109 L 493.4443359375 225.4443206787109 Z M 487.4443359375 225.4443206787109 L 490.4443359375 225.4443206787109 L 490.4443359375 226.4443206787109 C 490.4443359375 226.4443206787109 487.4443359375 226.4443206787109 487.4443359375 226.4443206787109 L 487.4443359375 225.4443206787109 Z M 481.4443359375 225.4443206787109 L 484.4443359375 225.4443206787109 L 484.4443359375 226.4443206787109 C 484.4443359375 226.4443206787109 481.4443359375 226.4443206787109 481.4443359375 226.4443206787109 L 481.4443359375 225.4443206787109 Z M 475.4443359375 225.4443206787109 L 478.4443359375 225.4443206787109 L 478.4443359375 226.4443206787109 C 478.4443359375 226.4443206787109 475.4443359375 226.4443206787109 475.4443359375 226.4443206787109 L 475.4443359375 225.4443206787109 Z M 469.4443359375 225.4443206787109 L 472.4443359375 225.4443206787109 L 472.4443359375 226.4443206787109 C 472.4443359375 226.4443206787109 469.4443359375 226.4443206787109 469.4443359375 226.4443206787109 L 469.4443359375 225.4443206787109 Z M 463.4443359375 225.4443206787109 L 466.4443359375 225.4443206787109 L 466.4443359375 226.4443206787109 C 466.4443359375 226.4443206787109 463.4443359375 226.4443206787109 463.4443359375 226.4443206787109 L 463.4443359375 225.4443206787109 Z M 457.4443359375 225.4443206787109 L 460.4443359375 225.4443206787109 L 460.4443359375 226.4443206787109 C 460.4443359375 226.4443206787109 457.4443359375 226.4443206787109 457.4443359375 226.4443206787109 L 457.4443359375 225.4443206787109 Z M 451.4443359375 225.4443206787109 L 454.4443359375 225.4443206787109 L 454.4443359375 226.4443206787109 C 454.4443359375 226.4443206787109 451.4443359375 226.4443206787109 451.4443359375 226.4443206787109 L 451.4443359375 225.4443206787109 Z M 445.4443359375 225.4443206787109 L 448.4443359375 225.4443206787109 L 448.4443359375 226.4443206787109 C 448.4443359375 226.4443206787109 445.4443359375 226.4443206787109 445.4443359375 226.4443206787109 L 445.4443359375 225.4443206787109 Z M 439.4443359375 225.4443206787109 L 442.4443359375 225.4443206787109 L 442.4443359375 226.4443206787109 C 442.4443359375 226.4443206787109 439.4443359375 226.4443206787109 439.4443359375 226.4443206787109 L 439.4443359375 225.4443206787109 Z M 433.4443359375 225.4443206787109 L 436.4443359375 225.4443206787109 L 436.4443359375 226.4443206787109 C 436.4443359375 226.4443206787109 433.4443359375 226.4443206787109 433.4443359375 226.4443206787109 L 433.4443359375 225.4443206787109 Z M 427.4443359375 225.4443206787109 L 430.4443359375 225.4443206787109 L 430.4443359375 226.4443206787109 C 430.4443359375 226.4443206787109 427.4443359375 226.4443206787109 427.4443359375 226.4443206787109 L 427.4443359375 225.4443206787109 Z M 421.4443359375 225.4443206787109 L 424.4443359375 225.4443206787109 L 424.4443359375 226.4443206787109 C 424.4443359375 226.4443206787109 421.4443359375 226.4443206787109 421.4443359375 226.4443206787109 L 421.4443359375 225.4443206787109 Z M 415.4443359375 225.4443206787109 L 418.4443359375 225.4443206787109 L 418.4443359375 226.4443206787109 C 418.4443359375 226.4443206787109 415.4443359375 226.4443206787109 415.4443359375 226.4443206787109 L 415.4443359375 225.4443206787109 Z M 409.4443359375 225.4443206787109 L 412.4443359375 225.4443206787109 L 412.4443359375 226.4443206787109 C 412.4443359375 226.4443206787109 409.4443359375 226.4443206787109 409.4443359375 226.4443206787109 L 409.4443359375 225.4443206787109 Z M 403.4443359375 225.4443206787109 L 406.4443359375 225.4443206787109 L 406.4443359375 226.4443206787109 C 406.4443359375 226.4443206787109 403.4443359375 226.4443206787109 403.4443359375 226.4443206787109 L 403.4443359375 225.4443206787109 Z M 397.4443359375 225.4443206787109 L 400.4443359375 225.4443206787109 L 400.4443359375 226.4443206787109 C 400.4443359375 226.4443206787109 397.4443359375 226.4443206787109 397.4443359375 226.4443206787109 L 397.4443359375 225.4443206787109 Z M 391.4443359375 225.4443206787109 L 394.4443359375 225.4443206787109 L 394.4443359375 226.4443206787109 C 394.4443359375 226.4443206787109 391.4443359375 226.4443206787109 391.4443359375 226.4443206787109 L 391.4443359375 225.4443206787109 Z M 385.4443359375 225.4443206787109 L 388.4443359375 225.4443206787109 L 388.4443359375 226.4443206787109 C 388.4443359375 226.4443206787109 385.4443359375 226.4443206787109 385.4443359375 226.4443206787109 L 385.4443359375 225.4443206787109 Z M 379.4443359375 225.4443206787109 L 382.4443359375 225.4443206787109 L 382.4443359375 226.4443206787109 C 382.4443359375 226.4443206787109 379.4443359375 226.4443206787109 379.4443359375 226.4443206787109 L 379.4443359375 225.4443206787109 Z M 373.4443359375 225.4443206787109 L 376.4443359375 225.4443206787109 L 376.4443359375 226.4443206787109 C 376.4443359375 226.4443206787109 373.4443359375 226.4443206787109 373.4443359375 226.4443206787109 L 373.4443359375 225.4443206787109 Z M 367.4443359375 225.4443206787109 L 370.4443359375 225.4443206787109 L 370.4443359375 226.4443206787109 C 370.4443359375 226.4443206787109 367.4443359375 226.4443206787109 367.4443359375 226.4443206787109 L 367.4443359375 225.4443206787109 Z M 361.4443359375 225.4443206787109 L 364.4443359375 225.4443206787109 L 364.4443359375 226.4443206787109 C 364.4443359375 226.4443206787109 361.4443359375 226.4443206787109 361.4443359375 226.4443206787109 L 361.4443359375 225.4443206787109 Z M 355.4443359375 225.4443206787109 L 358.4443359375 225.4443206787109 L 358.4443359375 226.4443206787109 C 358.4443359375 226.4443206787109 355.4443359375 226.4443206787109 355.4443359375 226.4443206787109 L 355.4443359375 225.4443206787109 Z M 349.4443359375 225.4443206787109 L 352.4443359375 225.4443206787109 L 352.4443359375 226.4443206787109 C 352.4443359375 226.4443206787109 349.4443359375 226.4443206787109 349.4443359375 226.4443206787109 L 349.4443359375 225.4443206787109 Z M 343.4443359375 225.4443206787109 L 346.4443359375 225.4443206787109 L 346.4443359375 226.4443206787109 C 346.4443359375 226.4443206787109 343.4443359375 226.4443206787109 343.4443359375 226.4443206787109 L 343.4443359375 225.4443206787109 Z M 337.4443359375 225.4443206787109 L 340.4443359375 225.4443206787109 L 340.4443359375 226.4443206787109 C 340.4443359375 226.4443206787109 337.4443359375 226.4443206787109 337.4443359375 226.4443206787109 L 337.4443359375 225.4443206787109 Z M 331.4443359375 225.4443206787109 L 334.4443359375 225.4443206787109 L 334.4443359375 226.4443206787109 C 334.4443359375 226.4443206787109 331.4443359375 226.4443206787109 331.4443359375 226.4443206787109 L 331.4443359375 225.4443206787109 Z M 325.4443359375 225.4443206787109 L 328.4443359375 225.4443206787109 L 328.4443359375 226.4443206787109 C 328.4443359375 226.4443206787109 325.4443359375 226.4443206787109 325.4443359375 226.4443206787109 L 325.4443359375 225.4443206787109 Z M 319.4443359375 225.4443206787109 L 322.4443359375 225.4443206787109 L 322.4443359375 226.4443206787109 C 322.4443359375 226.4443206787109 319.4443359375 226.4443206787109 319.4443359375 226.4443206787109 L 319.4443359375 225.4443206787109 Z M 313.4443359375 225.4443206787109 L 316.4443359375 225.4443206787109 L 316.4443359375 226.4443206787109 C 316.4443359375 226.4443206787109 313.4443359375 226.4443206787109 313.4443359375 226.4443206787109 L 313.4443359375 225.4443206787109 Z M 307.4443359375 225.4443206787109 L 310.4443359375 225.4443206787109 L 310.4443359375 226.4443206787109 C 310.4443359375 226.4443206787109 307.4443359375 226.4443206787109 307.4443359375 226.4443206787109 L 307.4443359375 225.4443206787109 Z M 301.4443359375 225.4443206787109 L 304.4443359375 225.4443206787109 L 304.4443359375 226.4443206787109 C 304.4443359375 226.4443206787109 301.4443359375 226.4443206787109 301.4443359375 226.4443206787109 L 301.4443359375 225.4443206787109 Z M 295.4443359375 225.4443206787109 L 298.4443359375 225.4443206787109 L 298.4443359375 226.4443206787109 C 298.4443359375 226.4443206787109 295.4443359375 226.4443206787109 295.4443359375 226.4443206787109 L 295.4443359375 225.4443206787109 Z M 289.4443359375 225.4443206787109 L 292.4443359375 225.4443206787109 L 292.4443359375 226.4443206787109 C 292.4443359375 226.4443206787109 289.4443359375 226.4443206787109 289.4443359375 226.4443206787109 L 289.4443359375 225.4443206787109 Z M 283.4443359375 225.4443206787109 L 286.4443359375 225.4443206787109 L 286.4443359375 226.4443206787109 C 286.4443359375 226.4443206787109 283.4443359375 226.4443206787109 283.4443359375 226.4443206787109 L 283.4443359375 225.4443206787109 Z M 277.4443359375 225.4443206787109 L 280.4443359375 225.4443206787109 L 280.4443359375 226.4443206787109 C 280.4443359375 226.4443206787109 277.4443359375 226.4443206787109 277.4443359375 226.4443206787109 L 277.4443359375 225.4443206787109 Z M 271.4443359375 225.4443206787109 L 274.4443359375 225.4443206787109 L 274.4443359375 226.4443206787109 C 274.4443359375 226.4443206787109 271.4443359375 226.4443206787109 271.4443359375 226.4443206787109 L 271.4443359375 225.4443206787109 Z M 265.4443359375 225.4443206787109 L 268.4443359375 225.4443206787109 L 268.4443359375 226.4443206787109 C 268.4443359375 226.4443206787109 265.4443359375 226.4443206787109 265.4443359375 226.4443206787109 L 265.4443359375 225.4443206787109 Z M 259.4443359375 225.4443206787109 L 262.4443359375 225.4443206787109 L 262.4443359375 226.4443206787109 C 262.4443359375 226.4443206787109 259.4443359375 226.4443206787109 259.4443359375 226.4443206787109 L 259.4443359375 225.4443206787109 Z M 253.4443359375 225.4443206787109 L 256.4443359375 225.4443206787109 L 256.4443359375 226.4443206787109 C 256.4443359375 226.4443206787109 253.4443359375 226.4443206787109 253.4443359375 226.4443206787109 L 253.4443359375 225.4443206787109 Z M 247.4443359375 225.4443206787109 L 250.4443359375 225.4443206787109 L 250.4443359375 226.4443206787109 C 250.4443359375 226.4443206787109 247.4443359375 226.4443206787109 247.4443359375 226.4443206787109 L 247.4443359375 225.4443206787109 Z M 241.4443359375 225.4443206787109 L 244.4443359375 225.4443206787109 L 244.4443359375 226.4443206787109 C 244.4443359375 226.4443206787109 241.4443359375 226.4443206787109 241.4443359375 226.4443206787109 L 241.4443359375 225.4443206787109 Z M 235.4443359375 225.4443206787109 L 238.4443359375 225.4443206787109 L 238.4443359375 226.4443206787109 C 238.4443359375 226.4443206787109 235.4443359375 226.4443206787109 235.4443359375 226.4443206787109 L 235.4443359375 225.4443206787109 Z M 229.4443359375 225.4443206787109 L 232.4443359375 225.4443206787109 L 232.4443359375 226.4443206787109 C 232.4443359375 226.4443206787109 229.4443359375 226.4443206787109 229.4443359375 226.4443206787109 L 229.4443359375 225.4443206787109 Z M 223.4443359375 225.4443206787109 L 226.4443359375 225.4443206787109 L 226.4443359375 226.4443206787109 C 226.4443359375 226.4443206787109 223.4443359375 226.4443206787109 223.4443359375 226.4443206787109 L 223.4443359375 225.4443206787109 Z M 217.4443359375 225.4443206787109 L 220.4443359375 225.4443206787109 L 220.4443359375 226.4443206787109 C 220.4443359375 226.4443206787109 217.4443359375 226.4443206787109 217.4443359375 226.4443206787109 L 217.4443359375 225.4443206787109 Z M 211.4443359375 225.4443206787109 L 214.4443359375 225.4443206787109 L 214.4443359375 226.4443206787109 C 214.4443359375 226.4443206787109 211.4443359375 226.4443206787109 211.4443359375 226.4443206787109 L 211.4443359375 225.4443206787109 Z M 205.4443359375 225.4443206787109 L 208.4443359375 225.4443206787109 L 208.4443359375 226.4443206787109 C 208.4443359375 226.4443206787109 205.4443359375 226.4443206787109 205.4443359375 226.4443206787109 L 205.4443359375 225.4443206787109 Z M 199.4443359375 225.4443206787109 L 202.4443359375 225.4443206787109 L 202.4443359375 226.4443206787109 C 202.4443359375 226.4443206787109 199.5117492675781 226.4443206787109 199.5117492675781 226.4443206787109 C 199.5117492675781 226.4443206787109 199.4443359375 226.4443206787109 199.4443359375 226.4443206787109 L 199.4443359375 225.4443206787109 Z M 193.4443359375 225.4443206787109 L 196.4443359375 225.4443206787109 L 196.4443359375 226.4443206787109 C 196.4443359375 226.4443206787109 193.4443359375 226.4443206787109 193.4443359375 226.4443206787109 L 193.4443359375 225.4443206787109 Z M 187.4443359375 225.4443206787109 L 190.4443359375 225.4443206787109 L 190.4443359375 226.4443206787109 C 190.4443359375 226.4443206787109 187.4443359375 226.4443206787109 187.4443359375 226.4443206787109 L 187.4443359375 225.4443206787109 Z M 181.4443359375 225.4443206787109 L 184.4443359375 225.4443206787109 L 184.4443359375 226.4443206787109 C 184.4443359375 226.4443206787109 181.4443359375 226.4443206787109 181.4443359375 226.4443206787109 L 181.4443359375 225.4443206787109 Z M 175.4443359375 225.4443206787109 L 178.4443359375 225.4443206787109 L 178.4443359375 226.4443206787109 C 178.4443359375 226.4443206787109 175.4443359375 226.4443206787109 175.4443359375 226.4443206787109 L 175.4443359375 225.4443206787109 Z M 169.4443359375 225.4443206787109 L 172.4443359375 225.4443206787109 L 172.4443359375 226.4443206787109 C 172.4443359375 226.4443206787109 169.4443359375 226.4443206787109 169.4443359375 226.4443206787109 L 169.4443359375 225.4443206787109 Z M 163.4443359375 225.4443206787109 L 166.4443359375 225.4443206787109 L 166.4443359375 226.4443206787109 C 166.4443359375 226.4443206787109 163.4443359375 226.4443206787109 163.4443359375 226.4443206787109 L 163.4443359375 225.4443206787109 Z M 157.4443359375 225.4443206787109 L 160.4443359375 225.4443206787109 L 160.4443359375 226.4443206787109 C 160.4443359375 226.4443206787109 157.4443359375 226.4443206787109 157.4443359375 226.4443206787109 L 157.4443359375 225.4443206787109 Z M 151.4443359375 225.4443206787109 L 154.4443359375 225.4443206787109 L 154.4443359375 226.4443206787109 C 154.4443359375 226.4443206787109 151.4443359375 226.4443206787109 151.4443359375 226.4443206787109 L 151.4443359375 225.4443206787109 Z M 145.4443359375 225.4443206787109 L 148.4443359375 225.4443206787109 L 148.4443359375 226.4443206787109 C 148.4443359375 226.4443206787109 145.4443359375 226.4443206787109 145.4443359375 226.4443206787109 L 145.4443359375 225.4443206787109 Z M 139.4443359375 225.4443206787109 L 142.4443359375 225.4443206787109 L 142.4443359375 226.4443206787109 C 142.4443359375 226.4443206787109 139.4443359375 226.4443206787109 139.4443359375 226.4443206787109 L 139.4443359375 225.4443206787109 Z M 133.4443359375 225.4443206787109 L 136.4443359375 225.4443206787109 L 136.4443359375 226.4443206787109 C 136.4443359375 226.4443206787109 133.4443359375 226.4443206787109 133.4443359375 226.4443206787109 L 133.4443359375 225.4443206787109 Z M 127.4443359375 225.4443206787109 L 130.4443359375 225.4443206787109 L 130.4443359375 226.4443206787109 C 130.4443359375 226.4443206787109 127.4443359375 226.4443206787109 127.4443359375 226.4443206787109 L 127.4443359375 225.4443206787109 Z M 121.4443359375 225.4443206787109 L 124.4443359375 225.4443206787109 L 124.4443359375 226.4443206787109 C 124.4443359375 226.4443206787109 121.4443359375 226.4443206787109 121.4443359375 226.4443206787109 L 121.4443359375 225.4443206787109 Z M 115.4443359375 225.4443206787109 L 118.4443359375 225.4443206787109 L 118.4443359375 226.4443206787109 C 118.4443359375 226.4443206787109 115.4443359375 226.4443206787109 115.4443359375 226.4443206787109 L 115.4443359375 225.4443206787109 Z M 109.4443359375 225.4443206787109 L 112.4443359375 225.4443206787109 L 112.4443359375 226.4443206787109 C 112.4443359375 226.4443206787109 109.4443359375 226.4443206787109 109.4443359375 226.4443206787109 L 109.4443359375 225.4443206787109 Z M 103.4443359375 225.4443206787109 L 106.4443359375 225.4443206787109 L 106.4443359375 226.4443206787109 C 106.4443359375 226.4443206787109 103.4443359375 226.4443206787109 103.4443359375 226.4443206787109 L 103.4443359375 225.4443206787109 Z M 97.4443359375 225.4443206787109 L 100.4443359375 225.4443206787109 L 100.4443359375 226.4443206787109 C 100.4443359375 226.4443206787109 97.4443359375 226.4443206787109 97.4443359375 226.4443206787109 L 97.4443359375 225.4443206787109 Z M 91.4443359375 225.4443206787109 L 94.4443359375 225.4443206787109 L 94.4443359375 226.4443206787109 C 94.4443359375 226.4443206787109 91.4443359375 226.4443206787109 91.4443359375 226.4443206787109 L 91.4443359375 225.4443206787109 Z M 85.4443359375 225.4443206787109 L 88.4443359375 225.4443206787109 L 88.4443359375 226.4443206787109 C 88.4443359375 226.4443206787109 85.4443359375 226.4443206787109 85.4443359375 226.4443206787109 L 85.4443359375 225.4443206787109 Z M 79.4443359375 225.4443206787109 L 82.4443359375 225.4443206787109 L 82.4443359375 226.4443206787109 C 82.4443359375 226.4443206787109 79.4443359375 226.4443206787109 79.4443359375 226.4443206787109 L 79.4443359375 225.4443206787109 Z M 73.4443359375 225.4443206787109 L 76.4443359375 225.4443206787109 L 76.4443359375 226.4443206787109 C 76.4443359375 226.4443206787109 73.4443359375 226.4443206787109 73.4443359375 226.4443206787109 L 73.4443359375 225.4443206787109 Z M 67.4443359375 225.4443206787109 L 70.4443359375 225.4443206787109 L 70.4443359375 226.4443206787109 C 70.4443359375 226.4443206787109 67.4443359375 226.4443206787109 67.4443359375 226.4443206787109 L 67.4443359375 225.4443206787109 Z M 61.4443359375 225.4443206787109 L 64.4443359375 225.4443206787109 L 64.4443359375 226.4443206787109 C 64.4443359375 226.4443206787109 61.4443359375 226.4443206787109 61.4443359375 226.4443206787109 L 61.4443359375 225.4443206787109 Z M 55.4443359375 225.4443206787109 L 58.4443359375 225.4443206787109 L 58.4443359375 226.4443206787109 C 58.4443359375 226.4443206787109 55.4443359375 226.4443206787109 55.4443359375 226.4443206787109 L 55.4443359375 225.4443206787109 Z M 49.4443359375 225.4443206787109 L 52.4443359375 225.4443206787109 L 52.4443359375 226.4443206787109 C 52.4443359375 226.4443206787109 49.4443359375 226.4443206787109 49.4443359375 226.4443206787109 L 49.4443359375 225.4443206787109 Z M 43.4443359375 225.4443206787109 L 46.4443359375 225.4443206787109 L 46.4443359375 226.4443206787109 C 46.4443359375 226.4443206787109 43.4443359375 226.4443206787109 43.4443359375 226.4443206787109 L 43.4443359375 225.4443206787109 Z M 37.4443359375 225.4443206787109 L 40.4443359375 225.4443206787109 L 40.4443359375 226.4443206787109 C 40.4443359375 226.4443206787109 37.4443359375 226.4443206787109 37.4443359375 226.4443206787109 L 37.4443359375 225.4443206787109 Z M 31.4443359375 225.4443206787109 L 34.4443359375 225.4443206787109 L 34.4443359375 226.4443206787109 C 34.4443359375 226.4443206787109 31.4443359375 226.4443206787109 31.4443359375 226.4443206787109 L 31.4443359375 225.4443206787109 Z M 25.4443359375 225.4443206787109 L 28.4443359375 225.4443206787109 L 28.4443359375 226.4443206787109 C 28.4443359375 226.4443206787109 25.4443359375 226.4443206787109 25.4443359375 226.4443206787109 L 25.4443359375 225.4443206787109 Z M 19.4443359375 225.4443206787109 L 22.4443359375 225.4443206787109 L 22.4443359375 226.4443206787109 C 22.4443359375 226.4443206787109 19.4443359375 226.4443206787109 19.4443359375 226.4443206787109 L 19.4443359375 225.4443206787109 Z M 13.4443359375 225.4443206787109 L 16.4443359375 225.4443206787109 L 16.4443359375 226.4443206787109 C 16.4443359375 226.4443206787109 13.4443359375 226.4443206787109 13.4443359375 226.4443206787109 L 13.4443359375 225.4443206787109 Z M 7.4443359375 225.4443206787109 L 10.4443359375 225.4443206787109 L 10.4443359375 226.4443206787109 C 10.4443359375 226.4443206787109 7.4443359375 226.4443206787109 7.4443359375 226.4443206787109 L 7.4443359375 225.4443206787109 Z M 1.4443359375 225.4443206787109 L 4.4443359375 225.4443206787109 L 4.4443359375 226.4443206787109 C 4.4443359375 226.4443206787109 1.4443359375 226.4443206787109 1.4443359375 226.4443206787109 L 1.4443359375 225.4443206787109 Z M 0 221.8886566162109 L 1 221.8886566162109 L 1 224.8886566162109 L 0 224.8886566162109 L 0 221.8886566162109 Z M 0 215.8886566162109 L 1 215.8886566162109 L 1 218.8886566162109 L 0 218.8886566162109 L 0 215.8886566162109 Z M 0 209.8886566162109 L 1 209.8886566162109 L 1 212.8886566162109 L 0 212.8886566162109 L 0 209.8886566162109 Z M 0 203.8886566162109 L 1 203.8886566162109 L 1 206.8886566162109 L 0 206.8886566162109 L 0 203.8886566162109 Z M 0 197.8886566162109 L 1 197.8886566162109 L 1 200.8886566162109 L 0 200.8886566162109 L 0 197.8886566162109 Z M 0 191.8886566162109 L 1 191.8886566162109 L 1 194.8886566162109 L 0 194.8886566162109 L 0 191.8886566162109 Z M 0 185.8886566162109 L 1 185.8886566162109 L 1 188.8886566162109 L 0 188.8886566162109 L 0 185.8886566162109 Z M 0 179.8886566162109 L 1 179.8886566162109 L 1 182.8886566162109 L 0 182.8886566162109 L 0 179.8886566162109 Z M 0 173.8886566162109 L 1 173.8886566162109 L 1 176.8886566162109 L 0 176.8886566162109 L 0 173.8886566162109 Z M 0 167.8886566162109 L 1 167.8886566162109 L 1 170.8886566162109 L 0 170.8886566162109 L 0 167.8886566162109 Z M 0 161.8886566162109 L 1 161.8886566162109 L 1 164.8886566162109 L 0 164.8886566162109 L 0 161.8886566162109 Z M 0 155.8886566162109 L 1 155.8886566162109 L 1 158.8886566162109 L 0 158.8886566162109 L 0 155.8886566162109 Z M 0 149.8886566162109 L 1 149.8886566162109 L 1 152.8886566162109 L 0 152.8886566162109 L 0 149.8886566162109 Z M 0 143.8886566162109 L 1 143.8886566162109 L 1 146.8886566162109 L 0 146.8886566162109 L 0 143.8886566162109 Z M 0 137.8886566162109 L 1 137.8886566162109 L 1 140.8886566162109 L 0 140.8886566162109 L 0 137.8886566162109 Z M 0 131.8886566162109 L 1 131.8886566162109 L 1 134.8886566162109 L 0 134.8886566162109 L 0 131.8886566162109 Z M 0 125.8886566162109 L 1 125.8886566162109 L 1 128.8886566162109 L 0 128.8886566162109 L 0 125.8886566162109 Z M 0 119.8886566162109 L 1 119.8886566162109 L 1 122.8886566162109 L 0 122.8886566162109 L 0 119.8886566162109 Z M 0 113.8886566162109 L 1 113.8886566162109 L 1 116.8886566162109 L 0 116.8886566162109 L 0 113.8886566162109 Z M 0 107.8886566162109 L 1 107.8886566162109 L 1 110.8886566162109 L 0 110.8886566162109 L 0 107.8886566162109 Z M 0 101.8886566162109 L 1 101.8886566162109 L 1 104.8886566162109 L 0 104.8886566162109 L 0 101.8886566162109 Z M 0 95.88865661621094 L 1 95.88865661621094 L 1 98.88865661621094 L 0 98.88865661621094 L 0 95.88865661621094 Z M 0 89.88865661621094 L 1 89.88865661621094 L 1 92.88865661621094 L 0 92.88865661621094 L 0 89.88865661621094 Z M 0 83.88865661621094 L 1 83.88865661621094 L 1 86.88865661621094 L 0 86.88865661621094 L 0 83.88865661621094 Z M 0 77.88865661621094 L 1 77.88865661621094 L 1 80.88865661621094 L 0 80.88865661621094 L 0 77.88865661621094 Z M 0 71.88865661621094 L 1 71.88865661621094 L 1 74.88865661621094 L 0 74.88865661621094 L 0 71.88865661621094 Z M 0 65.88865661621094 L 1 65.88865661621094 L 1 68.88865661621094 L 0 68.88865661621094 L 0 65.88865661621094 Z M 0 59.88865661621094 L 1 59.88865661621094 L 1 62.88865661621094 L 0 62.88865661621094 L 0 59.88865661621094 Z M 0 53.88865661621094 L 1 53.88865661621094 L 1 56.88865661621094 L 0 56.88865661621094 L 0 53.88865661621094 Z M 0 47.88865661621094 L 1 47.88865661621094 L 1 50.88865661621094 L 0 50.88865661621094 L 0 47.88865661621094 Z M 0 41.88865661621094 L 1 41.88865661621094 L 1 44.88865661621094 L 0 44.88865661621094 L 0 41.88865661621094 Z M 0 35.88865661621094 L 1 35.88865661621094 L 1 38.88865661621094 L 0 38.88865661621094 L 0 35.88865661621094 Z M 0 29.88865661621094 L 1 29.88865661621094 L 1 32.88865661621094 L 0 32.88865661621094 L 0 29.88865661621094 Z M 0 23.88865661621094 L 1 23.88865661621094 L 1 26.88865661621094 L 0 26.88865661621094 L 0 23.88865661621094 Z M 0 17.88865661621094 L 1 17.88865661621094 L 1 20.88865661621094 L 0 20.88865661621094 L 0 17.88865661621094 Z M 0 11.88865661621094 L 1 11.88865661621094 L 1 14.88865661621094 L 0 14.88865661621094 L 0 11.88865661621094 Z M 0 5.888656616210938 L 1 5.888656616210938 L 1 8.888656616210938 L 0 8.888656616210938 L 0 5.888656616210938 Z M 0 0 L 3 0 L 3 1 L 1 1 L 1 2.888656616210938 L 0 2.888656616210938 L 0 0 Z" stroke="none" fill="#707070"/>
      </g>
      <text id="Request_Transaction_Transfer_-_Partially_Signed_" data-name="Request Transaction (Transfer - Partially Signed)" transform="translate(2678 -8960)" fill="#707070" font-size="16" font-family="SegoeUI-Semibold, Segoe UI" font-weight="600"><tspan x="0" y="0">Request Transaction (Transfer - Partially Signed)</tspan></text>
      <line id="Line_233" data-name="Line 233" y2="154" transform="translate(2876.5 -8932.5)" fill="none" stroke="#707070" stroke-width="1"/>
      <text id="INPUTS-2" data-name="INPUTS" transform="translate(2679 -8931)" fill="#707070" font-size="14" font-family="SegoeUI-Bold, Segoe UI" font-weight="700"><tspan x="0" y="15">INPUTS</tspan></text>
      <text id="OUTPUTS_2" data-name="OUTPUTS " transform="translate(2892 -8931)" fill="#707070" font-size="14" font-family="SegoeUI-Bold, Segoe UI" font-weight="700"><tspan x="0" y="15">OUTPUTS </tspan></text>
      <text id="_0:_Smart_Contract_1_Unsigned_1:_Smart_Contract_2_Signed_" data-name="0: Smart Contract 1 (Unsigned)
1: Smart Contract 2 (Signed)" transform="translate(2679 -8911)" fill="#707070" font-size="14" font-family="SegoeUI, Segoe UI"><tspan x="0" y="15">0: Smart Contract 1 (Unsigned)</tspan><tspan x="0" y="34">1: Smart Contract 2 (Signed)</tspan><tspan x="0" y="53"></tspan></text>
      <text id="_0:_Participant_1_1_1:_Participant_2_3_2:_Participant_2_1_3:_Participant_1_3_4:_Smart_Contract_1_Operator_5:_Smart_Contract_2_Operator_6:_Settlement_Action" data-name="0: Participant 1 (1)
1: Participant 2 (3)2: Participant 2 (1)3: Participant 1 (3)
4: Smart Contract 1 Operator
5: Smart Contract 2 Operator
6: Settlement Action" transform="translate(2892 -8911)" fill="#707070" font-size="14" font-family="SegoeUI, Segoe UI"><tspan x="0" y="15">0: </tspan><tspan y="15" fill="#ef1818">Participant 1 (1)</tspan><tspan x="0" y="34">1: </tspan><tspan y="34" fill="#7b1adb">Participant 2 (3)</tspan><tspan y="34"></tspan><tspan x="0" y="53">2: </tspan><tspan y="53" fill="#7b1adb">Participant 2 (1)</tspan><tspan y="53"></tspan><tspan x="0" y="72">3: </tspan><tspan y="72" fill="#ef1818">Participant 1 (3)</tspan><tspan y="72"></tspan><tspan x="0" y="91">4: Smart Contract 1 Operator</tspan><tspan x="0" y="110">5: Smart Contract 2 Operator</tspan><tspan x="0" y="129">6: Settlement Action</tspan></text>
      <text id="VALUE-2" data-name="VALUE" transform="translate(3085 -8931)" fill="#707070" font-size="14" font-family="SegoeUI-Bold, Segoe UI" font-weight="700"><tspan x="0" y="15">VALUE</tspan></text>
      <g id="Rectangle_179" data-name="Rectangle 179" transform="translate(2824 -8743)" fill="#fcfcfc" stroke="#707070" stroke-width="1" stroke-dasharray="3">
        <rect width="339.499" height="253" stroke="none"/>
        <rect x="0.5" y="0.5" width="338.499" height="252" fill="none"/>
      </g>
      <text id="Settlement_Action_Payload" data-name="Settlement Action Payload" transform="translate(2835 -8708)" fill="#707070" font-size="16" font-family="SegoeUI-Semibold, Segoe UI" font-weight="600"><tspan x="0" y="0">Settlement Action Payload</tspan></text>
      <text id="Settlements" transform="translate(2850 -8671)" fill="#707070" font-size="14" font-family="SegoeUI-Bold, Segoe UI" font-weight="700"><tspan x="0" y="15">Settlements</tspan></text>
      <text id="Participant_1_1_:_0_shares_Participant_2_3_:_300_shares" data-name="Participant 1 (1): 0 shares
Participant 2 (3): 300 shares" transform="translate(2850 -8636)" fill="#ef1818" font-size="14" font-family="SegoeUI, Segoe UI"><tspan x="0" y="0">Participant 1 (1)</tspan><tspan y="0" fill="#707070">: 0 shares</tspan><tspan fill="#7b1adb"><tspan x="0" y="19">Participant 2 (3)</tspan><tspan y="19" fill="#707070">: 300 shares</tspan></tspan></text>
      <text id="INSTRUMENTID:_SHC1BvBMSJ..._Common_Shares" data-name="INSTRUMENTID: SHC1BvBMSJ... Common Shares" transform="translate(2839 -8690)" fill="#707070" font-size="12" font-family="SegoeUI-Bold, Segoe UI" font-weight="700"><tspan x="0" y="13">INSTRUMENTID: SHC1BvBMSJ... Common Shares</tspan></text>
      <line id="Line_234" data-name="Line 234" y2="57" transform="translate(2840.5 -8668.5)" fill="none" stroke="#707070" stroke-width="1"/>
      <text id="Dust_Dust_Dust_Dust_Contract_Fees_Optional_Contract_Fees_Optional_N_A" data-name="Dust
Dust
Dust 
Dust
Contract Fees (Optional)
Contract Fees (Optional)
N/A" transform="translate(3085 -8911)" fill="#707070" font-size="14" font-family="SegoeUI, Segoe UI"><tspan x="0" y="15">Dust</tspan><tspan x="0" y="34">Dust</tspan><tspan x="0" y="53">Dust </tspan><tspan x="0" y="72">Dust</tspan><tspan x="0" y="91">Contract Fees (Optional)</tspan><tspan x="0" y="110">Contract Fees (Optional)</tspan><tspan x="0" y="129">N/A</tspan></text>
      <g id="Rectangle_180" data-name="Rectangle 180" transform="translate(2904 -8796)" fill="none" stroke="#707070" stroke-width="1" stroke-dasharray="3">
        <rect width="120" height="17" stroke="none"/>
        <rect x="0.5" y="0.5" width="119" height="16" fill="none"/>
      </g>
      <line id="Line_235" data-name="Line 235" y2="36" transform="translate(2944.5 -8778.5)" fill="none" stroke="#707070" stroke-width="1" stroke-dasharray="3"/>
      <text id="MESSAGE_TYPE:_1002_-_Signature_Request" data-name="MESSAGE TYPE: 1002 - Signature Request" transform="translate(2652 -9122)" fill="#707070" font-size="12" font-family="SegoeUI-Bold, Segoe UI" font-weight="700"><tspan x="0" y="13">MESSAGE TYPE: 1002 - Signature Request</tspan></text>
      <text id="Message_Receivers" data-name="Message Receivers" transform="translate(2669 -9098)" fill="#707070" font-size="14" font-family="SegoeUI-Bold, Segoe UI" font-weight="700"><tspan x="0" y="15">Message Receivers</tspan></text>
      <text id="Smart_Contract_1" data-name="Smart Contract 1" transform="translate(2669 -9063)" fill="#707070" font-size="14" font-family="SegoeUI, Segoe UI"><tspan x="0" y="0">Smart Contract 1</tspan></text>
      <line id="Line_236" data-name="Line 236" y2="37" transform="translate(2657.5 -9097.5)" fill="none" stroke="#707070" stroke-width="1"/>
      <g id="Rectangle_181" data-name="Rectangle 181" transform="translate(2648 -9053)" fill="none" stroke="#707070" stroke-width="1" stroke-dasharray="3">
        <rect width="120" height="21" stroke="none"/>
        <rect x="0.5" y="0.5" width="119" height="20" fill="none"/>
      </g>
      <text id="MESSAGE_PAYLOAD" data-name="MESSAGE PAYLOAD" transform="translate(2652 -9052)" fill="#707070" font-size="12" font-family="SegoeUI-Bold, Segoe UI" font-weight="700"><tspan x="0" y="13">MESSAGE PAYLOAD</tspan></text>
      <line id="Line_237" data-name="Line 237" y2="40" transform="translate(2762.5 -9032.5)" fill="none" stroke="#707070" stroke-width="1" stroke-dasharray="3"/>
      <text id="INSTRUMENTID_2_:_SHP3Bv3m..._Preferred_Shares" data-name="INSTRUMENTID(2): SHP3Bv3m... Preferred Shares" transform="translate(2838 -8594)" fill="#707070" font-size="12" font-family="SegoeUI-Bold, Segoe UI" font-weight="700"><tspan x="0" y="13">INSTRUMENTID(2): SHP3Bv3m... Preferred Shares</tspan></text>
      <text id="Settlements-2" data-name="Settlements" transform="translate(2850 -8575)" fill="#707070" font-size="14" font-family="SegoeUI-Bold, Segoe UI" font-weight="700"><tspan x="0" y="15">Settlements</tspan></text>
      <text id="Participant_2_1_:_0_shares_Participant_1_3_:_100_shares" data-name="Participant 2 (1): 0 shares
Participant 1 (3): 100 shares" transform="translate(2850 -8540)" fill="#7b1adb" font-size="14" font-family="SegoeUI, Segoe UI"><tspan x="0" y="0">Participant 2 (1): </tspan><tspan y="0" fill="#707070">0 shares</tspan><tspan fill="#ef1818"><tspan x="0" y="19">Participant 1 (3): </tspan><tspan y="19" fill="#707070">100 shares</tspan></tspan></text>
      <line id="Line_238" data-name="Line 238" y2="65" transform="translate(2840.5 -8576.5)" fill="none" stroke="#707070" stroke-width="1"/>
    </g>
  </g>
</svg>
