<svg xmlns="http://www.w3.org/2000/svg" width="16.799" height="13.593" viewBox="0 0 16.799 13.593">
  <g id="chevron-pointing-to-the-left" transform="translate(0.262 13.553) rotate(-91)">
    <path id="Path_60" data-name="Path 60" d="M6.15,8.276l6.607-5.2a1.205,1.205,0,0,0,.509-.965,1.168,1.168,0,0,0-.489-.961l-1-.795a1.887,1.887,0,0,0-1.216-.389,1.934,1.934,0,0,0-1.225.4L.469,7.327a1.206,1.206,0,0,0-.509.965,1.169,1.169,0,0,0,.489.961l8.721,6.9a1.888,1.888,0,0,0,1.217.389,1.931,1.931,0,0,0,1.224-.4l1.019-.8a1.179,1.179,0,0,0,.02-1.926Z" transform="translate(0 0)" fill="#707070"/>
  </g>
</svg>
