<svg xmlns="http://www.w3.org/2000/svg" width="1270.33" height="2667" viewBox="0 0 1270.33 2667">
  <g id="concepts-oracles" transform="translate(-9347.5 5855)">
    <g id="Group_118" data-name="Group 118">
      <g id="Group_117" data-name="Group 117">
        <g id="Group_116" data-name="Group 116">
          <g id="Group_115" data-name="Group 115">
            <g id="Group_114" data-name="Group 114">
              <path id="Path_63" data-name="Path 63" d="M8.28,2212.44a4.73,4.73,0,0,0-4.69-4.2H0l2.33,4.2Z" transform="translate(10064.367 -7418.107)" fill="#3f3f3f" fill-rule="evenodd"/>
              <path id="Path_64" data-name="Path 64" d="M9.26,2156.09H5.72a1.57,1.57,0,0,1,0-3.14h9.21l7.57-4.2H4.74A4.756,4.756,0,0,0,0,2153.49v54.21a4.763,4.763,0,0,0,4.74,4.74h61.7a4.756,4.756,0,0,0,4.74-4.74v-15.92H59.64a9.748,9.748,0,0,1-9.73-9.73v-.68a9.748,9.748,0,0,1,9.73-9.73H71.18v-15.55H9.26Z" transform="translate(10001.51 -7358.591)" fill="#3f3f3f" fill-rule="evenodd"/>
              <path id="Path_65" data-name="Path 65" d="M0,2205.19v.69a6.577,6.577,0,0,0,6.56,6.56h15.5v-13.81H6.56A6.564,6.564,0,0,0,0,2205.19Zm11.42.47a3.485,3.485,0,1,1-3.49-3.49A3.493,3.493,0,0,1,11.42,2205.66Z" transform="translate(10054.566 -7382.442)" fill="#3f3f3f" fill-rule="evenodd"/>
              <path id="Path_66" data-name="Path 66" d="M40.14,2212.44l-8.72-15.67a1.6,1.6,0,0,0-2.14-.62L0,2212.44Z" transform="translate(10022.953 -7418.107)" fill="#3f3f3f" fill-rule="evenodd"/>
              <path id="Path_67" data-name="Path 67" stroke="#000" d="M0,2212.44H135.34" fill="none" transform="translate(12237.805 -5125.686) rotate(90)" stroke-linecap="round" stroke-linejoin="round" stroke-miterlimit="3" stroke-width="1.5" fill-rule="evenodd"/>
              <path id="Path_69" data-name="Path 69" d="M55.15,2212.44H3.66A3.662,3.662,0,0,1,0,2208.78v-11.95a3.662,3.662,0,0,1,3.66-3.66H55.15a3.662,3.662,0,0,1,3.66,3.66v11.95A3.662,3.662,0,0,1,55.15,2212.44Z" transform="translate(10005.621 -7154.165)" fill="#424a60" fill-rule="evenodd"/>
              <path id="Path_70" data-name="Path 70" d="M55.15,2212.44H3.66A3.662,3.662,0,0,1,0,2208.78v-11.95a3.662,3.662,0,0,1,3.66-3.66H55.15a3.662,3.662,0,0,1,3.66,3.66v11.95A3.662,3.662,0,0,1,55.15,2212.44Z" transform="translate(10005.621 -7134.9)" fill="#556080" fill-rule="evenodd"/>
              <path id="Path_71" data-name="Path 71" stroke="#424a60" d="M0,2212.44H25.35" fill="none" transform="translate(10005.621 -7120.705)" stroke-linecap="round" stroke-linejoin="round" stroke-miterlimit="3" stroke-width="1.5" fill-rule="evenodd"/>
              <path id="Path_72" data-name="Path 72" stroke="#424a60" d="M0,2212.44H25.35" fill="none" transform="translate(10039.081 -7120.705)" stroke-linecap="round" stroke-linejoin="round" stroke-miterlimit="3" stroke-width="1.5" fill-rule="evenodd"/>
              <path id="Path_73" data-name="Path 73" d="M0,2212.44H10.14" transform="translate(7822.591 -4912.32) rotate(-90)" fill="none" stroke="#424a60" stroke-miterlimit="3" stroke-width="1.5" fill-rule="evenodd"/>
              <circle id="Ellipse_33" data-name="Ellipse 33" cx="3.549" cy="3.549" r="3.549" transform="translate(10011.705 -4954.907)" fill="#7383bf"/>
              <circle id="Ellipse_34" data-name="Ellipse 34" cx="3.549" cy="3.549" r="3.549" transform="translate(10011.705 -4935.643)" fill="#7383bf"/>
              <circle id="Ellipse_35" data-name="Ellipse 35" cx="1.014" cy="1.014" r="1.014" transform="translate(10054.29 -4953.898)" fill="#7383bf"/>
              <circle id="Ellipse_36" data-name="Ellipse 36" cx="1.014" cy="1.014" r="1.014" transform="translate(10050.234 -4953.898)" fill="#7383bf"/>
              <circle id="Ellipse_37" data-name="Ellipse 37" cx="1.014" cy="1.014" r="1.014" transform="translate(10056.318 -4950.856)" fill="#7383bf"/>
              <circle id="Ellipse_38" data-name="Ellipse 38" cx="1.014" cy="1.014" r="1.014" transform="translate(10052.263 -4950.856)" fill="#7383bf"/>
              <circle id="Ellipse_39" data-name="Ellipse 39" cx="1.014" cy="1.014" r="1.014" transform="translate(10046.179 -4953.898)" fill="#7383bf"/>
              <circle id="Ellipse_40" data-name="Ellipse 40" cx="1.014" cy="1.014" r="1.014" transform="translate(10048.207 -4950.856)" fill="#7383bf"/>
              <circle id="Ellipse_41" data-name="Ellipse 41" cx="1.014" cy="1.014" r="1.014" transform="translate(10042.123 -4953.898)" fill="#7383bf"/>
              <circle id="Ellipse_42" data-name="Ellipse 42" cx="1.014" cy="1.014" r="1.014" transform="translate(10044.151 -4950.856)" fill="#7383bf"/>
              <circle id="Ellipse_43" data-name="Ellipse 43" cx="1.014" cy="1.014" r="1.014" transform="translate(10038.067 -4953.898)" fill="#7383bf"/>
              <circle id="Ellipse_44" data-name="Ellipse 44" cx="1.014" cy="1.014" r="1.014" transform="translate(10040.096 -4950.856)" fill="#7383bf"/>
              <circle id="Ellipse_45" data-name="Ellipse 45" cx="1.014" cy="1.014" r="1.014" transform="translate(10054.29 -4934.634)" fill="#7383bf"/>
              <circle id="Ellipse_46" data-name="Ellipse 46" cx="1.014" cy="1.014" r="1.014" transform="translate(10050.234 -4934.634)" fill="#7383bf"/>
              <circle id="Ellipse_47" data-name="Ellipse 47" cx="1.014" cy="1.014" r="1.014" transform="translate(10056.318 -4931.592)" fill="#7383bf"/>
              <circle id="Ellipse_48" data-name="Ellipse 48" cx="1.014" cy="1.014" r="1.014" transform="translate(10052.263 -4931.592)" fill="#7383bf"/>
              <circle id="Ellipse_49" data-name="Ellipse 49" cx="1.014" cy="1.014" r="1.014" transform="translate(10046.179 -4934.634)" fill="#7383bf"/>
              <circle id="Ellipse_50" data-name="Ellipse 50" cx="1.014" cy="1.014" r="1.014" transform="translate(10048.207 -4931.592)" fill="#7383bf"/>
              <circle id="Ellipse_51" data-name="Ellipse 51" cx="1.014" cy="1.014" r="1.014" transform="translate(10042.123 -4934.634)" fill="#7383bf"/>
              <circle id="Ellipse_52" data-name="Ellipse 52" cx="1.014" cy="1.014" r="1.014" transform="translate(10044.151 -4931.592)" fill="#7383bf"/>
              <circle id="Ellipse_53" data-name="Ellipse 53" cx="1.014" cy="1.014" r="1.014" transform="translate(10038.067 -4934.634)" fill="#7383bf"/>
              <circle id="Ellipse_54" data-name="Ellipse 54" cx="1.014" cy="1.014" r="1.014" transform="translate(10040.096 -4931.592)" fill="#7383bf"/>
              <circle id="Ellipse_55" data-name="Ellipse 55" cx="4.252" cy="4.252" r="4.252" transform="translate(10030.414 -4913.083)" stroke-width="0.75" stroke="#000" stroke-linecap="round" stroke-linejoin="round" stroke-miterlimit="3" fill="#fff"/>
              <rect id="Rectangle_113" data-name="Rectangle 113" width="189.921" height="76.22" transform="translate(9684.633 -5057.871)" fill="none"/>
              <text id="Message_OSR_Message_PR_Block_Hash_Chain_tip_-_4_" data-name="Message(OSR) = Message(PR) +Block Hash(Chain tip - 4)" transform="translate(9677 -5050)" fill="#ea700d" font-size="14" font-family="Calibri"><tspan x="0" y="0">Message(OSR) = </tspan><tspan y="0" fill="#db1ac1">Message(PR) +Block Hash(Chain tip - 4)</tspan></text>
              <path id="Path_74" data-name="Path 74" d="M8.28,2212.44a4.73,4.73,0,0,0-4.69-4.2H0l2.33,4.2Z" transform="translate(10053.803 -7734.938)" fill="#3f3f3f" fill-rule="evenodd"/>
              <path id="Path_75" data-name="Path 75" d="M9.26,2156.09H5.72a1.57,1.57,0,0,1,0-3.14h9.21l7.57-4.2H4.74A4.756,4.756,0,0,0,0,2153.49v54.21a4.763,4.763,0,0,0,4.74,4.74h61.7a4.756,4.756,0,0,0,4.74-4.74v-15.92H59.64a9.748,9.748,0,0,1-9.73-9.73v-.68a9.748,9.748,0,0,1,9.73-9.73H71.18v-15.55H9.26Z" transform="translate(9990.945 -7675.421)" fill="#3f3f3f" fill-rule="evenodd"/>
              <path id="Path_76" data-name="Path 76" d="M0,2205.19v.69a6.577,6.577,0,0,0,6.56,6.56h15.5v-13.81H6.56A6.564,6.564,0,0,0,0,2205.19Zm11.42.47a3.485,3.485,0,1,1-3.49-3.49A3.493,3.493,0,0,1,11.42,2205.66Z" transform="translate(10044.002 -7699.272)" fill="#3f3f3f" fill-rule="evenodd"/>
              <path id="Path_77" data-name="Path 77" d="M40.14,2212.44l-8.72-15.67a1.6,1.6,0,0,0-2.14-.62L0,2212.44Z" transform="translate(10012.389 -7734.938)" fill="#3f3f3f" fill-rule="evenodd"/>
              <path id="Path_78" data-name="Path 78" d="M0,2212.44a11.772,11.772,0,0,1,19.11-.33c-.49-.11-.93-.22-1.42-.38a25.606,25.606,0,0,0-6.1-1.09,26.422,26.422,0,0,0-4.62.11,26.173,26.173,0,0,0-5.88,1.42C.76,2212.27.38,2212.33,0,2212.44Z" transform="translate(9913.807 -8008.269)" fill="#0f0f0e" stroke="#0f0f0e" stroke-miterlimit="3" stroke-width="3.4" fill-rule="evenodd"/>
              <path id="Path_79" data-name="Path 79" d="M23.84,2175.64a26.537,26.537,0,0,1,4.63-.11,25.513,25.513,0,0,1,6.09,1.09,10.2,10.2,0,0,0,1.42.38,4.965,4.965,0,0,0,1.25.6,25.7,25.7,0,0,1,8.66,5.99,26.18,26.18,0,0,1,5.66,27.38c-.22-.27-.44-.55-.66-.82a4.321,4.321,0,0,1-.6,2.02c-.21.27-.59.16-.81,0a4.235,4.235,0,0,1-1.04-1.47,8.425,8.425,0,0,1-.87-2.78,16.953,16.953,0,0,1,.11-2.83c-1.69.38-3.32.87-5.01,1.14a77.388,77.388,0,0,1-18.34,1.53,81.142,81.142,0,0,1-19.1-2.78,11.246,11.246,0,0,1,.38,2.67,8.9,8.9,0,0,1-1.04,2.56,8.916,8.916,0,0,1-1.25,1.9.435.435,0,0,1-.71,0,4.5,4.5,0,0,1-.49-1.9,32.663,32.663,0,0,1-.92-3.76,26.223,26.223,0,0,1,15.07-28.68,1.782,1.782,0,0,0,.66-.44,6.008,6.008,0,0,0,1.09-.27A25.8,25.8,0,0,1,23.84,2175.64Z" transform="translate(9896.987 -7973.215)" fill="#020202" stroke="#020202" stroke-miterlimit="3" stroke-width="3.4" fill-rule="evenodd"/>
              <path id="Path_80" data-name="Path 80" d="M4.52,2178.91a80.613,80.613,0,0,0,19.1,2.77,79.378,79.378,0,0,0,18.35-1.52c1.68-.33,3.32-.76,5-1.14a17.59,17.59,0,0,0-.11,2.83,8.162,8.162,0,0,0,.88,2.77,3.921,3.921,0,0,0,1.03,1.47c.22.22.65.28.82,0a5.28,5.28,0,0,0,.6-2.01c.21.27.43.54.65.82a5.689,5.689,0,0,1,.54,2.99,10.265,10.265,0,0,1-2.07,5.23c-.98,1.36-2.23,2.72-3.97,2.93-.65,2.13-1.03,4.41-2.18,6.37a13.144,13.144,0,0,1-3.92,4.25,28.61,28.61,0,0,1-6.15,3.43,44.915,44.915,0,0,1-6.85,2.23,3.652,3.652,0,0,1-1.69-.22c-.55-.16-1.14-.27-1.69-.43-.71-.33-1.52-.55-2.23-.82a33.31,33.31,0,0,1-7.4-3.65c-.49-.32-.93-.7-1.42-.98a17.768,17.768,0,0,1-1.52-1.36,11.413,11.413,0,0,1-2.83-4.68c-.44-1.36-.77-2.72-1.15-4.08a4.932,4.932,0,0,1-2.39-1.14,12.276,12.276,0,0,1-3.21-4.85,6.2,6.2,0,0,1,.6-5.93,7.28,7.28,0,0,0,.49,1.9c.16.28.49.22.7,0a8.959,8.959,0,0,0,1.26-1.9,6.52,6.52,0,0,0,1.03-2.56A7.621,7.621,0,0,0,4.52,2178.91Z" transform="translate(9897.641 -7947.088)" fill="#d8aa8b" stroke="#d8aa8b" stroke-miterlimit="3" stroke-width="3.4" fill-rule="evenodd"/>
              <path id="Path_81" data-name="Path 81" d="M16.27,2179.02c.49.27.93.65,1.42.98a31.992,31.992,0,0,0,7.4,3.64c.76.28,1.53.49,2.23.82,0,.76.11,1.52.17,2.34a23.257,23.257,0,0,1-.11,4.79,11.343,11.343,0,0,1-2.07,4.85,16.921,16.921,0,0,1-9.58,6.91c-2.61.76-5.44,1.14-7.78,2.61a7.2,7.2,0,0,0-3.21,4.19,5.359,5.359,0,0,0,0,2.29,14.946,14.946,0,0,1-4.63-9.09c-.06-.6-.11-1.2-.11-1.8a14.892,14.892,0,0,1,5.17-11.21c1.8-1.58,3.92-2.78,5.88-4.19a16.807,16.807,0,0,0,3.7-3.59A16.731,16.731,0,0,0,16.27,2179.02Z" transform="translate(9893.231 -7919.873)" fill="#020202" stroke="#020202" stroke-miterlimit="3" stroke-width="3.4" fill-rule="evenodd"/>
              <path id="Path_82" data-name="Path 82" d="M3.37,2210.48a44.676,44.676,0,0,0,6.86-2.23c0,.98.06,1.9.06,2.88-.44.11-.82.22-1.25.33a24.575,24.575,0,0,1-8.88.71c-.05-.77-.16-1.53-.16-2.34.54.16,1.14.27,1.69.43A3.018,3.018,0,0,0,3.37,2210.48Z" transform="translate(9920.61 -7945.292)" fill="#c1977a" stroke="#c1977a" stroke-miterlimit="3" stroke-width="3.4" fill-rule="evenodd"/>
              <path id="Path_83" data-name="Path 83" d="M28.36,2187.24c.43-.11.81-.22,1.25-.33.11,1.96.16,3.97.44,5.93a3.3,3.3,0,0,0,1.14,2.29,6.41,6.41,0,0,0,1.96.82c4.84,1.52,9.63,2.99,14.48,4.51a13.828,13.828,0,0,1,5.11,2.56,5.033,5.033,0,0,0-2.17.38,15.251,15.251,0,0,0-2.45,1.69,29.471,29.471,0,0,1-10.18,5.5,44.506,44.506,0,0,1-8.87,1.52,38.552,38.552,0,0,1-7.13.16,70.209,70.209,0,0,1-14.65-2.93c-2.45-.71-4.84-1.47-7.29-2.18,2.34-1.47,5.17-1.85,7.78-2.61a17.512,17.512,0,0,0,9.58-6.92,11.625,11.625,0,0,0,2.07-4.84,23.257,23.257,0,0,0,.11-4.79A25.647,25.647,0,0,0,28.36,2187.24Z" transform="translate(9901.287 -7921.016)" fill="#d8aa8b" stroke="#d8aa8b" stroke-miterlimit="3" stroke-width="3.4" fill-rule="evenodd"/>
              <path id="Path_84" data-name="Path 84" d="M0,2211.89a16.954,16.954,0,0,1,1.42-1.25,10.868,10.868,0,0,0,.1,1.8A4.953,4.953,0,0,1,0,2211.89Z" transform="translate(9891.871 -7928.908)" fill="#d8aa8b" stroke="#d8aa8b" stroke-miterlimit="3" stroke-width="3.4" fill-rule="evenodd"/>
              <path id="Path_85" data-name="Path 85" d="M65.64,2198.67a4.834,4.834,0,0,1,2.18-.38,8.668,8.668,0,0,1,1.52.59,8.386,8.386,0,0,1,2.56,2.24,14.24,14.24,0,0,1,2.89,6.31,8.368,8.368,0,0,1-.55,5.01H.33a13.2,13.2,0,0,1,1.36-7.08,19.425,19.425,0,0,1,3.97-6.04,4.937,4.937,0,0,0,1.52.54,14.739,14.739,0,0,0,4.63,9.09,5.312,5.312,0,0,1,0-2.28,7.5,7.5,0,0,1,3.21-4.19c2.45.76,4.85,1.52,7.3,2.17a70.25,70.25,0,0,0,14.64,2.94,38.649,38.649,0,0,0,7.13-.16,44.366,44.366,0,0,0,8.87-1.52,28.848,28.848,0,0,0,10.18-5.5A13.066,13.066,0,0,1,65.64,2198.67Z" transform="translate(9886.21 -7916.28)" fill="#ce57b5" stroke="#ce57b5" stroke-miterlimit="3" stroke-width="3.4" fill-rule="evenodd"/>
              <path id="Path_86" data-name="Path 86" d="M8.28,2212.44a4.73,4.73,0,0,0-4.69-4.2H0l2.33,4.2Z" transform="translate(10061.598 -7986.397)" fill="#3f3f3f" fill-rule="evenodd"/>
              <path id="Path_87" data-name="Path 87" d="M9.26,2156.09H5.72a1.57,1.57,0,0,1,0-3.14h9.21l7.57-4.2H4.74A4.756,4.756,0,0,0,0,2153.49v54.21a4.763,4.763,0,0,0,4.74,4.74h61.7a4.756,4.756,0,0,0,4.74-4.74v-15.92H59.64a9.748,9.748,0,0,1-9.73-9.73v-.68a9.748,9.748,0,0,1,9.73-9.73H71.18v-15.55H9.26Z" transform="translate(9998.74 -7926.881)" fill="#3f3f3f" fill-rule="evenodd"/>
              <path id="Path_88" data-name="Path 88" d="M0,2205.19v.69a6.577,6.577,0,0,0,6.56,6.56h15.5v-13.81H6.56A6.564,6.564,0,0,0,0,2205.19Zm11.42.47a3.485,3.485,0,1,1-3.49-3.49A3.493,3.493,0,0,1,11.42,2205.66Z" transform="translate(10051.797 -7950.732)" fill="#3f3f3f" fill-rule="evenodd"/>
              <path id="Path_89" data-name="Path 89" d="M40.14,2212.44l-8.72-15.67a1.6,1.6,0,0,0-2.14-.62L0,2212.44Z" transform="translate(10020.184 -7986.397)" fill="#3f3f3f" fill-rule="evenodd"/>
              <path id="Path_90" data-name="Path 90" stroke="#000" d="M0,2212.44H135.34" fill="none" transform="translate(12248.734 -5695.864) rotate(90)" stroke-linecap="round" stroke-linejoin="round" stroke-miterlimit="3" stroke-width="1.5" fill-rule="evenodd"/>
              <text id="Payment_Request:_" data-name="Payment Request: " transform="translate(10088.767 -5635.791)" fill="#707070" font-size="20" font-family="Calibri-Bold, Calibri" font-weight="700"><tspan x="0" y="0">Payment Request: </tspan></text>
              <text id="Message_PR_ReceivingAddress_Contract_ID_AssetID_Qty_" data-name="Message(PR) = ReceivingAddress + Contract ID + AssetID + Qty " transform="translate(10087.017 -5611.791)" fill="#db1ac1" font-size="14" font-family="Calibri"><tspan x="0" y="0">Message(PR)</tspan><tspan y="0" xml:space="preserve" fill="#000"> = ReceivingAddress + Contract ID + AssetID + Qty </tspan></text>
              <rect id="Rectangle_122" data-name="Rectangle 122" width="189.921" height="86.119" transform="translate(10113 -5123.58)" fill="none"/>
              <text id="Transfer_Permitted:_" data-name="Transfer Permitted: " transform="translate(10113 -5120.12)" fill="#707070" font-size="18" font-family="Calibri-Bold, Calibri" font-weight="700"><tspan x="0" y="0">Transfer Permitted: </tspan></text>
              <text id="OracleSignature_Message_OSR_1_" data-name="OracleSignature(Message(OSR)+1) " transform="translate(10113 -5096.12)" fill="#707070" font-size="14" font-family="Calibri"><tspan x="0" y="0">OracleSignature(</tspan><tspan y="0" fill="#ea700d">Message(OSR)</tspan><tspan y="0" fill="#6d5c5c">+1) </tspan></text>
              <text id="Or_" data-name="Or " transform="translate(10196.132 -5048.12)" font-size="20" font-family="Calibri"><tspan x="0" y="0">Or </tspan></text>
              <text id="Transfer_Not_Permitted:_" data-name="Transfer Not Permitted: " transform="translate(10203 -5000.12)" fill="#707070" font-size="18" font-family="Calibri-Bold, Calibri" font-weight="700"><tspan x="-89.741" y="0">Transfer Not Permitted: </tspan></text>
              <text id="OracleSignature_Message_OSR_0_" data-name="OracleSignature(Message(OSR)+0)" transform="translate(10210 -4976.12)" fill="#707070" font-size="14" font-family="Calibri"><tspan x="-97.463" y="0">OracleSignature(Message(OSR)+0)</tspan></text>
              <path id="Path_91" data-name="Path 91" d="M7.62,2167.22a29.314,29.314,0,0,1,14.41-4.55,31.813,31.813,0,0,1,12.78,1.97,17.889,17.889,0,0,1,7.89,5.81,19.144,19.144,0,0,1,3.29,8.01,50.457,50.457,0,0,1,1.09,9.48,40.885,40.885,0,0,1-.22,4.55,33.317,33.317,0,0,1-.6,4.71c-.88,4.22-2.47,8.28-3.67,12.39a2.809,2.809,0,0,0-.17.38,37.454,37.454,0,0,1,.33-7.4c.22-1.7.39-3.4.55-5.1a28.616,28.616,0,0,0,.22-5.31,45.665,45.665,0,0,0-2.9-8.88,1.884,1.884,0,0,0-.83-1.1,24.115,24.115,0,0,0-9.15-2.9,48.7,48.7,0,0,0-9.81-.5,40.846,40.846,0,0,0-10.25,1.7,13.436,13.436,0,0,0-3.56,1.76,2.5,2.5,0,0,0-.72,1.15,45.875,45.875,0,0,0-2.79,8.49,7.89,7.89,0,0,0-.17,1.59c0,4.61.55,9.21.77,13.87a27.14,27.14,0,0,1,0,4.77.467.467,0,0,1-.16.33c-1.32-4.94-2.31-9.92-3.29-14.97-.17-.87-.28-1.75-.39-2.63a47.227,47.227,0,0,1,.17-8.33c.22-2.68.22-5.37.44-8.05a19.627,19.627,0,0,1,5.48-10.09A4.867,4.867,0,0,1,7.62,2167.22Z" transform="translate(9888.472 -7716.151)" fill="#2d1f1f" stroke="#2d1f1f" stroke-miterlimit="3" stroke-width="3.4" fill-rule="evenodd"/>
              <path id="Path_92" data-name="Path 92" d="M23.95,2165.14a53.524,53.524,0,0,1,9.81.49,24.344,24.344,0,0,1,9.16,2.9,1.868,1.868,0,0,1,.82,1.1,45,45,0,0,1,2.9,8.88,28.752,28.752,0,0,1-.21,5.32c-.17,1.7-.39,3.39-.55,5.09a41.735,41.735,0,0,0-.33,7.4,2.9,2.9,0,0,0,.16-.38c1.21-4.17,2.8-8.17,3.67-12.39a.418.418,0,0,0,.11.22,2.859,2.859,0,0,1,2.14.82,5.828,5.828,0,0,1,1.59,4.22,12.49,12.49,0,0,1-2.36,7.08,8.721,8.721,0,0,1-2.68,2.79,3.216,3.216,0,0,1-1.37.38,28.032,28.032,0,0,1-1.1,3.73c.06-.44.17-.93.22-1.37a12.993,12.993,0,0,0-1.04,1.37,28.371,28.371,0,0,1-10.47,8.72,6.865,6.865,0,0,1-3.73.76,16.152,16.152,0,0,1-2.24-.43c-.66-.17-1.21-.66-1.92-.66-.77-.06-1.32.6-1.97.76a8.211,8.211,0,0,1-2.85.33,14.407,14.407,0,0,1-5.6-1.81,28.108,28.108,0,0,1-8.93-7.56c-.38-1.26-.82-2.58-1.1-3.89a6.638,6.638,0,0,1-3.56-3.02,13.553,13.553,0,0,1-2.47-6.85,6.1,6.1,0,0,1,1.21-4.22,2.936,2.936,0,0,1,2.63-1.15c.93,4.99,1.92,10.03,3.29,14.97.06-.11.11-.22.16-.33a27.14,27.14,0,0,0,0-4.77c-.21-4.61-.76-9.21-.76-13.87a7.391,7.391,0,0,1,.16-1.59,46.647,46.647,0,0,1,2.8-8.49,2.842,2.842,0,0,1,.71-1.16,15.891,15.891,0,0,1,3.56-1.75A41.415,41.415,0,0,1,23.95,2165.14Z" transform="translate(9885.402 -7702.613)" fill="#a5663a" stroke="#a5663a" stroke-miterlimit="3" stroke-width="3.4" fill-rule="evenodd"/>
              <path id="Path_93" data-name="Path 93" d="M38.53,2197.36a15.379,15.379,0,0,1,1.04-1.37c-.05.44-.16.94-.22,1.37a19.373,19.373,0,0,1-1.42,3.95,8.635,8.635,0,0,1-1.43,2.3,27.959,27.959,0,0,1-6.46,5.76,18.4,18.4,0,0,1-7.29,2.79,17.567,17.567,0,0,1-5.65-.11,16.8,16.8,0,0,1-6.63-2.96,44.342,44.342,0,0,1-5.81-4.76A18.322,18.322,0,0,1,0,2196.54c.27.28.49.66.77.93a28.271,28.271,0,0,0,8.93,7.57,15.692,15.692,0,0,0,5.59,1.81,12.214,12.214,0,0,0,2.85-.33c.72-.17,1.26-.77,1.98-.77s1.26.49,1.91.66a14.942,14.942,0,0,0,2.25.44,6.765,6.765,0,0,0,3.73-.77A28.337,28.337,0,0,0,38.53,2197.36Z" transform="translate(9891.706 -7697.187)" fill="#2d1f1f" stroke="#2d1f1f" stroke-miterlimit="3" stroke-width="3.4" fill-rule="evenodd"/>
              <path id="Path_94" data-name="Path 94" d="M.16,2205.64a16.772,16.772,0,0,0,6.64,2.96,17.8,17.8,0,0,0,5.64.11,18.207,18.207,0,0,0,7.29-2.79c.11.98.06,1.97.17,3.01a7.283,7.283,0,0,1-1.7,1.1,27.42,27.42,0,0,1-6.47,2.24,17.255,17.255,0,0,1-2.96.11,17.433,17.433,0,0,1-4.06-.93,16.845,16.845,0,0,1-3.61-1.64c-.39-.22-.72-.5-1.05-.72a8.216,8.216,0,0,1,.06-1.64A9.961,9.961,0,0,1,.16,2205.64Z" transform="translate(9902.011 -7693.679)" fill="#8e5c3a" stroke="#8e5c3a" stroke-miterlimit="3" stroke-width="3.4" fill-rule="evenodd"/>
              <path id="Path_95" data-name="Path 95" d="M23.24,2190.51a7.044,7.044,0,0,0,1.7-1.09,18.834,18.834,0,0,0,.33,3.07,3.4,3.4,0,0,0,2.03,2.79c.93.33,1.86.61,2.79.93a15.839,15.839,0,0,1-.82,1.65,68.928,68.928,0,0,1-3.95,6.36,29.717,29.717,0,0,1-5.04,5.7,9.78,9.78,0,0,1-4.6,2.35,4.4,4.4,0,0,1-2.91-.98,29.688,29.688,0,0,1-5.37-4.83,61.819,61.819,0,0,1-6.36-8.38A11.034,11.034,0,0,1,0,2196.16c.88-.27,1.81-.55,2.69-.88a3.33,3.33,0,0,0,2.02-2.41c.22-1.1.33-2.14.44-3.23.39.22.71.49,1.04.71a19.81,19.81,0,0,0,3.62,1.64,20.162,20.162,0,0,0,4.06.94,18.373,18.373,0,0,0,2.96-.11A28.008,28.008,0,0,0,23.24,2190.51Z" transform="translate(9896.968 -7674.221)" fill="#a5663a" stroke="#a5663a" stroke-miterlimit="3" stroke-width="3.4" fill-rule="evenodd"/>
              <path id="Path_96" data-name="Path 96" d="M15.24,2194.13c5.15-1.64,10.3-3.34,15.45-4.99a16.555,16.555,0,0,0,1.05,1.92,59.628,59.628,0,0,0,6.35,8.39,30.032,30.032,0,0,0,5.38,4.82,4.732,4.732,0,0,0,2.9.99,9.75,9.75,0,0,0,4.6-2.36,32.983,32.983,0,0,0,5.05-5.7,59.526,59.526,0,0,0,3.94-6.36c.28-.55.61-1.09.83-1.64,4.82,1.53,9.64,3.12,14.47,4.66,1.15.44,2.35.65,3.5,1.04a17.438,17.438,0,0,1,10.31,8.6,23.825,23.825,0,0,1,2.41,8.83,6.678,6.678,0,0,1-1.48.05H.49c-.16,0-.33-.05-.49-.05a24.322,24.322,0,0,1,1.86-7.62,17.542,17.542,0,0,1,9.27-9.21A22.051,22.051,0,0,1,15.24,2194.13Z" transform="translate(9866.219 -7667.15)" fill="#9c3" stroke="#9c3" stroke-miterlimit="3" stroke-width="3.4" fill-rule="evenodd"/>
              <path id="Path_97" data-name="Path 97" d="M7.62,2167.22a29.314,29.314,0,0,1,14.41-4.55,31.813,31.813,0,0,1,12.78,1.97,17.889,17.889,0,0,1,7.89,5.81,19.144,19.144,0,0,1,3.29,8.01,50.457,50.457,0,0,1,1.09,9.48,40.885,40.885,0,0,1-.22,4.55,33.317,33.317,0,0,1-.6,4.71c-.88,4.22-2.47,8.28-3.67,12.39a2.809,2.809,0,0,0-.17.38,37.454,37.454,0,0,1,.33-7.4c.22-1.7.39-3.4.55-5.1a28.616,28.616,0,0,0,.22-5.31,45.665,45.665,0,0,0-2.9-8.88,1.884,1.884,0,0,0-.83-1.1,24.115,24.115,0,0,0-9.15-2.9,48.7,48.7,0,0,0-9.81-.5,40.846,40.846,0,0,0-10.25,1.7,13.436,13.436,0,0,0-3.56,1.76,2.5,2.5,0,0,0-.72,1.15,45.875,45.875,0,0,0-2.79,8.49,7.89,7.89,0,0,0-.17,1.59c0,4.61.55,9.21.77,13.87a27.14,27.14,0,0,1,0,4.77.467.467,0,0,1-.16.33c-1.32-4.94-2.31-9.92-3.29-14.97-.17-.87-.28-1.75-.39-2.63a47.227,47.227,0,0,1,.17-8.33c.22-2.68.22-5.37.44-8.05a19.627,19.627,0,0,1,5.48-10.09A4.867,4.867,0,0,1,7.62,2167.22Z" transform="translate(9895.902 -7411.151)" fill="#2d1f1f" stroke="#2d1f1f" stroke-miterlimit="3" stroke-width="3.4" fill-rule="evenodd"/>
              <path id="Path_98" data-name="Path 98" d="M23.95,2165.14a53.524,53.524,0,0,1,9.81.49,24.344,24.344,0,0,1,9.16,2.9,1.868,1.868,0,0,1,.82,1.1,45,45,0,0,1,2.9,8.88,28.752,28.752,0,0,1-.21,5.32c-.17,1.7-.39,3.39-.55,5.09a41.735,41.735,0,0,0-.33,7.4,2.9,2.9,0,0,0,.16-.38c1.21-4.17,2.8-8.17,3.67-12.39a.418.418,0,0,0,.11.22,2.859,2.859,0,0,1,2.14.82,5.828,5.828,0,0,1,1.59,4.22,12.49,12.49,0,0,1-2.36,7.08,8.721,8.721,0,0,1-2.68,2.79,3.216,3.216,0,0,1-1.37.38,28.032,28.032,0,0,1-1.1,3.73c.06-.44.17-.93.22-1.37a12.993,12.993,0,0,0-1.04,1.37,28.371,28.371,0,0,1-10.47,8.72,6.865,6.865,0,0,1-3.73.76,16.152,16.152,0,0,1-2.24-.43c-.66-.17-1.21-.66-1.92-.66-.77-.06-1.32.6-1.97.76a8.211,8.211,0,0,1-2.85.33,14.407,14.407,0,0,1-5.6-1.81,28.108,28.108,0,0,1-8.93-7.56c-.38-1.26-.82-2.58-1.1-3.89a6.638,6.638,0,0,1-3.56-3.02,13.553,13.553,0,0,1-2.47-6.85,6.1,6.1,0,0,1,1.21-4.22,2.936,2.936,0,0,1,2.63-1.15c.93,4.99,1.92,10.03,3.29,14.97.06-.11.11-.22.16-.33a27.14,27.14,0,0,0,0-4.77c-.21-4.61-.76-9.21-.76-13.87a7.391,7.391,0,0,1,.16-1.59,46.647,46.647,0,0,1,2.8-8.49,2.842,2.842,0,0,1,.71-1.16,15.891,15.891,0,0,1,3.56-1.75A41.415,41.415,0,0,1,23.95,2165.14Z" transform="translate(9892.833 -7397.613)" fill="#a5663a" stroke="#a5663a" stroke-miterlimit="3" stroke-width="3.4" fill-rule="evenodd"/>
              <path id="Path_99" data-name="Path 99" d="M38.53,2197.36a15.379,15.379,0,0,1,1.04-1.37c-.05.44-.16.94-.22,1.37a19.373,19.373,0,0,1-1.42,3.95,8.635,8.635,0,0,1-1.43,2.3,27.959,27.959,0,0,1-6.46,5.76,18.4,18.4,0,0,1-7.29,2.79,17.567,17.567,0,0,1-5.65-.11,16.8,16.8,0,0,1-6.63-2.96,44.342,44.342,0,0,1-5.81-4.76A18.322,18.322,0,0,1,0,2196.54c.27.28.49.66.77.93a28.271,28.271,0,0,0,8.93,7.57,15.692,15.692,0,0,0,5.59,1.81,12.214,12.214,0,0,0,2.85-.33c.72-.17,1.26-.77,1.98-.77s1.26.49,1.91.66a14.942,14.942,0,0,0,2.25.44,6.765,6.765,0,0,0,3.73-.77A28.337,28.337,0,0,0,38.53,2197.36Z" transform="translate(9899.137 -7392.187)" fill="#2d1f1f" stroke="#2d1f1f" stroke-miterlimit="3" stroke-width="3.4" fill-rule="evenodd"/>
              <path id="Path_100" data-name="Path 100" d="M.16,2205.64a16.772,16.772,0,0,0,6.64,2.96,17.8,17.8,0,0,0,5.64.11,18.207,18.207,0,0,0,7.29-2.79c.11.98.06,1.97.17,3.01a7.283,7.283,0,0,1-1.7,1.1,27.42,27.42,0,0,1-6.47,2.24,17.255,17.255,0,0,1-2.96.11,17.433,17.433,0,0,1-4.06-.93,16.845,16.845,0,0,1-3.61-1.64c-.39-.22-.72-.5-1.05-.72a8.216,8.216,0,0,1,.06-1.64A9.961,9.961,0,0,1,.16,2205.64Z" transform="translate(9909.441 -7388.679)" fill="#8e5c3a" stroke="#8e5c3a" stroke-miterlimit="3" stroke-width="3.4" fill-rule="evenodd"/>
              <path id="Path_101" data-name="Path 101" d="M23.24,2190.51a7.044,7.044,0,0,0,1.7-1.09,18.834,18.834,0,0,0,.33,3.07,3.4,3.4,0,0,0,2.03,2.79c.93.33,1.86.61,2.79.93a15.839,15.839,0,0,1-.82,1.65,68.928,68.928,0,0,1-3.95,6.36,29.717,29.717,0,0,1-5.04,5.7,9.78,9.78,0,0,1-4.6,2.35,4.4,4.4,0,0,1-2.91-.98,29.688,29.688,0,0,1-5.37-4.83,61.819,61.819,0,0,1-6.36-8.38A11.034,11.034,0,0,1,0,2196.16c.88-.27,1.81-.55,2.69-.88a3.33,3.33,0,0,0,2.02-2.41c.22-1.1.33-2.14.44-3.23.39.22.71.49,1.04.71a19.81,19.81,0,0,0,3.62,1.64,20.162,20.162,0,0,0,4.06.94,18.373,18.373,0,0,0,2.96-.11A28.008,28.008,0,0,0,23.24,2190.51Z" transform="translate(9904.398 -7369.221)" fill="#a5663a" stroke="#a5663a" stroke-miterlimit="3" stroke-width="3.4" fill-rule="evenodd"/>
              <path id="Path_102" data-name="Path 102" d="M15.24,2194.13c5.15-1.64,10.3-3.34,15.45-4.99a16.555,16.555,0,0,0,1.05,1.92,59.628,59.628,0,0,0,6.35,8.39,30.032,30.032,0,0,0,5.38,4.82,4.732,4.732,0,0,0,2.9.99,9.75,9.75,0,0,0,4.6-2.36,32.983,32.983,0,0,0,5.05-5.7,59.526,59.526,0,0,0,3.94-6.36c.28-.55.61-1.09.83-1.64,4.82,1.53,9.64,3.12,14.47,4.66,1.15.44,2.35.65,3.5,1.04a17.438,17.438,0,0,1,10.31,8.6,23.825,23.825,0,0,1,2.41,8.83,6.678,6.678,0,0,1-1.48.05H.49c-.16,0-.33-.05-.49-.05a24.322,24.322,0,0,1,1.86-7.62,17.542,17.542,0,0,1,9.27-9.21A22.051,22.051,0,0,1,15.24,2194.13Z" transform="translate(9873.649 -7362.15)" fill="#9c3" stroke="#9c3" stroke-miterlimit="3" stroke-width="3.4" fill-rule="evenodd"/>
              <rect id="Rectangle_135" data-name="Rectangle 135" width="90.709" height="35.433" transform="translate(10078.537 -5763.48)" fill="none"/>
              <text id="Tokens:_0" data-name="Tokens: 0" transform="translate(10100.587 -5742.16)" font-size="20" font-family="Calibri"><tspan x="0" y="0">Tokens: 0</tspan></text>
              <rect id="Rectangle_136" data-name="Rectangle 136" width="90.709" height="35.433" transform="translate(10078.537 -5508.36)" fill="none"/>
              <text id="Tokens:_100" data-name="Tokens: 100" transform="translate(10094.507 -5487.04)" font-size="20" font-family="Calibri"><tspan x="0" y="0">Tokens: 100</tspan></text>
              <path id="Path_107" data-name="Path 107" d="M8.28,2212.44a4.73,4.73,0,0,0-4.69-4.2H0l2.33,4.2Z" transform="translate(9981.325 -5503.574)" fill="#3f3f3f" fill-rule="evenodd"/>
              <path id="Path_108" data-name="Path 108" d="M9.26,2156.09H5.72a1.57,1.57,0,0,1,0-3.14h9.21l7.57-4.2H4.74A4.756,4.756,0,0,0,0,2153.49v54.21a4.763,4.763,0,0,0,4.74,4.74h61.7a4.756,4.756,0,0,0,4.74-4.74v-15.92H59.64a9.748,9.748,0,0,1-9.73-9.73v-.68a9.748,9.748,0,0,1,9.73-9.73H71.18v-15.55H9.26Z" transform="translate(9918.468 -5444.058)" fill="#3f3f3f" fill-rule="evenodd"/>
              <path id="Path_109" data-name="Path 109" d="M0,2205.19v.69a6.577,6.577,0,0,0,6.56,6.56h15.5v-13.81H6.56A6.564,6.564,0,0,0,0,2205.19Zm11.42.47a3.485,3.485,0,1,1-3.49-3.49A3.493,3.493,0,0,1,11.42,2205.66Z" transform="translate(9971.524 -5467.909)" fill="#3f3f3f" fill-rule="evenodd"/>
              <path id="Path_110" data-name="Path 110" d="M40.14,2212.44l-8.72-15.67a1.6,1.6,0,0,0-2.14-.62L0,2212.44Z" transform="translate(9939.911 -5503.574)" fill="#3f3f3f" fill-rule="evenodd"/>
              <path id="Path_111" data-name="Path 111" d="M0,2212.44a11.772,11.772,0,0,1,19.11-.33c-.49-.11-.93-.22-1.42-.38a25.606,25.606,0,0,0-6.1-1.09,26.422,26.422,0,0,0-4.62.11,26.173,26.173,0,0,0-5.88,1.42C.76,2212.27.38,2212.33,0,2212.44Z" transform="translate(9800.986 -5691.504)" fill="#0f0f0e" stroke="#0f0f0e" stroke-miterlimit="3" stroke-width="3.4" fill-rule="evenodd"/>
              <path id="Path_112" data-name="Path 112" d="M23.84,2175.64a26.537,26.537,0,0,1,4.63-.11,25.513,25.513,0,0,1,6.09,1.09,10.2,10.2,0,0,0,1.42.38,4.965,4.965,0,0,0,1.25.6,25.7,25.7,0,0,1,8.66,5.99,26.18,26.18,0,0,1,5.66,27.38c-.22-.27-.44-.55-.66-.82a4.321,4.321,0,0,1-.6,2.02c-.21.27-.59.16-.81,0a4.235,4.235,0,0,1-1.04-1.47,8.425,8.425,0,0,1-.87-2.78,16.953,16.953,0,0,1,.11-2.83c-1.69.38-3.32.87-5.01,1.14a77.388,77.388,0,0,1-18.34,1.53,81.142,81.142,0,0,1-19.1-2.78,11.246,11.246,0,0,1,.38,2.67,8.9,8.9,0,0,1-1.04,2.56,8.916,8.916,0,0,1-1.25,1.9.435.435,0,0,1-.71,0,4.5,4.5,0,0,1-.49-1.9,32.663,32.663,0,0,1-.92-3.76,26.223,26.223,0,0,1,15.07-28.68,1.782,1.782,0,0,0,.66-.44,6.008,6.008,0,0,0,1.09-.27A25.8,25.8,0,0,1,23.84,2175.64Z" transform="translate(9784.167 -5656.45)" fill="#020202" stroke="#020202" stroke-miterlimit="3" stroke-width="3.4" fill-rule="evenodd"/>
              <path id="Path_113" data-name="Path 113" d="M4.52,2178.91a80.613,80.613,0,0,0,19.1,2.77,79.378,79.378,0,0,0,18.35-1.52c1.68-.33,3.32-.76,5-1.14a17.59,17.59,0,0,0-.11,2.83,8.162,8.162,0,0,0,.88,2.77,3.921,3.921,0,0,0,1.03,1.47c.22.22.65.28.82,0a5.28,5.28,0,0,0,.6-2.01c.21.27.43.54.65.82a5.689,5.689,0,0,1,.54,2.99,10.265,10.265,0,0,1-2.07,5.23c-.98,1.36-2.23,2.72-3.97,2.93-.65,2.13-1.03,4.41-2.18,6.37a13.144,13.144,0,0,1-3.92,4.25,28.61,28.61,0,0,1-6.15,3.43,44.915,44.915,0,0,1-6.85,2.23,3.652,3.652,0,0,1-1.69-.22c-.55-.16-1.14-.27-1.69-.43-.71-.33-1.52-.55-2.23-.82a33.31,33.31,0,0,1-7.4-3.65c-.49-.32-.93-.7-1.42-.98a17.768,17.768,0,0,1-1.52-1.36,11.413,11.413,0,0,1-2.83-4.68c-.44-1.36-.77-2.72-1.15-4.08a4.932,4.932,0,0,1-2.39-1.14,12.276,12.276,0,0,1-3.21-4.85,6.2,6.2,0,0,1,.6-5.93,7.28,7.28,0,0,0,.49,1.9c.16.28.49.22.7,0a8.959,8.959,0,0,0,1.26-1.9,6.52,6.52,0,0,0,1.03-2.56A7.621,7.621,0,0,0,4.52,2178.91Z" transform="translate(9784.82 -5630.323)" fill="#d8aa8b" stroke="#d8aa8b" stroke-miterlimit="3" stroke-width="3.4" fill-rule="evenodd"/>
              <path id="Path_114" data-name="Path 114" d="M16.27,2179.02c.49.27.93.65,1.42.98a31.992,31.992,0,0,0,7.4,3.64c.76.28,1.53.49,2.23.82,0,.76.11,1.52.17,2.34a23.257,23.257,0,0,1-.11,4.79,11.343,11.343,0,0,1-2.07,4.85,16.921,16.921,0,0,1-9.58,6.91c-2.61.76-5.44,1.14-7.78,2.61a7.2,7.2,0,0,0-3.21,4.19,5.359,5.359,0,0,0,0,2.29,14.946,14.946,0,0,1-4.63-9.09c-.06-.6-.11-1.2-.11-1.8a14.892,14.892,0,0,1,5.17-11.21c1.8-1.58,3.92-2.78,5.88-4.19a16.807,16.807,0,0,0,3.7-3.59A16.731,16.731,0,0,0,16.27,2179.02Z" transform="translate(9780.411 -5603.108)" fill="#020202" stroke="#020202" stroke-miterlimit="3" stroke-width="3.4" fill-rule="evenodd"/>
              <path id="Path_115" data-name="Path 115" d="M3.37,2210.48a44.676,44.676,0,0,0,6.86-2.23c0,.98.06,1.9.06,2.88-.44.11-.82.22-1.25.33a24.575,24.575,0,0,1-8.88.71c-.05-.77-.16-1.53-.16-2.34.54.16,1.14.27,1.69.43A3.018,3.018,0,0,0,3.37,2210.48Z" transform="translate(9807.79 -5628.527)" fill="#c1977a" stroke="#c1977a" stroke-miterlimit="3" stroke-width="3.4" fill-rule="evenodd"/>
              <path id="Path_116" data-name="Path 116" d="M28.36,2187.24c.43-.11.81-.22,1.25-.33.11,1.96.16,3.97.44,5.93a3.3,3.3,0,0,0,1.14,2.29,6.41,6.41,0,0,0,1.96.82c4.84,1.52,9.63,2.99,14.48,4.51a13.828,13.828,0,0,1,5.11,2.56,5.033,5.033,0,0,0-2.17.38,15.251,15.251,0,0,0-2.45,1.69,29.471,29.471,0,0,1-10.18,5.5,44.506,44.506,0,0,1-8.87,1.52,38.552,38.552,0,0,1-7.13.16,70.209,70.209,0,0,1-14.65-2.93c-2.45-.71-4.84-1.47-7.29-2.18,2.34-1.47,5.17-1.85,7.78-2.61a17.512,17.512,0,0,0,9.58-6.92,11.625,11.625,0,0,0,2.07-4.84,23.257,23.257,0,0,0,.11-4.79A25.647,25.647,0,0,0,28.36,2187.24Z" transform="translate(9788.467 -5604.251)" fill="#d8aa8b" stroke="#d8aa8b" stroke-miterlimit="3" stroke-width="3.4" fill-rule="evenodd"/>
              <path id="Path_117" data-name="Path 117" d="M0,2211.89a16.954,16.954,0,0,1,1.42-1.25,10.868,10.868,0,0,0,.1,1.8A4.953,4.953,0,0,1,0,2211.89Z" transform="translate(9779.051 -5612.144)" fill="#d8aa8b" stroke="#d8aa8b" stroke-miterlimit="3" stroke-width="3.4" fill-rule="evenodd"/>
              <path id="Path_118" data-name="Path 118" d="M65.64,2198.67a4.834,4.834,0,0,1,2.18-.38,8.668,8.668,0,0,1,1.52.59,8.386,8.386,0,0,1,2.56,2.24,14.24,14.24,0,0,1,2.89,6.31,8.368,8.368,0,0,1-.55,5.01H.33a13.2,13.2,0,0,1,1.36-7.08,19.425,19.425,0,0,1,3.97-6.04,4.937,4.937,0,0,0,1.52.54,14.739,14.739,0,0,0,4.63,9.09,5.312,5.312,0,0,1,0-2.28,7.5,7.5,0,0,1,3.21-4.19c2.45.76,4.85,1.52,7.3,2.17a70.25,70.25,0,0,0,14.64,2.94,38.649,38.649,0,0,0,7.13-.16,44.366,44.366,0,0,0,8.87-1.52,28.848,28.848,0,0,0,10.18-5.5A13.066,13.066,0,0,1,65.64,2198.67Z" transform="translate(9773.39 -5599.516)" fill="#ce57b5" stroke="#ce57b5" stroke-miterlimit="3" stroke-width="3.4" fill-rule="evenodd"/>
              <path id="Path_119" data-name="Path 119" d="M8.28,2212.44a4.73,4.73,0,0,0-4.69-4.2H0l2.33,4.2Z" transform="translate(9978.777 -5669.637)" fill="#3f3f3f" fill-rule="evenodd"/>
              <path id="Path_120" data-name="Path 120" d="M9.26,2156.09H5.72a1.57,1.57,0,0,1,0-3.14h9.21l7.57-4.2H4.74A4.756,4.756,0,0,0,0,2153.49v54.21a4.763,4.763,0,0,0,4.74,4.74h61.7a4.756,4.756,0,0,0,4.74-4.74v-15.92H59.64a9.748,9.748,0,0,1-9.73-9.73v-.68a9.748,9.748,0,0,1,9.73-9.73H71.18v-15.55H9.26Z" transform="translate(9915.92 -5610.121)" fill="#3f3f3f" fill-rule="evenodd"/>
              <path id="Path_121" data-name="Path 121" d="M0,2205.19v.69a6.577,6.577,0,0,0,6.56,6.56h15.5v-13.81H6.56A6.564,6.564,0,0,0,0,2205.19Zm11.42.47a3.485,3.485,0,1,1-3.49-3.49A3.493,3.493,0,0,1,11.42,2205.66Z" transform="translate(9968.977 -5633.972)" fill="#3f3f3f" fill-rule="evenodd"/>
              <path id="Path_122" data-name="Path 122" d="M40.14,2212.44l-8.72-15.67a1.6,1.6,0,0,0-2.14-.62L0,2212.44Z" transform="translate(9937.363 -5669.637)" fill="#3f3f3f" fill-rule="evenodd"/>
              <path id="Path_123" data-name="Path 123" d="M7.62,2167.22a29.314,29.314,0,0,1,14.41-4.55,31.813,31.813,0,0,1,12.78,1.97,17.889,17.889,0,0,1,7.89,5.81,19.144,19.144,0,0,1,3.29,8.01,50.457,50.457,0,0,1,1.09,9.48,40.885,40.885,0,0,1-.22,4.55,33.317,33.317,0,0,1-.6,4.71c-.88,4.22-2.47,8.28-3.67,12.39a2.809,2.809,0,0,0-.17.38,37.454,37.454,0,0,1,.33-7.4c.22-1.7.39-3.4.55-5.1a28.616,28.616,0,0,0,.22-5.31,45.665,45.665,0,0,0-2.9-8.88,1.884,1.884,0,0,0-.83-1.1,24.115,24.115,0,0,0-9.15-2.9,48.7,48.7,0,0,0-9.81-.5,40.846,40.846,0,0,0-10.25,1.7,13.436,13.436,0,0,0-3.56,1.76,2.5,2.5,0,0,0-.72,1.15,45.875,45.875,0,0,0-2.79,8.49,7.89,7.89,0,0,0-.17,1.59c0,4.61.55,9.21.77,13.87a27.14,27.14,0,0,1,0,4.77.467.467,0,0,1-.16.33c-1.32-4.94-2.31-9.92-3.29-14.97-.17-.87-.28-1.75-.39-2.63a47.227,47.227,0,0,1,.17-8.33c.22-2.68.22-5.37.44-8.05a19.627,19.627,0,0,1,5.48-10.09A4.867,4.867,0,0,1,7.62,2167.22Z" transform="translate(9785.995 -5484.783)" fill="#2d1f1f" stroke="#2d1f1f" stroke-miterlimit="3" stroke-width="3.4" fill-rule="evenodd"/>
              <path id="Path_124" data-name="Path 124" d="M23.95,2165.14a53.524,53.524,0,0,1,9.81.49,24.344,24.344,0,0,1,9.16,2.9,1.868,1.868,0,0,1,.82,1.1,45,45,0,0,1,2.9,8.88,28.752,28.752,0,0,1-.21,5.32c-.17,1.7-.39,3.39-.55,5.09a41.735,41.735,0,0,0-.33,7.4,2.9,2.9,0,0,0,.16-.38c1.21-4.17,2.8-8.17,3.67-12.39a.418.418,0,0,0,.11.22,2.859,2.859,0,0,1,2.14.82,5.828,5.828,0,0,1,1.59,4.22,12.49,12.49,0,0,1-2.36,7.08,8.721,8.721,0,0,1-2.68,2.79,3.216,3.216,0,0,1-1.37.38,28.032,28.032,0,0,1-1.1,3.73c.06-.44.17-.93.22-1.37a12.993,12.993,0,0,0-1.04,1.37,28.371,28.371,0,0,1-10.47,8.72,6.865,6.865,0,0,1-3.73.76,16.152,16.152,0,0,1-2.24-.43c-.66-.17-1.21-.66-1.92-.66-.77-.06-1.32.6-1.97.76a8.211,8.211,0,0,1-2.85.33,14.407,14.407,0,0,1-5.6-1.81,28.108,28.108,0,0,1-8.93-7.56c-.38-1.26-.82-2.58-1.1-3.89a6.638,6.638,0,0,1-3.56-3.02,13.553,13.553,0,0,1-2.47-6.85,6.1,6.1,0,0,1,1.21-4.22,2.936,2.936,0,0,1,2.63-1.15c.93,4.99,1.92,10.03,3.29,14.97.06-.11.11-.22.16-.33a27.14,27.14,0,0,0,0-4.77c-.21-4.61-.76-9.21-.76-13.87a7.391,7.391,0,0,1,.16-1.59,46.647,46.647,0,0,1,2.8-8.49,2.842,2.842,0,0,1,.71-1.16,15.891,15.891,0,0,1,3.56-1.75A41.415,41.415,0,0,1,23.95,2165.14Z" transform="translate(9782.926 -5471.245)" fill="#a5663a" stroke="#a5663a" stroke-miterlimit="3" stroke-width="3.4" fill-rule="evenodd"/>
              <path id="Path_125" data-name="Path 125" d="M38.53,2197.36a15.379,15.379,0,0,1,1.04-1.37c-.05.44-.16.94-.22,1.37a19.373,19.373,0,0,1-1.42,3.95,8.635,8.635,0,0,1-1.43,2.3,27.959,27.959,0,0,1-6.46,5.76,18.4,18.4,0,0,1-7.29,2.79,17.567,17.567,0,0,1-5.65-.11,16.8,16.8,0,0,1-6.63-2.96,44.342,44.342,0,0,1-5.81-4.76A18.322,18.322,0,0,1,0,2196.54c.27.28.49.66.77.93a28.271,28.271,0,0,0,8.93,7.57,15.692,15.692,0,0,0,5.59,1.81,12.214,12.214,0,0,0,2.85-.33c.72-.17,1.26-.77,1.98-.77s1.26.49,1.91.66a14.942,14.942,0,0,0,2.25.44,6.765,6.765,0,0,0,3.73-.77A28.337,28.337,0,0,0,38.53,2197.36Z" transform="translate(9789.229 -5465.818)" fill="#2d1f1f" stroke="#2d1f1f" stroke-miterlimit="3" stroke-width="3.4" fill-rule="evenodd"/>
              <path id="Path_126" data-name="Path 126" d="M.16,2205.64a16.772,16.772,0,0,0,6.64,2.96,17.8,17.8,0,0,0,5.64.11,18.207,18.207,0,0,0,7.29-2.79c.11.98.06,1.97.17,3.01a7.283,7.283,0,0,1-1.7,1.1,27.42,27.42,0,0,1-6.47,2.24,17.255,17.255,0,0,1-2.96.11,17.433,17.433,0,0,1-4.06-.93,16.845,16.845,0,0,1-3.61-1.64c-.39-.22-.72-.5-1.05-.72a8.216,8.216,0,0,1,.06-1.64A9.961,9.961,0,0,1,.16,2205.64Z" transform="translate(9799.534 -5462.311)" fill="#8e5c3a" stroke="#8e5c3a" stroke-miterlimit="3" stroke-width="3.4" fill-rule="evenodd"/>
              <path id="Path_127" data-name="Path 127" d="M23.24,2190.51a7.044,7.044,0,0,0,1.7-1.09,18.834,18.834,0,0,0,.33,3.07,3.4,3.4,0,0,0,2.03,2.79c.93.33,1.86.61,2.79.93a15.839,15.839,0,0,1-.82,1.65,68.928,68.928,0,0,1-3.95,6.36,29.717,29.717,0,0,1-5.04,5.7,9.78,9.78,0,0,1-4.6,2.35,4.4,4.4,0,0,1-2.91-.98,29.688,29.688,0,0,1-5.37-4.83,61.819,61.819,0,0,1-6.36-8.38A11.034,11.034,0,0,1,0,2196.16c.88-.27,1.81-.55,2.69-.88a3.33,3.33,0,0,0,2.02-2.41c.22-1.1.33-2.14.44-3.23.39.22.71.49,1.04.71a19.81,19.81,0,0,0,3.62,1.64,20.162,20.162,0,0,0,4.06.94,18.373,18.373,0,0,0,2.96-.11A28.008,28.008,0,0,0,23.24,2190.51Z" transform="translate(9794.491 -5442.853)" fill="#a5663a" stroke="#a5663a" stroke-miterlimit="3" stroke-width="3.4" fill-rule="evenodd"/>
              <path id="Path_128" data-name="Path 128" d="M15.24,2194.13c5.15-1.64,10.3-3.34,15.45-4.99a16.555,16.555,0,0,0,1.05,1.92,59.628,59.628,0,0,0,6.35,8.39,30.032,30.032,0,0,0,5.38,4.82,4.732,4.732,0,0,0,2.9.99,9.75,9.75,0,0,0,4.6-2.36,32.983,32.983,0,0,0,5.05-5.7,59.526,59.526,0,0,0,3.94-6.36c.28-.55.61-1.09.83-1.64,4.82,1.53,9.64,3.12,14.47,4.66,1.15.44,2.35.65,3.5,1.04a17.438,17.438,0,0,1,10.31,8.6,23.825,23.825,0,0,1,2.41,8.83,6.678,6.678,0,0,1-1.48.05H.49c-.16,0-.33-.05-.49-.05a24.322,24.322,0,0,1,1.86-7.62,17.542,17.542,0,0,1,9.27-9.21A22.051,22.051,0,0,1,15.24,2194.13Z" transform="translate(9763.742 -5435.782)" fill="#9c3" stroke="#9c3" stroke-miterlimit="3" stroke-width="3.4" fill-rule="evenodd"/>
              <rect id="Rectangle_140" data-name="Rectangle 140" width="90.709" height="35.433" transform="translate(10000.391 -3446.719)" fill="none"/>
              <text id="Tokens:_100-2" data-name="Tokens: 100" transform="translate(10016.36 -3425.399)" font-size="20" font-family="Calibri"><tspan x="0" y="0">Tokens: 100</tspan></text>
              <rect id="Rectangle_141" data-name="Rectangle 141" width="90.709" height="35.433" transform="translate(10000.391 -3276.998)" fill="none"/>
              <text id="Tokens:_0-2" data-name="Tokens: 0" transform="translate(10022.44 -3255.677)" font-size="20" font-family="Calibri"><tspan x="0" y="0">Tokens: 0</tspan></text>
              <path id="Path_129" data-name="Path 129" stroke="#0c0" d="M0,2212.44H42.38" fill="none" transform="translate(7739.56 -3332.601) rotate(-90)" stroke-linecap="round" stroke-linejoin="round" stroke-miterlimit="3" stroke-width="2.25" fill-rule="evenodd"/>
              <rect id="Rectangle_144" data-name="Rectangle 144" width="126.142" height="35.433" transform="translate(9957.828 -3371.127)" fill="none"/>
              <text id="Transfer_of_100_Shares" data-name="Transfer of 100 Shares" transform="translate(9966.208 -3349.807)" font-size="20" font-family="Calibri"><tspan x="0" y="0">Transfer of 100 Shares</tspan></text>
              <text id="STEP_1" data-name="STEP 1" transform="translate(9515 -5629)" fill="#707070" font-size="18" font-family="SegoeUI-Bold, Segoe UI" font-weight="700"><tspan x="0" y="0">STEP 1</tspan></text>
              <text id="STEP_2" data-name="STEP 2" transform="translate(9515 -5079)" fill="#707070" font-size="18" font-family="SegoeUI-Bold, Segoe UI" font-weight="700"><tspan x="0" y="0">STEP 2</tspan></text>
              <text id="STEP_3" data-name="STEP 3" transform="translate(9515 -4503)" fill="#707070" font-size="18" font-family="SegoeUI-Bold, Segoe UI" font-weight="700"><tspan x="0" y="0">STEP 3</tspan></text>
              <text id="STEP_4" data-name="STEP 4" transform="translate(9515 -3912)" fill="#707070" font-size="18" font-family="SegoeUI-Bold, Segoe UI" font-weight="700"><tspan x="0" y="0">STEP 4</tspan></text>
              <text id="STEP_5" data-name="STEP 5" transform="translate(9515 -3370)" fill="#707070" font-size="18" font-family="SegoeUI-Bold, Segoe UI" font-weight="700"><tspan x="0" y="0">STEP 5</tspan></text>
              <g id="Rectangle_145" data-name="Rectangle 145" transform="translate(10298 -4485)" fill="#fff" stroke="#cf730b" stroke-width="4">
                <rect width="220" height="179" stroke="none"/>
                <rect x="2" y="2" width="216" height="175" fill="none"/>
              </g>
              <text id="Note:" transform="translate(10314 -4479)" fill="#707070" font-size="16" font-family="SegoeUI-Semibold, Segoe UI" font-weight="600"><tspan x="0" y="17">Note:</tspan></text>
              <text id="Oracle_s_Public_Key_is_found_in_the_Contract_Formation_metadata._The_public_key_is_used_with_the_Message_OSR_to_validate_the_Oracle_Signature" data-name="Oracle&apos;s Public Key is found in the Contract Formation metadata. The public key is used with the Message(OSR) to validate the Oracle Signature" transform="translate(10314 -4448)" fill="#707070" font-size="14" font-family="SegoeUI-Semibold, Segoe UI" font-weight="600"><tspan x="0" y="15">Oracle&apos;s Public Key is found </tspan><tspan x="0" y="34">in the Contract Formation </tspan><tspan x="0" y="53">metadata. The public key is </tspan><tspan x="0" y="72">used with the Message(OSR) </tspan><tspan x="0" y="91">to validate the Oracle </tspan><tspan x="0" y="110">Signature</tspan></text>
              <g id="Rectangle_146" data-name="Rectangle 146" transform="translate(10170 -3402)" fill="#fff" stroke="#cf730b" stroke-width="4">
                <rect width="185" height="105" stroke="none"/>
                <rect x="2" y="2" width="181" height="101" fill="none"/>
              </g>
              <text id="Note:-2" data-name="Note:" transform="translate(10186 -3396)" fill="#707070" font-size="16" font-family="SegoeUI-Semibold, Segoe UI" font-weight="600"><tspan x="0" y="17">Note:</tspan></text>
              <text id="New_balances_after_settlement." data-name="New balances after settlement." transform="translate(10186 -3365)" fill="#707070" font-size="14" font-family="SegoeUI-Semibold, Segoe UI" font-weight="600"><tspan x="0" y="15">New balances after </tspan><tspan x="0" y="34">settlement.</tspan></text>
              <text id="Receiver" transform="translate(9882 -5672)" fill="#0070c0" font-size="22" font-family="SegoeUI-Semibold, Segoe UI" font-weight="600"><tspan x="0" y="0">Receiver</tspan></text>
              <text id="Sender" transform="translate(9877 -5425)" fill="#7030a0" font-size="22" font-family="SegoeUI-Semibold, Segoe UI" font-weight="600"><tspan x="0" y="0">Sender</tspan></text>
              <text id="Sender-2" data-name="Sender" transform="translate(9884 -5122)" fill="#7030a0" font-size="22" font-family="SegoeUI-Semibold, Segoe UI" font-weight="600"><tspan x="0" y="0">Sender</tspan></text>
              <line id="Line_175" data-name="Line 175" x2="1270.33" transform="translate(9347.5 -5385.5)" fill="none" stroke="#707070" stroke-width="1"/>
              <text id="Sender_s_Wallet_Requests_Identity_Oracle_s_Permission_to_Transfer_Tokens_to_Receiver" data-name="Sender&apos;s Wallet Requests Identity Oracle&apos;s Permission to Transfer Tokens to Receiver" transform="translate(9629 -5340)" fill="#707070" font-size="18" font-family="SegoeUI-Bold, Segoe UI" font-weight="700"><tspan x="0" y="0">Sender&apos;s Wallet Requests Identity Oracle&apos;s Permission to Transfer Tokens to Receiver</tspan></text>
              <text id="Receiver_Sends_Payment_Request_to_Sender" data-name="Receiver Sends Payment Request to Sender" transform="translate(9801 -5836)" fill="#707070" font-size="18" font-family="SegoeUI-Bold, Segoe UI" font-weight="700"><tspan x="0" y="0">Receiver Sends Payment Request to Sender</tspan></text>
              <line id="Line_176" data-name="Line 176" x2="1270.33" transform="translate(9347.5 -4823.5)" fill="none" stroke="#707070" stroke-width="1"/>
              <text id="Sender_s_Wallet_Builds_and_Signs_a_Transaction_with_the_Oracle_Signature_Included" data-name="Sender&apos;s Wallet Builds and Signs a Transaction with the Oracle Signature Included" transform="translate(9638 -4769)" fill="#707070" font-size="18" font-family="SegoeUI-Bold, Segoe UI" font-weight="700"><tspan x="0" y="0">Sender&apos;s Wallet Builds and Signs a Transaction with the Oracle Signature Included</tspan></text>
              <line id="Line_178" data-name="Line 178" x2="1270.33" transform="translate(9347.5 -4220.5)" fill="none" stroke="#707070" stroke-width="1"/>
              <text id="Smart_Contract_Validates_Transfer_Action_and_Responds_with_a_Settlement_Action" data-name="Smart Contract Validates Transfer Action and Responds with a Settlement Action" transform="translate(9642 -4166)" fill="#707070" font-size="18" font-family="SegoeUI-Bold, Segoe UI" font-weight="700"><tspan x="0" y="0">Smart Contract Validates Transfer Action and Responds with a Settlement Action</tspan></text>
              <line id="Line_179" data-name="Line 179" x2="1270.33" transform="translate(9347.5 -3659.5)" fill="none" stroke="#707070" stroke-width="1"/>
              <text id="The_Receiver_has_now_Received_100_Tokens_from_the_Sender" data-name="The Receiver has now Received 100 Tokens from the Sender" transform="translate(9731 -3605)" fill="#707070" font-size="18" font-family="SegoeUI-Bold, Segoe UI" font-weight="700"><tspan x="0" y="0">The Receiver has now Received 100 Tokens from the Sender</tspan></text>
              <text id="Sender-3" data-name="Sender" transform="translate(9776 -3194)" fill="#7030a0" font-size="22" font-family="SegoeUI-Semibold, Segoe UI" font-weight="600"><tspan x="0" y="0">Sender</tspan></text>
              <text id="Receiver-2" data-name="Receiver" transform="translate(9769 -3358)" fill="#0070c0" font-size="22" font-family="SegoeUI-Semibold, Segoe UI" font-weight="600"><tspan x="0" y="0">Receiver</tspan></text>
              <line id="Line_180" data-name="Line 180" x2="50" y2="31" transform="translate(10120.5 -3422.5)" fill="none" stroke="#cf730b" stroke-width="1" stroke-dasharray="3"/>
              <line id="Line_181" data-name="Line 181" y1="31" x2="61" transform="translate(10109.5 -3296.5)" fill="none" stroke="#cf730b" stroke-width="1" stroke-dasharray="3"/>
              <text id="Identity_Oracle" data-name="Identity Oracle" transform="translate(9966 -4875)" fill="#707070" font-size="22" font-family="SegoeUI-Semibold, Segoe UI" font-weight="600"><tspan x="0" y="0">Identity Oracle</tspan></text>
              <text id="Oracle_Signature_Required" data-name="Oracle Signature Required" transform="translate(9675.731 -5072.12)" fill="#707070" font-size="18" font-family="Calibri-Bold, Calibri" font-weight="700"><tspan x="0" y="0">Oracle Signature Required</tspan></text>
              <g id="Rectangle_147" data-name="Rectangle 147" transform="translate(9711 -4702)" fill="#fcfcfc" stroke="#707070" stroke-width="1">
                <rect width="628" height="171" stroke="none"/>
                <rect x="0.5" y="0.5" width="627" height="170" fill="none"/>
              </g>
              <text id="Request_Transaction_Transfer_" data-name="Request Transaction (Transfer)" transform="translate(9723 -4669)" fill="#707070" font-size="16" font-family="SegoeUI-Semibold, Segoe UI" font-weight="600"><tspan x="0" y="0">Request Transaction (Transfer)</tspan></text>
              <line id="Line_182" data-name="Line 182" y2="97" transform="translate(9911.5 -4641.5)" fill="none" stroke="#707070" stroke-width="1"/>
              <text id="INPUTS" transform="translate(9724 -4640)" fill="#707070" font-size="14" font-family="SegoeUI-Bold, Segoe UI" font-weight="700"><tspan x="0" y="15">INPUTS</tspan></text>
              <text id="OUTPUTS_" data-name="OUTPUTS " transform="translate(9927 -4640)" fill="#707070" font-size="14" font-family="SegoeUI-Bold, Segoe UI" font-weight="700"><tspan x="0" y="15">OUTPUTS </tspan></text>
              <text id="_0:_Sender" data-name="0: Sender" transform="translate(9724 -4620)" fill="#707070" font-size="14" font-family="SegoeUI, Segoe UI"><tspan x="0" y="15">0: </tspan><tspan y="15" fill="#7030a0">Sender</tspan></text>
              <text id="_0:_Smart_Contract_1:_Receiver_2:_Sender_3:_Transfer_Action" data-name="0: Smart Contract
1: Receiver
2: Sender
3: Transfer Action" transform="translate(9927 -4620)" fill="#707070" font-size="14" font-family="SegoeUI, Segoe UI"><tspan x="0" y="15">0: </tspan><tspan y="15" fill="#c00000">Smart Contract</tspan><tspan x="0" y="34">1: </tspan><tspan y="34" fill="#19e134">Receiver</tspan><tspan x="0" y="53">2: </tspan><tspan y="53" fill="#7b1adb">Sender</tspan><tspan x="0" y="72">3:</tspan><tspan y="72" fill="#ef1818"> </tspan><tspan y="72">Transfer Action</tspan></text>
              <text id="VALUE" transform="translate(10120 -4640)" fill="#707070" font-size="14" font-family="SegoeUI-Bold, Segoe UI" font-weight="700"><tspan x="0" y="15">VALUE</tspan></text>
              <g id="Rectangle_148" data-name="Rectangle 148" transform="translate(9855 -4509)" fill="#fcfcfc" stroke="#707070" stroke-width="1" stroke-dasharray="3">
                <rect width="339.499" height="217" stroke="none"/>
                <rect x="0.5" y="0.5" width="338.499" height="216" fill="none"/>
              </g>
              <text id="Transfer_Action_Payload" data-name="Transfer Action Payload" transform="translate(9866 -4474)" fill="#707070" font-size="16" font-family="SegoeUI-Semibold, Segoe UI" font-weight="600"><tspan x="0" y="0">Transfer Action Payload</tspan></text>
              <text id="Senders" transform="translate(9881 -4437)" fill="#707070" font-size="14" font-family="SegoeUI-Bold, Segoe UI" font-weight="700"><tspan x="0" y="15">Senders</tspan></text>
              <text id="Sender:_100_tokens" data-name="Sender: 100 tokens" transform="translate(9881 -4402)" fill="#7030a0" font-size="14" font-family="SegoeUI, Segoe UI"><tspan x="0" y="0">Sender</tspan><tspan y="0" fill="#707070">: 100 tokens</tspan></text>
              <text id="Receivers" transform="translate(9881 -4391)" fill="#707070" font-size="14" font-family="SegoeUI-Bold, Segoe UI" font-weight="700"><tspan x="0" y="15">Receivers</tspan></text>
              <text id="Receiver:_100_tokens" data-name="Receiver: 100 tokens" transform="translate(9881 -4355)" fill="#19e134" font-size="14" font-family="SegoeUI, Segoe UI"><tspan x="0" y="0">Receiver</tspan><tspan y="0" fill="#707070">: 100 tokens</tspan></text>
              <text id="ASSETID:_SHC1BvBMSEYstWetqTFn5Au4m4GFg7xJ..." data-name="ASSETID: SHC1BvBMSEYstWetqTFn5Au4m4GFg7xJ..." transform="translate(9870 -4456)" fill="#707070" font-size="12" font-family="SegoeUI-Bold, Segoe UI" font-weight="700"><tspan x="0" y="13">ASSETID: SHC1BvBMSEYstWetqTFn5Au4m4GFg7xJ...</tspan></text>
              <line id="Line_183" data-name="Line 183" y2="84" transform="translate(9871.5 -4434.5)" fill="none" stroke="#707070" stroke-width="1"/>
              <text id="Response_Costs_Contract_Fees_Dust_Bitcoin_Change_N_A" data-name="Response Costs + Contract Fees
Dust
Bitcoin Change
N/A" transform="translate(10120 -4620)" fill="#707070" font-size="14" font-family="SegoeUI, Segoe UI"><tspan x="0" y="15">Response Costs + Contract Fees</tspan><tspan x="0" y="34">Dust</tspan><tspan x="0" y="53">Bitcoin Change</tspan><tspan x="0" y="72">N/A</tspan></text>
              <g id="Rectangle_149" data-name="Rectangle 149" transform="translate(9718 -4079)" fill="#fcfcfc" stroke="#707070" stroke-width="1">
                <rect width="587" height="172" stroke="none"/>
                <rect x="0.5" y="0.5" width="586" height="171" fill="none"/>
              </g>
              <line id="Line_184" data-name="Line 184" y2="85" transform="translate(9918.5 -4023.5)" fill="none" stroke="#707070" stroke-width="1"/>
              <text id="INPUTS-2" data-name="INPUTS" transform="translate(9731 -4022)" fill="#707070" font-size="14" font-family="SegoeUI-Bold, Segoe UI" font-weight="700"><tspan x="0" y="15">INPUTS</tspan></text>
              <text id="OUTPUTS_2" data-name="OUTPUTS " transform="translate(9934 -4022)" fill="#707070" font-size="14" font-family="SegoeUI-Bold, Segoe UI" font-weight="700"><tspan x="0" y="15">OUTPUTS </tspan></text>
              <text id="_0:_Smart_Contract_" data-name="0: Smart Contract
" transform="translate(9731 -4002)" fill="#707070" font-size="14" font-family="SegoeUI, Segoe UI"><tspan x="0" y="15">0: </tspan><tspan y="15" fill="#c00000">Smart Contract</tspan><tspan fill="#c00000"><tspan x="0" y="34"></tspan></tspan></text>
              <text id="_0:_Sender_1:_Receiver_2:_Contract_Operator_3:_Settlement_Action" data-name="0: Sender
1: Receiver
2: Contract Operator
3: Settlement Action" transform="translate(9934 -4002)" fill="#707070" font-size="14" font-family="SegoeUI, Segoe UI"><tspan x="0" y="15">0: </tspan><tspan y="15" fill="#7030a0">Sender</tspan><tspan x="0" y="34">1: </tspan><tspan y="34" fill="#19e134">Receiver</tspan><tspan x="0" y="53">2: Contract Operator</tspan><tspan x="0" y="72">3: Settlement Action</tspan></text>
              <text id="VALUE-2" data-name="VALUE" transform="translate(10107 -4022)" fill="#707070" font-size="14" font-family="SegoeUI-Bold, Segoe UI" font-weight="700"><tspan x="0" y="15">VALUE</tspan></text>
              <text id="Dust_Dust_Contract_Fees_N_A" data-name="Dust
Dust
Contract Fees
N/A" transform="translate(10107 -4002)" fill="#707070" font-size="14" font-family="SegoeUI, Segoe UI"><tspan x="0" y="15">Dust</tspan><tspan x="0" y="34">Dust</tspan><tspan x="0" y="53">Contract Fees</tspan><tspan x="0" y="72">N/A</tspan></text>
              <g id="Rectangle_150" data-name="Rectangle 150" transform="translate(9841 -3885)" fill="#fcfcfc" stroke="#707070" stroke-width="1" stroke-dasharray="3">
                <rect width="331.499" height="152" stroke="none"/>
                <rect x="0.5" y="0.5" width="330.499" height="151" fill="none"/>
              </g>
              <text id="Settlement_Action_Payload" data-name="Settlement Action Payload" transform="translate(9853 -3850)" fill="#707070" font-size="16" font-family="SegoeUI-Semibold, Segoe UI" font-weight="600"><tspan x="0" y="0">Settlement Action Payload</tspan></text>
              <text id="Response_Transaction_Settlement_" data-name="Response Transaction (Settlement)" transform="translate(9730 -4046)" fill="#707070" font-size="16" font-family="SegoeUI-Semibold, Segoe UI" font-weight="600"><tspan x="0" y="0">Response Transaction (Settlement)</tspan></text>
              <text id="Settlements" transform="translate(9866 -3812)" fill="#707070" font-size="14" font-family="SegoeUI-Bold, Segoe UI" font-weight="700"><tspan x="0" y="15">Settlements</tspan></text>
              <text id="Sender:_0_tokens" data-name="Sender: 0 tokens" transform="translate(9866 -3777)" fill="#7030a0" font-size="14" font-family="SegoeUI, Segoe UI"><tspan x="0" y="0">Sender</tspan><tspan y="0" fill="#707070">: 0 tokens</tspan></text>
              <text id="Receiver:_100_tokens-2" data-name="Receiver: 100 tokens" transform="translate(9866 -3756)" fill="#19e134" font-size="14" font-family="SegoeUI, Segoe UI"><tspan x="0" y="0">Receiver</tspan><tspan y="0" fill="#707070">: 100 tokens</tspan></text>
              <line id="Line_185" data-name="Line 185" y2="60" transform="translate(9856.5 -3809.5)" fill="none" stroke="#707070" stroke-width="1"/>
              <g id="Rectangle_151" data-name="Rectangle 151" transform="translate(9939 -4562)" fill="none" stroke="#707070" stroke-width="1" stroke-dasharray="3">
                <rect width="98" height="18" stroke="none"/>
                <rect x="0.5" y="0.5" width="97" height="17" fill="none"/>
              </g>
              <line id="Line_186" data-name="Line 186" y2="36" transform="translate(9989.5 -4544.5)" fill="none" stroke="#707070" stroke-width="1" stroke-dasharray="3"/>
              <g id="Rectangle_152" data-name="Rectangle 152" transform="translate(9949 -3944)" fill="none" stroke="#707070" stroke-width="1" stroke-dasharray="3">
                <rect width="117" height="18" stroke="none"/>
                <rect x="0.5" y="0.5" width="116" height="17" fill="none"/>
              </g>
              <line id="Line_187" data-name="Line 187" y2="41" transform="translate(10007.5 -3925.5)" fill="none" stroke="#707070" stroke-width="1" stroke-dasharray="3"/>
              <text id="ASSETID:_SHC1BvBMSEYstWetqTFn5Au4m4GFg7xJ...-2" data-name="ASSETID: SHC1BvBMSEYstWetqTFn5Au4m4GFg7xJ..." transform="translate(9853 -3833)" fill="#707070" font-size="12" font-family="SegoeUI-Bold, Segoe UI" font-weight="700"><tspan x="0" y="13">ASSETID: SHC1BvBMSEYstWetqTFn5Au4m4GFg7xJ...</tspan></text>
              <text id="ORACLE_SIGNATURE:_OracleSignature_Message_OSR_1_" data-name="ORACLE SIGNATURE: OracleSignature(Message(OSR)+1)" transform="translate(9870 -4344)" fill="#707070" font-size="12" font-family="SegoeUI-Bold, Segoe UI" font-weight="700"><tspan x="0" y="13">ORACLE SIGNATURE: </tspan><tspan y="13" font-family="SegoeUI, Segoe UI" font-weight="400">OracleSignature(</tspan><tspan y="13" fill="#ffa23d" font-family="SegoeUI, Segoe UI" font-weight="400">Message(OSR)</tspan><tspan y="13" font-family="SegoeUI, Segoe UI" font-weight="400">+1)</tspan></text>
              <text id="RECEIVE_MESSAGE:_Message_OSR_" data-name="RECEIVE MESSAGE: Message(OSR)" transform="translate(9870 -4323)" fill="#707070" font-size="12" font-family="SegoeUI-Bold, Segoe UI" font-weight="700"><tspan x="0" y="13">RECEIVE MESSAGE: </tspan><tspan y="13" fill="#ffa23d" font-family="SegoeUI, Segoe UI" font-weight="400">Message(OSR)</tspan></text>
              <g id="Rectangle_153" data-name="Rectangle 153" transform="translate(9868 -4346)" fill="none" stroke="#cf730b" stroke-width="1" stroke-dasharray="3">
                <rect width="318" height="43" stroke="none"/>
                <rect x="0.5" y="0.5" width="317" height="42" fill="none"/>
              </g>
              <line id="Line_188" data-name="Line 188" x2="112" transform="translate(10186.5 -4330.5)" fill="none" stroke="#cf730b" stroke-width="1" stroke-dasharray="3"/>
              <path id="Path_60" data-name="Path 60" d="M4.91,8.333l5.2-5.2a1.316,1.316,0,0,0,.4-.968,1.316,1.316,0,0,0-.4-.968l-.8-.8A1.382,1.382,0,0,0,7.37.4L.4,7.359A1.382,1.382,0,0,0,.4,9.3L7.37,16.259a1.382,1.382,0,0,0,1.936,0l.8-.8a1.309,1.309,0,0,0,.4-.963,1.345,1.345,0,0,0-.4-.973Z" transform="translate(10028.192 -5554.859) rotate(-90)"/>
              <path id="Path_60-2" data-name="Path 60" d="M4.91,8.333l5.2-5.2a1.316,1.316,0,0,0,.4-.968,1.316,1.316,0,0,0-.4-.968l-.8-.8A1.382,1.382,0,0,0,7.37.4L.4,7.359A1.382,1.382,0,0,0,.4,9.3L7.37,16.259a1.382,1.382,0,0,0,1.936,0l.8-.8a1.309,1.309,0,0,0,.4-.963,1.345,1.345,0,0,0-.4-.973Z" transform="translate(10017.192 -4984.859) rotate(-90)"/>
              <path id="Path_60-3" data-name="Path 60" d="M4.91,8.322l5.2-5.192a1.313,1.313,0,0,0,.4-.967,1.313,1.313,0,0,0-.4-.967l-.8-.8A1.383,1.383,0,0,0,7.37.4L.4,7.35a1.379,1.379,0,0,0,0,1.934L7.37,16.238a1.383,1.383,0,0,0,1.936,0l.8-.8a1.306,1.306,0,0,0,.4-.962,1.343,1.343,0,0,0-.4-.972Z" transform="translate(10056.825 -5126.12) rotate(90)"/>
              <path id="Path_67-2" data-name="Path 67" stroke="#000" d="M0,2212.44H135.34" fill="none" transform="translate(12260.805 -5124.686) rotate(90)" stroke-linecap="round" stroke-linejoin="round" stroke-miterlimit="3" stroke-width="1.5" fill-rule="evenodd"/>
              <path id="Path_60-4" data-name="Path 60" d="M4.91,8.322l5.2,5.2a1.381,1.381,0,0,1,0,1.936l-.8.8a1.382,1.382,0,0,1-1.936,0L.4,9.3a1.382,1.382,0,0,1,0-1.936L7.37.4A1.382,1.382,0,0,1,9.306.4l.8.8a1.309,1.309,0,0,1,.4.963,1.345,1.345,0,0,1-.4.973Z" transform="translate(9960.654 -3379.363) rotate(90)" fill="#0c0"/>
            </g>
          </g>
        </g>
      </g>
    </g>
  </g>
</svg>
