<svg xmlns="http://www.w3.org/2000/svg" width="65.111" height="78.08" viewBox="0 0 65.111 78.08">
  <g id="connection" transform="translate(-33.391 78.08) rotate(-90)">
    <g id="Group_107" data-name="Group 107" transform="translate(0 33.39)">
      <g id="Group_100" data-name="Group 100" transform="translate(29.768 46.575)">
        <g id="Group_99" data-name="Group 99" transform="translate(0 0)">
          <path id="Path_190" data-name="Path 190" d="M162.579,291.795a9.269,9.269,0,1,1,9.272-9.27A9.28,9.28,0,0,1,162.579,291.795Z" transform="translate(-153.31 -273.257)"/>
        </g>
      </g>
      <g id="Group_102" data-name="Group 102" transform="translate(0 0)">
        <g id="Group_101" data-name="Group 101">
          <path id="Path_191" data-name="Path 191" d="M71.754,59.6a6.287,6.287,0,0,1-4.475-1.853,39.937,39.937,0,0,0-56.478,0,6.488,6.488,0,0,1-8.947.005,6.335,6.335,0,0,1,0-8.955,52.589,52.589,0,0,1,74.376,0,6.327,6.327,0,0,1-4.475,10.8Z" transform="translate(0 -33.39)"/>
        </g>
      </g>
      <g id="Group_104" data-name="Group 104" transform="translate(10.901 15.422)">
        <g id="Group_103" data-name="Group 103">
          <path id="Path_192" data-name="Path 192" d="M106.091,134.506a6.278,6.278,0,0,1-4.474-1.855,24.517,24.517,0,0,0-34.672,0,6.488,6.488,0,0,1-8.949,0,6.341,6.341,0,0,1,0-8.955,37.177,37.177,0,0,1,52.575,0,6.326,6.326,0,0,1-4.476,10.8Z" transform="translate(-56.143 -112.816)"/>
        </g>
      </g>
      <g id="Group_106" data-name="Group 106" transform="translate(21.804 30.853)">
        <g id="Group_105" data-name="Group 105">
          <path id="Path_193" data-name="Path 193" d="M118.622,209.449a6.329,6.329,0,0,1-4.476-10.8,21.786,21.786,0,0,1,30.763,0,6.33,6.33,0,0,1,0,8.952,6.479,6.479,0,0,1-8.955,0,9.113,9.113,0,0,0-12.864,0A6.274,6.274,0,0,1,118.622,209.449Z" transform="translate(-112.292 -192.286)"/>
        </g>
      </g>
    </g>
  </g>
</svg>
