<?xml version="1.0" encoding="UTF-8" standalone="no"?>
<!DOCTYPE svg PUBLIC "-//W3C//DTD SVG 1.1//EN" "http://www.w3.org/Graphics/SVG/1.1/DTD/svg11.dtd">
<!-- Generated by Microsoft Visio, SVG Export Contract Formation Decision Tree.svg Page-1 -->
<svg xmlns="http://www.w3.org/2000/svg" xmlns:xlink="http://www.w3.org/1999/xlink" xmlns:ev="http://www.w3.org/2001/xml-events"
		xmlns:v="http://schemas.microsoft.com/visio/2003/SVGExtensions/" width="7.99073in" height="5.599in"
		viewBox="0 0 575.333 403.128" xml:space="preserve" color-interpolation-filters="sRGB" class="st28">
	<v:documentProperties v:langID="2057" v:metric="true" v:viewMarkup="false">
		<v:userDefs>
			<v:ud v:nameU="msvNoAutoConnect" v:val="VT0(1):26"/>
		</v:userDefs>
	</v:documentProperties>

	<style type="text/css">
	<![CDATA[
		.st1 {fill:#e5b9b5;stroke:#000000;stroke-linecap:round;stroke-linejoin:round;stroke-width:0.75}
		.st2 {fill:#000000;font-family:Calibri;font-size:0.75em;font-weight:bold}
		.st3 {font-size:1em;font-weight:normal}
		.st4 {fill:#7f7f7f;stroke:#000000;stroke-linecap:round;stroke-linejoin:round;stroke-width:0.75}
		.st5 {fill:#ffffff;font-family:Calibri;font-size:0.833336em}
		.st6 {fill:#f2f2f2;stroke:#000000;stroke-linecap:round;stroke-linejoin:round;stroke-width:0.75}
		.st7 {fill:#000000;font-family:Calibri;font-size:0.833336em}
		.st8 {stroke:#000000;stroke-linecap:round;stroke-linejoin:round;stroke-width:0.75}
		.st9 {fill:none;stroke:none;stroke-linecap:round;stroke-linejoin:round;stroke-width:0.75}
		.st10 {fill:#000000;font-family:Calibri;font-size:1.00001em}
		.st11 {marker-end:url(#mrkr13-42);marker-start:url(#mrkr13-40);stroke:#000000;stroke-linecap:round;stroke-linejoin:round;stroke-width:0.75}
		.st12 {fill:#000000;fill-opacity:1;stroke:#000000;stroke-opacity:1;stroke-width:0.22935779816514}
		.st13 {font-size:1em}
		.st14 {fill:#000000;font-family:Calibri;font-size:1.33333em;font-weight:bold}
		.st15 {font-size:1em;text-decoration:underline}
		.st16 {fill:#612621;stroke:#000000;stroke-linecap:round;stroke-linejoin:round;stroke-width:0.75}
		.st17 {fill:#7f6000;stroke:#000000;stroke-linecap:round;stroke-linejoin:round;stroke-width:0.75}
		.st18 {fill:#50632a;stroke:#000000;stroke-linecap:round;stroke-linejoin:round;stroke-width:0.75}
		.st19 {fill:#9c4a09;stroke:#000000;stroke-linecap:round;stroke-linejoin:round;stroke-width:0.75}
		.st20 {fill:#205867;stroke:#000000;stroke-linecap:round;stroke-linejoin:round;stroke-width:0.75}
		.st21 {fill:#54426a;stroke:#000000;stroke-linecap:round;stroke-linejoin:round;stroke-width:0.75}
		.st22 {fill:#f2dcda;stroke:#000000;stroke-linecap:round;stroke-linejoin:round;stroke-width:0.75}
		.st23 {fill:#ebf1df;stroke:#000000;stroke-linecap:round;stroke-linejoin:round;stroke-width:0.75}
		.st24 {fill:#eeeaf2;stroke:#000000;stroke-linecap:round;stroke-linejoin:round;stroke-width:0.75}
		.st25 {fill:#dbeef3;stroke:#000000;stroke-linecap:round;stroke-linejoin:round;stroke-width:0.75}
		.st26 {fill:#fcebdd;stroke:#000000;stroke-linecap:round;stroke-linejoin:round;stroke-width:0.75}
		.st27 {fill:#fff2cc;stroke:#000000;stroke-linecap:round;stroke-linejoin:round;stroke-width:0.75}
		.st28 {fill:none;fill-rule:evenodd;font-size:12px;overflow:visible;stroke-linecap:square;stroke-miterlimit:3}
	]]>
	</style>

	<defs id="Markers">
		<g id="lend13">
			<path d="M 3 1 L 0 0 L 3 -1 L 3 1 " style="stroke:none"/>
		</g>
		<marker id="mrkr13-40" class="st12" v:arrowType="13" v:arrowSize="2" v:setback="12.6" refX="12.6" orient="auto"
				markerUnits="strokeWidth" overflow="visible">
			<use xlink:href="#lend13" transform="scale(4.36) "/>
		</marker>
		<marker id="mrkr13-42" class="st12" v:arrowType="13" v:arrowSize="2" v:setback="13.08" refX="-13.08" orient="auto"
				markerUnits="strokeWidth" overflow="visible">
			<use xlink:href="#lend13" transform="scale(-4.36,-4.36) "/>
		</marker>
	</defs>
	<g v:mID="0" v:index="1" v:groupContext="foregroundPage">
		<title>Page-1</title>
		<v:pageProperties v:drawingScale="0.0393701" v:pageScale="0.0393701" v:drawingUnits="24" v:shadowOffsetX="8.50394"
				v:shadowOffsetY="-8.50394"/>
		<v:layer v:name="Connector" v:index="0"/>
		<g id="shape1-1" v:mID="1" v:groupContext="shape" transform="translate(165.827,-255.118)">
			<title>Sheet.1</title>
			<desc>Decision: Do you want to form a contract that allows for Cont...</desc>
			<v:textBlock v:margins="rect(4,4,4,4)" v:tabSpace="42.5197"/>
			<v:textRect cx="108.4" cy="367.011" width="216.81" height="72.2332"/>
			<rect x="0" y="330.895" width="216.8" height="72.2332" class="st1"/>
			<text x="91.33" y="342.11" class="st2" v:langID="3081"><v:paragraph v:horizAlign="1"/><v:tabList/>Decision:<v:newlineChar/><tspan
						x="23.44" dy="1.2em" class="st3">Do you want to form a contract that allows for </tspan><tspan x="8.08"
						dy="1.2em" class="st3">Contracting Parties to change over time (either at their </tspan><tspan x="4.06"
						dy="1.2em" class="st3">discretion </tspan><tspan class="st3">-</tspan><tspan class="st3"> </tspan><tspan
						class="st3">p2p </tspan><tspan class="st3">-</tspan><tspan class="st3"> </tspan><tspan class="st3">or at the Issuer</tspan><tspan
						class="st3">’</tspan><tspan class="st3">s discretion) and for the </tspan><tspan x="5.46" dy="1.2em"
						class="st3">contract</tspan><tspan class="st3">’</tspan><tspan class="st3">s terms and conditions to be recognized and/or </tspan><tspan
						x="41.39" dy="1.3em" class="st3">enforced automatically by software?</tspan></text>		</g>
		<g id="shape2-19" v:mID="2" v:groupContext="shape" transform="translate(131.761,-174.171)">
			<title>Sheet.2</title>
			<desc>Static Contract</desc>
			<v:textBlock v:margins="rect(4,4,4,4)" v:tabSpace="42.5197"/>
			<v:textRect cx="42.5197" cy="395.333" width="85.04" height="15.5906"/>
			<rect x="0" y="387.537" width="85.0394" height="15.5906" class="st4"/>
			<text x="12.55" y="398.33" class="st5" v:langID="3081"><v:paragraph v:horizAlign="1"/><v:tabList/>Static Contract</text>		</g>
		<g id="shape3-22" v:mID="3" v:groupContext="shape" transform="translate(330.186,-174.171)">
			<title>Sheet.3</title>
			<desc>Dynamic Contract</desc>
			<v:textBlock v:margins="rect(4,4,4,4)" v:tabSpace="42.5197"/>
			<v:textRect cx="42.5197" cy="395.333" width="85.04" height="15.5906"/>
			<rect x="0" y="387.537" width="85.0394" height="15.5906" class="st6"/>
			<text x="6.24" y="398.33" class="st7" v:langID="3081"><v:paragraph v:horizAlign="1"/><v:tabList/>Dynamic Contract</text>		</g>
		<g id="shape8-25" v:mID="8" v:groupContext="shape" v:layerMember="0" transform="translate(266.74,-255.118)">
			<title>Dynamic connector.8</title>
			<path d="M7.09 403.13 L7.09 478.88" class="st8"/>
		</g>
		<g id="shape9-28" v:mID="9" v:groupContext="shape" transform="translate(208.346,-178.583)">
			<title>Sheet.9</title>
			<desc>No</desc>
			<v:textBlock v:margins="rect(4,4,4,4)" v:tabSpace="42.5197"/>
			<v:textRect cx="32.5984" cy="395.333" width="65.2" height="15.5906"/>
			<rect x="0" y="387.537" width="65.1968" height="15.5906" class="st9"/>
			<text x="25.56" y="398.93" class="st10" v:langID="3081"><v:paragraph v:horizAlign="1"/><v:tabList/>No</text>		</g>
		<g id="shape10-31" v:mID="10" v:groupContext="shape" transform="translate(272.126,-178.583)">
			<title>Sheet.10</title>
			<desc>Yes</desc>
			<v:textBlock v:margins="rect(4,4,4,4)" v:tabSpace="42.5197"/>
			<v:textRect cx="32.5984" cy="395.333" width="65.2" height="15.5906"/>
			<rect x="0" y="387.537" width="65.1968" height="15.5906" class="st9"/>
			<text x="24.34" y="398.93" class="st10" v:langID="3081"><v:paragraph v:horizAlign="1"/><v:tabList/>Yes</text>		</g>
		<g id="shape11-34" v:mID="11" v:groupContext="shape" v:layerMember="0" transform="translate(216.8,-172.277)">
			<title>Dynamic connector</title>
			<path d="M9.45 396.04 L9.81 396.04 L103.58 396.04" class="st11"/>
		</g>
		<g id="shape12-43" v:mID="12" v:groupContext="shape" transform="translate(147.402,-25.2108)">
			<title>Sheet.12</title>
			<desc>Note: Dynamic Contracts are managed by a Smart Contract. The ...</desc>
			<v:textBlock v:margins="rect(4,4,4,4)" v:tabSpace="42.5197" v:verticalAlign="0"/>
			<v:textRect cx="124.724" cy="360.458" width="249.45" height="85.3403"/>
			<rect x="0" y="317.788" width="249.449" height="85.3403" class="st9"/>
			<text x="0.4em 1.046em 1.573em 1.908em 2.405em 2.673em 3.455em 4.07em 4.523em 5.048em 5.527em 6.326em 6.555em 6.978em
						 7.76em 8.293em 8.82em 9.346em 9.681em 10.029em 10.508em 10.931em 11.266em 11.657em 12.439em 12.918em 13.267em
						 13.764em 14.546em 15.345em 15.824em 16.349em 16.828em 17.299em 17.796em 18.322em 19.104em 19.629em 20.082em
						 20.863em 21.342em 22.124em 22.583em 23.382em 23.861em 24.21em 24.545em" y="330.79" class="st7"
					v:langID="3081"><v:paragraph v:horizAlign="3"/><v:tabList/>Note: Dynamic Contracts are managed by a Smart <tspan
						x="0.4em 0.933em 1.461em 1.986em 2.321em 2.67em 3.149em 3.571em 3.906em 4.159em 4.414em 4.67em 5.157em 5.683em
							 6.18em 6.436em 6.895em 7.694em 8.173em 8.522em 8.857em 9.112em 9.646em 10.173em 10.698em 11.033em 11.382em
							 11.861em 12.284em 12.619em 12.874em 13.372em 13.897em 14.203em 14.73em 15.079em 15.501em 15.999em 16.39em
							 16.646em 16.981em 17.506em 18.004em 18.259em 18.608em 19.133em 19.363em 19.86em 20.251em 20.507em 20.81em
							 21.298em 21.98em" dy="1.2em" class="st13">Contract.  The Smart Contract enforces the rules (T&#38;C</tspan><tspan
						x="22.513em" dy="0em" class="st13">’</tspan><tspan x="22.762em 23.153em 23.457em 23.712em 24.24em 24.545em"
						dy="0em" class="st13">s) of </tspan><tspan x="0.4em 0.735em 1.26em 1.758em 2.789em 3.322em 3.849em 4.375em
							 4.71em 5.058em 5.537em 5.96em 6.295em 7.326em 7.805em 8.331em 8.856em 9.887em 10.366em 10.595em 10.825em
							 11.352em 12.067em 12.458em 13.489em 13.794em 14.322em 14.67em 15.701em 15.931em 16.322em 16.713em 17.238em
							 17.717em 18.243em 18.666em 19.163em 19.413em 20.444em 20.941em 21.374em 21.797em 22.323em 22.802em 23.327em
							 23.798em 24.295em 24.545em" dy="1.2em" class="st13">the Contract and allows for issuance, exchange, </tspan><tspan
						x="0.4em 0.871em 1.398em 1.85em 2.347em 2.696em 3.221em 3.7em 4.226em 4.649em 5.146em 5.393em 5.872em 6.397em
							 6.922em 7.169em 7.666em 8.192em 8.497em 9.024em 9.373em 9.796em 10.293em 11.092em 11.59em 12.115em 12.45em
							 12.703em 12.949em 13.196em 13.683em 14.21em 14.665em 15.162em 15.688em 15.934em 16.357em 16.884em 17.41em
							 17.745em 18.093em 18.572em 18.995em 19.33em 19.721em 19.968em 20.316em 20.814em 21.339em 21.865em 22.094em
							 22.443em 22.94em 23.187em 23.522em 24.047em 24.545em" dy="1.2em" class="st13">governance and enforcement.  Token contracts require the </tspan><tspan
						x="0.4em 0.933em 1.282em 1.779em 2.258em 2.593em 2.823em 3.35em 3.876em 4.466em 4.994em 5.299em 5.89em 6.369em"
						dy="1.2em" class="st13">Creation of a </tspan><tspan x="6.959em 7.575em 8.027em 8.553em 9.032em 9.831em 10.06em
							 10.483em 11.074em 11.607em 12.134em 12.66em 12.995em 13.343em 13.822em 14.245em 14.58em 14.833em 15.423em
							 16.014em 16.501em 17.027em 17.524em 18.115em 18.641em 19.168em 19.883em 20.408em 20.799em 21.029em 21.554em
							 22.052em 22.643em 23.17em 23.475em 24.066em 24.545em" dy="0em" class="st13">Dynamic Contract.  The downside of a </tspan><tspan
						x="0.4em 1.015em 1.468em 1.993em 2.472em 3.271em 3.501em 3.923em 4.381em 4.915em 5.442em 5.967em 6.302em
							 6.651em 7.13em 7.553em 7.888em 8.346em 8.575em 8.966em 9.424em 9.759em 10.285em 10.782em 11.24em 11.768em
							 12.293em 12.764em 13.291em 13.521em 14.046em 14.517em 14.975em 15.397em 15.925em 16.316em 16.651em 17.042em
							 17.5em 18.027em 18.332em 18.79em 19.318em 19.843em 20.341em 20.689em 21.168em 21.503em 21.733em 22.258em
							 22.729em 23.187em 23.522em 24.047em 24.545em" dy="1.2em" class="st13">Dynamic Contract is the ongoing costs of operating the </tspan><tspan
						x="0.4em 0.859em 1.658em 2.137em 2.486em 2.821em 3.047em 3.58em 4.108em 4.633em 4.968em 5.317em 5.796em 6.218em
							 6.553em" dy="1.2em" class="st13">Smart Contract.</tspan></text>		</g>
		<g id="shape15-55" v:mID="15" v:groupContext="shape" transform="translate(131.761,-342.233)">
			<title>Sheet.15</title>
			<desc>Contract Formation: Decision Tree</desc>
			<v:textBlock v:margins="rect(4,4,4,4)" v:tabSpace="42.5197"/>
			<v:textRect cx="148.819" cy="381.868" width="297.64" height="42.5197"/>
			<rect x="0" y="360.608" width="297.638" height="42.5197" class="st9"/>
			<text x="35.07" y="386.67" class="st14" v:langID="3081"><v:paragraph v:horizAlign="1"/><v:tabList/><tspan class="st15">Contract Formation: Decision Tree</tspan></text>		</g>
		<g id="shape16-59" v:mID="16" v:groupContext="shape" transform="translate(18.375,-121.131)">
			<title>Sheet.16</title>
			<desc>Bill of Sale</desc>
			<v:textBlock v:margins="rect(4,4,4,4)" v:tabSpace="42.5197"/>
			<v:textRect cx="56.6929" cy="395.333" width="113.39" height="15.5906"/>
			<rect x="0" y="387.537" width="113.386" height="15.5906" class="st16"/>
			<text x="35.78" y="398.33" class="st5" v:langID="3081"><v:paragraph v:horizAlign="1"/><v:tabList/>Bill of Sale</text>		</g>
		<g id="shape17-62" v:mID="17" v:groupContext="shape" transform="translate(18.375,-18.375)">
			<title>Sheet.17</title>
			<desc>NDA</desc>
			<v:textBlock v:margins="rect(4,4,4,4)" v:tabSpace="42.5197"/>
			<v:textRect cx="56.6929" cy="395.333" width="113.39" height="15.5906"/>
			<rect x="0" y="387.537" width="113.386" height="15.5906" class="st17"/>
			<text x="47.5" y="398.33" class="st5" v:langID="3081"><v:paragraph v:horizAlign="1"/><v:tabList/>NDA</text>		</g>
		<g id="shape19-65" v:mID="19" v:groupContext="shape" transform="translate(18.375,-100.58)">
			<title>Sheet.19</title>
			<desc>Purchase Order</desc>
			<v:textBlock v:margins="rect(4,4,4,4)" v:tabSpace="42.5197"/>
			<v:textRect cx="56.6929" cy="395.333" width="113.39" height="15.5906"/>
			<rect x="0" y="387.537" width="113.386" height="15.5906" class="st18"/>
			<text x="25.12" y="398.33" class="st5" v:langID="3081"><v:paragraph v:horizAlign="1"/><v:tabList/>Purchase Order</text>		</g>
		<g id="shape20-68" v:mID="20" v:groupContext="shape" transform="translate(18.375,-38.9262)">
			<title>Sheet.20</title>
			<desc>Lease</desc>
			<v:textBlock v:margins="rect(4,4,4,4)" v:tabSpace="42.5197"/>
			<v:textRect cx="56.6929" cy="395.333" width="113.39" height="15.5906"/>
			<rect x="0" y="387.537" width="113.386" height="15.5906" class="st19"/>
			<text x="45.26" y="398.33" class="st5" v:langID="3081"><v:paragraph v:horizAlign="1"/><v:tabList/>Lease</text>		</g>
		<g id="shape21-71" v:mID="21" v:groupContext="shape" transform="translate(18.375,-59.4774)">
			<title>Sheet.21</title>
			<desc>Non-Compete</desc>
			<v:textBlock v:margins="rect(4,4,4,4)" v:tabSpace="42.5197"/>
			<v:textRect cx="56.6929" cy="395.333" width="113.39" height="15.5906"/>
			<rect x="0" y="387.537" width="113.386" height="15.5906" class="st20"/>
			<text x="28.1" y="398.33" class="st5" v:langID="3081"><v:paragraph v:horizAlign="1"/><v:tabList/>Non-Compete</text>		</g>
		<g id="shape22-74" v:mID="22" v:groupContext="shape" transform="translate(18.375,-80.0285)">
			<title>Sheet.22</title>
			<desc>Employment Agreement</desc>
			<v:textBlock v:margins="rect(4,4,4,4)" v:tabSpace="42.5197"/>
			<v:textRect cx="56.6929" cy="395.333" width="113.39" height="15.5906"/>
			<rect x="0" y="387.537" width="113.386" height="15.5906" class="st21"/>
			<text x="6.92" y="398.33" class="st5" v:langID="3081"><v:paragraph v:horizAlign="1"/><v:tabList/>Employment Agreement</text>		</g>
		<g id="shape23-77" v:mID="23" v:groupContext="shape" transform="translate(415.225,-121.131)">
			<title>Sheet.23</title>
			<desc>Shareholder Agreement</desc>
			<v:textBlock v:margins="rect(4,4,4,4)" v:tabSpace="42.5197"/>
			<v:textRect cx="63.7795" cy="395.333" width="127.56" height="15.5906"/>
			<rect x="0" y="387.537" width="127.559" height="15.5906" class="st22"/>
			<text x="15.08" y="398.33" class="st7" v:langID="3081"><v:paragraph v:horizAlign="1"/><v:tabList/>Shareholder Agreement</text>		</g>
		<g id="shape24-80" v:mID="24" v:groupContext="shape" transform="translate(415.225,-100.58)">
			<title>Sheet.24</title>
			<desc>Ticketing Contract</desc>
			<v:textBlock v:margins="rect(4,4,4,4)" v:tabSpace="42.5197"/>
			<v:textRect cx="63.7795" cy="395.333" width="127.56" height="15.5906"/>
			<rect x="0" y="387.537" width="127.559" height="15.5906" class="st23"/>
			<text x="26.86" y="398.33" class="st7" v:langID="3081"><v:paragraph v:horizAlign="1"/><v:tabList/>Ticketing Contract</text>		</g>
		<g id="shape25-83" v:mID="25" v:groupContext="shape" transform="translate(415.225,-80.0285)">
			<title>Sheet.25</title>
			<desc>Coupon System</desc>
			<v:textBlock v:margins="rect(4,4,4,4)" v:tabSpace="42.5197"/>
			<v:textRect cx="63.7795" cy="395.333" width="127.56" height="15.5906"/>
			<rect x="0" y="387.537" width="127.559" height="15.5906" class="st24"/>
			<text x="32.16" y="398.33" class="st7" v:langID="3081"><v:paragraph v:horizAlign="1"/><v:tabList/>Coupon System</text>		</g>
		<g id="shape26-86" v:mID="26" v:groupContext="shape" transform="translate(415.225,-59.4774)">
			<title>Sheet.26</title>
			<desc>Membership Platform</desc>
			<v:textBlock v:margins="rect(4,4,4,4)" v:tabSpace="42.5197"/>
			<v:textRect cx="63.7795" cy="395.333" width="127.56" height="15.5906"/>
			<rect x="0" y="387.537" width="127.559" height="15.5906" class="st25"/>
			<text x="18.98" y="398.33" class="st7" v:langID="3081"><v:paragraph v:horizAlign="1"/><v:tabList/>Membership Platform</text>		</g>
		<g id="shape27-89" v:mID="27" v:groupContext="shape" transform="translate(415.225,-38.9262)">
			<title>Sheet.27</title>
			<desc>Loyalty Points Program</desc>
			<v:textBlock v:margins="rect(4,4,4,4)" v:tabSpace="42.5197"/>
			<v:textRect cx="63.7795" cy="395.333" width="127.56" height="15.5906"/>
			<rect x="0" y="387.537" width="127.559" height="15.5906" class="st26"/>
			<text x="16.96" y="398.33" class="st7" v:langID="3081"><v:paragraph v:horizAlign="1"/><v:tabList/>Loyalty Points Program</text>		</g>
		<g id="shape28-92" v:mID="28" v:groupContext="shape" transform="translate(415.225,-18.375)">
			<title>Sheet.28</title>
			<desc>Currency Tether</desc>
			<v:textBlock v:margins="rect(4,4,4,4)" v:tabSpace="42.5197"/>
			<v:textRect cx="63.7795" cy="395.333" width="127.56" height="15.5906"/>
			<rect x="0" y="387.537" width="127.559" height="15.5906" class="st27"/>
			<text x="30.92" y="398.33" class="st7" v:langID="3081"><v:paragraph v:horizAlign="1"/><v:tabList/>Currency Tether</text>		</g>
	</g>
</svg>
