<svg xmlns="http://www.w3.org/2000/svg" width="896" height="781.306" viewBox="0 0 896 781.306">
  <g id="contract-address-change" transform="translate(-9388.5 -452.694)">
    <text id="Smart_Contract_Host" data-name="Smart Contract Host" transform="translate(9408 592)" fill="#707070" font-size="18" font-family="SegoeUI-Semibold, Segoe UI" font-weight="600"><tspan x="0" y="0">Smart Contract Host</tspan></text>
    <g id="Male-Avatar-3" transform="translate(9415.388 423.416)">
      <path id="Path_25" data-name="Path 25" d="M398.845,34.6a31.472,31.472,0,0,1,15.116-4.79,33.388,33.388,0,0,1,13.446,2.086,19.06,19.06,0,0,1,8.294,6.1,19.821,19.821,0,0,1,3.466,8.39,51.094,51.094,0,0,1,1.143,9.969c.02,1.6-.075,3.191-.2,4.781a28.546,28.546,0,0,1-.645,4.945c-.909,4.454-2.607,8.69-3.853,13.053-.051.128-.107.255-.168.38a42.015,42.015,0,0,1,.319-7.762c.212-1.792.423-3.586.6-5.384a32.523,32.523,0,0,0,.236-5.581,46.6,46.6,0,0,0-3.051-9.331,2.085,2.085,0,0,0-.854-1.139,25.382,25.382,0,0,0-9.613-3.078,55.612,55.612,0,0,0-10.3-.546,41.415,41.415,0,0,0-10.8,1.775,14.369,14.369,0,0,0-3.774,1.859,2.711,2.711,0,0,0-.769,1.225,46.649,46.649,0,0,0-2.942,8.912,7.045,7.045,0,0,0-.157,1.677c.006,4.866.557,9.709.788,14.567a33.237,33.237,0,0,1,0,5,.716.716,0,0,1-.148.334c-1.4-5.176-2.426-10.445-3.433-15.707-.152-.922-.3-1.843-.422-2.769a46.69,46.69,0,0,1,.2-8.769c.247-2.814.214-5.646.47-8.458a20.578,20.578,0,0,1,5.78-10.605A5.653,5.653,0,0,1,398.845,34.6Z" transform="translate(-339.797 0)" fill="#2d1f1f" stroke="#2d1f1f" stroke-width="1"/>
      <path id="Path_26" data-name="Path 26" d="M362.792,289.838a55.611,55.611,0,0,1,10.3.546,25.382,25.382,0,0,1,9.613,3.078,2.085,2.085,0,0,1,.854,1.139,46.6,46.6,0,0,1,3.051,9.331,32.517,32.517,0,0,1-.236,5.581c-.175,1.8-.387,3.592-.6,5.384a42.021,42.021,0,0,0-.319,7.762c.061-.124.117-.251.168-.38,1.246-4.362,2.944-8.6,3.853-13.053.027.054.078.162.1.216a3.193,3.193,0,0,1,2.276.838,6.029,6.029,0,0,1,1.655,4.46,13.557,13.557,0,0,1-2.484,7.448,9.075,9.075,0,0,1-2.851,2.92,3.371,3.371,0,0,1-1.454.4,29.608,29.608,0,0,1-1.147,3.92c.072-.48.178-.954.251-1.432a13.124,13.124,0,0,0-1.094,1.442,30.137,30.137,0,0,1-11.016,9.172,7.168,7.168,0,0,1-3.932.782,21.258,21.258,0,0,1-2.364-.44c-.693-.192-1.29-.713-2.039-.685-.785-.031-1.356.605-2.083.788a10.721,10.721,0,0,1-3.009.366,15.8,15.8,0,0,1-5.855-1.884,29.488,29.488,0,0,1-9.4-7.945c-.405-1.353-.841-2.7-1.149-4.078a7.168,7.168,0,0,1-3.751-3.153,14.054,14.054,0,0,1-2.6-7.194,6.765,6.765,0,0,1,1.243-4.45,3.1,3.1,0,0,1,2.773-1.232c1.008,5.262,2.032,10.531,3.434,15.707a.717.717,0,0,0,.148-.334,33.237,33.237,0,0,0,0-5c-.23-4.857-.782-9.7-.787-14.567a7.048,7.048,0,0,1,.157-1.677,46.642,46.642,0,0,1,2.942-8.912,2.711,2.711,0,0,1,.769-1.225,14.371,14.371,0,0,1,3.774-1.859A41.41,41.41,0,0,1,362.792,289.838Z" transform="translate(-289.813 -243.151)" fill="#a5663a" stroke="#a5663a" stroke-width="1"/>
      <path id="Path_27" data-name="Path 27" d="M481.231,879.952a13.131,13.131,0,0,1,1.094-1.442c-.073.478-.179.953-.251,1.432a20.614,20.614,0,0,1-1.473,4.177,11.011,11.011,0,0,1-1.516,2.439,28.367,28.367,0,0,1-6.784,6.03,19.419,19.419,0,0,1-7.681,2.928,18.419,18.419,0,0,1-5.93-.11,17.465,17.465,0,0,1-6.962-3.093,43.715,43.715,0,0,1-6.091-5.028,19.233,19.233,0,0,1-4.912-8.182c.295.312.521.68.8,1a29.488,29.488,0,0,0,9.4,7.945,15.8,15.8,0,0,0,5.855,1.884,10.723,10.723,0,0,0,3.009-.366c.727-.182,1.3-.818,2.083-.788.749-.028,1.346.492,2.039.685a21.244,21.244,0,0,0,2.364.44,7.168,7.168,0,0,0,3.932-.782A30.135,30.135,0,0,0,481.231,879.952Z" transform="translate(-386.31 -793.667)" fill="#2d1f1f" stroke="#2d1f1f" stroke-width="1"/>
      <path id="Path_28" data-name="Path 28" d="M608.248,1091.27a17.466,17.466,0,0,0,6.962,3.094,18.425,18.425,0,0,0,5.93.11,19.419,19.419,0,0,0,7.681-2.928c.135,1.043.072,2.1.151,3.151a7.708,7.708,0,0,1-1.777,1.163,27.9,27.9,0,0,1-6.819,2.35,15.076,15.076,0,0,1-3.11.124,21.163,21.163,0,0,1-8.028-2.667c-.375-.241-.737-.5-1.119-.732a13.389,13.389,0,0,1,.038-1.715C608.207,1092.57,608.141,1091.915,608.248,1091.27Z" transform="translate(-542.83 -992.624)" fill="#8e5c3a" stroke="#8e5c3a" stroke-width="1"/>
      <path id="Path_29" data-name="Path 29" d="M549.6,1145.239a7.713,7.713,0,0,0,1.777-1.163,24.662,24.662,0,0,0,.344,3.2,3.7,3.7,0,0,0,2.12,2.959c.965.347,1.95.636,2.925.957a13.911,13.911,0,0,1-.888,1.747,66.06,66.06,0,0,1-4.172,6.7,33.2,33.2,0,0,1-5.293,5.995,10.12,10.12,0,0,1-4.848,2.5,4.809,4.809,0,0,1-3.064-1.009,31.254,31.254,0,0,1-5.632-5.1,64.005,64.005,0,0,1-6.668-8.841,13.249,13.249,0,0,1-1.077-1.991c.939-.312,1.887-.594,2.823-.917a3.5,3.5,0,0,0,2.13-2.544c.231-1.128.327-2.275.446-3.418.382.229.744.491,1.119.732a21.163,21.163,0,0,0,8.029,2.667,15.059,15.059,0,0,0,3.11-.124A27.865,27.865,0,0,0,549.6,1145.239Z" transform="translate(-465.233 -1042.004)" fill="#a5663a" stroke="#a5663a" stroke-width="1"/>
      <path id="Path_30" data-name="Path 30" d="M43.628,1259.039c5.423-1.746,10.831-3.544,16.262-5.267a13.22,13.22,0,0,0,1.077,1.991,64,64,0,0,0,6.668,8.841,31.241,31.241,0,0,0,5.632,5.1,4.809,4.809,0,0,0,3.064,1.009,10.119,10.119,0,0,0,4.848-2.5,33.2,33.2,0,0,0,5.294-5.995,66.048,66.048,0,0,0,4.172-6.7,13.912,13.912,0,0,0,.888-1.747c5.078,1.606,10.131,3.292,15.2,4.921,1.208.453,2.488.665,3.707,1.081a18.461,18.461,0,0,1,10.858,9.035,24.482,24.482,0,0,1,2.512,9.287,8.053,8.053,0,0,1-1.53.065q-47.066,0-94.131,0c-.181-.016-.36-.035-.539-.062a26.331,26.331,0,0,1,1.948-8.02,18.491,18.491,0,0,1,9.763-9.708A30.2,30.2,0,0,1,43.628,1259.039Z" transform="translate(0 -1144.583)" fill="#9c3" stroke="#9c3" stroke-width="1"/>
    </g>
    <text id="The_smart_contract_host_determines_that_the_contract_address_key_has_been_compromised._TEither_because_of_a_security_issue_or_transactions_on_chain_that_were_not_authorized._The_smart_contract_host_goes_into_cold_storage_to_retrieve_the_master_key_assoc" data-name="The smart contract host determines that the contract address’ key has been compromised. TEither because of a security issue or transactions on chain that were not authorized.


The smart contract host goes into cold storage to retrieve the master key assoc" transform="translate(9654 479)" fill="#707070" font-size="14" font-family="SegoeUI, Segoe UI"><tspan x="0" y="15">The smart contract host determines that the contract address’ key has been compromised. </tspan><tspan x="0" y="34">TEither because of a security issue or transactions on chain that were not authorized.</tspan><tspan x="0" y="53"></tspan><tspan x="0" y="72"></tspan><tspan x="0" y="91">The smart contract host goes into cold storage to retrieve the master key associated with this </tspan><tspan x="0" y="110">contract, and creates a Contract Address Change transaction signed by the master key.</tspan></text>
    <line id="Line_572" data-name="Line 572" x2="896" transform="translate(9388.5 663.5)" fill="none" stroke="#707070" stroke-width="1"/>
    <text id="Smart_Contract_Host_Creates_Transaction_Signed_by_Contract_Master_Key" data-name="Smart Contract Host Creates Transaction Signed by Contract Master Key" transform="translate(9509 734)" fill="#707070" font-size="18" font-family="SegoeUI-Bold, Segoe UI" font-weight="700"><tspan x="0" y="0">Smart Contract Host Creates Transaction Signed by Contract Master Key</tspan></text>
    <g id="Rectangle_475" data-name="Rectangle 475" transform="translate(9508 787)" fill="#fcfcfc" stroke="#707070" stroke-width="1">
      <rect width="612" height="163" stroke="none"/>
      <rect x="0.5" y="0.5" width="611" height="162" fill="none"/>
    </g>
    <text id="Master_Key" data-name="Master Key" transform="translate(9544 887)" fill="#19e134" font-size="14" font-family="SegoeUI, Segoe UI"><tspan x="0" y="0">Master Key</tspan></text>
    <text id="Request_Transaction_Contract_Address_Change_" data-name="Request Transaction (Contract Address Change)" transform="translate(9525 820)" fill="#707070" font-size="16" font-family="SegoeUI-Semibold, Segoe UI" font-weight="600"><tspan x="0" y="0">Request Transaction (Contract Address Change)</tspan></text>
    <line id="Line_573" data-name="Line 573" y2="86" transform="translate(9713.5 847.5)" fill="none" stroke="#707070" stroke-width="1"/>
    <text id="INPUTS" transform="translate(9525 852)" fill="#707070" font-size="14" font-family="SegoeUI-Bold, Segoe UI" font-weight="700"><tspan x="0" y="15">INPUTS</tspan></text>
    <text id="OUTPUTS_" data-name="OUTPUTS " transform="translate(9729 849)" fill="#707070" font-size="14" font-family="SegoeUI-Bold, Segoe UI" font-weight="700"><tspan x="0" y="15">OUTPUTS </tspan></text>
    <text id="_0:_" data-name="0: " transform="translate(9525 887)" fill="#707070" font-size="14" font-family="SegoeUI, Segoe UI"><tspan x="0" y="0">0: </tspan></text>
    <text id="VALUE" transform="translate(9922 849)" fill="#707070" font-size="14" font-family="SegoeUI-Bold, Segoe UI" font-weight="700"><tspan x="0" y="15">VALUE</tspan></text>
    <text id="_0:_2" data-name="0: " transform="translate(9729 887)" fill="#707070" font-size="14" font-family="SegoeUI, Segoe UI"><tspan x="0" y="0">0: </tspan></text>
    <text id="Smart_Contract" data-name="Smart Contract" transform="translate(9747 887)" fill="#7030a0" font-size="14" font-family="SegoeUI, Segoe UI"><tspan x="0" y="0">Smart Contract</tspan></text>
    <text id="Dust" transform="translate(9922 887)" fill="#707070" font-size="14" font-family="SegoeUI, Segoe UI"><tspan x="0" y="0">Dust</tspan></text>
    <text id="N_A" data-name="N/A" transform="translate(9922 906)" fill="#707070" font-size="14" font-family="SegoeUI, Segoe UI"><tspan x="0" y="0">N/A</tspan></text>
    <text id="N:_" data-name="N: " transform="translate(9729 906)" fill="#707070" font-size="14" font-family="SegoeUI, Segoe UI"><tspan x="0" y="0">N: </tspan></text>
    <text id="Contract_Address_Change_Action" data-name="Contract Address ChangeAction" transform="translate(9747 906)" fill="#707070" font-size="14" font-family="SegoeUI, Segoe UI"><tspan x="0" y="0">Contract Address Change</tspan><tspan x="0" y="19">Action</tspan></text>
    <text id="_1._2." data-name="1.
2." transform="translate(9628 479)" fill="#707070" font-size="14" font-family="SegoeUI-Semibold, Segoe UI" font-weight="600"><tspan x="0" y="15">1.</tspan><tspan x="0" y="34"></tspan><tspan x="0" y="53"></tspan><tspan x="0" y="72"></tspan><tspan x="0" y="91">2.</tspan></text>
    <g id="Rectangle_477" data-name="Rectangle 477" transform="translate(9744 893)" fill="none" stroke="#707070" stroke-width="1" stroke-dasharray="3">
      <rect width="166" height="36" stroke="none"/>
      <rect x="0.5" y="0.5" width="165" height="35" fill="none"/>
    </g>
    <g id="Rectangle_478" data-name="Rectangle 478" transform="translate(9718 959)" fill="#fcfcfc" stroke="#707070" stroke-width="1" stroke-dasharray="3">
      <rect width="351.499" height="95" stroke="none"/>
      <rect x="0.5" y="0.5" width="350.499" height="94" fill="none"/>
    </g>
    <text id="Contract_Address_Change_Action_Payload" data-name="Contract Address Change Action Payload" transform="translate(9729 987)" fill="#707070" font-size="16" font-family="SegoeUI-Semibold, Segoe UI" font-weight="600"><tspan x="0" y="0">Contract Address Change Action Payload</tspan></text>
    <line id="Line_575" data-name="Line 575" y2="30" transform="translate(9789.5 929.5)" fill="none" stroke="#707070" stroke-width="1" stroke-dasharray="3"/>
    <line id="Line_576" data-name="Line 576" y2="20" transform="translate(9731.5 1017.5)" fill="none" stroke="#707070" stroke-width="1"/>
    <text id="DETAILS" transform="translate(9729 999)" fill="#707070" font-size="12" font-family="SegoeUI-Bold, Segoe UI" font-weight="700"><tspan x="0" y="13">DETAILS</tspan></text>
    <text id="_-New_Contract_Address" data-name="-New Contract Address" transform="translate(9739 1033)" fill="#707070" font-size="14" font-family="SegoeUI, Segoe UI"><tspan x="0" y="0">-New Contract Address</tspan></text>
    <g id="Rectangle_479" data-name="Rectangle 479" transform="translate(9556 1080)" fill="#fff" stroke="#cf730b" stroke-width="4">
      <rect width="394" height="154" stroke="none"/>
      <rect x="2" y="2" width="390" height="150" fill="none"/>
    </g>
    <text id="Note:" transform="translate(9572 1093)" fill="#707070" font-size="16" font-family="SegoeUI-Semibold, Segoe UI" font-weight="600"><tspan x="0" y="17">Note:</tspan></text>
    <text id="The_Master_Key_s_PKH_is_specified_in_the_Contract_Formation_action_C2_._The_Master_Private_key_should_be_kept_in_cold_storage_to_ensure_it_is_not_compromised._Its_signature_is_required_to_authorize_a_contract_address_change." data-name="The &quot;Master Key&apos;s&quot; PKH is specified in the Contract Formation action (C2).  The Master Private key should be kept in cold storage to ensure it is not compromised.  Its signature is required to authorize a contract address change." transform="translate(9572 1120)" fill="#707070" font-size="14" font-family="SegoeUI-Semibold, Segoe UI" font-weight="600"><tspan x="0" y="15">The &quot;Master Key&apos;s&quot; PKH is specified in the Contract </tspan><tspan x="0" y="34" xml:space="preserve">Formation action (C2).  The Master Private key should be </tspan><tspan x="0" y="53" xml:space="preserve">kept in cold storage to ensure it is not compromised.  Its </tspan><tspan x="0" y="72">signature is required to authorize a contract address </tspan><tspan x="0" y="91">change.</tspan></text>
    <line id="Line_577" data-name="Line 577" y2="191" transform="translate(9602.5 891.5)" fill="none" stroke="#cf730b" stroke-width="1" stroke-dasharray="3"/>
    <g id="Rectangle_480" data-name="Rectangle 480" transform="translate(9538 873)" fill="none" stroke="#cf730b" stroke-width="1" stroke-dasharray="3">
      <rect width="84" height="19" stroke="none"/>
      <rect x="0.5" y="0.5" width="83" height="18" fill="none"/>
    </g>
  </g>
</svg>
