<svg id="display" xmlns="http://www.w3.org/2000/svg" width="134.809" height="113" viewBox="0 0 134.809 113">
  <path id="Path_166" data-name="Path 166" d="M152.784,250.367H197v13.417c-17.927,1.752-27.155.1-31.981,7.643H251.3c-4.827-7.548-14.054-5.891-31.981-7.643V250.367h44.211a12.03,12.03,0,0,0,12.031-12.031V170.458a12.03,12.03,0,0,0-12.031-12.031H152.784a12.029,12.029,0,0,0-12.03,12.031v67.879A12.031,12.031,0,0,0,152.784,250.367Zm-2.4-71.871c0-4.946,4.616-8.954,10.311-8.954h94.919c5.7,0,10.312,4.008,10.312,8.954v51.8c0,4.945-4.616,8.954-10.312,8.954H160.7c-5.694,0-10.311-4.01-10.311-8.954Z" transform="translate(-140.754 -158.427)"/>
</svg>
