<svg xmlns="http://www.w3.org/2000/svg" width="135.408" height="113.503" viewBox="0 0 135.408 113.503">
  <g id="display" transform="translate(-140.754 -158.427)">
    <path id="Path_166" data-name="Path 166" d="M152.838,250.776h44.408v13.476c-18.007,1.76-27.275.1-32.123,7.677h86.671c-4.848-7.581-14.116-5.917-32.124-7.677V250.776h44.407a12.084,12.084,0,0,0,12.084-12.084V170.511a12.083,12.083,0,0,0-12.084-12.084H152.838a12.083,12.083,0,0,0-12.084,12.084v68.181A12.085,12.085,0,0,0,152.838,250.776Zm-2.407-72.191c0-4.968,4.636-8.994,10.356-8.994h95.341c5.721,0,10.358,4.026,10.358,8.994v52.031c0,4.967-4.636,8.994-10.358,8.994H160.787c-5.72,0-10.356-4.028-10.356-8.994Z"/>
  </g>
</svg>
