<svg xmlns="http://www.w3.org/2000/svg" width="243.525" height="239.468" viewBox="0 0 243.525 239.468">
  <g id="locomotive" transform="translate(0 -0.001)">
    <path id="Path_206" data-name="Path 206" d="M304.289,56.824a12.128,12.128,0,0,0,5.561-1.38,16.165,16.165,0,0,0,30.318-2.395,12.088,12.088,0,0,0,20.376-4.911,12.144,12.144,0,1,0-15.1-15.1,11.875,11.875,0,0,0-5.033,2.923,16.47,16.47,0,0,0,.407-3.491,16.195,16.195,0,0,0-29.224-9.66,11.922,11.922,0,0,0-11.852-1.624,12.07,12.07,0,0,0-11.688-9.009,12.328,12.328,0,0,0-5.317,1.258,20.242,20.242,0,0,0-35.271-5.317H263.7A12.176,12.176,0,0,1,267.76,31.74v8.4a20.02,20.02,0,0,0,8.117-3.694v.082A12.152,12.152,0,0,0,292.6,47.813a12.073,12.073,0,0,0,11.69,9.011Zm0,0" transform="translate(-129.762 0)"/>
    <path id="Path_207" data-name="Path 207" d="M240.4,358.4H110.516a8.117,8.117,0,1,0,0,16.235H240.4a8.117,8.117,0,1,0,0-16.235Zm0,0" transform="translate(-53.694 -187.932)"/>
    <path id="Path_208" data-name="Path 208" d="M127.584,417.719h4.058v9.619a7.878,7.878,0,0,0,5.886,7.51,36.4,36.4,0,0,1,3.976,1.419l2.315-18.548h8.117a1.863,1.863,0,0,1-.041.487l-2.233,17.944a4.01,4.01,0,0,0-2.492,1.693l-6.73,10.094a4.059,4.059,0,1,0,6.754,4.5l6.73-10.1a3.76,3.76,0,0,0,.357-.868,73.549,73.549,0,0,0,7.436,2.179l2.354-25.935h8.158v.364l-2.434,26.829c0,.082-.041.2-.041.284a99.084,99.084,0,0,0,10.592.853v-28.33h8.119v28.33a99.083,99.083,0,0,0,10.592-.853c0-.082-.041-.2-.041-.284l-2.434-26.829v-.364h8.158l2.354,25.935a73.546,73.546,0,0,0,7.436-2.179,3.761,3.761,0,0,0,.357.868l6.73,10.1a4.059,4.059,0,1,0,6.754-4.5l-6.73-10.094a4.055,4.055,0,0,0-2.492-1.693l-2.233-17.944a1.864,1.864,0,0,1-.041-.487h8.117l2.315,18.548a36.4,36.4,0,0,1,3.976-1.419,7.878,7.878,0,0,0,5.886-7.51v-9.619h4.058a8.144,8.144,0,0,0,8.119-8.117H119.465a8.144,8.144,0,0,0,8.119,8.117Zm0,0" transform="translate(-62.643 -214.78)"/>
    <path id="Path_209" data-name="Path 209" d="M255.168,161.719a8.117,8.117,0,1,1-8.117-8.117A8.117,8.117,0,0,1,255.168,161.719Zm0,0" transform="translate(-125.288 -80.543)"/>
    <path id="Path_210" data-name="Path 210" d="M123.516,238.934h-8.524a4.059,4.059,0,0,0,0,8.117h8.119v-4.058a19.354,19.354,0,0,1,.405-4.06Zm0,0" transform="translate(-58.17 -125.288)"/>
    <path id="Path_211" data-name="Path 211" d="M178.742,135.278a40.715,40.715,0,0,0,26.585,16.112,39.706,39.706,0,0,0,11.607.082,41.065,41.065,0,0,0,24.191-12.744,39.341,39.341,0,0,0,5.277-7.1c0-.041.041-.041.041-.082a41.068,41.068,0,0,0-9.539-51.75,40.564,40.564,0,0,0-17.534-8.32V42.25h4.06a4.059,4.059,0,0,0,0-8.117H199.076a4.059,4.059,0,0,0,0,8.117h4.06V71.474a40.372,40.372,0,0,0-26.626,60.516c.691,1.137,1.462,2.233,2.233,3.289Zm32.511-52.439a16.235,16.235,0,1,1-16.235,16.235A16.234,16.234,0,0,1,211.253,82.839Zm0,0" transform="translate(-89.49 -17.897)"/>
    <path id="Path_212" data-name="Path 212" d="M387.24,242.993a4.059,4.059,0,0,0-4.058-4.06H374.7a22.2,22.2,0,0,1,.364,4.06v4.058h8.119A4.058,4.058,0,0,0,387.24,242.993Zm0,0" transform="translate(-196.479 -125.288)"/>
    <path id="Path_213" data-name="Path 213" d="M145.463,208.641a23.857,23.857,0,0,0-8.077,14.408H149.6a47.153,47.153,0,0,1-4.14-14.408Zm0,0" transform="translate(-72.041 -109.403)"/>
    <path id="Path_214" data-name="Path 214" d="M349.1,222.959h12.177a24.1,24.1,0,0,0-8.2-14.49A45.831,45.831,0,0,1,349.1,222.959Zm0,0" transform="translate(-183.054 -109.313)"/>
    <path id="Path_215" data-name="Path 215" d="M239.466,288.47H186.7v-4.058h8.117a4.059,4.059,0,0,0,0-8.117H178.585V256H161.376A49.051,49.051,0,0,1,138,273.493a46.092,46.092,0,0,1-16.112,2.8,47.734,47.734,0,0,1-7.226-.528A48.941,48.941,0,0,1,82.352,256H64.941v20.294H48.7a4.059,4.059,0,0,0,0,8.117h8.117v4.058H4.059a4.059,4.059,0,1,0,0,8.117H239.466a4.059,4.059,0,1,0,0-8.117Zm-158.291,0a8.117,8.117,0,1,1,8.117-8.117A8.117,8.117,0,0,1,81.176,288.47Zm81.174,0a8.117,8.117,0,1,1,8.117-8.117A8.117,8.117,0,0,1,162.35,288.47Zm0,0" transform="translate(0 -134.237)"/>
  </g>
</svg>
