<svg xmlns="http://www.w3.org/2000/svg" xmlns:xlink="http://www.w3.org/1999/xlink" width="794" height="2675" viewBox="0 0 794 2675">
  <defs>
    <clipPath id="clip-main-concepts-oracles">
      <rect width="794" height="2675"/>
    </clipPath>
  </defs>
  <g id="main-concepts-oracles" clip-path="url(#clip-main-concepts-oracles)">
    <g id="concepts-oracles" transform="translate(-9665 5907)">
      <path id="Path_63" data-name="Path 63" d="M443.65,699.07a4.74,4.74,0,0,0-4.69-4.2h-3.59l2.33,4.2Z" transform="translate(9627 -5906.48)" fill="#3f3f3f"/>
      <path id="Path_64" data-name="Path 64" d="M381.77,702.24h-3.54a1.57,1.57,0,0,1,0-3.14h9.21l7.57-4.2H377.25a4.76,4.76,0,0,0-4.74,4.74v54.21a4.76,4.76,0,0,0,4.74,4.74H439a4.76,4.76,0,0,0,4.74-4.74V737.93H432.15a9.75,9.75,0,0,1-9.73-9.73v-.68a9.75,9.75,0,0,1,9.73-9.73h11.54V702.24Z" transform="translate(9627 -5906.48)" fill="#3f3f3f"/>
      <path id="Path_65" data-name="Path 65" d="M425.57,727.49v.69a6.58,6.58,0,0,0,6.56,6.56h15.5V720.93h-15.5a6.55,6.55,0,0,0-6.56,6.56ZM437,728a3.49,3.49,0,1,1-3.49-3.49A3.49,3.49,0,0,1,437,728Z" transform="translate(9627 -5906.48)" fill="#3f3f3f"/>
      <path id="Path_66" data-name="Path 66" d="M434.09,699.07l-8.72-15.67a1.6,1.6,0,0,0-2.14-.62L394,699.07Z" transform="translate(9627 -5906.48)" fill="#3f3f3f"/>
      <path id="Path_67" data-name="Path 67" d="M396.36,779.05V914.39" transform="translate(9627 -5906.48)" fill="none" stroke="#000" stroke-linecap="round" stroke-linejoin="round" stroke-width="1.5"/>
      <path id="Path_69" data-name="Path 69" d="M431.77,963H380.28a3.66,3.66,0,0,1-3.66-3.66v-12a3.67,3.67,0,0,1,3.66-3.66h51.49a3.67,3.67,0,0,1,3.66,3.66v12a3.66,3.66,0,0,1-3.66,3.66Z" transform="translate(9627 -5906.48)" fill="#424a60"/>
      <path id="Path_70" data-name="Path 70" d="M431.77,982.28H380.28a3.66,3.66,0,0,1-3.66-3.66v-12a3.66,3.66,0,0,1,3.66-3.66h51.49a3.66,3.66,0,0,1,3.66,3.66v12a3.66,3.66,0,0,1-3.66,3.66Z" transform="translate(9627 -5906.48)" fill="#556080"/>
      <path id="Path_71" data-name="Path 71" d="M376.62,996.47H402" transform="translate(9627 -5906.48)" fill="none" stroke="#424a60" stroke-linecap="round" stroke-linejoin="round" stroke-width="1.5"/>
      <path id="Path_72" data-name="Path 72" d="M410.08,996.47h25.35" transform="translate(9627 -5906.48)" fill="none" stroke="#424a60" stroke-linecap="round" stroke-linejoin="round" stroke-width="1.5"/>
      <path id="Path_73" data-name="Path 73" d="M406,992.42V982.28" transform="translate(9627 -5906.48)" fill="none" stroke="#424a60" stroke-miterlimit="3" stroke-width="1.5"/>
      <circle id="Ellipse_33" data-name="Ellipse 33" cx="3.55" cy="3.55" r="3.55" transform="translate(10009.7 -4956.65)" fill="#7383bf"/>
      <circle id="Ellipse_34" data-name="Ellipse 34" cx="3.55" cy="3.55" r="3.55" transform="translate(10009.7 -4937.39)" fill="#7383bf"/>
      <circle id="Ellipse_35" data-name="Ellipse 35" cx="1.01" cy="1.01" r="1.01" transform="translate(10052.29 -4955.64)" fill="#7383bf"/>
      <circle id="Ellipse_36" data-name="Ellipse 36" cx="1.01" cy="1.01" r="1.01" transform="translate(10048.24 -4955.64)" fill="#7383bf"/>
      <circle id="Ellipse_37" data-name="Ellipse 37" cx="1.01" cy="1.01" r="1.01" transform="translate(10054.32 -4952.59)" fill="#7383bf"/>
      <circle id="Ellipse_38" data-name="Ellipse 38" cx="1.01" cy="1.01" r="1.01" transform="translate(10050.27 -4952.59)" fill="#7383bf"/>
      <circle id="Ellipse_39" data-name="Ellipse 39" cx="1.01" cy="1.01" r="1.01" transform="translate(10044.18 -4955.64)" fill="#7383bf"/>
      <circle id="Ellipse_40" data-name="Ellipse 40" cx="1.01" cy="1.01" r="1.01" transform="translate(10046.21 -4952.59)" fill="#7383bf"/>
      <circle id="Ellipse_41" data-name="Ellipse 41" cx="1.01" cy="1.01" r="1.01" transform="translate(10040.13 -4955.64)" fill="#7383bf"/>
      <circle id="Ellipse_42" data-name="Ellipse 42" cx="1.01" cy="1.01" r="1.01" transform="translate(10042.16 -4952.59)" fill="#7383bf"/>
      <circle id="Ellipse_43" data-name="Ellipse 43" cx="1.01" cy="1.01" r="1.01" transform="translate(10036.07 -4955.64)" fill="#7383bf"/>
      <circle id="Ellipse_44" data-name="Ellipse 44" cx="1.01" cy="1.01" r="1.01" transform="translate(10038.1 -4952.59)" fill="#7383bf"/>
      <circle id="Ellipse_45" data-name="Ellipse 45" cx="1.01" cy="1.01" r="1.01" transform="translate(10052.29 -4936.37)" fill="#7383bf"/>
      <circle id="Ellipse_46" data-name="Ellipse 46" cx="1.01" cy="1.01" r="1.01" transform="translate(10048.24 -4936.37)" fill="#7383bf"/>
      <circle id="Ellipse_47" data-name="Ellipse 47" cx="1.01" cy="1.01" r="1.01" transform="translate(10054.32 -4933.33)" fill="#7383bf"/>
      <circle id="Ellipse_48" data-name="Ellipse 48" cx="1.01" cy="1.01" r="1.01" transform="translate(10050.27 -4933.33)" fill="#7383bf"/>
      <circle id="Ellipse_49" data-name="Ellipse 49" cx="1.01" cy="1.01" r="1.01" transform="translate(10044.18 -4936.37)" fill="#7383bf"/>
      <circle id="Ellipse_50" data-name="Ellipse 50" cx="1.01" cy="1.01" r="1.01" transform="translate(10046.21 -4933.33)" fill="#7383bf"/>
      <circle id="Ellipse_51" data-name="Ellipse 51" cx="1.01" cy="1.01" r="1.01" transform="translate(10040.13 -4936.37)" fill="#7383bf"/>
      <circle id="Ellipse_52" data-name="Ellipse 52" cx="1.01" cy="1.01" r="1.01" transform="translate(10042.16 -4933.33)" fill="#7383bf"/>
      <circle id="Ellipse_53" data-name="Ellipse 53" cx="1.01" cy="1.01" r="1.01" transform="translate(10036.07 -4936.37)" fill="#7383bf"/>
      <circle id="Ellipse_54" data-name="Ellipse 54" cx="1.01" cy="1.01" r="1.01" transform="translate(10038.1 -4933.33)" fill="#7383bf"/>
      <circle id="Ellipse_55" data-name="Ellipse 55" cx="4.25" cy="4.25" r="4.25" transform="translate(10028.42 -4914.82)" fill="#fff" stroke="#000" stroke-linecap="round" stroke-linejoin="round" stroke-width="0.75"/>
      <rect id="Rectangle_113" data-name="Rectangle 113" width="189.92" height="76.22" transform="translate(9682.63 -5059.61)" fill="none"/>
      <text id="Message_OSR_" data-name="Message(OSR) =" transform="translate(9684 -5051.74)" fill="#ea700d" font-size="14" font-family="Calibri"><tspan x="0" y="0">Messa</tspan><tspan y="0" letter-spacing="-0.01em">g</tspan><tspan y="0">e(OSR) =</tspan></text>
      <text id="Message_PR_Block_Hash_Chain_tip_-_4_" data-name="Message(PR) +Block Hash(Chain tip - 4)" transform="translate(9779.13 -5051.74)" fill="#db1ac1" font-size="14" font-family="Calibri"><tspan x="0" y="0">Messa</tspan><tspan y="0" letter-spacing="-0.01em">g</tspan><tspan y="0">e(PR) +Block Hash(Chain tip - 4)</tspan></text>
      <path id="Path_74" data-name="Path 74" d="M433.08,382.24a4.73,4.73,0,0,0-4.69-4.2H424.8l2.33,4.2Z" transform="translate(9627 -5906.48)" fill="#3f3f3f"/>
      <path id="Path_75" data-name="Path 75" d="M371.21,385.41h-3.54a1.57,1.57,0,0,1,0-3.14h9.21l7.57-4.2H366.69a4.74,4.74,0,0,0-4.74,4.74V437a4.76,4.76,0,0,0,4.74,4.74h61.7a4.76,4.76,0,0,0,4.74-4.74V421.1H421.59a9.75,9.75,0,0,1-9.73-9.73v-.68a9.75,9.75,0,0,1,9.73-9.73h11.54V385.41Z" transform="translate(9627 -5906.48)" fill="#3f3f3f"/>
      <path id="Path_76" data-name="Path 76" d="M415,410.66v.69a6.58,6.58,0,0,0,6.56,6.56h15.5V404.1h-15.5a6.56,6.56,0,0,0-6.56,6.56Zm11.42.47a3.48,3.48,0,1,1-1.019-2.471,3.49,3.49,0,0,1,1.019,2.471Z" transform="translate(9627 -5906.48)" fill="#3f3f3f"/>
      <path id="Path_77" data-name="Path 77" d="M423.53,382.24l-8.72-15.67a1.61,1.61,0,0,0-2.14-.62l-29.28,16.29Z" transform="translate(9627 -5906.48)" fill="#3f3f3f"/>
      <path id="Path_78" data-name="Path 78" d="M284.81,108.91a11.78,11.78,0,0,1,16.38-3,12,12,0,0,1,2.73,2.64c-.49-.11-.93-.22-1.42-.38a25.381,25.381,0,0,0-6.1-1.09,26.4,26.4,0,0,0-4.62.11,25.88,25.88,0,0,0-5.88,1.42C285.57,108.74,285.19,108.8,284.81,108.91Z" transform="translate(9627 -5906.48)" fill="#0f0f0e" stroke="#0f0f0e" stroke-miterlimit="3" stroke-width="3.4"/>
      <path id="Path_79" data-name="Path 79" d="M291.83,107.16a27.5,27.5,0,0,1,4.63-.11,25.791,25.791,0,0,1,6.09,1.09,9.91,9.91,0,0,0,1.42.38,4.65,4.65,0,0,0,1.25.6,25.84,25.84,0,0,1,8.66,6,26.19,26.19,0,0,1,5.66,27.38l-.66-.82a4.32,4.32,0,0,1-.6,2c-.21.27-.59.16-.81,0a4.111,4.111,0,0,1-1-1.47,8.27,8.27,0,0,1-.87-2.78,15.769,15.769,0,0,1,.11-2.83c-1.69.38-3.32.87-5,1.14a77.34,77.34,0,0,1-18.34,1.53,80.55,80.55,0,0,1-19.1-2.78,11.541,11.541,0,0,1,.38,2.67,8.67,8.67,0,0,1-1,2.56,9.049,9.049,0,0,1-1.25,1.9.44.44,0,0,1-.61.11.521.521,0,0,1-.1-.11,4.46,4.46,0,0,1-.49-1.9,32.21,32.21,0,0,1-.92-3.76,26.22,26.22,0,0,1,15.07-28.68,1.7,1.7,0,0,0,.66-.44,5.27,5.27,0,0,0,1.09-.27,26.46,26.46,0,0,1,5.73-1.41Z" transform="translate(9627 -5906.48)" fill="#020202" stroke="#020202" stroke-miterlimit="3" stroke-width="3.4"/>
      <path id="Path_80" data-name="Path 80" d="M273.16,136.56a80.11,80.11,0,0,0,19.1,2.77,79,79,0,0,0,18.35-1.52c1.68-.33,3.32-.76,5-1.14a17.872,17.872,0,0,0-.11,2.83,8.16,8.16,0,0,0,.88,2.77,4,4,0,0,0,1,1.47c.22.22.65.28.82,0a5.26,5.26,0,0,0,.6-2l.65.82a5.61,5.61,0,0,1,.54,3,10.32,10.32,0,0,1-2.07,5.23c-1,1.36-2.23,2.72-4,2.93-.65,2.13-1,4.41-2.18,6.37a13.061,13.061,0,0,1-3.92,4.25,28.521,28.521,0,0,1-6.15,3.43,44.549,44.549,0,0,1-6.85,2.23,3.62,3.62,0,0,1-1.69-.22c-.55-.16-1.14-.27-1.69-.43-.71-.33-1.52-.55-2.23-.82a33.082,33.082,0,0,1-7.4-3.65c-.49-.32-.93-.7-1.42-1a17.78,17.78,0,0,1-1.52-1.36,11.39,11.39,0,0,1-2.83-4.68c-.44-1.36-.77-2.72-1.15-4.08a4.89,4.89,0,0,1-2.39-1.14,12.38,12.38,0,0,1-3.21-4.85,6.21,6.21,0,0,1,.6-5.93,7.379,7.379,0,0,0,.49,1.9c.16.28.49.22.7,0a9,9,0,0,0,1.26-1.9,6.58,6.58,0,0,0,1-2.56,7.58,7.58,0,0,0-.18-2.72Z" transform="translate(9627 -5906.48)" fill="#d8aa8b" stroke="#d8aa8b" stroke-miterlimit="3" stroke-width="3.4"/>
      <path id="Path_81" data-name="Path 81" d="M280.5,163.89a15.382,15.382,0,0,1,1.42,1,32.419,32.419,0,0,0,7.4,3.64c.76.28,1.53.49,2.23.82,0,.76.11,1.52.17,2.34a23.262,23.262,0,0,1-.11,4.79,11.45,11.45,0,0,1-2.07,4.85,16.93,16.93,0,0,1-9.58,6.91c-2.61.76-5.44,1.14-7.78,2.61A7.18,7.18,0,0,0,269,195a5.52,5.52,0,0,0,0,2.29,15,15,0,0,1-4.63-9.09c-.06-.6-.11-1.2-.11-1.8a14.9,14.9,0,0,1,5.17-11.21c1.8-1.58,3.92-2.78,5.88-4.19a16.8,16.8,0,0,0,3.7-3.59,17,17,0,0,0,1.49-3.52Z" transform="translate(9627 -5906.48)" fill="#020202" stroke="#020202" stroke-miterlimit="3" stroke-width="3.4"/>
      <path id="Path_82" data-name="Path 82" d="M295,169.93a45.78,45.78,0,0,0,6.86-2.23c0,1,.06,1.9.06,2.88l-1.25.33a24.841,24.841,0,0,1-8.88.71c0-.77-.16-1.53-.16-2.34.54.16,1.14.27,1.69.43A3,3,0,0,0,295,169.93Z" transform="translate(9627 -5906.48)" fill="#c1977a" stroke="#c1977a" stroke-miterlimit="3" stroke-width="3.4"/>
      <path id="Path_83" data-name="Path 83" d="M300.65,171l1.25-.33c.11,2,.16,4,.44,5.93a3.24,3.24,0,0,0,1.14,2.29,6.27,6.27,0,0,0,2,.82c4.84,1.52,9.63,3,14.48,4.51a13.9,13.9,0,0,1,5.11,2.56,5.16,5.16,0,0,0-2.17.38,15.241,15.241,0,0,0-2.45,1.69,29.46,29.46,0,0,1-10.18,5.5,43.79,43.79,0,0,1-8.87,1.52,37.77,37.77,0,0,1-7.13.16,69.559,69.559,0,0,1-14.65-2.93c-2.45-.71-4.84-1.47-7.29-2.18,2.34-1.47,5.17-1.85,7.78-2.61a17.48,17.48,0,0,0,9.58-6.92,11.61,11.61,0,0,0,2.07-4.84,23.241,23.241,0,0,0,.11-4.79A25.48,25.48,0,0,0,300.65,171Z" transform="translate(9627 -5906.48)" fill="#d8aa8b" stroke="#d8aa8b" stroke-miterlimit="3" stroke-width="3.4"/>
      <path id="Path_84" data-name="Path 84" d="M262.87,187.72a16.916,16.916,0,0,1,1.42-1.25,10.868,10.868,0,0,0,.1,1.8A4.87,4.87,0,0,1,262.87,187.72Z" transform="translate(9627 -5906.48)" fill="#d8aa8b" stroke="#d8aa8b" stroke-miterlimit="3" stroke-width="3.4"/>
      <path id="Path_85" data-name="Path 85" d="M322.85,187.13a4.93,4.93,0,0,1,2.18-.38,8.529,8.529,0,0,1,1.52.59,8.339,8.339,0,0,1,2.56,2.24,14.23,14.23,0,0,1,2.89,6.31,8.36,8.36,0,0,1-.55,5H257.54a13.24,13.24,0,0,1,1.36-7.08,19.431,19.431,0,0,1,4-6,5.11,5.11,0,0,0,1.52.54,14.71,14.71,0,0,0,4.63,9.09,5.16,5.16,0,0,1,0-2.28,7.52,7.52,0,0,1,3.21-4.19c2.45.76,4.85,1.52,7.3,2.17a70.249,70.249,0,0,0,14.64,2.94,38.6,38.6,0,0,0,7.13-.16,44.5,44.5,0,0,0,8.87-1.52,29,29,0,0,0,10.18-5.5,12.709,12.709,0,0,1,2.47-1.77Z" transform="translate(9627 -5906.48)" fill="#ce57b5" stroke="#ce57b5" stroke-miterlimit="3" stroke-width="3.4"/>
      <path id="Path_86" data-name="Path 86" d="M440.88,130.78a4.74,4.74,0,0,0-4.69-4.2H432.6l2.33,4.2Z" transform="translate(9627 -5906.48)" fill="#3f3f3f"/>
      <path id="Path_87" data-name="Path 87" d="M379,134h-3.54a1.57,1.57,0,1,1,0-3.14h9.21l7.57-4.2H374.48a4.76,4.76,0,0,0-4.74,4.74v54.21a4.76,4.76,0,0,0,4.74,4.74h61.7a4.76,4.76,0,0,0,4.74-4.74V169.64H429.38a9.75,9.75,0,0,1-9.73-9.73v-.68a9.75,9.75,0,0,1,9.73-9.73h11.54V134Z" transform="translate(9627 -5906.48)" fill="#3f3f3f"/>
      <path id="Path_88" data-name="Path 88" d="M422.8,159.2v.69a6.58,6.58,0,0,0,6.56,6.56h15.5V152.64h-15.5a6.55,6.55,0,0,0-6.56,6.56Zm11.42.47a3.49,3.49,0,1,1-3.49-3.49,3.49,3.49,0,0,1,3.49,3.49Z" transform="translate(9627 -5906.48)" fill="#3f3f3f"/>
      <path id="Path_89" data-name="Path 89" d="M431.32,130.78l-8.72-15.67a1.6,1.6,0,0,0-2.14-.62l-29.28,16.29Z" transform="translate(9627 -5906.48)" fill="#3f3f3f"/>
      <path id="Path_90" data-name="Path 90" d="M407.29,208.88V344.21" transform="translate(9627 -5906.48)" fill="none" stroke="#000" stroke-linecap="round" stroke-linejoin="round" stroke-width="1.5"/>
      <text id="Payment_Request:" data-name="Payment Request:" transform="translate(10056.77 -5637.53)" fill="#707070" font-size="20" font-family="Calibri-Bold, Calibri" font-weight="700"><tspan x="0" y="0" letter-spacing="-0.02em">Pa</tspan><tspan y="0">yme</tspan><tspan y="0" letter-spacing="-0.01em">n</tspan><tspan y="0">t </tspan><tspan y="0" letter-spacing="-0.01em">R</tspan><tspan y="0">eque</tspan><tspan y="0" letter-spacing="-0.01em">s</tspan><tspan y="0">t:</tspan></text>
      <text id="Message_PR_" data-name="Message(PR)" transform="translate(10055.02 -5613.53)" fill="#db1ac1" font-size="14" font-family="Calibri"><tspan x="0" y="0">Messa</tspan><tspan y="0" letter-spacing="-0.01em">g</tspan><tspan y="0">e(PR)</tspan></text>
      <text id="_ReceivingAddress_Contract_ID_Instrument_ID_Qty" data-name=" = ReceivingAddress + Contract ID + Instrument ID + Qty" transform="translate(10128.37 -5613.53)" font-size="14" font-family="Calibri"><tspan x="0" y="0" xml:space="preserve"> = </tspan><tspan y="0" letter-spacing="-0.02em">R</tspan><tspan y="0">eceivingAdd</tspan><tspan y="0" letter-spacing="-0.01em">r</tspan><tspan y="0">ess + Co</tspan><tspan y="0" letter-spacing="-0.01em">n</tspan><tspan y="0">t</tspan><tspan y="0" letter-spacing="-0.02em">r</tspan><tspan y="0">act ID + Instrument ID + Qty</tspan></text>
      <rect id="Rectangle_122" data-name="Rectangle 122" width="189.92" height="86.12" transform="translate(10111 -5125.32)" fill="none"/>
      <text id="Transfer_Permitted:" data-name="Transfer Permitted:" transform="translate(10111 -5121.86)" fill="#707070" font-size="18" font-family="Calibri-Bold, Calibri" font-weight="700"><tspan x="0" y="0" letter-spacing="-0.05em">T</tspan><tspan y="0" letter-spacing="-0.02em">r</tspan><tspan y="0">an</tspan><tspan y="0" letter-spacing="-0.01em">s</tspan><tspan y="0" letter-spacing="-0.02em">f</tspan><tspan y="0">er </tspan><tspan y="0" letter-spacing="-0.02em">P</tspan><tspan y="0">ermi</tspan><tspan y="0" letter-spacing="-0.01em">tt</tspan><tspan y="0">ed:</tspan></text>
      <text id="OracleSignature_" data-name="OracleSignature(" transform="translate(10111 -5097.86)" fill="#707070" font-size="14" font-family="Calibri"><tspan x="0" y="0">O</tspan><tspan y="0" letter-spacing="-0.02em">r</tspan><tspan y="0">acleSign</tspan><tspan y="0" letter-spacing="-0.01em">a</tspan><tspan y="0">tu</tspan><tspan y="0" letter-spacing="-0.01em">r</tspan><tspan y="0">e(</tspan></text>
      <text id="Message_OSR_2" data-name="Message(OSR)" transform="translate(10205.79 -5097.86)" fill="#ea700d" font-size="14" font-family="Calibri"><tspan x="0" y="0">Messa</tspan><tspan y="0" letter-spacing="-0.01em">g</tspan><tspan y="0">e(OSR)</tspan></text>
      <text id="_1_" data-name="+1)" transform="translate(10287.61 -5097.86)" fill="#6d5c5c" font-size="14" font-family="Calibri"><tspan x="0" y="0">+1)</tspan></text>
      <text id="Or" transform="translate(10194.13 -5049.86)" font-size="20" font-family="Calibri"><tspan x="0" y="0">Or</tspan></text>
      <text id="Transfer_Not_Permitted:" data-name="Transfer Not Permitted:" transform="translate(10111.26 -5001.86)" fill="#707070" font-size="18" font-family="Calibri-Bold, Calibri" font-weight="700"><tspan x="0" y="0" letter-spacing="-0.05em">T</tspan><tspan y="0" letter-spacing="-0.02em">r</tspan><tspan y="0">an</tspan><tspan y="0" letter-spacing="-0.01em">s</tspan><tspan y="0" letter-spacing="-0.02em">f</tspan><tspan y="0">er Not </tspan><tspan y="0" letter-spacing="-0.02em">P</tspan><tspan y="0">ermi</tspan><tspan y="0" letter-spacing="-0.01em">tt</tspan><tspan y="0">ed:</tspan></text>
      <text id="OracleSignature_Message_OSR_0_" data-name="OracleSignature(Message(OSR)+0)" transform="translate(10110.54 -4977.86)" fill="#707070" font-size="14" font-family="Calibri"><tspan x="0" y="0">O</tspan><tspan y="0" letter-spacing="-0.02em">r</tspan><tspan y="0">acleSign</tspan><tspan y="0" letter-spacing="-0.01em">a</tspan><tspan y="0">tu</tspan><tspan y="0" letter-spacing="-0.01em">r</tspan><tspan y="0">e(Messa</tspan><tspan y="0" letter-spacing="-0.01em">g</tspan><tspan y="0">e(OSR)+0)</tspan></text>
      <path id="Path_91" data-name="Path 91" d="M267.09,355.81a29.28,29.28,0,0,1,14.41-4.55,31.64,31.64,0,0,1,12.78,2,17.81,17.81,0,0,1,7.89,5.81,19,19,0,0,1,3.29,8,50.362,50.362,0,0,1,1.09,9.48,40.648,40.648,0,0,1-.22,4.55,34.081,34.081,0,0,1-.6,4.71c-.88,4.22-2.47,8.28-3.67,12.39-.06.12-.12.25-.17.38a38.155,38.155,0,0,1,.33-7.4c.22-1.7.39-3.4.55-5.1a28.582,28.582,0,0,0,.22-5.31,45.43,45.43,0,0,0-2.9-8.88,1.87,1.87,0,0,0-.83-1.1,24,24,0,0,0-9.15-2.9,48,48,0,0,0-9.81-.5,41,41,0,0,0-10.25,1.7,13.141,13.141,0,0,0-3.56,1.76,2.53,2.53,0,0,0-.72,1.15,45.859,45.859,0,0,0-2.79,8.49,7.659,7.659,0,0,0-.17,1.59c0,4.61.55,9.21.77,13.87a27.139,27.139,0,0,1,0,4.77.45.45,0,0,1-.16.33c-1.32-4.94-2.31-9.92-3.29-15-.17-.87-.28-1.75-.39-2.63a47.286,47.286,0,0,1,.17-8.33c.22-2.68.22-5.37.44-8.05A19.61,19.61,0,0,1,265.83,357,4.75,4.75,0,0,1,267.09,355.81Z" transform="translate(9627 -5906.48)" fill="#2d1f1f" stroke="#2d1f1f" stroke-miterlimit="3" stroke-width="3.4"/>
      <path id="Path_92" data-name="Path 92" d="M280.35,367.27a52.772,52.772,0,0,1,9.81.49,24.09,24.09,0,0,1,9.16,2.9,1.82,1.82,0,0,1,.82,1.1,44.558,44.558,0,0,1,2.9,8.88,27.883,27.883,0,0,1-.21,5.32c-.17,1.7-.39,3.39-.55,5.09a41.565,41.565,0,0,0-.33,7.4,3.086,3.086,0,0,0,.16-.38c1.21-4.17,2.8-8.17,3.67-12.39a.46.46,0,0,0,.11.22,2.84,2.84,0,0,1,2.14.82,5.78,5.78,0,0,1,1.59,4.22,12.47,12.47,0,0,1-2.36,7.08,8.709,8.709,0,0,1-2.68,2.79,3.42,3.42,0,0,1-1.37.38,28.943,28.943,0,0,1-1.1,3.73c.06-.44.17-.93.22-1.37a14.1,14.1,0,0,0-1,1.37,28.45,28.45,0,0,1-10.47,8.72,6.88,6.88,0,0,1-3.73.76,17.34,17.34,0,0,1-2.24-.43c-.66-.17-1.21-.66-1.92-.66s-1.32.6-2,.76a8.57,8.57,0,0,1-2.85.33,14.58,14.58,0,0,1-5.6-1.81,28.39,28.39,0,0,1-8.93-7.56c-.38-1.26-.82-2.58-1.1-3.89a6.69,6.69,0,0,1-3.56-3,13.68,13.68,0,0,1-2.47-6.85,6.12,6.12,0,0,1,1.21-4.22,2.94,2.94,0,0,1,2.63-1.15c.93,5,1.92,10,3.29,15,.06-.11.11-.22.16-.33a27.136,27.136,0,0,0,0-4.77c-.21-4.61-.76-9.21-.76-13.87a7.66,7.66,0,0,1,.16-1.59,46.652,46.652,0,0,1,2.8-8.49,2.891,2.891,0,0,1,.71-1.16,15.911,15.911,0,0,1,3.56-1.75A41.059,41.059,0,0,1,280.35,367.27Z" transform="translate(9627 -5906.48)" fill="#a5663a" stroke="#a5663a" stroke-miterlimit="3" stroke-width="3.4"/>
      <path id="Path_93" data-name="Path 93" d="M301.24,404.91a15,15,0,0,1,1-1.37,10.568,10.568,0,0,1-.22,1.37,19.59,19.59,0,0,1-1.42,3.95,8.79,8.79,0,0,1-1.43,2.3,27.911,27.911,0,0,1-6.46,5.76,18.491,18.491,0,0,1-7.29,2.79,17.56,17.56,0,0,1-5.65-.11,16.7,16.7,0,0,1-6.63-3,43.542,43.542,0,0,1-5.81-4.76,18.14,18.14,0,0,1-4.66-7.79c.27.28.49.66.77.93a28.07,28.07,0,0,0,8.93,7.57A15.56,15.56,0,0,0,278,414.4a12.47,12.47,0,0,0,2.85-.33c.72-.17,1.26-.77,2-.77s1.26.49,1.91.66a14.209,14.209,0,0,0,2.25.44,6.73,6.73,0,0,0,3.73-.77A28.4,28.4,0,0,0,301.24,404.91Z" transform="translate(9627 -5906.48)" fill="#2d1f1f" stroke="#2d1f1f" stroke-miterlimit="3" stroke-width="3.4"/>
      <path id="Path_94" data-name="Path 94" d="M273.17,416.7a16.8,16.8,0,0,0,6.64,3,17.789,17.789,0,0,0,5.64.11,18.14,18.14,0,0,0,7.29-2.79c.11,1,.06,2,.17,3a7.39,7.39,0,0,1-1.7,1.1,27.4,27.4,0,0,1-6.47,2.24,17.21,17.21,0,0,1-3,.11,17.72,17.72,0,0,1-4.06-.93,16.769,16.769,0,0,1-3.61-1.64c-.39-.22-.72-.5-1.05-.72a9,9,0,0,1,.06-1.64,10,10,0,0,1,.09-1.84Z" transform="translate(9627 -5906.48)" fill="#8e5c3a" stroke="#8e5c3a" stroke-miterlimit="3" stroke-width="3.4"/>
      <path id="Path_95" data-name="Path 95" d="M291.21,421a7.241,7.241,0,0,0,1.7-1.09,17.693,17.693,0,0,0,.33,3.07,3.39,3.39,0,0,0,2,2.79c.93.33,1.86.61,2.79.93a18.08,18.08,0,0,1-.82,1.65,69.446,69.446,0,0,1-3.95,6.36,29.721,29.721,0,0,1-5,5.7,9.87,9.87,0,0,1-4.6,2.35,4.44,4.44,0,0,1-2.91-1,29.721,29.721,0,0,1-5.37-4.83A61.6,61.6,0,0,1,269,428.6a11.152,11.152,0,0,1-1-1.92c.88-.27,1.81-.55,2.69-.88a3.35,3.35,0,0,0,2-2.41c.22-1.1.33-2.14.44-3.23a8.649,8.649,0,0,1,1,.71,20.7,20.7,0,0,0,3.62,1.64,20.269,20.269,0,0,0,4.06.94,19.485,19.485,0,0,0,3-.11A28.231,28.231,0,0,0,291.21,421Z" transform="translate(9627 -5906.48)" fill="#a5663a" stroke="#a5663a" stroke-miterlimit="3" stroke-width="3.4"/>
      <path id="Path_96" data-name="Path 96" d="M252.46,431.72c5.15-1.64,10.3-3.34,15.45-5a17.87,17.87,0,0,0,1,1.92,59.451,59.451,0,0,0,6.35,8.39,30.069,30.069,0,0,0,5.38,4.82,4.75,4.75,0,0,0,2.9,1,9.8,9.8,0,0,0,4.6-2.36,33,33,0,0,0,5.05-5.7,61.174,61.174,0,0,0,3.94-6.36c.28-.55.61-1.09.83-1.64,4.82,1.53,9.64,3.12,14.47,4.66,1.15.44,2.35.65,3.5,1a17.4,17.4,0,0,1,10.31,8.6,23.86,23.86,0,0,1,2.41,8.83,6.672,6.672,0,0,1-1.48.05H237.71c-.16,0-.33-.05-.49-.05a24.111,24.111,0,0,1,1.86-7.62,17.54,17.54,0,0,1,9.27-9.21,22,22,0,0,1,4.11-1.33Z" transform="translate(9627 -5906.48)" fill="#9c3" stroke="#9c3" stroke-miterlimit="3" stroke-width="3.4"/>
      <path id="Path_97" data-name="Path 97" d="M274.52,660.81a29.32,29.32,0,0,1,14.41-4.55,31.641,31.641,0,0,1,12.78,2A17.81,17.81,0,0,1,309.6,664a19,19,0,0,1,3.29,8,50.357,50.357,0,0,1,1.09,9.48,40.648,40.648,0,0,1-.22,4.55,34.082,34.082,0,0,1-.6,4.71c-.88,4.22-2.47,8.28-3.67,12.39-.06.12-.12.25-.17.38a38.162,38.162,0,0,1,.33-7.4c.22-1.7.39-3.4.55-5.1a28.582,28.582,0,0,0,.22-5.31,45.43,45.43,0,0,0-2.9-8.88,1.87,1.87,0,0,0-.83-1.1,24,24,0,0,0-9.15-2.9,48,48,0,0,0-9.81-.5,41,41,0,0,0-10.25,1.7,13.432,13.432,0,0,0-3.56,1.76,2.529,2.529,0,0,0-.72,1.15,45.859,45.859,0,0,0-2.79,8.49,8.411,8.411,0,0,0-.17,1.59c0,4.61.55,9.21.77,13.87a27.14,27.14,0,0,1,0,4.77.45.45,0,0,1-.16.33c-1.32-4.94-2.31-9.92-3.29-15-.17-.87-.28-1.75-.39-2.63a47.286,47.286,0,0,1,.17-8.33c.22-2.68.22-5.37.44-8.05a19.61,19.61,0,0,1,5.48-9.97A4.75,4.75,0,0,1,274.52,660.81Z" transform="translate(9627 -5906.48)" fill="#2d1f1f" stroke="#2d1f1f" stroke-miterlimit="3" stroke-width="3.4"/>
      <path id="Path_98" data-name="Path 98" d="M287.78,672.27a52.769,52.769,0,0,1,9.81.49,24.09,24.09,0,0,1,9.16,2.9,1.82,1.82,0,0,1,.82,1.1,43.93,43.93,0,0,1,2.9,8.88,27.879,27.879,0,0,1-.21,5.32c-.17,1.7-.39,3.39-.55,5.09a41.566,41.566,0,0,0-.33,7.4,2.049,2.049,0,0,0,.16-.38c1.21-4.17,2.8-8.17,3.67-12.39a.57.57,0,0,0,.11.22,2.83,2.83,0,0,1,2.14.82,5.78,5.78,0,0,1,1.59,4.22,12.47,12.47,0,0,1-2.36,7.08,8.71,8.71,0,0,1-2.68,2.79,3.42,3.42,0,0,1-1.37.38,27.433,27.433,0,0,1-1.1,3.73c.06-.44.17-.93.22-1.37a14.09,14.09,0,0,0-1,1.37,28.449,28.449,0,0,1-10.47,8.72,6.881,6.881,0,0,1-3.73.76,17.35,17.35,0,0,1-2.24-.43c-.66-.17-1.21-.66-1.92-.66s-1.32.6-2,.76a8.541,8.541,0,0,1-2.85.33,14.64,14.64,0,0,1-5.6-1.81A28.389,28.389,0,0,1,271,710c-.38-1.26-.82-2.58-1.1-3.89a6.69,6.69,0,0,1-3.56-3,13.681,13.681,0,0,1-2.47-6.85,6.12,6.12,0,0,1,1.21-4.22,2.94,2.94,0,0,1,2.63-1.15c.93,5,1.92,10,3.29,15,.06-.11.11-.22.16-.33a27.137,27.137,0,0,0,0-4.77c-.21-4.61-.76-9.21-.76-13.87a7.658,7.658,0,0,1,.16-1.59,46.651,46.651,0,0,1,2.8-8.49,2.89,2.89,0,0,1,.71-1.16,15.911,15.911,0,0,1,3.56-1.75,41.057,41.057,0,0,1,10.15-1.66Z" transform="translate(9627 -5906.48)" fill="#a5663a" stroke="#a5663a" stroke-miterlimit="3" stroke-width="3.4"/>
      <path id="Path_99" data-name="Path 99" d="M308.67,709.91a15.016,15.016,0,0,1,1-1.37,10.568,10.568,0,0,1-.22,1.37,19.589,19.589,0,0,1-1.42,4,8.79,8.79,0,0,1-1.43,2.3,27.7,27.7,0,0,1-6.46,5.76,18.49,18.49,0,0,1-7.29,2.79,17.559,17.559,0,0,1-5.65-.11,16.7,16.7,0,0,1-6.63-3,44.183,44.183,0,0,1-5.81-4.76,18.14,18.14,0,0,1-4.66-7.79c.27.28.49.66.77.93a28.07,28.07,0,0,0,8.93,7.57,15.561,15.561,0,0,0,5.59,1.81,12.47,12.47,0,0,0,2.85-.33c.72-.17,1.26-.77,2-.77s1.26.49,1.91.66a14.208,14.208,0,0,0,2.25.44,6.73,6.73,0,0,0,3.73-.77,28.4,28.4,0,0,0,10.54-8.73Z" transform="translate(9627 -5906.48)" fill="#2d1f1f" stroke="#2d1f1f" stroke-miterlimit="3" stroke-width="3.4"/>
      <path id="Path_100" data-name="Path 100" d="M280.6,721.7a16.8,16.8,0,0,0,6.64,3,17.789,17.789,0,0,0,5.64.11,18.14,18.14,0,0,0,7.29-2.79c.11,1,.06,2,.17,3a7.392,7.392,0,0,1-1.7,1.1,27.4,27.4,0,0,1-6.47,2.24,17.213,17.213,0,0,1-3,.11,17.717,17.717,0,0,1-4.06-.93,16.772,16.772,0,0,1-3.61-1.64c-.39-.22-.72-.5-1.05-.72a9,9,0,0,1,.06-1.64,10,10,0,0,1,.09-1.84Z" transform="translate(9627 -5906.48)" fill="#8e5c3a" stroke="#8e5c3a" stroke-miterlimit="3" stroke-width="3.4"/>
      <path id="Path_101" data-name="Path 101" d="M298.64,726a7.241,7.241,0,0,0,1.7-1.09,17.691,17.691,0,0,0,.33,3.07,3.4,3.4,0,0,0,2,2.79c.93.33,1.86.61,2.79.93a18.07,18.07,0,0,1-.82,1.65,69.452,69.452,0,0,1-3.95,6.36,29.719,29.719,0,0,1-5,5.7,9.87,9.87,0,0,1-4.6,2.35,4.44,4.44,0,0,1-2.91-1A30.057,30.057,0,0,1,282.8,742a61.6,61.6,0,0,1-6.36-8.38,11.148,11.148,0,0,1-1-1.92c.88-.27,1.81-.55,2.69-.88a3.35,3.35,0,0,0,2-2.41c.22-1.1.33-2.14.44-3.23a8.642,8.642,0,0,1,1,.71,20.707,20.707,0,0,0,3.62,1.64,20.273,20.273,0,0,0,4.06.94,19.478,19.478,0,0,0,3-.11,28.232,28.232,0,0,0,6.39-2.36Z" transform="translate(9627 -5906.48)" fill="#a5663a" stroke="#a5663a" stroke-miterlimit="3" stroke-width="3.4"/>
      <path id="Path_102" data-name="Path 102" d="M259.89,736.72c5.15-1.64,10.3-3.34,15.45-5a17.878,17.878,0,0,0,1.05,1.92,59.449,59.449,0,0,0,6.35,8.39,30.066,30.066,0,0,0,5.38,4.82,4.75,4.75,0,0,0,2.9,1,9.8,9.8,0,0,0,4.6-2.36,33,33,0,0,0,5.05-5.7,61.173,61.173,0,0,0,3.94-6.36c.28-.55.61-1.09.83-1.64,4.82,1.53,9.64,3.12,14.47,4.66,1.15.44,2.35.65,3.5,1a17.4,17.4,0,0,1,10.31,8.6,23.859,23.859,0,0,1,2.41,8.83,6.667,6.667,0,0,1-1.48.05H245.14c-.16,0-.33-.05-.49-.05a24.11,24.11,0,0,1,1.86-7.62,17.54,17.54,0,0,1,9.27-9.21,22.01,22.01,0,0,1,4.11-1.33Z" transform="translate(9627 -5906.48)" fill="#9c3" stroke="#9c3" stroke-miterlimit="3" stroke-width="3.4"/>
      <rect id="Rectangle_135" data-name="Rectangle 135" width="90.71" height="35.43" transform="translate(10076.54 -5765.22)" fill="none"/>
      <text id="Tokens:_0" data-name="Tokens: 0" transform="translate(10098.59 -5743.9)" font-size="20" font-family="Calibri"><tspan x="0" y="0" letter-spacing="-0.09em">T</tspan><tspan y="0">o</tspan><tspan y="0" letter-spacing="-0.03em">k</tspan><tspan y="0">ens: 0</tspan></text>
      <rect id="Rectangle_136" data-name="Rectangle 136" width="90.71" height="35.43" transform="translate(10076.54 -5510.1)" fill="none"/>
      <text id="Tokens:_100" data-name="Tokens: 100" transform="translate(10092.51 -5488.78)" font-size="20" font-family="Calibri"><tspan x="0" y="0" letter-spacing="-0.09em">T</tspan><tspan y="0">o</tspan><tspan y="0" letter-spacing="-0.03em">k</tspan><tspan y="0">ens: 100</tspan></text>
      <path id="Path_107" data-name="Path 107" d="M360.61,2613.6a4.74,4.74,0,0,0-4.69-4.2h-3.59l2.33,4.2Z" transform="translate(9719 -5956.48)" fill="#3f3f3f"/>
      <path id="Path_108" data-name="Path 108" d="M298.73,2616.77h-3.54a1.57,1.57,0,0,1,0-3.14h9.21l7.57-4.2H294.21a4.76,4.76,0,0,0-4.74,4.74v54.21a4.76,4.76,0,0,0,4.74,4.74h61.7a4.76,4.76,0,0,0,4.74-4.74v-15.92H349.11a9.75,9.75,0,0,1-9.73-9.73v-.68a9.75,9.75,0,0,1,9.73-9.73h11.54v-15.55Z" transform="translate(9719 -5956.48)" fill="#3f3f3f"/>
      <path id="Path_109" data-name="Path 109" d="M342.52,2642v.69a6.58,6.58,0,0,0,6.56,6.56h15.5v-13.81h-15.5a6.57,6.57,0,0,0-6.56,6.56Zm11.42.47a3.516,3.516,0,1,0,0,.02Z" transform="translate(9719 -5956.48)" fill="#3f3f3f"/>
      <path id="Path_110" data-name="Path 110" d="M351.05,2613.6l-8.72-15.67a1.61,1.61,0,0,0-2.14-.62l-29.28,16.29Z" transform="translate(9719 -5956.48)" fill="#3f3f3f"/>
      <path id="Path_111" data-name="Path 111" d="M172,2425.67a11.79,11.79,0,0,1,19.11-.33c-.49-.11-.93-.22-1.42-.38a26.4,26.4,0,0,0-6.1-1.09,27.42,27.42,0,0,0-4.62.11,26.842,26.842,0,0,0-5.88,1.42C172.75,2425.5,172.37,2425.56,172,2425.67Z" transform="translate(9719 -5956.48)" fill="#0f0f0e" stroke="#0f0f0e" stroke-miterlimit="3" stroke-width="3.4"/>
      <path id="Path_112" data-name="Path 112" d="M179,2423.93a26.522,26.522,0,0,1,4.63-.11,25.287,25.287,0,0,1,6.09,1.09,9.908,9.908,0,0,0,1.42.38,4.656,4.656,0,0,0,1.25.6,25.843,25.843,0,0,1,8.66,6,26.18,26.18,0,0,1,5.66,27.38l-.66-.82a4.391,4.391,0,0,1-.6,2c-.21.27-.59.16-.81,0a4.109,4.109,0,0,1-1-1.47,8.267,8.267,0,0,1-.87-2.78,15.741,15.741,0,0,1,.11-2.83c-1.69.38-3.32.87-5,1.14a77.35,77.35,0,0,1-18.34,1.53,81.575,81.575,0,0,1-19.1-2.78,11.471,11.471,0,0,1,.38,2.67,9.189,9.189,0,0,1-1,2.56,9.6,9.6,0,0,1-1.25,1.9.44.44,0,0,1-.61.1l-.1-.1a4.5,4.5,0,0,1-.49-1.9,32.71,32.71,0,0,1-.92-3.76,26.21,26.21,0,0,1,15.07-28.68,2,2,0,0,0,.66-.44,6.971,6.971,0,0,0,1.09-.27A25.369,25.369,0,0,1,179,2423.93Z" transform="translate(9719 -5956.48)" fill="#020202" stroke="#020202" stroke-miterlimit="3" stroke-width="3.4"/>
      <path id="Path_113" data-name="Path 113" d="M160.34,2453.33a81.126,81.126,0,0,0,19.1,2.77,80.132,80.132,0,0,0,18.35-1.52c1.68-.33,3.32-.76,5-1.14a17.768,17.768,0,0,0-.11,2.83,8.3,8.3,0,0,0,.88,2.77,4.08,4.08,0,0,0,1,1.47c.22.22.65.28.82,0a5.31,5.31,0,0,0,.6-2l.65.82a5.69,5.69,0,0,1,.54,3,10.321,10.321,0,0,1-2.07,5.23c-1,1.36-2.23,2.72-4,2.93-.65,2.13-1,4.41-2.18,6.37a13.063,13.063,0,0,1-3.92,4.25,29,29,0,0,1-6.15,3.43,45.659,45.659,0,0,1-6.85,2.23,3.748,3.748,0,0,1-1.69-.219c-.55-.16-1.14-.271-1.69-.43-.71-.33-1.52-.55-2.23-.82a33.989,33.989,0,0,1-7.4-3.65c-.49-.32-.93-.7-1.42-1a19.676,19.676,0,0,1-1.52-1.36,11.448,11.448,0,0,1-2.83-4.68c-.44-1.36-.77-2.72-1.15-4.08a5,5,0,0,1-2.39-1.14,12.38,12.38,0,0,1-3.21-4.85,6.19,6.19,0,0,1,.6-5.93,7.379,7.379,0,0,0,.49,1.9c.16.28.49.22.7,0a9.226,9.226,0,0,0,1.26-1.9,6.639,6.639,0,0,0,1-2.56,7.791,7.791,0,0,0-.18-2.72Z" transform="translate(9719 -5956.48)" fill="#d8aa8b" stroke="#d8aa8b" stroke-miterlimit="3" stroke-width="3.4"/>
      <path id="Path_114" data-name="Path 114" d="M167.68,2480.65a15.363,15.363,0,0,1,1.42,1,32.007,32.007,0,0,0,7.4,3.64c.76.28,1.53.49,2.23.82,0,.76.11,1.52.17,2.34a23.24,23.24,0,0,1-.11,4.79,11.341,11.341,0,0,1-2.07,4.85,16.929,16.929,0,0,1-9.58,6.91c-2.61.76-5.44,1.14-7.78,2.61a7.21,7.21,0,0,0-3.21,4.19,5.521,5.521,0,0,0,0,2.29,15,15,0,0,1-4.63-9.09c-.06-.6-.11-1.2-.11-1.8a14.9,14.9,0,0,1,5.17-11.21c1.8-1.58,3.92-2.78,5.88-4.19a11.48,11.48,0,0,0,5.22-7.13Z" transform="translate(9719 -5956.48)" fill="#020202" stroke="#020202" stroke-miterlimit="3" stroke-width="3.4"/>
      <path id="Path_115" data-name="Path 115" d="M182.16,2486.69a44.641,44.641,0,0,0,6.86-2.23c0,1,.06,1.9.06,2.88l-1.25.33a24.389,24.389,0,0,1-8.88.71c0-.77-.16-1.53-.16-2.34.54.16,1.14.27,1.69.43a3,3,0,0,0,1.68.22Z" transform="translate(9719 -5956.48)" fill="#c1977a" stroke="#c1977a" stroke-miterlimit="3" stroke-width="3.4"/>
      <path id="Path_116" data-name="Path 116" d="M187.83,2487.73l1.25-.33c.11,2,.16,4,.44,5.93a3.26,3.26,0,0,0,1.14,2.29,6.273,6.273,0,0,0,2,.82c4.84,1.52,9.63,3,14.48,4.51a13.9,13.9,0,0,1,5.11,2.56,4.856,4.856,0,0,0-2.17.38,15.24,15.24,0,0,0-2.45,1.69,29.463,29.463,0,0,1-10.18,5.5,45.222,45.222,0,0,1-8.87,1.521,39.505,39.505,0,0,1-7.13.16,70.844,70.844,0,0,1-14.65-2.93c-2.45-.71-4.84-1.47-7.29-2.18,2.34-1.47,5.17-1.85,7.78-2.61a17.572,17.572,0,0,0,9.58-6.92,11.66,11.66,0,0,0,2.07-4.84,23.261,23.261,0,0,0,.11-4.79,25.732,25.732,0,0,0,8.78-.76Z" transform="translate(9719 -5956.48)" fill="#d8aa8b" stroke="#d8aa8b" stroke-miterlimit="3" stroke-width="3.4"/>
      <path id="Path_117" data-name="Path 117" d="M150.05,2504.48a16.919,16.919,0,0,1,1.42-1.25,10.75,10.75,0,0,0,.1,1.8,4.631,4.631,0,0,1-1.52-.55Z" transform="translate(9719 -5956.48)" fill="#d8aa8b" stroke="#d8aa8b" stroke-miterlimit="3" stroke-width="3.4"/>
      <path id="Path_118" data-name="Path 118" d="M210,2503.89a4.927,4.927,0,0,1,2.18-.38,9.366,9.366,0,0,1,1.52.59,8.467,8.467,0,0,1,2.56,2.24,14.28,14.28,0,0,1,2.89,6.31,8.36,8.36,0,0,1-.55,5H144.72a13.24,13.24,0,0,1,1.36-7.08,19.431,19.431,0,0,1,4-6,4.844,4.844,0,0,0,1.52.54,14.689,14.689,0,0,0,4.63,9.09,5.16,5.16,0,0,1,0-2.28,7.52,7.52,0,0,1,3.21-4.19c2.45.76,4.85,1.52,7.3,2.17a69.629,69.629,0,0,0,14.64,2.94,37.755,37.755,0,0,0,7.13-.16,43.78,43.78,0,0,0,8.87-1.52,28.788,28.788,0,0,0,10.18-5.5,13.162,13.162,0,0,1,2.44-1.771Z" transform="translate(9719 -5956.48)" fill="#ce57b5" stroke="#ce57b5" stroke-miterlimit="3" stroke-width="3.4"/>
      <path id="Path_119" data-name="Path 119" d="M358.06,2447.54a4.74,4.74,0,0,0-4.69-4.2h-3.59l2.33,4.2Z" transform="translate(9719 -5956.48)" fill="#3f3f3f"/>
      <path id="Path_120" data-name="Path 120" d="M296.18,2450.71h-3.54a1.57,1.57,0,0,1,0-3.14h9.21l7.57-4.2H291.66a4.76,4.76,0,0,0-4.74,4.74v54.21a4.77,4.77,0,0,0,4.74,4.74h61.7a4.76,4.76,0,0,0,4.74-4.74V2486.4H346.56a9.75,9.75,0,0,1-9.73-9.73V2476a9.75,9.75,0,0,1,9.73-9.73H358.1v-15.55Z" transform="translate(9719 -5956.48)" fill="#3f3f3f"/>
      <path id="Path_121" data-name="Path 121" d="M340,2476v.69a6.58,6.58,0,0,0,6.56,6.56H362V2469.4H346.5a6.55,6.55,0,0,0-6.5,6.6Zm11.42.47a7.781,7.781,0,1,1-.02-.04Z" transform="translate(9719 -5956.48)" fill="#3f3f3f"/>
      <path id="Path_122" data-name="Path 122" d="M348.5,2447.54l-8.72-15.67a1.6,1.6,0,0,0-2.14-.62l-29.28,16.29Z" transform="translate(9719 -5956.48)" fill="#3f3f3f"/>
      <path id="Path_123" data-name="Path 123" d="M164.62,2587.18a29.277,29.277,0,0,1,14.41-4.55,31.661,31.661,0,0,1,12.78,2,17.87,17.87,0,0,1,7.89,5.81,19.278,19.278,0,0,1,3.29,8,51.1,51.1,0,0,1,1.09,9.48,43.311,43.311,0,0,1-.22,4.55,34.084,34.084,0,0,1-.6,4.71c-.88,4.22-2.47,8.28-3.67,12.39a1.639,1.639,0,0,0-.17.38,36.609,36.609,0,0,1,.33-7.4c.22-1.7.39-3.4.55-5.1a29.475,29.475,0,0,0,.22-5.31,46.58,46.58,0,0,0-2.9-8.88,1.88,1.88,0,0,0-.83-1.1,24.1,24.1,0,0,0-9.15-2.9,48.141,48.141,0,0,0-9.81-.5,40,40,0,0,0-10.25,1.7,13.151,13.151,0,0,0-3.56,1.76,2.29,2.29,0,0,0-.72,1.15,45.126,45.126,0,0,0-2.79,8.49,7,7,0,0,0-.17,1.59c0,4.61.55,9.21.77,13.87a27.143,27.143,0,0,1,0,4.77.539.539,0,0,1-.16.33c-1.32-4.94-2.31-9.92-3.29-15-.17-.87-.28-1.75-.39-2.63a46.341,46.341,0,0,1,.17-8.33c.22-2.68.22-5.37.44-8a19.54,19.54,0,0,1,5.48-10.09,4.461,4.461,0,0,1,1.26-1.19Z" transform="translate(9719 -5956.48)" fill="#2d1f1f" stroke="#2d1f1f" stroke-miterlimit="3" stroke-width="3.4"/>
      <path id="Path_124" data-name="Path 124" d="M177.88,2598.63a54.609,54.609,0,0,1,9.81.49,24.5,24.5,0,0,1,9.16,2.9,1.929,1.929,0,0,1,.82,1.1,45.424,45.424,0,0,1,2.9,8.88,29.54,29.54,0,0,1-.21,5.32c-.17,1.7-.39,3.39-.55,5.09a41.648,41.648,0,0,0-.33,7.4c.06-.12.11-.25.16-.38,1.21-4.17,2.8-8.17,3.67-12.39a.359.359,0,0,0,.11.22,2.9,2.9,0,0,1,2.14.82,5.89,5.89,0,0,1,1.59,4.22,12.491,12.491,0,0,1-2.36,7.08,8.707,8.707,0,0,1-2.68,2.79,3.162,3.162,0,0,1-1.37.38,28,28,0,0,1-1.1,3.73c.06-.44.17-.93.22-1.37a12.346,12.346,0,0,0-1,1.37,28.34,28.34,0,0,1-10.47,8.72,6.809,6.809,0,0,1-3.73.76,15.286,15.286,0,0,1-2.24-.43c-.66-.17-1.21-.66-1.92-.66s-1.32.6-2,.76a8.107,8.107,0,0,1-2.85.33A14.19,14.19,0,0,1,170,2644a27.923,27.923,0,0,1-8.93-7.561c-.38-1.26-.82-2.58-1.1-3.89a6.569,6.569,0,0,1-3.56-3,13.429,13.429,0,0,1-2.47-6.85,6.05,6.05,0,0,1,1.21-4.22,2.94,2.94,0,0,1,2.63-1.15c.93,5,1.92,10,3.29,15,.06-.11.11-.22.16-.33a27.137,27.137,0,0,0,0-4.77c-.21-4.61-.76-9.21-.76-13.87a7.148,7.148,0,0,1,.16-1.59,46.4,46.4,0,0,1,2.8-8.49,2.919,2.919,0,0,1,.71-1.16,15.918,15.918,0,0,1,3.56-1.75,41.863,41.863,0,0,1,10.18-1.74Z" transform="translate(9719 -5956.48)" fill="#a5663a" stroke="#a5663a" stroke-miterlimit="3" stroke-width="3.4"/>
      <path id="Path_125" data-name="Path 125" d="M198.76,2636.28a16.952,16.952,0,0,1,1-1.37c-.05.44-.16.94-.22,1.37a19.589,19.589,0,0,1-1.42,3.95,8.691,8.691,0,0,1-1.43,2.3,27.924,27.924,0,0,1-6.46,5.76,18.438,18.438,0,0,1-7.29,2.79,17.566,17.566,0,0,1-5.65-.11,16.766,16.766,0,0,1-6.63-3,44.2,44.2,0,0,1-5.81-4.76,18.241,18.241,0,0,1-4.66-7.79c.27.28.49.66.77.93a28.18,28.18,0,0,0,8.93,7.57,15.758,15.758,0,0,0,5.59,1.81,12.474,12.474,0,0,0,2.85-.33c.72-.17,1.26-.77,2-.77s1.26.49,1.91.66a15.674,15.674,0,0,0,2.25.44,6.733,6.733,0,0,0,3.73-.77,28.323,28.323,0,0,0,10.54-8.68Z" transform="translate(9719 -5956.48)" fill="#2d1f1f" stroke="#2d1f1f" stroke-miterlimit="3" stroke-width="3.4"/>
      <path id="Path_126" data-name="Path 126" d="M170.69,2648.07a16.8,16.8,0,0,0,6.64,3,17.581,17.581,0,0,0,12.93-2.68c.11,1,.06,2,.17,3a7.4,7.4,0,0,1-1.7,1.1,27.71,27.71,0,0,1-6.47,2.24,17.206,17.206,0,0,1-3,.11,17.848,17.848,0,0,1-4.06-.93,17.275,17.275,0,0,1-3.61-1.64,7.833,7.833,0,0,1-1-.72,9,9,0,0,1,.06-1.64,10.921,10.921,0,0,1,.04-1.841Z" transform="translate(9719 -5956.48)" fill="#8e5c3a" stroke="#8e5c3a" stroke-miterlimit="3" stroke-width="3.4"/>
      <path id="Path_127" data-name="Path 127" d="M188.73,2652.4a7,7,0,0,0,1.7-1.09,19.867,19.867,0,0,0,.33,3.07,3.42,3.42,0,0,0,2,2.79c.93.33,1.86.61,2.79.93a15.826,15.826,0,0,1-.82,1.65,69.422,69.422,0,0,1-3.95,6.36,30,30,0,0,1-5,5.7,9.781,9.781,0,0,1-4.6,2.35,4.459,4.459,0,0,1-2.91-1,30.051,30.051,0,0,1-5.37-4.83,63.087,63.087,0,0,1-6.36-8.38,11.152,11.152,0,0,1-1-1.92c.88-.27,1.81-.55,2.69-.88a3.33,3.33,0,0,0,2-2.41c.22-1.1.33-2.14.44-3.23a8.649,8.649,0,0,1,1,.71,20.721,20.721,0,0,0,3.62,1.64,21.014,21.014,0,0,0,4.06.94,19.485,19.485,0,0,0,3-.11,28.531,28.531,0,0,0,6.38-2.29Z" transform="translate(9719 -5956.48)" fill="#a5663a" stroke="#a5663a" stroke-miterlimit="3" stroke-width="3.4"/>
      <path id="Path_128" data-name="Path 128" d="M150,2663.09c5.15-1.64,10.3-3.34,15.45-5a17.854,17.854,0,0,0,1,1.92,60.819,60.819,0,0,0,6.35,8.39,30.818,30.818,0,0,0,5.38,4.82,4.749,4.749,0,0,0,2.9,1,9.8,9.8,0,0,0,4.6-2.36,33.366,33.366,0,0,0,5-5.7,59.5,59.5,0,0,0,3.94-6.36c.28-.55.61-1.09.83-1.64,4.82,1.53,9.64,3.12,14.47,4.66,1.15.44,2.35.65,3.5,1a17.4,17.4,0,0,1,10.31,8.6,23.623,23.623,0,0,1,2.41,8.83,7.335,7.335,0,0,1-1.48.05H135.23c-.16,0-.33-.05-.49-.05a24.387,24.387,0,0,1,1.86-7.62,17.54,17.54,0,0,1,9.27-9.21,22,22,0,0,1,4.13-1.33Z" transform="translate(9719 -5956.48)" fill="#9c3" stroke="#9c3" stroke-miterlimit="3" stroke-width="3.4"/>
      <rect id="Rectangle_140" data-name="Rectangle 140" width="90.71" height="35.43" transform="translate(10090.39 -3498.46)" fill="none"/>
      <text id="Tokens:_100-2" data-name="Tokens: 100" transform="translate(10106.36 -3477.14)" font-size="20" font-family="Calibri"><tspan x="0" y="0" letter-spacing="-0.09em">T</tspan><tspan y="0">o</tspan><tspan y="0" letter-spacing="-0.03em">k</tspan><tspan y="0">ens: 100</tspan></text>
      <rect id="Rectangle_141" data-name="Rectangle 141" width="90.71" height="35.43" transform="translate(10090.39 -3328.74)" fill="none"/>
      <text id="Tokens:_0-2" data-name="Tokens: 0" transform="translate(10112.44 -3307.42)" font-size="20" font-family="Calibri"><tspan x="0" y="0" letter-spacing="-0.09em">T</tspan><tspan y="0">o</tspan><tspan y="0" letter-spacing="-0.03em">k</tspan><tspan y="0">ens: 0</tspan></text>
      <path id="Path_129" data-name="Path 129" d="M323,2572.14v-42.38" transform="translate(9719 -5956.48)" fill="none" stroke="#0c0" stroke-linecap="round" stroke-linejoin="round" stroke-width="2.25"/>
      <rect id="Rectangle_144" data-name="Rectangle 144" width="126.14" height="35.43" transform="translate(10047.83 -3422.87)" fill="none"/>
      <text id="Transfer_of_100_Shares" data-name="Transfer of 100 Shares" transform="translate(10056.21 -3401.55)" font-size="20" font-family="Calibri"><tspan x="0" y="0" letter-spacing="-0.06em">T</tspan><tspan y="0" letter-spacing="-0.02em">r</tspan><tspan y="0">an</tspan><tspan y="0" letter-spacing="-0.01em">s</tspan><tspan y="0" letter-spacing="-0.02em">f</tspan><tspan y="0">er of 100 Sha</tspan><tspan y="0" letter-spacing="-0.01em">r</tspan><tspan y="0">es</tspan></text>
      <text id="STEP_1" data-name="STEP 1" transform="translate(9999 -5891)" fill="#707070" font-size="18" font-family="Arial-BoldMT, Arial" font-weight="700"><tspan x="0" y="0">STE</tspan><tspan y="0" letter-spacing="-0.02em">P</tspan><tspan y="0" xml:space="preserve"> 1</tspan></text>
      <text id="STEP_2" data-name="STEP 2" transform="translate(9999 -5341.19)" fill="#707070" font-size="18" font-family="Arial-BoldMT, Arial" font-weight="700"><tspan x="0" y="0">STE</tspan><tspan y="0" letter-spacing="-0.02em">P</tspan><tspan y="0" xml:space="preserve"> 2</tspan></text>
      <text id="STEP_3" data-name="STEP 3" transform="translate(9999 -4774.24)" fill="#707070" font-size="18" font-family="Arial-BoldMT, Arial" font-weight="700"><tspan x="0" y="0">STE</tspan><tspan y="0" letter-spacing="-0.02em">P</tspan><tspan y="0" xml:space="preserve"> 3</tspan></text>
      <text id="STEP_4" data-name="STEP 4" transform="translate(9999 -4185.24)" fill="#707070" font-size="18" font-family="Arial-BoldMT, Arial" font-weight="700"><tspan x="0" y="0">STE</tspan><tspan y="0" letter-spacing="-0.02em">P</tspan><tspan y="0" xml:space="preserve"> 4</tspan></text>
      <text id="STEP_5" data-name="STEP 5" transform="translate(9999 -3661.32)" fill="#707070" font-size="18" font-family="Arial-BoldMT, Arial" font-weight="700"><tspan x="0" y="0">STE</tspan><tspan y="0" letter-spacing="-0.02em">P</tspan><tspan y="0" xml:space="preserve"> 5</tspan></text>
      <rect id="Rectangle_457" data-name="Rectangle 457" width="211" height="160" transform="translate(10136.98 -4473.74)" fill="#fff"/>
      <rect id="Rectangle_458" data-name="Rectangle 458" width="209" height="159" transform="translate(10138.98 -4471.74)" fill="none" stroke="#cf730b" stroke-width="4"/>
      <text id="Note:" transform="translate(10152.98 -4445.74)" fill="#707070" font-size="16" font-family="ArialMT, Arial"><tspan x="0" y="0">Note:</tspan></text>
      <text id="Oracle_s_Public_Key_is_found" data-name="Oracle&apos;s Public Key is found" transform="translate(10152.98 -4419.74)" fill="#707070" font-size="14" font-family="ArialMT, Arial"><tspan x="0" y="0">Oracle&apos;s Public Key is found</tspan></text>
      <text id="in_the_Contract_Formation" data-name="in the Contract Formation" transform="translate(10152.98 -4402.74)" fill="#707070" font-size="14" font-family="ArialMT, Arial"><tspan x="0" y="0">in the Contract Formation</tspan></text>
      <text id="metadata._The_public_key_is" data-name="metadata. The public key is" transform="translate(10152.98 -4385.74)" fill="#707070" font-size="14" font-family="ArialMT, Arial"><tspan x="0" y="0">metadata. The public key is</tspan></text>
      <text id="used_with_the_Message_OSR_" data-name="used with the Message(OSR)" transform="translate(10152.98 -4368.74)" fill="#707070" font-size="14" font-family="ArialMT, Arial"><tspan x="0" y="0">used with the Message(OSR)</tspan></text>
      <text id="to_validate_the_Oracle" data-name="to validate the Oracle" transform="translate(10152.98 -4351.74)" fill="#707070" font-size="14" font-family="ArialMT, Arial"><tspan x="0" y="0">to validate the Oracle</tspan></text>
      <text id="Signature" transform="translate(10152.98 -4334.74)" fill="#707070" font-size="14" font-family="ArialMT, Arial"><tspan x="0" y="0">Signature</tspan></text>
      <rect id="Rectangle_459" data-name="Rectangle 459" width="157" height="105" transform="translate(10260 -3453.74)" fill="#fff"/>
      <rect id="Rectangle_460" data-name="Rectangle 460" width="155" height="101" transform="translate(10262 -3451.74)" fill="none" stroke="#cf730b" stroke-width="4"/>
      <text id="Note:-2" data-name="Note:" transform="translate(10276 -3425.74)" fill="#707070" font-size="16" font-family="ArialMT, Arial"><tspan x="0" y="0">Note:</tspan></text>
      <text id="New_balances_after" data-name="New balances after" transform="translate(10276 -3400.74)" fill="#707070" font-size="14" font-family="ArialMT, Arial"><tspan x="0" y="0">New balances after</tspan></text>
      <text id="settlement." transform="translate(10276 -3383.74)" fill="#707070" font-size="14" font-family="ArialMT, Arial"><tspan x="0" y="0">settlement.</tspan></text>
      <text id="Receiver" transform="translate(9880 -5673.74)" fill="#0070c0" font-size="22" font-family="ArialMT, Arial"><tspan x="0" y="0">Receiver</tspan></text>
      <text id="Sender" transform="translate(9875 -5426.74)" fill="#7030a0" font-size="22" font-family="ArialMT, Arial"><tspan x="0" y="0">Sender</tspan></text>
      <text id="Sender-2" data-name="Sender" transform="translate(9882 -5123.74)" fill="#7030a0" font-size="22" font-family="ArialMT, Arial"><tspan x="0" y="0">Sender</tspan></text>
      <text id="Sender_s_Wallet_Requests_Identity_Oracle_s_Permission_to_Transfer_Tokens_to_Receiver" data-name="Sender&apos;s Wallet Requests Identity Oracle&apos;s Permission to Transfer Tokens to Receiver" transform="translate(9665 -5291.74)" fill="#707070" font-size="18" font-family="Arial-BoldMT, Arial" font-weight="700"><tspan x="0" y="0">Sender&apos;s </tspan><tspan y="0" letter-spacing="-0.04em">W</tspan><tspan y="0">allet Requests Identity Oracle&apos;s Permission to </tspan><tspan y="0" letter-spacing="-0.05em">T</tspan><tspan y="0">ransfer </tspan><tspan y="0" letter-spacing="-0.07em">T</tspan><tspan y="0">okens to Receiver</tspan></text>
      <text id="Receiver_Sends_Payment_Request_to_Sender" data-name="Receiver Sends Payment Request to Sender" transform="translate(9841 -5837.74)" fill="#707070" font-size="18" font-family="Arial-BoldMT, Arial" font-weight="700"><tspan x="0" y="0">Receiver Sends Payment Request to Sender</tspan></text>
      <text id="Sender_s_Wallet_Builds_and_Signs_a_Transaction_with_the_Oracle_Signature_Included" data-name="Sender&apos;s Wallet Builds and Signs a Transaction with the Oracle Signature Included" transform="translate(9678 -4730.74)" fill="#707070" font-size="18" font-family="Arial-BoldMT, Arial" font-weight="700"><tspan x="0" y="0">Sender&apos;s </tspan><tspan y="0" letter-spacing="-0.04em">W</tspan><tspan y="0">allet Builds and Signs a </tspan><tspan y="0" letter-spacing="-0.05em">T</tspan><tspan y="0">ransaction with the Oracle Signature Included</tspan></text>
      <text id="Smart_Contract_Validates_Transfer_Action_and_Responds_with_a_Settlement_Action" data-name="Smart Contract Validates Transfer Action and Responds with a Settlement Action" transform="translate(9685 -4137.74)" fill="#707070" font-size="18" font-family="Arial-BoldMT, Arial" font-weight="700"><tspan x="0" y="0">Smart Contract </tspan><tspan y="0" letter-spacing="-0.05em">V</tspan><tspan y="0">alidates </tspan><tspan y="0" letter-spacing="-0.05em">T</tspan><tspan y="0">ransfer Action and Responds with a Settlement Action</tspan></text>
      <text id="The_Receiver_has_now_Received_100_Tokens_from_the_Sender" data-name="The Receiver has now Received 100 Tokens from the Sender" transform="translate(9771 -3616.74)" fill="#707070" font-size="18" font-family="Arial-BoldMT, Arial" font-weight="700"><tspan x="0" y="0">The Receiver has now Received 100 </tspan><tspan y="0" letter-spacing="-0.07em">T</tspan><tspan y="0">okens from the Sender</tspan></text>
      <text id="Sender-3" data-name="Sender" transform="translate(9866 -3245.74)" fill="#7030a0" font-size="22" font-family="ArialMT, Arial"><tspan x="0" y="0">Sender</tspan></text>
      <text id="Receiver-2" data-name="Receiver" transform="translate(9859 -3409.74)" fill="#0070c0" font-size="22" font-family="ArialMT, Arial"><tspan x="0" y="0">Receiver</tspan></text>
      <line id="Line_180" data-name="Line 180" x2="50" y2="31" transform="translate(10210.5 -3474.24)" fill="none" stroke="#cf730b" stroke-width="1" stroke-dasharray="3"/>
      <line id="Line_181" data-name="Line 181" y1="31" x2="61" transform="translate(10199.5 -3348.24)" fill="none" stroke="#cf730b" stroke-width="1" stroke-dasharray="3"/>
      <text id="Identity_Oracle" data-name="Identity Oracle" transform="translate(9964 -4876.74)" fill="#707070" font-size="22" font-family="ArialMT, Arial"><tspan x="0" y="0">Identity Oracle</tspan></text>
      <text id="Oracle_Signature_Required" data-name="Oracle Signature Required" transform="translate(9682.73 -5073.86)" fill="#707070" font-size="18" font-family="Calibri-Bold, Calibri" font-weight="700"><tspan x="0" y="0">O</tspan><tspan y="0" letter-spacing="-0.02em">r</tspan><tspan y="0">acle Sign</tspan><tspan y="0" letter-spacing="-0.01em">a</tspan><tspan y="0">tu</tspan><tspan y="0" letter-spacing="-0.01em">r</tspan><tspan y="0">e </tspan><tspan y="0" letter-spacing="-0.01em">R</tspan><tspan y="0">equi</tspan><tspan y="0" letter-spacing="-0.01em">r</tspan><tspan y="0">ed</tspan></text>
      <rect id="Rectangle_461" data-name="Rectangle 461" width="628" height="171" transform="translate(9711 -4683.74)" fill="#fcfcfc"/>
      <rect id="Rectangle_462" data-name="Rectangle 462" width="627" height="170" transform="translate(9711.5 -4683.24)" fill="none" stroke="#707070" stroke-width="1"/>
      <text id="Request_Transaction_Transfer_" data-name="Request Transaction (Transfer)" transform="translate(9723 -4650.74)" fill="#707070" font-size="16" font-family="ArialMT, Arial"><tspan x="0" y="0">Request </tspan><tspan y="0" letter-spacing="-0.04em">T</tspan><tspan y="0">ransaction (</tspan><tspan y="0" letter-spacing="-0.04em">T</tspan><tspan y="0">ransfer)</tspan></text>
      <line id="Line_182" data-name="Line 182" y2="97" transform="translate(9911.5 -4623.24)" fill="none" stroke="#707070" stroke-width="1"/>
      <text id="INPUTS" transform="translate(9724 -4610.74)" fill="#707070" font-size="14" font-family="Arial-BoldMT, Arial" font-weight="700"><tspan x="0" y="0">INPUTS</tspan></text>
      <text id="OUTPUTS" transform="translate(9927 -4610.74)" fill="#707070" font-size="14" font-family="Arial-BoldMT, Arial" font-weight="700"><tspan x="0" y="0">OUTPUTS</tspan></text>
      <text id="_0:" data-name="0:" transform="translate(9724 -4590.74)" fill="#707070" font-size="14" font-family="ArialMT, Arial"><tspan x="0" y="0">0:</tspan></text>
      <text id="Sender-4" data-name="Sender" transform="translate(9739.57 -4590.74)" fill="#7030a0" font-size="14" font-family="ArialMT, Arial"><tspan x="0" y="0">Sender</tspan></text>
      <text id="_0:-2" data-name="0:" transform="translate(9927 -4590.74)" fill="#707070" font-size="14" font-family="ArialMT, Arial"><tspan x="0" y="0">0:</tspan></text>
      <text id="Smart_Contract" data-name="Smart Contract" transform="translate(9942.57 -4590.74)" fill="#c00000" font-size="14" font-family="ArialMT, Arial"><tspan x="0" y="0">Smart Contract</tspan></text>
      <text id="_1:" data-name="1:" transform="translate(9927 -4573.74)" fill="#707070" font-size="14" font-family="ArialMT, Arial"><tspan x="0" y="0">1:</tspan></text>
      <text id="Receiver-3" data-name="Receiver" transform="translate(9942.57 -4573.74)" fill="#19e134" font-size="14" font-family="ArialMT, Arial"><tspan x="0" y="0">Receiver</tspan></text>
      <text id="_2:" data-name="2:" transform="translate(9927 -4556.74)" fill="#707070" font-size="14" font-family="ArialMT, Arial"><tspan x="0" y="0">2:</tspan></text>
      <text id="Sender-5" data-name="Sender" transform="translate(9942.57 -4556.74)" fill="#7b1adb" font-size="14" font-family="ArialMT, Arial"><tspan x="0" y="0">Sender</tspan></text>
      <text id="_3:" data-name="3:" transform="translate(9927 -4539.74)" fill="#707070" font-size="14" font-family="ArialMT, Arial"><tspan x="0" y="0">3:</tspan></text>
      <text id="Transfer_Action" data-name="Transfer Action" transform="translate(9942.57 -4539.74)" fill="#707070" font-size="14" font-family="ArialMT, Arial"><tspan x="0" y="0" letter-spacing="-0.04em">T</tspan><tspan y="0">ransfer Action</tspan></text>
      <text id="VALUE" transform="translate(10120 -4610.74)" fill="#707070" font-size="14" font-family="Arial-BoldMT, Arial" font-weight="700"><tspan x="0" y="0" letter-spacing="-0.07em">V</tspan><tspan y="0">ALUE</tspan></text>
      <rect id="Rectangle_463" data-name="Rectangle 463" width="346.5" height="217" transform="translate(9785 -4497.74)" fill="#fcfcfc"/>
      <rect id="Rectangle_464" data-name="Rectangle 464" width="346.5" height="216" transform="translate(9785.5 -4497.24)" fill="none" stroke="#707070" stroke-width="1" stroke-dasharray="3"/>
      <text id="Transfer_Action_Payload" data-name="Transfer Action Payload" transform="translate(9796 -4462.74)" fill="#707070" font-size="16" font-family="ArialMT, Arial"><tspan x="0" y="0" letter-spacing="-0.04em">T</tspan><tspan y="0">ransfer Action Payload</tspan></text>
      <text id="Senders" transform="translate(9811 -4414.74)" fill="#707070" font-size="14" font-family="Arial-BoldMT, Arial" font-weight="700"><tspan x="0" y="0">Senders</tspan></text>
      <text id="Sender-6" data-name="Sender" transform="translate(9811 -4390.74)" fill="#7030a0" font-size="14" font-family="ArialMT, Arial"><tspan x="0" y="0">Sender</tspan></text>
      <text id=":_100_tokens" data-name=": 100 tokens" transform="translate(9856.14 -4390.74)" fill="#707070" font-size="14" font-family="ArialMT, Arial"><tspan x="0" y="0">: 100 tokens</tspan></text>
      <text id="Receivers" transform="translate(9811 -4365.74)" fill="#707070" font-size="14" font-family="Arial-BoldMT, Arial" font-weight="700"><tspan x="0" y="0">Receivers</tspan></text>
      <text id="Receiver-4" data-name="Receiver" transform="translate(9811 -4343.74)" fill="#19e134" font-size="14" font-family="ArialMT, Arial"><tspan x="0" y="0">Receiver</tspan></text>
      <text id=":_100_tokens-2" data-name=": 100 tokens" transform="translate(9866.24 -4343.74)" fill="#707070" font-size="14" font-family="ArialMT, Arial"><tspan x="0" y="0">: 100 tokens</tspan></text>
      <text id="INSTRUMENTID:_SHC1BvBMSEYstWetqTFn5Aum4GJ..." data-name="INSTRUMENTID: SHC1BvBMSEYstWetqTFn5Aum4GJ..." transform="translate(9800 -4435.74)" fill="#707070" font-size="12" font-family="Arial-BoldMT, Arial" font-weight="700"><tspan x="0" y="0">INSTRUMENTID: SHC1BvBMSEYst</tspan><tspan y="0" letter-spacing="-0.02em">W</tspan><tspan y="0">etqTFn5Aum4GJ...</tspan></text>
      <line id="Line_183" data-name="Line 183" y2="84" transform="translate(9801.5 -4423.24)" fill="none" stroke="#707070" stroke-width="1"/>
      <text id="Response_Costs_Contract_Fees" data-name="Response Costs + Contract Fees" transform="translate(10120 -4590.74)" fill="#707070" font-size="14" font-family="ArialMT, Arial"><tspan x="0" y="0">Response Costs + Contract Fees</tspan></text>
      <text id="Dust" transform="translate(10120 -4573.74)" fill="#707070" font-size="14" font-family="ArialMT, Arial"><tspan x="0" y="0">Dust</tspan></text>
      <text id="Bitcoin_Change" data-name="Bitcoin Change" transform="translate(10120 -4556.74)" fill="#707070" font-size="14" font-family="ArialMT, Arial"><tspan x="0" y="0">Bitcoin Change</tspan></text>
      <text id="N_A" data-name="N/A" transform="translate(10120 -4539.74)" fill="#707070" font-size="14" font-family="ArialMT, Arial" letter-spacing="-0.05em"><tspan x="0" y="0">N/</tspan><tspan y="0">A</tspan></text>
      <rect id="Rectangle_465" data-name="Rectangle 465" width="587" height="172" transform="translate(9736 -4080.74)" fill="#fcfcfc"/>
      <rect id="Rectangle_466" data-name="Rectangle 466" width="586" height="171" transform="translate(9736.5 -4080.24)" fill="none" stroke="#707070" stroke-width="1"/>
      <line id="Line_184" data-name="Line 184" y2="85" transform="translate(9936.5 -4025.24)" fill="none" stroke="#707070" stroke-width="1"/>
      <text id="INPUTS-2" data-name="INPUTS" transform="translate(9749 -4012.74)" fill="#707070" font-size="14" font-family="Arial-BoldMT, Arial" font-weight="700"><tspan x="0" y="0">INPUTS</tspan></text>
      <text id="OUTPUTS-2" data-name="OUTPUTS" transform="translate(9952 -4012.74)" fill="#707070" font-size="14" font-family="Arial-BoldMT, Arial" font-weight="700"><tspan x="0" y="0">OUTPUTS</tspan></text>
      <text id="_0:-3" data-name="0:" transform="translate(9749 -3992.74)" fill="#707070" font-size="14" font-family="ArialMT, Arial"><tspan x="0" y="0">0:</tspan></text>
      <text id="Smart_Contract-2" data-name="Smart Contract" transform="translate(9764.57 -3992.74)" fill="#c00000" font-size="14" font-family="ArialMT, Arial"><tspan x="0" y="0">Smart Contract</tspan></text>
      <text id="_0:-4" data-name="0:" transform="translate(9952 -3992.74)" fill="#707070" font-size="14" font-family="ArialMT, Arial"><tspan x="0" y="0">0:</tspan></text>
      <text id="Sender-7" data-name="Sender" transform="translate(9967.57 -3992.74)" fill="#7030a0" font-size="14" font-family="ArialMT, Arial"><tspan x="0" y="0">Sender</tspan></text>
      <text id="_1:-2" data-name="1:" transform="translate(9952 -3975.74)" fill="#707070" font-size="14" font-family="ArialMT, Arial"><tspan x="0" y="0">1:</tspan></text>
      <text id="Receiver-5" data-name="Receiver" transform="translate(9967.57 -3975.74)" fill="#19e134" font-size="14" font-family="ArialMT, Arial"><tspan x="0" y="0">Receiver</tspan></text>
      <text id="_2:_Contract_Operator" data-name="2: Contract Operator" transform="translate(9952 -3958.74)" fill="#707070" font-size="14" font-family="ArialMT, Arial"><tspan x="0" y="0">2: Contract Operator</tspan></text>
      <text id="_3:_Settlement_Action" data-name="3: Settlement Action" transform="translate(9952 -3941.74)" fill="#707070" font-size="14" font-family="ArialMT, Arial"><tspan x="0" y="0">3: Settlement Action</tspan></text>
      <text id="VALUE-2" data-name="VALUE" transform="translate(10125 -4012.74)" fill="#707070" font-size="14" font-family="Arial-BoldMT, Arial" font-weight="700"><tspan x="0" y="0" letter-spacing="-0.07em">V</tspan><tspan y="0">ALUE</tspan></text>
      <text id="Dust-2" data-name="Dust" transform="translate(10125 -3992.74)" fill="#707070" font-size="14" font-family="ArialMT, Arial"><tspan x="0" y="0">Dust</tspan></text>
      <text id="Dust-3" data-name="Dust" transform="translate(10125 -3975.74)" fill="#707070" font-size="14" font-family="ArialMT, Arial"><tspan x="0" y="0">Dust</tspan></text>
      <text id="Contract_Fees" data-name="Contract Fees" transform="translate(10125 -3958.74)" fill="#707070" font-size="14" font-family="ArialMT, Arial"><tspan x="0" y="0">Contract Fees</tspan></text>
      <text id="N_A-2" data-name="N/A" transform="translate(10125 -3941.74)" fill="#707070" font-size="14" font-family="ArialMT, Arial" letter-spacing="-0.05em"><tspan x="0" y="0">N/</tspan><tspan y="0">A</tspan></text>
      <rect id="Rectangle_467" data-name="Rectangle 467" width="331.5" height="152" transform="translate(9859 -3896.74)" fill="#fcfcfc"/>
      <rect id="Rectangle_468" data-name="Rectangle 468" width="330.5" height="151" transform="translate(9859.5 -3896.24)" fill="none" stroke="#707070" stroke-width="1" stroke-dasharray="3"/>
      <text id="Settlement_Action_Payload" data-name="Settlement Action Payload" transform="translate(9871 -3861.74)" fill="#707070" font-size="16" font-family="ArialMT, Arial"><tspan x="0" y="0">Settlement Action Payload</tspan></text>
      <text id="Response_Transaction_Settlement_" data-name="Response Transaction (Settlement)" transform="translate(9748 -4047.74)" fill="#707070" font-size="16" font-family="ArialMT, Arial"><tspan x="0" y="0">Response </tspan><tspan y="0" letter-spacing="-0.04em">T</tspan><tspan y="0">ransaction (Settlement)</tspan></text>
      <text id="Settlements" transform="translate(9884 -3800.74)" fill="#707070" font-size="14" font-family="Arial-BoldMT, Arial" font-weight="700"><tspan x="0" y="0">Settlements</tspan></text>
      <text id="Sender-8" data-name="Sender" transform="translate(9884 -3780.74)" fill="#7030a0" font-size="14" font-family="ArialMT, Arial"><tspan x="0" y="0">Sender</tspan></text>
      <text id=":_0_tokens" data-name=": 0 tokens" transform="translate(9929.14 -3780.74)" fill="#707070" font-size="14" font-family="ArialMT, Arial"><tspan x="0" y="0">: 0 tokens</tspan></text>
      <text id="Receiver-6" data-name="Receiver" transform="translate(9884 -3761.74)" fill="#19e134" font-size="14" font-family="ArialMT, Arial"><tspan x="0" y="0">Receiver</tspan></text>
      <text id=":_100_tokens-3" data-name=": 100 tokens" transform="translate(9939.24 -3761.74)" fill="#707070" font-size="14" font-family="ArialMT, Arial"><tspan x="0" y="0">: 100 tokens</tspan></text>
      <line id="Line_185" data-name="Line 185" y2="60" transform="translate(9874.5 -3816.24)" fill="none" stroke="#707070" stroke-width="1"/>
      <rect id="Rectangle_469" data-name="Rectangle 469" width="98" height="18" transform="translate(9939 -4543.74)" fill="none"/>
      <rect id="Rectangle_470" data-name="Rectangle 470" width="97" height="17" transform="translate(9941.5 -4553.24)" fill="none" stroke="#707070" stroke-width="1" stroke-dasharray="3"/>
      <line id="Line_186" data-name="Line 186" y2="36" transform="translate(9989.5 -4533.24)" fill="none" stroke="#707070" stroke-width="1" stroke-dasharray="3"/>
      <rect id="Rectangle_471" data-name="Rectangle 471" width="117" height="18" transform="translate(9967 -3945.74)" fill="none"/>
      <rect id="Rectangle_472" data-name="Rectangle 472" width="116" height="17" transform="translate(9965.5 -3955.24)" fill="none" stroke="#707070" stroke-width="1" stroke-dasharray="3"/>
      <line id="Line_187" data-name="Line 187" y2="41" transform="translate(10025.5 -3937.24)" fill="none" stroke="#707070" stroke-width="1" stroke-dasharray="3"/>
      <text id="INSTRUMENTID:" transform="translate(9871 -3838.74)" fill="#707070" font-size="12" font-family="Arial-BoldMT, Arial" font-weight="700"><tspan x="0" y="0">INSTRUMENTID:</tspan></text>
      <text id="SHC1BvBMSEYstWetqTFn5Au4m4GFg7xJ..." transform="translate(9871 -3822.74)" fill="#707070" font-size="12" font-family="Arial-BoldMT, Arial" font-weight="700"><tspan x="0" y="0">SHC1BvBMSEYst</tspan><tspan y="0" letter-spacing="-0.02em">W</tspan><tspan y="0">etqTFn5Au4m4GFg7xJ...</tspan></text>
      <text id="ORACLE_SIGNATURE:" data-name="ORACLE SIGNATURE:" transform="translate(9800 -4323.74)" fill="#707070" font-size="12" font-family="Arial-BoldMT, Arial" font-weight="700"><tspan x="0" y="0">ORACLE SIGN</tspan><tspan y="0" letter-spacing="-0.07em">A</tspan><tspan y="0">TURE:</tspan></text>
      <text id="OracleSignature_2" data-name="OracleSignature(" transform="translate(9931.12 -4323.74)" fill="#707070" font-size="12" font-family="ArialMT, Arial"><tspan x="0" y="0">OracleSignature(</tspan></text>
      <text id="Message_OSR_3" data-name="Message(OSR)" transform="translate(10021.82 -4323.74)" fill="#ffa23d" font-size="12" font-family="ArialMT, Arial"><tspan x="0" y="0">Message(OSR)</tspan></text>
      <text id="_1_2" data-name="+1)" transform="translate(10104.51 -4323.74)" fill="#707070" font-size="12" font-family="ArialMT, Arial"><tspan x="0" y="0">+1)</tspan></text>
      <text id="RECEIVE_MESSAGE:" data-name="RECEIVE MESSAGE:" transform="translate(9800 -4302.74)" fill="#707070" font-size="12" font-family="Arial-BoldMT, Arial" font-weight="700"><tspan x="0" y="0">RECEIVE MESSAGE:</tspan></text>
      <text id="Message_OSR_4" data-name="Message(OSR)" transform="translate(9923.36 -4302.74)" fill="#ffa23d" font-size="12" font-family="ArialMT, Arial"><tspan x="0" y="0">Message(OSR)</tspan></text>
      <rect id="Rectangle_473" data-name="Rectangle 473" width="318" height="43" transform="translate(9798 -4334.74)" fill="none"/>
      <rect id="Rectangle_474" data-name="Rectangle 474" width="331" height="42" transform="translate(9795.5 -4338.24)" fill="none" stroke="#cf730b" stroke-width="1" stroke-dasharray="3"/>
      <line id="Line_188" data-name="Line 188" x2="111" y2="0.26" transform="translate(10126.5 -4299.5)" fill="none" stroke="#cf730b" stroke-width="1" stroke-dasharray="3"/>
      <path id="Path_60" data-name="Path 60" d="M407.53,345l-5.2-5.2a1.33,1.33,0,0,0-1-.4,1.3,1.3,0,0,0-1,.4l-.8.8a1.38,1.38,0,0,0,0,1.94l7,7a1.38,1.38,0,0,0,1.94,0l7-7a1.38,1.38,0,0,0,0-1.94l-.8-.8a1.36,1.36,0,0,0-1.93,0Z" transform="translate(9627 -5906.48)"/>
      <path id="Path_60-2" data-name="Path 60-2" d="M396.53,915l-5.2-5.2a1.33,1.33,0,0,0-1-.4,1.3,1.3,0,0,0-1,.4l-.8.8a1.38,1.38,0,0,0,0,1.94l7,7a1.38,1.38,0,0,0,1.94,0l7-7a1.38,1.38,0,0,0,0-1.94l-.8-.8a1.36,1.36,0,0,0-1.93,0Z" transform="translate(9627 -5906.48)"/>
      <path id="Path_60-3" data-name="Path 60-3" d="M419.5,783.53l5.2,5.2a1.36,1.36,0,0,0,1.93,0l.8-.8a1.38,1.38,0,0,0,0-1.94l-6.95-7a1.38,1.38,0,0,0-1.94,0l-7,7a1.37,1.37,0,0,0,0,1.93l.8.8a1.26,1.26,0,0,0,1,.4,1.33,1.33,0,0,0,1-.4Z" transform="translate(9627 -5906.48)"/>
      <path id="Path_67-2" data-name="Path 67-2" d="M419.36,780.05V915.39" transform="translate(9627 -5906.48)" fill="none" stroke="#000" stroke-linecap="round" stroke-linejoin="round" stroke-width="1.5"/>
      <path id="Path_60-4" data-name="Path 60-4" d="M323.33,2530.29l-5.2,5.2a1.39,1.39,0,0,1-1.93,0l-.8-.8a1.38,1.38,0,0,1,0-1.94l7-7a1.38,1.38,0,0,1,1.94,0l7,7a1.37,1.37,0,0,1,0,1.93l-.8.8a1.29,1.29,0,0,1-1,.4,1.311,1.311,0,0,1-1-.4Z" transform="translate(9719 -5956.48)" fill="#0c0"/>
      <line id="Line_188-2" data-name="Line 188" y2="13" transform="translate(10237 -4312.5)" fill="none" stroke="#cf730b" stroke-width="1" stroke-dasharray="3"/>
    </g>
  </g>
</svg>
