<svg id="turnstiles" xmlns="http://www.w3.org/2000/svg" width="123.26" height="123.26" viewBox="0 0 123.26 123.26">
  <g id="Group_111" data-name="Group 111">
    <rect id="Rectangle_448" data-name="Rectangle 448" width="15.904" height="3.976" transform="translate(7.952 95.427)"/>
    <rect id="Rectangle_449" data-name="Rectangle 449" width="3.976" height="3.976" transform="translate(19.881 103.379)"/>
    <rect id="Rectangle_450" data-name="Rectangle 450" width="7.952" height="3.976" transform="translate(7.952 103.379)"/>
    <path id="Path_216" data-name="Path 216" d="M39.952,207.9A7.952,7.952,0,1,0,32,199.952,7.96,7.96,0,0,0,39.952,207.9Zm0-11.928a3.976,3.976,0,1,1-3.976,3.976A3.98,3.98,0,0,1,39.952,195.976Z" transform="translate(-24.048 -144.287)"/>
    <path id="Path_217" data-name="Path 217" d="M117.3,0H97.415a5.971,5.971,0,0,0-5.964,5.964L90.98,21.21c-15.207.575-12.951,7.447-12.939,7.462H42.916s4.1-6.886-11.107-7.462V5.964A5.971,5.971,0,0,0,25.845,0H5.964A5.971,5.971,0,0,0,0,5.964v117.3H31.809V74.314L42.916,28.672H78.041l13.41,45.642V123.26H123.26V5.964A5.971,5.971,0,0,0,117.3,0ZM27.833,119.284H3.976v-3.976H27.833Zm0-7.952H3.976v-99.4H27.833Zm0-103.379H3.976V5.964A1.99,1.99,0,0,1,5.964,3.976H25.845a1.99,1.99,0,0,1,1.988,1.988ZM39.018,30.634,31.809,59.741v-35.1c13.783.565-.1-.36,4.7.328a4.977,4.977,0,0,1,3.256,2.222C39.8,27.234,39.018,30.634,39.018,30.634ZM91.451,59.741,83.334,31.406c-1.09-4.234,0-.016-1.078-4.216.066-1.565,4.332-2.347,4.332-2.347l4.863-.2Zm27.833,51.59h-3.976v3.976h3.976v3.976H95.427v-3.976h15.9v-3.976h-15.9v-99.4h23.857Zm0-103.379H95.427V5.964a1.99,1.99,0,0,1,1.988-1.988H117.3a1.99,1.99,0,0,1,1.988,1.988Z"/>
    <rect id="Rectangle_451" data-name="Rectangle 451" width="15.904" height="3.976" transform="translate(99.403 95.427)"/>
    <rect id="Rectangle_452" data-name="Rectangle 452" width="7.952" height="3.976" transform="translate(99.403 103.379)"/>
    <rect id="Rectangle_453" data-name="Rectangle 453" width="3.976" height="3.976" transform="translate(111.331 103.379)"/>
    <path id="Path_218" data-name="Path 218" d="M407.952,207.9A7.952,7.952,0,1,0,400,199.952,7.96,7.96,0,0,0,407.952,207.9Zm0-11.928a3.976,3.976,0,1,1-3.976,3.976A3.98,3.98,0,0,1,407.952,195.976Z" transform="translate(-300.597 -144.287)"/>
  </g>
</svg>
