<svg id="turnstiles" xmlns="http://www.w3.org/2000/svg" width="123.26" height="123.26" viewBox="0 0 123.26 123.26">
  <g id="Group_112" data-name="Group 112">
    <g id="Group_111" data-name="Group 111">
      <rect id="Rectangle_448" data-name="Rectangle 448" width="15.904" height="3.976" transform="translate(7.952 95.427)"/>
      <rect id="Rectangle_449" data-name="Rectangle 449" width="3.976" height="3.976" transform="translate(19.881 103.379)"/>
      <rect id="Rectangle_450" data-name="Rectangle 450" width="7.952" height="3.976" transform="translate(7.952 103.379)"/>
      <path id="Path_216" data-name="Path 216" d="M39.952,207.9A7.952,7.952,0,1,0,32,199.952,7.96,7.96,0,0,0,39.952,207.9Zm0-11.928a3.976,3.976,0,1,1-3.976,3.976A3.98,3.98,0,0,1,39.952,195.976Z" transform="translate(-24.048 -144.287)"/>
      <path id="Path_217" data-name="Path 217" d="M117.3,0H97.415a5.971,5.971,0,0,0-5.964,5.964v10c-15.207.575-24.594,7.582-28.91,11.843a9.729,9.729,0,0,0-.911,1.1,9.729,9.729,0,0,0-.911-1.1c-4.316-4.258-13.7-11.266-28.91-11.843v-10A5.971,5.971,0,0,0,25.845,0H5.964A5.971,5.971,0,0,0,0,5.964v117.3H31.809V74.314L61.133,41.326c.187-.211.33-.451.5-.676.167.225.31.465.5.676L91.451,74.314V123.26H123.26V5.964A5.971,5.971,0,0,0,117.3,0ZM27.833,119.284H3.976v-3.976H27.833Zm0-7.952H3.976v-99.4H27.833Zm0-103.379H3.976V5.964A1.99,1.99,0,0,1,5.964,3.976H25.845a1.99,1.99,0,0,1,1.988,1.988ZM58.159,38.686,31.809,68.33V19.936c13.783.565,22.232,6.863,26.117,10.7a5.79,5.79,0,0,1,1.716,4.153A5.86,5.86,0,0,1,58.159,38.686ZM91.451,68.33,65.1,38.686a5.86,5.86,0,0,1-1.483-3.9,5.79,5.79,0,0,1,1.716-4.153C69.218,26.8,77.666,20.5,91.451,19.936Zm27.833,43h-3.976v3.976h3.976v3.976H95.427v-3.976h15.9v-3.976h-15.9v-99.4h23.857Zm0-103.379H95.427V5.964a1.99,1.99,0,0,1,1.988-1.988H117.3a1.99,1.99,0,0,1,1.988,1.988Z"/>
      <rect id="Rectangle_451" data-name="Rectangle 451" width="15.904" height="3.976" transform="translate(99.403 95.427)"/>
      <rect id="Rectangle_452" data-name="Rectangle 452" width="7.952" height="3.976" transform="translate(99.403 103.379)"/>
      <rect id="Rectangle_453" data-name="Rectangle 453" width="3.976" height="3.976" transform="translate(111.331 103.379)"/>
      <path id="Path_218" data-name="Path 218" d="M407.952,207.9A7.952,7.952,0,1,0,400,199.952,7.96,7.96,0,0,0,407.952,207.9Zm0-11.928a3.976,3.976,0,1,1-3.976,3.976A3.98,3.98,0,0,1,407.952,195.976Z" transform="translate(-300.597 -144.287)"/>
    </g>
  </g>
</svg>
